%TF.GenerationSoftware,KiCad,Pcbnew,9.0.1*%
%TF.CreationDate,2025-04-18T15:20:57+02:00*%
%TF.ProjectId,random_sampler,72616e64-6f6d-45f7-9361-6d706c65722e,rev?*%
%TF.SameCoordinates,Original*%
%TF.FileFunction,Soldermask,Bot*%
%TF.FilePolarity,Negative*%
%FSLAX46Y46*%
G04 Gerber Fmt 4.6, Leading zero omitted, Abs format (unit mm)*
G04 Created by KiCad (PCBNEW 9.0.1) date 2025-04-18 15:20:57*
%MOMM*%
%LPD*%
G01*
G04 APERTURE LIST*
%ADD10R,1.700000X1.700000*%
%ADD11C,1.700000*%
%ADD12C,2.000000*%
%ADD13C,3.200000*%
%ADD14C,1.000000*%
%ADD15C,2.370000*%
%ADD16C,1.959000*%
G04 APERTURE END LIST*
D10*
%TO.C,J2*%
X5500000Y-19775000D03*
D11*
X5500000Y-22315000D03*
%TD*%
D12*
%TO.C,TP15*%
X64500000Y-60000000D03*
%TD*%
%TO.C,TP17*%
X61000000Y-60000000D03*
%TD*%
%TO.C,TP11*%
X57500000Y-5000000D03*
%TD*%
%TO.C,TP1*%
X12000000Y-60000000D03*
%TD*%
D13*
%TO.C,H4*%
X5000000Y-60000000D03*
%TD*%
D12*
%TO.C,TP12*%
X64500000Y-5000000D03*
%TD*%
D14*
%TO.C,J1*%
X75950000Y-24950000D03*
X75950000Y-16950000D03*
%TD*%
D13*
%TO.C,H5*%
X40000000Y-60000000D03*
%TD*%
D12*
%TO.C,TP19*%
X68000000Y-60000000D03*
%TD*%
%TO.C,TP6*%
X26000000Y-60000000D03*
%TD*%
%TO.C,TP13*%
X61000000Y-5000000D03*
%TD*%
%TO.C,TP10*%
X54000000Y-5000000D03*
%TD*%
%TO.C,TP14*%
X54000000Y-60000000D03*
%TD*%
%TO.C,TP9*%
X50500000Y-5000000D03*
%TD*%
%TO.C,TP7*%
X47000000Y-60000000D03*
%TD*%
%TO.C,TP4*%
X22500000Y-60000000D03*
%TD*%
%TO.C,TP8*%
X50500000Y-60000000D03*
%TD*%
D10*
%TO.C,J4*%
X71100000Y-35800000D03*
D11*
X71100000Y-33260000D03*
%TD*%
D10*
%TO.C,SW2*%
X5500000Y-48000000D03*
D11*
X5500000Y-45460000D03*
X5500000Y-42920000D03*
%TD*%
D12*
%TO.C,TP20*%
X29500000Y-60000000D03*
%TD*%
%TO.C,TP2*%
X15500000Y-60000000D03*
%TD*%
D13*
%TO.C,H2*%
X40000000Y-5000000D03*
%TD*%
%TO.C,H6*%
X75000000Y-60000000D03*
%TD*%
%TO.C,H3*%
X75000000Y-5000000D03*
%TD*%
D12*
%TO.C,TP18*%
X33000000Y-60000000D03*
%TD*%
%TO.C,TP21*%
X47000000Y-5000000D03*
%TD*%
D13*
%TO.C,H1*%
X5000000Y-5000000D03*
%TD*%
D12*
%TO.C,TP3*%
X19000000Y-60000000D03*
%TD*%
%TO.C,TP16*%
X57500000Y-60000000D03*
%TD*%
D10*
%TO.C,J3*%
X71100000Y-53040000D03*
D11*
X71100000Y-50500000D03*
%TD*%
D12*
%TO.C,TP5*%
X68000000Y-5000000D03*
%TD*%
D15*
%TO.C,BT1*%
X39750000Y-46500000D03*
X39750000Y-16500000D03*
D16*
X13680000Y-48000000D03*
X13680000Y-35200000D03*
%TD*%
M02*
