%TF.GenerationSoftware,KiCad,Pcbnew,9.0.1*%
%TF.CreationDate,2025-04-18T15:20:57+02:00*%
%TF.ProjectId,random_sampler,72616e64-6f6d-45f7-9361-6d706c65722e,rev?*%
%TF.SameCoordinates,Original*%
%TF.FileFunction,Legend,Top*%
%TF.FilePolarity,Positive*%
%FSLAX46Y46*%
G04 Gerber Fmt 4.6, Leading zero omitted, Abs format (unit mm)*
G04 Created by KiCad (PCBNEW 9.0.1) date 2025-04-18 15:20:57*
%MOMM*%
%LPD*%
G01*
G04 APERTURE LIST*
G04 Aperture macros list*
%AMRoundRect*
0 Rectangle with rounded corners*
0 $1 Rounding radius*
0 $2 $3 $4 $5 $6 $7 $8 $9 X,Y pos of 4 corners*
0 Add a 4 corners polygon primitive as box body*
4,1,4,$2,$3,$4,$5,$6,$7,$8,$9,$2,$3,0*
0 Add four circle primitives for the rounded corners*
1,1,$1+$1,$2,$3*
1,1,$1+$1,$4,$5*
1,1,$1+$1,$6,$7*
1,1,$1+$1,$8,$9*
0 Add four rect primitives between the rounded corners*
20,1,$1+$1,$2,$3,$4,$5,0*
20,1,$1+$1,$4,$5,$6,$7,0*
20,1,$1+$1,$6,$7,$8,$9,0*
20,1,$1+$1,$8,$9,$2,$3,0*%
G04 Aperture macros list end*
%ADD10C,0.125000*%
%ADD11C,0.150000*%
%ADD12C,0.120000*%
%ADD13C,0.127000*%
%ADD14C,0.200000*%
%ADD15C,0.152400*%
%ADD16RoundRect,0.250000X-0.337500X-0.475000X0.337500X-0.475000X0.337500X0.475000X-0.337500X0.475000X0*%
%ADD17R,1.397000X0.406400*%
%ADD18R,0.508000X0.304800*%
%ADD19RoundRect,0.250000X0.337500X0.475000X-0.337500X0.475000X-0.337500X-0.475000X0.337500X-0.475000X0*%
%ADD20R,1.700000X1.700000*%
%ADD21C,1.700000*%
%ADD22C,2.000000*%
%ADD23RoundRect,0.250000X0.450000X-0.350000X0.450000X0.350000X-0.450000X0.350000X-0.450000X-0.350000X0*%
%ADD24RoundRect,0.250000X0.475000X-0.337500X0.475000X0.337500X-0.475000X0.337500X-0.475000X-0.337500X0*%
%ADD25RoundRect,0.250000X-0.450000X0.325000X-0.450000X-0.325000X0.450000X-0.325000X0.450000X0.325000X0*%
%ADD26RoundRect,0.250000X-0.475000X0.337500X-0.475000X-0.337500X0.475000X-0.337500X0.475000X0.337500X0*%
%ADD27C,3.200000*%
%ADD28C,1.000000*%
%ADD29RoundRect,0.102000X0.800000X-0.350000X0.800000X0.350000X-0.800000X0.350000X-0.800000X-0.350000X0*%
%ADD30RoundRect,0.102000X0.900000X-0.600000X0.900000X0.600000X-0.900000X0.600000X-0.900000X-0.600000X0*%
%ADD31RoundRect,0.102000X0.750000X-0.800000X0.750000X0.800000X-0.750000X0.800000X-0.750000X-0.800000X0*%
%ADD32RoundRect,0.102000X1.100000X-0.600000X1.100000X0.600000X-1.100000X0.600000X-1.100000X-0.600000X0*%
%ADD33RoundRect,0.062500X-0.062500X0.375000X-0.062500X-0.375000X0.062500X-0.375000X0.062500X0.375000X0*%
%ADD34RoundRect,0.062500X-0.375000X0.062500X-0.375000X-0.062500X0.375000X-0.062500X0.375000X0.062500X0*%
%ADD35R,2.600000X2.600000*%
%ADD36RoundRect,0.250000X-0.450000X0.350000X-0.450000X-0.350000X0.450000X-0.350000X0.450000X0.350000X0*%
%ADD37RoundRect,0.150000X0.512500X0.150000X-0.512500X0.150000X-0.512500X-0.150000X0.512500X-0.150000X0*%
%ADD38RoundRect,0.150000X-0.512500X-0.150000X0.512500X-0.150000X0.512500X0.150000X-0.512500X0.150000X0*%
%ADD39RoundRect,0.250000X-0.350000X-0.450000X0.350000X-0.450000X0.350000X0.450000X-0.350000X0.450000X0*%
%ADD40RoundRect,0.250000X0.350000X0.450000X-0.350000X0.450000X-0.350000X-0.450000X0.350000X-0.450000X0*%
%ADD41RoundRect,0.150000X0.150000X-0.512500X0.150000X0.512500X-0.150000X0.512500X-0.150000X-0.512500X0*%
%ADD42RoundRect,0.062500X0.337500X0.062500X-0.337500X0.062500X-0.337500X-0.062500X0.337500X-0.062500X0*%
%ADD43RoundRect,0.062500X0.062500X0.337500X-0.062500X0.337500X-0.062500X-0.337500X0.062500X-0.337500X0*%
%ADD44R,3.700000X3.700000*%
%ADD45RoundRect,0.102000X0.425000X0.375000X-0.425000X0.375000X-0.425000X-0.375000X0.425000X-0.375000X0*%
%ADD46R,0.952500X0.558800*%
%ADD47C,2.370000*%
%ADD48C,1.959000*%
G04 APERTURE END LIST*
D10*
X57176500Y-61696521D02*
X57128880Y-61782236D01*
X57128880Y-61782236D02*
X57128880Y-61925093D01*
X57128880Y-61925093D02*
X57176500Y-61982236D01*
X57176500Y-61982236D02*
X57224119Y-62010807D01*
X57224119Y-62010807D02*
X57319357Y-62039378D01*
X57319357Y-62039378D02*
X57414595Y-62039378D01*
X57414595Y-62039378D02*
X57509833Y-62010807D01*
X57509833Y-62010807D02*
X57557452Y-61982236D01*
X57557452Y-61982236D02*
X57605071Y-61925093D01*
X57605071Y-61925093D02*
X57652690Y-61810807D01*
X57652690Y-61810807D02*
X57700309Y-61753664D01*
X57700309Y-61753664D02*
X57747928Y-61725093D01*
X57747928Y-61725093D02*
X57843166Y-61696521D01*
X57843166Y-61696521D02*
X57938404Y-61696521D01*
X57938404Y-61696521D02*
X58033642Y-61725093D01*
X58033642Y-61725093D02*
X58081261Y-61753664D01*
X58081261Y-61753664D02*
X58128880Y-61810807D01*
X58128880Y-61810807D02*
X58128880Y-61953664D01*
X58128880Y-61953664D02*
X58081261Y-62039378D01*
X57128880Y-62296522D02*
X58128880Y-62296522D01*
X58128880Y-62296522D02*
X58128880Y-62439379D01*
X58128880Y-62439379D02*
X58081261Y-62525093D01*
X58081261Y-62525093D02*
X57986023Y-62582236D01*
X57986023Y-62582236D02*
X57890785Y-62610807D01*
X57890785Y-62610807D02*
X57700309Y-62639379D01*
X57700309Y-62639379D02*
X57557452Y-62639379D01*
X57557452Y-62639379D02*
X57366976Y-62610807D01*
X57366976Y-62610807D02*
X57271738Y-62582236D01*
X57271738Y-62582236D02*
X57176500Y-62525093D01*
X57176500Y-62525093D02*
X57128880Y-62439379D01*
X57128880Y-62439379D02*
X57128880Y-62296522D01*
X57033642Y-62753665D02*
X57033642Y-63210807D01*
X57128880Y-63353665D02*
X58128880Y-63353665D01*
X58128880Y-63353665D02*
X58128880Y-63496522D01*
X58128880Y-63496522D02*
X58081261Y-63582236D01*
X58081261Y-63582236D02*
X57986023Y-63639379D01*
X57986023Y-63639379D02*
X57890785Y-63667950D01*
X57890785Y-63667950D02*
X57700309Y-63696522D01*
X57700309Y-63696522D02*
X57557452Y-63696522D01*
X57557452Y-63696522D02*
X57366976Y-63667950D01*
X57366976Y-63667950D02*
X57271738Y-63639379D01*
X57271738Y-63639379D02*
X57176500Y-63582236D01*
X57176500Y-63582236D02*
X57128880Y-63496522D01*
X57128880Y-63496522D02*
X57128880Y-63353665D01*
X58128880Y-64067950D02*
X58128880Y-64182236D01*
X58128880Y-64182236D02*
X58081261Y-64239379D01*
X58081261Y-64239379D02*
X57986023Y-64296522D01*
X57986023Y-64296522D02*
X57795547Y-64325093D01*
X57795547Y-64325093D02*
X57462214Y-64325093D01*
X57462214Y-64325093D02*
X57271738Y-64296522D01*
X57271738Y-64296522D02*
X57176500Y-64239379D01*
X57176500Y-64239379D02*
X57128880Y-64182236D01*
X57128880Y-64182236D02*
X57128880Y-64067950D01*
X57128880Y-64067950D02*
X57176500Y-64010808D01*
X57176500Y-64010808D02*
X57271738Y-63953665D01*
X57271738Y-63953665D02*
X57462214Y-63925093D01*
X57462214Y-63925093D02*
X57795547Y-63925093D01*
X57795547Y-63925093D02*
X57986023Y-63953665D01*
X57986023Y-63953665D02*
X58081261Y-64010808D01*
X58081261Y-64010808D02*
X58128880Y-64067950D01*
X60676500Y-772712D02*
X60628880Y-915569D01*
X60628880Y-915569D02*
X60628880Y-1153664D01*
X60628880Y-1153664D02*
X60676500Y-1248902D01*
X60676500Y-1248902D02*
X60724119Y-1296521D01*
X60724119Y-1296521D02*
X60819357Y-1344140D01*
X60819357Y-1344140D02*
X60914595Y-1344140D01*
X60914595Y-1344140D02*
X61009833Y-1296521D01*
X61009833Y-1296521D02*
X61057452Y-1248902D01*
X61057452Y-1248902D02*
X61105071Y-1153664D01*
X61105071Y-1153664D02*
X61152690Y-963188D01*
X61152690Y-963188D02*
X61200309Y-867950D01*
X61200309Y-867950D02*
X61247928Y-820331D01*
X61247928Y-820331D02*
X61343166Y-772712D01*
X61343166Y-772712D02*
X61438404Y-772712D01*
X61438404Y-772712D02*
X61533642Y-820331D01*
X61533642Y-820331D02*
X61581261Y-867950D01*
X61581261Y-867950D02*
X61628880Y-963188D01*
X61628880Y-963188D02*
X61628880Y-1201283D01*
X61628880Y-1201283D02*
X61581261Y-1344140D01*
X60628880Y-1772712D02*
X61628880Y-1772712D01*
X61628880Y-1772712D02*
X61628880Y-2010807D01*
X61628880Y-2010807D02*
X61581261Y-2153664D01*
X61581261Y-2153664D02*
X61486023Y-2248902D01*
X61486023Y-2248902D02*
X61390785Y-2296521D01*
X61390785Y-2296521D02*
X61200309Y-2344140D01*
X61200309Y-2344140D02*
X61057452Y-2344140D01*
X61057452Y-2344140D02*
X60866976Y-2296521D01*
X60866976Y-2296521D02*
X60771738Y-2248902D01*
X60771738Y-2248902D02*
X60676500Y-2153664D01*
X60676500Y-2153664D02*
X60628880Y-2010807D01*
X60628880Y-2010807D02*
X60628880Y-1772712D01*
X60628880Y-2772712D02*
X61628880Y-2772712D01*
X16081261Y-62344140D02*
X16128880Y-62248902D01*
X16128880Y-62248902D02*
X16128880Y-62106045D01*
X16128880Y-62106045D02*
X16081261Y-61963188D01*
X16081261Y-61963188D02*
X15986023Y-61867950D01*
X15986023Y-61867950D02*
X15890785Y-61820331D01*
X15890785Y-61820331D02*
X15700309Y-61772712D01*
X15700309Y-61772712D02*
X15557452Y-61772712D01*
X15557452Y-61772712D02*
X15366976Y-61820331D01*
X15366976Y-61820331D02*
X15271738Y-61867950D01*
X15271738Y-61867950D02*
X15176500Y-61963188D01*
X15176500Y-61963188D02*
X15128880Y-62106045D01*
X15128880Y-62106045D02*
X15128880Y-62201283D01*
X15128880Y-62201283D02*
X15176500Y-62344140D01*
X15176500Y-62344140D02*
X15224119Y-62391759D01*
X15224119Y-62391759D02*
X15557452Y-62391759D01*
X15557452Y-62391759D02*
X15557452Y-62201283D01*
X15128880Y-62820331D02*
X16128880Y-62820331D01*
X16128880Y-62820331D02*
X15128880Y-63391759D01*
X15128880Y-63391759D02*
X16128880Y-63391759D01*
X15128880Y-63867950D02*
X16128880Y-63867950D01*
X16128880Y-63867950D02*
X16128880Y-64106045D01*
X16128880Y-64106045D02*
X16081261Y-64248902D01*
X16081261Y-64248902D02*
X15986023Y-64344140D01*
X15986023Y-64344140D02*
X15890785Y-64391759D01*
X15890785Y-64391759D02*
X15700309Y-64439378D01*
X15700309Y-64439378D02*
X15557452Y-64439378D01*
X15557452Y-64439378D02*
X15366976Y-64391759D01*
X15366976Y-64391759D02*
X15271738Y-64344140D01*
X15271738Y-64344140D02*
X15176500Y-64248902D01*
X15176500Y-64248902D02*
X15128880Y-64106045D01*
X15128880Y-64106045D02*
X15128880Y-63867950D01*
X53676500Y-772712D02*
X53628880Y-915569D01*
X53628880Y-915569D02*
X53628880Y-1153664D01*
X53628880Y-1153664D02*
X53676500Y-1248902D01*
X53676500Y-1248902D02*
X53724119Y-1296521D01*
X53724119Y-1296521D02*
X53819357Y-1344140D01*
X53819357Y-1344140D02*
X53914595Y-1344140D01*
X53914595Y-1344140D02*
X54009833Y-1296521D01*
X54009833Y-1296521D02*
X54057452Y-1248902D01*
X54057452Y-1248902D02*
X54105071Y-1153664D01*
X54105071Y-1153664D02*
X54152690Y-963188D01*
X54152690Y-963188D02*
X54200309Y-867950D01*
X54200309Y-867950D02*
X54247928Y-820331D01*
X54247928Y-820331D02*
X54343166Y-772712D01*
X54343166Y-772712D02*
X54438404Y-772712D01*
X54438404Y-772712D02*
X54533642Y-820331D01*
X54533642Y-820331D02*
X54581261Y-867950D01*
X54581261Y-867950D02*
X54628880Y-963188D01*
X54628880Y-963188D02*
X54628880Y-1201283D01*
X54628880Y-1201283D02*
X54581261Y-1344140D01*
X53628880Y-1772712D02*
X54628880Y-1772712D01*
X54628880Y-1772712D02*
X54628880Y-2010807D01*
X54628880Y-2010807D02*
X54581261Y-2153664D01*
X54581261Y-2153664D02*
X54486023Y-2248902D01*
X54486023Y-2248902D02*
X54390785Y-2296521D01*
X54390785Y-2296521D02*
X54200309Y-2344140D01*
X54200309Y-2344140D02*
X54057452Y-2344140D01*
X54057452Y-2344140D02*
X53866976Y-2296521D01*
X53866976Y-2296521D02*
X53771738Y-2248902D01*
X53771738Y-2248902D02*
X53676500Y-2153664D01*
X53676500Y-2153664D02*
X53628880Y-2010807D01*
X53628880Y-2010807D02*
X53628880Y-1772712D01*
X53914595Y-2725093D02*
X53914595Y-3201283D01*
X53628880Y-2629855D02*
X54628880Y-2963188D01*
X54628880Y-2963188D02*
X53628880Y-3296521D01*
X19581261Y-62344140D02*
X19628880Y-62248902D01*
X19628880Y-62248902D02*
X19628880Y-62106045D01*
X19628880Y-62106045D02*
X19581261Y-61963188D01*
X19581261Y-61963188D02*
X19486023Y-61867950D01*
X19486023Y-61867950D02*
X19390785Y-61820331D01*
X19390785Y-61820331D02*
X19200309Y-61772712D01*
X19200309Y-61772712D02*
X19057452Y-61772712D01*
X19057452Y-61772712D02*
X18866976Y-61820331D01*
X18866976Y-61820331D02*
X18771738Y-61867950D01*
X18771738Y-61867950D02*
X18676500Y-61963188D01*
X18676500Y-61963188D02*
X18628880Y-62106045D01*
X18628880Y-62106045D02*
X18628880Y-62201283D01*
X18628880Y-62201283D02*
X18676500Y-62344140D01*
X18676500Y-62344140D02*
X18724119Y-62391759D01*
X18724119Y-62391759D02*
X19057452Y-62391759D01*
X19057452Y-62391759D02*
X19057452Y-62201283D01*
X18628880Y-62820331D02*
X19628880Y-62820331D01*
X19628880Y-62820331D02*
X18628880Y-63391759D01*
X18628880Y-63391759D02*
X19628880Y-63391759D01*
X18628880Y-63867950D02*
X19628880Y-63867950D01*
X19628880Y-63867950D02*
X19628880Y-64106045D01*
X19628880Y-64106045D02*
X19581261Y-64248902D01*
X19581261Y-64248902D02*
X19486023Y-64344140D01*
X19486023Y-64344140D02*
X19390785Y-64391759D01*
X19390785Y-64391759D02*
X19200309Y-64439378D01*
X19200309Y-64439378D02*
X19057452Y-64439378D01*
X19057452Y-64439378D02*
X18866976Y-64391759D01*
X18866976Y-64391759D02*
X18771738Y-64344140D01*
X18771738Y-64344140D02*
X18676500Y-64248902D01*
X18676500Y-64248902D02*
X18628880Y-64106045D01*
X18628880Y-64106045D02*
X18628880Y-63867950D01*
X50176500Y-772712D02*
X50128880Y-915569D01*
X50128880Y-915569D02*
X50128880Y-1153664D01*
X50128880Y-1153664D02*
X50176500Y-1248902D01*
X50176500Y-1248902D02*
X50224119Y-1296521D01*
X50224119Y-1296521D02*
X50319357Y-1344140D01*
X50319357Y-1344140D02*
X50414595Y-1344140D01*
X50414595Y-1344140D02*
X50509833Y-1296521D01*
X50509833Y-1296521D02*
X50557452Y-1248902D01*
X50557452Y-1248902D02*
X50605071Y-1153664D01*
X50605071Y-1153664D02*
X50652690Y-963188D01*
X50652690Y-963188D02*
X50700309Y-867950D01*
X50700309Y-867950D02*
X50747928Y-820331D01*
X50747928Y-820331D02*
X50843166Y-772712D01*
X50843166Y-772712D02*
X50938404Y-772712D01*
X50938404Y-772712D02*
X51033642Y-820331D01*
X51033642Y-820331D02*
X51081261Y-867950D01*
X51081261Y-867950D02*
X51128880Y-963188D01*
X51128880Y-963188D02*
X51128880Y-1201283D01*
X51128880Y-1201283D02*
X51081261Y-1344140D01*
X50224119Y-2344140D02*
X50176500Y-2296521D01*
X50176500Y-2296521D02*
X50128880Y-2153664D01*
X50128880Y-2153664D02*
X50128880Y-2058426D01*
X50128880Y-2058426D02*
X50176500Y-1915569D01*
X50176500Y-1915569D02*
X50271738Y-1820331D01*
X50271738Y-1820331D02*
X50366976Y-1772712D01*
X50366976Y-1772712D02*
X50557452Y-1725093D01*
X50557452Y-1725093D02*
X50700309Y-1725093D01*
X50700309Y-1725093D02*
X50890785Y-1772712D01*
X50890785Y-1772712D02*
X50986023Y-1820331D01*
X50986023Y-1820331D02*
X51081261Y-1915569D01*
X51081261Y-1915569D02*
X51128880Y-2058426D01*
X51128880Y-2058426D02*
X51128880Y-2153664D01*
X51128880Y-2153664D02*
X51081261Y-2296521D01*
X51081261Y-2296521D02*
X51033642Y-2344140D01*
X50128880Y-3248902D02*
X50128880Y-2772712D01*
X50128880Y-2772712D02*
X51128880Y-2772712D01*
X64176500Y-772712D02*
X64128880Y-915569D01*
X64128880Y-915569D02*
X64128880Y-1153664D01*
X64128880Y-1153664D02*
X64176500Y-1248902D01*
X64176500Y-1248902D02*
X64224119Y-1296521D01*
X64224119Y-1296521D02*
X64319357Y-1344140D01*
X64319357Y-1344140D02*
X64414595Y-1344140D01*
X64414595Y-1344140D02*
X64509833Y-1296521D01*
X64509833Y-1296521D02*
X64557452Y-1248902D01*
X64557452Y-1248902D02*
X64605071Y-1153664D01*
X64605071Y-1153664D02*
X64652690Y-963188D01*
X64652690Y-963188D02*
X64700309Y-867950D01*
X64700309Y-867950D02*
X64747928Y-820331D01*
X64747928Y-820331D02*
X64843166Y-772712D01*
X64843166Y-772712D02*
X64938404Y-772712D01*
X64938404Y-772712D02*
X65033642Y-820331D01*
X65033642Y-820331D02*
X65081261Y-867950D01*
X65081261Y-867950D02*
X65128880Y-963188D01*
X65128880Y-963188D02*
X65128880Y-1201283D01*
X65128880Y-1201283D02*
X65081261Y-1344140D01*
X64224119Y-2344140D02*
X64176500Y-2296521D01*
X64176500Y-2296521D02*
X64128880Y-2153664D01*
X64128880Y-2153664D02*
X64128880Y-2058426D01*
X64128880Y-2058426D02*
X64176500Y-1915569D01*
X64176500Y-1915569D02*
X64271738Y-1820331D01*
X64271738Y-1820331D02*
X64366976Y-1772712D01*
X64366976Y-1772712D02*
X64557452Y-1725093D01*
X64557452Y-1725093D02*
X64700309Y-1725093D01*
X64700309Y-1725093D02*
X64890785Y-1772712D01*
X64890785Y-1772712D02*
X64986023Y-1820331D01*
X64986023Y-1820331D02*
X65081261Y-1915569D01*
X65081261Y-1915569D02*
X65128880Y-2058426D01*
X65128880Y-2058426D02*
X65128880Y-2153664D01*
X65128880Y-2153664D02*
X65081261Y-2296521D01*
X65081261Y-2296521D02*
X65033642Y-2344140D01*
X64128880Y-2772712D02*
X65128880Y-2772712D01*
X64128880Y-3344140D02*
X64700309Y-2915569D01*
X65128880Y-3344140D02*
X64557452Y-2772712D01*
X68628880Y-61653664D02*
X68628880Y-61963188D01*
X68628880Y-61963188D02*
X68247928Y-61796521D01*
X68247928Y-61796521D02*
X68247928Y-61867950D01*
X68247928Y-61867950D02*
X68200309Y-61915569D01*
X68200309Y-61915569D02*
X68152690Y-61939378D01*
X68152690Y-61939378D02*
X68057452Y-61963188D01*
X68057452Y-61963188D02*
X67819357Y-61963188D01*
X67819357Y-61963188D02*
X67724119Y-61939378D01*
X67724119Y-61939378D02*
X67676500Y-61915569D01*
X67676500Y-61915569D02*
X67628880Y-61867950D01*
X67628880Y-61867950D02*
X67628880Y-61725093D01*
X67628880Y-61725093D02*
X67676500Y-61677474D01*
X67676500Y-61677474D02*
X67724119Y-61653664D01*
X68295547Y-62129854D02*
X67628880Y-62248902D01*
X67628880Y-62248902D02*
X68295547Y-62367949D01*
X68628880Y-62510806D02*
X68628880Y-62820330D01*
X68628880Y-62820330D02*
X68247928Y-62653663D01*
X68247928Y-62653663D02*
X68247928Y-62725092D01*
X68247928Y-62725092D02*
X68200309Y-62772711D01*
X68200309Y-62772711D02*
X68152690Y-62796520D01*
X68152690Y-62796520D02*
X68057452Y-62820330D01*
X68057452Y-62820330D02*
X67819357Y-62820330D01*
X67819357Y-62820330D02*
X67724119Y-62796520D01*
X67724119Y-62796520D02*
X67676500Y-62772711D01*
X67676500Y-62772711D02*
X67628880Y-62725092D01*
X67628880Y-62725092D02*
X67628880Y-62582235D01*
X67628880Y-62582235D02*
X67676500Y-62534616D01*
X67676500Y-62534616D02*
X67724119Y-62510806D01*
X67533642Y-62915568D02*
X67533642Y-63296520D01*
X67676500Y-63391758D02*
X67628880Y-63463186D01*
X67628880Y-63463186D02*
X67628880Y-63582234D01*
X67628880Y-63582234D02*
X67676500Y-63629853D01*
X67676500Y-63629853D02*
X67724119Y-63653662D01*
X67724119Y-63653662D02*
X67819357Y-63677472D01*
X67819357Y-63677472D02*
X67914595Y-63677472D01*
X67914595Y-63677472D02*
X68009833Y-63653662D01*
X68009833Y-63653662D02*
X68057452Y-63629853D01*
X68057452Y-63629853D02*
X68105071Y-63582234D01*
X68105071Y-63582234D02*
X68152690Y-63486996D01*
X68152690Y-63486996D02*
X68200309Y-63439377D01*
X68200309Y-63439377D02*
X68247928Y-63415567D01*
X68247928Y-63415567D02*
X68343166Y-63391758D01*
X68343166Y-63391758D02*
X68438404Y-63391758D01*
X68438404Y-63391758D02*
X68533642Y-63415567D01*
X68533642Y-63415567D02*
X68581261Y-63439377D01*
X68581261Y-63439377D02*
X68628880Y-63486996D01*
X68628880Y-63486996D02*
X68628880Y-63606043D01*
X68628880Y-63606043D02*
X68581261Y-63677472D01*
X67628880Y-63891757D02*
X68628880Y-63891757D01*
X68628880Y-63891757D02*
X68628880Y-64010805D01*
X68628880Y-64010805D02*
X68581261Y-64082233D01*
X68581261Y-64082233D02*
X68486023Y-64129852D01*
X68486023Y-64129852D02*
X68390785Y-64153662D01*
X68390785Y-64153662D02*
X68200309Y-64177471D01*
X68200309Y-64177471D02*
X68057452Y-64177471D01*
X68057452Y-64177471D02*
X67866976Y-64153662D01*
X67866976Y-64153662D02*
X67771738Y-64129852D01*
X67771738Y-64129852D02*
X67676500Y-64082233D01*
X67676500Y-64082233D02*
X67628880Y-64010805D01*
X67628880Y-64010805D02*
X67628880Y-63891757D01*
X60676500Y-61696521D02*
X60628880Y-61782236D01*
X60628880Y-61782236D02*
X60628880Y-61925093D01*
X60628880Y-61925093D02*
X60676500Y-61982236D01*
X60676500Y-61982236D02*
X60724119Y-62010807D01*
X60724119Y-62010807D02*
X60819357Y-62039378D01*
X60819357Y-62039378D02*
X60914595Y-62039378D01*
X60914595Y-62039378D02*
X61009833Y-62010807D01*
X61009833Y-62010807D02*
X61057452Y-61982236D01*
X61057452Y-61982236D02*
X61105071Y-61925093D01*
X61105071Y-61925093D02*
X61152690Y-61810807D01*
X61152690Y-61810807D02*
X61200309Y-61753664D01*
X61200309Y-61753664D02*
X61247928Y-61725093D01*
X61247928Y-61725093D02*
X61343166Y-61696521D01*
X61343166Y-61696521D02*
X61438404Y-61696521D01*
X61438404Y-61696521D02*
X61533642Y-61725093D01*
X61533642Y-61725093D02*
X61581261Y-61753664D01*
X61581261Y-61753664D02*
X61628880Y-61810807D01*
X61628880Y-61810807D02*
X61628880Y-61953664D01*
X61628880Y-61953664D02*
X61581261Y-62039378D01*
X60628880Y-62296522D02*
X61628880Y-62296522D01*
X61628880Y-62296522D02*
X61628880Y-62439379D01*
X61628880Y-62439379D02*
X61581261Y-62525093D01*
X61581261Y-62525093D02*
X61486023Y-62582236D01*
X61486023Y-62582236D02*
X61390785Y-62610807D01*
X61390785Y-62610807D02*
X61200309Y-62639379D01*
X61200309Y-62639379D02*
X61057452Y-62639379D01*
X61057452Y-62639379D02*
X60866976Y-62610807D01*
X60866976Y-62610807D02*
X60771738Y-62582236D01*
X60771738Y-62582236D02*
X60676500Y-62525093D01*
X60676500Y-62525093D02*
X60628880Y-62439379D01*
X60628880Y-62439379D02*
X60628880Y-62296522D01*
X60533642Y-62753665D02*
X60533642Y-63210807D01*
X60724119Y-63696522D02*
X60676500Y-63667950D01*
X60676500Y-63667950D02*
X60628880Y-63582236D01*
X60628880Y-63582236D02*
X60628880Y-63525093D01*
X60628880Y-63525093D02*
X60676500Y-63439379D01*
X60676500Y-63439379D02*
X60771738Y-63382236D01*
X60771738Y-63382236D02*
X60866976Y-63353665D01*
X60866976Y-63353665D02*
X61057452Y-63325093D01*
X61057452Y-63325093D02*
X61200309Y-63325093D01*
X61200309Y-63325093D02*
X61390785Y-63353665D01*
X61390785Y-63353665D02*
X61486023Y-63382236D01*
X61486023Y-63382236D02*
X61581261Y-63439379D01*
X61581261Y-63439379D02*
X61628880Y-63525093D01*
X61628880Y-63525093D02*
X61628880Y-63582236D01*
X61628880Y-63582236D02*
X61581261Y-63667950D01*
X61581261Y-63667950D02*
X61533642Y-63696522D01*
X60676500Y-63925093D02*
X60628880Y-64010808D01*
X60628880Y-64010808D02*
X60628880Y-64153665D01*
X60628880Y-64153665D02*
X60676500Y-64210808D01*
X60676500Y-64210808D02*
X60724119Y-64239379D01*
X60724119Y-64239379D02*
X60819357Y-64267950D01*
X60819357Y-64267950D02*
X60914595Y-64267950D01*
X60914595Y-64267950D02*
X61009833Y-64239379D01*
X61009833Y-64239379D02*
X61057452Y-64210808D01*
X61057452Y-64210808D02*
X61105071Y-64153665D01*
X61105071Y-64153665D02*
X61152690Y-64039379D01*
X61152690Y-64039379D02*
X61200309Y-63982236D01*
X61200309Y-63982236D02*
X61247928Y-63953665D01*
X61247928Y-63953665D02*
X61343166Y-63925093D01*
X61343166Y-63925093D02*
X61438404Y-63925093D01*
X61438404Y-63925093D02*
X61533642Y-63953665D01*
X61533642Y-63953665D02*
X61581261Y-63982236D01*
X61581261Y-63982236D02*
X61628880Y-64039379D01*
X61628880Y-64039379D02*
X61628880Y-64182236D01*
X61628880Y-64182236D02*
X61581261Y-64267950D01*
X46628880Y-62715569D02*
X47105071Y-62248902D01*
X46628880Y-61915569D02*
X47628880Y-61915569D01*
X47628880Y-61915569D02*
X47628880Y-62448902D01*
X47628880Y-62448902D02*
X47581261Y-62582236D01*
X47581261Y-62582236D02*
X47533642Y-62648902D01*
X47533642Y-62648902D02*
X47438404Y-62715569D01*
X47438404Y-62715569D02*
X47295547Y-62715569D01*
X47295547Y-62715569D02*
X47200309Y-62648902D01*
X47200309Y-62648902D02*
X47152690Y-62582236D01*
X47152690Y-62582236D02*
X47105071Y-62448902D01*
X47105071Y-62448902D02*
X47105071Y-61915569D01*
X47628880Y-63182236D02*
X46628880Y-64115569D01*
X47628880Y-64115569D02*
X46628880Y-63182236D01*
X53676500Y-61677474D02*
X53628880Y-61748902D01*
X53628880Y-61748902D02*
X53628880Y-61867950D01*
X53628880Y-61867950D02*
X53676500Y-61915569D01*
X53676500Y-61915569D02*
X53724119Y-61939378D01*
X53724119Y-61939378D02*
X53819357Y-61963188D01*
X53819357Y-61963188D02*
X53914595Y-61963188D01*
X53914595Y-61963188D02*
X54009833Y-61939378D01*
X54009833Y-61939378D02*
X54057452Y-61915569D01*
X54057452Y-61915569D02*
X54105071Y-61867950D01*
X54105071Y-61867950D02*
X54152690Y-61772712D01*
X54152690Y-61772712D02*
X54200309Y-61725093D01*
X54200309Y-61725093D02*
X54247928Y-61701283D01*
X54247928Y-61701283D02*
X54343166Y-61677474D01*
X54343166Y-61677474D02*
X54438404Y-61677474D01*
X54438404Y-61677474D02*
X54533642Y-61701283D01*
X54533642Y-61701283D02*
X54581261Y-61725093D01*
X54581261Y-61725093D02*
X54628880Y-61772712D01*
X54628880Y-61772712D02*
X54628880Y-61891759D01*
X54628880Y-61891759D02*
X54581261Y-61963188D01*
X53628880Y-62177473D02*
X54628880Y-62177473D01*
X54628880Y-62177473D02*
X54628880Y-62296521D01*
X54628880Y-62296521D02*
X54581261Y-62367949D01*
X54581261Y-62367949D02*
X54486023Y-62415568D01*
X54486023Y-62415568D02*
X54390785Y-62439378D01*
X54390785Y-62439378D02*
X54200309Y-62463187D01*
X54200309Y-62463187D02*
X54057452Y-62463187D01*
X54057452Y-62463187D02*
X53866976Y-62439378D01*
X53866976Y-62439378D02*
X53771738Y-62415568D01*
X53771738Y-62415568D02*
X53676500Y-62367949D01*
X53676500Y-62367949D02*
X53628880Y-62296521D01*
X53628880Y-62296521D02*
X53628880Y-62177473D01*
X53533642Y-62558426D02*
X53533642Y-62939378D01*
X53724119Y-63344139D02*
X53676500Y-63320330D01*
X53676500Y-63320330D02*
X53628880Y-63248901D01*
X53628880Y-63248901D02*
X53628880Y-63201282D01*
X53628880Y-63201282D02*
X53676500Y-63129854D01*
X53676500Y-63129854D02*
X53771738Y-63082235D01*
X53771738Y-63082235D02*
X53866976Y-63058425D01*
X53866976Y-63058425D02*
X54057452Y-63034616D01*
X54057452Y-63034616D02*
X54200309Y-63034616D01*
X54200309Y-63034616D02*
X54390785Y-63058425D01*
X54390785Y-63058425D02*
X54486023Y-63082235D01*
X54486023Y-63082235D02*
X54581261Y-63129854D01*
X54581261Y-63129854D02*
X54628880Y-63201282D01*
X54628880Y-63201282D02*
X54628880Y-63248901D01*
X54628880Y-63248901D02*
X54581261Y-63320330D01*
X54581261Y-63320330D02*
X54533642Y-63344139D01*
X53628880Y-63796520D02*
X53628880Y-63558425D01*
X53628880Y-63558425D02*
X54628880Y-63558425D01*
X53628880Y-63963187D02*
X54628880Y-63963187D01*
X53628880Y-64248901D02*
X54200309Y-64034616D01*
X54628880Y-64248901D02*
X54057452Y-63963187D01*
X68581261Y-1344140D02*
X68628880Y-1248902D01*
X68628880Y-1248902D02*
X68628880Y-1106045D01*
X68628880Y-1106045D02*
X68581261Y-963188D01*
X68581261Y-963188D02*
X68486023Y-867950D01*
X68486023Y-867950D02*
X68390785Y-820331D01*
X68390785Y-820331D02*
X68200309Y-772712D01*
X68200309Y-772712D02*
X68057452Y-772712D01*
X68057452Y-772712D02*
X67866976Y-820331D01*
X67866976Y-820331D02*
X67771738Y-867950D01*
X67771738Y-867950D02*
X67676500Y-963188D01*
X67676500Y-963188D02*
X67628880Y-1106045D01*
X67628880Y-1106045D02*
X67628880Y-1201283D01*
X67628880Y-1201283D02*
X67676500Y-1344140D01*
X67676500Y-1344140D02*
X67724119Y-1391759D01*
X67724119Y-1391759D02*
X68057452Y-1391759D01*
X68057452Y-1391759D02*
X68057452Y-1201283D01*
X67628880Y-1820331D02*
X68628880Y-1820331D01*
X68628880Y-1820331D02*
X67628880Y-2391759D01*
X67628880Y-2391759D02*
X68628880Y-2391759D01*
X67628880Y-2867950D02*
X68628880Y-2867950D01*
X68628880Y-2867950D02*
X68628880Y-3106045D01*
X68628880Y-3106045D02*
X68581261Y-3248902D01*
X68581261Y-3248902D02*
X68486023Y-3344140D01*
X68486023Y-3344140D02*
X68390785Y-3391759D01*
X68390785Y-3391759D02*
X68200309Y-3439378D01*
X68200309Y-3439378D02*
X68057452Y-3439378D01*
X68057452Y-3439378D02*
X67866976Y-3391759D01*
X67866976Y-3391759D02*
X67771738Y-3344140D01*
X67771738Y-3344140D02*
X67676500Y-3248902D01*
X67676500Y-3248902D02*
X67628880Y-3106045D01*
X67628880Y-3106045D02*
X67628880Y-2867950D01*
X12581261Y-62344140D02*
X12628880Y-62248902D01*
X12628880Y-62248902D02*
X12628880Y-62106045D01*
X12628880Y-62106045D02*
X12581261Y-61963188D01*
X12581261Y-61963188D02*
X12486023Y-61867950D01*
X12486023Y-61867950D02*
X12390785Y-61820331D01*
X12390785Y-61820331D02*
X12200309Y-61772712D01*
X12200309Y-61772712D02*
X12057452Y-61772712D01*
X12057452Y-61772712D02*
X11866976Y-61820331D01*
X11866976Y-61820331D02*
X11771738Y-61867950D01*
X11771738Y-61867950D02*
X11676500Y-61963188D01*
X11676500Y-61963188D02*
X11628880Y-62106045D01*
X11628880Y-62106045D02*
X11628880Y-62201283D01*
X11628880Y-62201283D02*
X11676500Y-62344140D01*
X11676500Y-62344140D02*
X11724119Y-62391759D01*
X11724119Y-62391759D02*
X12057452Y-62391759D01*
X12057452Y-62391759D02*
X12057452Y-62201283D01*
X11628880Y-62820331D02*
X12628880Y-62820331D01*
X12628880Y-62820331D02*
X11628880Y-63391759D01*
X11628880Y-63391759D02*
X12628880Y-63391759D01*
X11628880Y-63867950D02*
X12628880Y-63867950D01*
X12628880Y-63867950D02*
X12628880Y-64106045D01*
X12628880Y-64106045D02*
X12581261Y-64248902D01*
X12581261Y-64248902D02*
X12486023Y-64344140D01*
X12486023Y-64344140D02*
X12390785Y-64391759D01*
X12390785Y-64391759D02*
X12200309Y-64439378D01*
X12200309Y-64439378D02*
X12057452Y-64439378D01*
X12057452Y-64439378D02*
X11866976Y-64391759D01*
X11866976Y-64391759D02*
X11771738Y-64344140D01*
X11771738Y-64344140D02*
X11676500Y-64248902D01*
X11676500Y-64248902D02*
X11628880Y-64106045D01*
X11628880Y-64106045D02*
X11628880Y-63867950D01*
X47628880Y-725093D02*
X47628880Y-1344140D01*
X47628880Y-1344140D02*
X47247928Y-1010807D01*
X47247928Y-1010807D02*
X47247928Y-1153664D01*
X47247928Y-1153664D02*
X47200309Y-1248902D01*
X47200309Y-1248902D02*
X47152690Y-1296521D01*
X47152690Y-1296521D02*
X47057452Y-1344140D01*
X47057452Y-1344140D02*
X46819357Y-1344140D01*
X46819357Y-1344140D02*
X46724119Y-1296521D01*
X46724119Y-1296521D02*
X46676500Y-1248902D01*
X46676500Y-1248902D02*
X46628880Y-1153664D01*
X46628880Y-1153664D02*
X46628880Y-867950D01*
X46628880Y-867950D02*
X46676500Y-772712D01*
X46676500Y-772712D02*
X46724119Y-725093D01*
X47628880Y-1629855D02*
X46628880Y-1963188D01*
X46628880Y-1963188D02*
X47628880Y-2296521D01*
X47628880Y-2534617D02*
X47628880Y-3153664D01*
X47628880Y-3153664D02*
X47247928Y-2820331D01*
X47247928Y-2820331D02*
X47247928Y-2963188D01*
X47247928Y-2963188D02*
X47200309Y-3058426D01*
X47200309Y-3058426D02*
X47152690Y-3106045D01*
X47152690Y-3106045D02*
X47057452Y-3153664D01*
X47057452Y-3153664D02*
X46819357Y-3153664D01*
X46819357Y-3153664D02*
X46724119Y-3106045D01*
X46724119Y-3106045D02*
X46676500Y-3058426D01*
X46676500Y-3058426D02*
X46628880Y-2963188D01*
X46628880Y-2963188D02*
X46628880Y-2677474D01*
X46628880Y-2677474D02*
X46676500Y-2582236D01*
X46676500Y-2582236D02*
X46724119Y-2534617D01*
X64176500Y-61696521D02*
X64128880Y-61782236D01*
X64128880Y-61782236D02*
X64128880Y-61925093D01*
X64128880Y-61925093D02*
X64176500Y-61982236D01*
X64176500Y-61982236D02*
X64224119Y-62010807D01*
X64224119Y-62010807D02*
X64319357Y-62039378D01*
X64319357Y-62039378D02*
X64414595Y-62039378D01*
X64414595Y-62039378D02*
X64509833Y-62010807D01*
X64509833Y-62010807D02*
X64557452Y-61982236D01*
X64557452Y-61982236D02*
X64605071Y-61925093D01*
X64605071Y-61925093D02*
X64652690Y-61810807D01*
X64652690Y-61810807D02*
X64700309Y-61753664D01*
X64700309Y-61753664D02*
X64747928Y-61725093D01*
X64747928Y-61725093D02*
X64843166Y-61696521D01*
X64843166Y-61696521D02*
X64938404Y-61696521D01*
X64938404Y-61696521D02*
X65033642Y-61725093D01*
X65033642Y-61725093D02*
X65081261Y-61753664D01*
X65081261Y-61753664D02*
X65128880Y-61810807D01*
X65128880Y-61810807D02*
X65128880Y-61953664D01*
X65128880Y-61953664D02*
X65081261Y-62039378D01*
X64128880Y-62296522D02*
X65128880Y-62296522D01*
X65128880Y-62296522D02*
X65128880Y-62439379D01*
X65128880Y-62439379D02*
X65081261Y-62525093D01*
X65081261Y-62525093D02*
X64986023Y-62582236D01*
X64986023Y-62582236D02*
X64890785Y-62610807D01*
X64890785Y-62610807D02*
X64700309Y-62639379D01*
X64700309Y-62639379D02*
X64557452Y-62639379D01*
X64557452Y-62639379D02*
X64366976Y-62610807D01*
X64366976Y-62610807D02*
X64271738Y-62582236D01*
X64271738Y-62582236D02*
X64176500Y-62525093D01*
X64176500Y-62525093D02*
X64128880Y-62439379D01*
X64128880Y-62439379D02*
X64128880Y-62296522D01*
X64033642Y-62753665D02*
X64033642Y-63210807D01*
X64128880Y-63353665D02*
X65128880Y-63353665D01*
X65128880Y-63353665D02*
X65128880Y-63496522D01*
X65128880Y-63496522D02*
X65081261Y-63582236D01*
X65081261Y-63582236D02*
X64986023Y-63639379D01*
X64986023Y-63639379D02*
X64890785Y-63667950D01*
X64890785Y-63667950D02*
X64700309Y-63696522D01*
X64700309Y-63696522D02*
X64557452Y-63696522D01*
X64557452Y-63696522D02*
X64366976Y-63667950D01*
X64366976Y-63667950D02*
X64271738Y-63639379D01*
X64271738Y-63639379D02*
X64176500Y-63582236D01*
X64176500Y-63582236D02*
X64128880Y-63496522D01*
X64128880Y-63496522D02*
X64128880Y-63353665D01*
X64128880Y-63953665D02*
X65128880Y-63953665D01*
X51128880Y-61734616D02*
X51128880Y-62648902D01*
X50128880Y-62191759D02*
X51128880Y-62191759D01*
X51128880Y-63029855D02*
X50128880Y-64096522D01*
X51128880Y-64096522D02*
X50128880Y-63029855D01*
X57128880Y-1117950D02*
X57128880Y-760807D01*
X57128880Y-760807D02*
X58128880Y-760807D01*
X57128880Y-1796521D02*
X57605071Y-1546521D01*
X57128880Y-1367950D02*
X58128880Y-1367950D01*
X58128880Y-1367950D02*
X58128880Y-1653664D01*
X58128880Y-1653664D02*
X58081261Y-1725093D01*
X58081261Y-1725093D02*
X58033642Y-1760807D01*
X58033642Y-1760807D02*
X57938404Y-1796521D01*
X57938404Y-1796521D02*
X57795547Y-1796521D01*
X57795547Y-1796521D02*
X57700309Y-1760807D01*
X57700309Y-1760807D02*
X57652690Y-1725093D01*
X57652690Y-1725093D02*
X57605071Y-1653664D01*
X57605071Y-1653664D02*
X57605071Y-1367950D01*
X57224119Y-2546521D02*
X57176500Y-2510807D01*
X57176500Y-2510807D02*
X57128880Y-2403664D01*
X57128880Y-2403664D02*
X57128880Y-2332236D01*
X57128880Y-2332236D02*
X57176500Y-2225093D01*
X57176500Y-2225093D02*
X57271738Y-2153664D01*
X57271738Y-2153664D02*
X57366976Y-2117950D01*
X57366976Y-2117950D02*
X57557452Y-2082236D01*
X57557452Y-2082236D02*
X57700309Y-2082236D01*
X57700309Y-2082236D02*
X57890785Y-2117950D01*
X57890785Y-2117950D02*
X57986023Y-2153664D01*
X57986023Y-2153664D02*
X58081261Y-2225093D01*
X58081261Y-2225093D02*
X58128880Y-2332236D01*
X58128880Y-2332236D02*
X58128880Y-2403664D01*
X58128880Y-2403664D02*
X58081261Y-2510807D01*
X58081261Y-2510807D02*
X58033642Y-2546521D01*
X57128880Y-2867950D02*
X58128880Y-2867950D01*
X57128880Y-3296521D02*
X57700309Y-2975093D01*
X58128880Y-3296521D02*
X57557452Y-2867950D01*
X32628880Y-62344140D02*
X32628880Y-61772712D01*
X32628880Y-62058426D02*
X33628880Y-62058426D01*
X33628880Y-62058426D02*
X33486023Y-61963188D01*
X33486023Y-61963188D02*
X33390785Y-61867950D01*
X33390785Y-61867950D02*
X33343166Y-61772712D01*
X33628880Y-62629855D02*
X32628880Y-62963188D01*
X32628880Y-62963188D02*
X33628880Y-63296521D01*
X33200309Y-63772712D02*
X33247928Y-63677474D01*
X33247928Y-63677474D02*
X33295547Y-63629855D01*
X33295547Y-63629855D02*
X33390785Y-63582236D01*
X33390785Y-63582236D02*
X33438404Y-63582236D01*
X33438404Y-63582236D02*
X33533642Y-63629855D01*
X33533642Y-63629855D02*
X33581261Y-63677474D01*
X33581261Y-63677474D02*
X33628880Y-63772712D01*
X33628880Y-63772712D02*
X33628880Y-63963188D01*
X33628880Y-63963188D02*
X33581261Y-64058426D01*
X33581261Y-64058426D02*
X33533642Y-64106045D01*
X33533642Y-64106045D02*
X33438404Y-64153664D01*
X33438404Y-64153664D02*
X33390785Y-64153664D01*
X33390785Y-64153664D02*
X33295547Y-64106045D01*
X33295547Y-64106045D02*
X33247928Y-64058426D01*
X33247928Y-64058426D02*
X33200309Y-63963188D01*
X33200309Y-63963188D02*
X33200309Y-63772712D01*
X33200309Y-63772712D02*
X33152690Y-63677474D01*
X33152690Y-63677474D02*
X33105071Y-63629855D01*
X33105071Y-63629855D02*
X33009833Y-63582236D01*
X33009833Y-63582236D02*
X32819357Y-63582236D01*
X32819357Y-63582236D02*
X32724119Y-63629855D01*
X32724119Y-63629855D02*
X32676500Y-63677474D01*
X32676500Y-63677474D02*
X32628880Y-63772712D01*
X32628880Y-63772712D02*
X32628880Y-63963188D01*
X32628880Y-63963188D02*
X32676500Y-64058426D01*
X32676500Y-64058426D02*
X32724119Y-64106045D01*
X32724119Y-64106045D02*
X32819357Y-64153664D01*
X32819357Y-64153664D02*
X33009833Y-64153664D01*
X33009833Y-64153664D02*
X33105071Y-64106045D01*
X33105071Y-64106045D02*
X33152690Y-64058426D01*
X33152690Y-64058426D02*
X33200309Y-63963188D01*
X23081261Y-62344140D02*
X23128880Y-62248902D01*
X23128880Y-62248902D02*
X23128880Y-62106045D01*
X23128880Y-62106045D02*
X23081261Y-61963188D01*
X23081261Y-61963188D02*
X22986023Y-61867950D01*
X22986023Y-61867950D02*
X22890785Y-61820331D01*
X22890785Y-61820331D02*
X22700309Y-61772712D01*
X22700309Y-61772712D02*
X22557452Y-61772712D01*
X22557452Y-61772712D02*
X22366976Y-61820331D01*
X22366976Y-61820331D02*
X22271738Y-61867950D01*
X22271738Y-61867950D02*
X22176500Y-61963188D01*
X22176500Y-61963188D02*
X22128880Y-62106045D01*
X22128880Y-62106045D02*
X22128880Y-62201283D01*
X22128880Y-62201283D02*
X22176500Y-62344140D01*
X22176500Y-62344140D02*
X22224119Y-62391759D01*
X22224119Y-62391759D02*
X22557452Y-62391759D01*
X22557452Y-62391759D02*
X22557452Y-62201283D01*
X22128880Y-62820331D02*
X23128880Y-62820331D01*
X23128880Y-62820331D02*
X22128880Y-63391759D01*
X22128880Y-63391759D02*
X23128880Y-63391759D01*
X22128880Y-63867950D02*
X23128880Y-63867950D01*
X23128880Y-63867950D02*
X23128880Y-64106045D01*
X23128880Y-64106045D02*
X23081261Y-64248902D01*
X23081261Y-64248902D02*
X22986023Y-64344140D01*
X22986023Y-64344140D02*
X22890785Y-64391759D01*
X22890785Y-64391759D02*
X22700309Y-64439378D01*
X22700309Y-64439378D02*
X22557452Y-64439378D01*
X22557452Y-64439378D02*
X22366976Y-64391759D01*
X22366976Y-64391759D02*
X22271738Y-64344140D01*
X22271738Y-64344140D02*
X22176500Y-64248902D01*
X22176500Y-64248902D02*
X22128880Y-64106045D01*
X22128880Y-64106045D02*
X22128880Y-63867950D01*
X26152690Y-62153664D02*
X26105071Y-62296521D01*
X26105071Y-62296521D02*
X26057452Y-62344140D01*
X26057452Y-62344140D02*
X25962214Y-62391759D01*
X25962214Y-62391759D02*
X25819357Y-62391759D01*
X25819357Y-62391759D02*
X25724119Y-62344140D01*
X25724119Y-62344140D02*
X25676500Y-62296521D01*
X25676500Y-62296521D02*
X25628880Y-62201283D01*
X25628880Y-62201283D02*
X25628880Y-61820331D01*
X25628880Y-61820331D02*
X26628880Y-61820331D01*
X26628880Y-61820331D02*
X26628880Y-62153664D01*
X26628880Y-62153664D02*
X26581261Y-62248902D01*
X26581261Y-62248902D02*
X26533642Y-62296521D01*
X26533642Y-62296521D02*
X26438404Y-62344140D01*
X26438404Y-62344140D02*
X26343166Y-62344140D01*
X26343166Y-62344140D02*
X26247928Y-62296521D01*
X26247928Y-62296521D02*
X26200309Y-62248902D01*
X26200309Y-62248902D02*
X26152690Y-62153664D01*
X26152690Y-62153664D02*
X26152690Y-61820331D01*
X25914595Y-62772712D02*
X25914595Y-63248902D01*
X25628880Y-62677474D02*
X26628880Y-63010807D01*
X26628880Y-63010807D02*
X25628880Y-63344140D01*
X26628880Y-63534617D02*
X26628880Y-64106045D01*
X25628880Y-63820331D02*
X26628880Y-63820331D01*
X30128880Y-61725093D02*
X30128880Y-62344140D01*
X30128880Y-62344140D02*
X29747928Y-62010807D01*
X29747928Y-62010807D02*
X29747928Y-62153664D01*
X29747928Y-62153664D02*
X29700309Y-62248902D01*
X29700309Y-62248902D02*
X29652690Y-62296521D01*
X29652690Y-62296521D02*
X29557452Y-62344140D01*
X29557452Y-62344140D02*
X29319357Y-62344140D01*
X29319357Y-62344140D02*
X29224119Y-62296521D01*
X29224119Y-62296521D02*
X29176500Y-62248902D01*
X29176500Y-62248902D02*
X29128880Y-62153664D01*
X29128880Y-62153664D02*
X29128880Y-61867950D01*
X29128880Y-61867950D02*
X29176500Y-61772712D01*
X29176500Y-61772712D02*
X29224119Y-61725093D01*
X30128880Y-62629855D02*
X29128880Y-62963188D01*
X29128880Y-62963188D02*
X30128880Y-63296521D01*
X30128880Y-63534617D02*
X30128880Y-64153664D01*
X30128880Y-64153664D02*
X29747928Y-63820331D01*
X29747928Y-63820331D02*
X29747928Y-63963188D01*
X29747928Y-63963188D02*
X29700309Y-64058426D01*
X29700309Y-64058426D02*
X29652690Y-64106045D01*
X29652690Y-64106045D02*
X29557452Y-64153664D01*
X29557452Y-64153664D02*
X29319357Y-64153664D01*
X29319357Y-64153664D02*
X29224119Y-64106045D01*
X29224119Y-64106045D02*
X29176500Y-64058426D01*
X29176500Y-64058426D02*
X29128880Y-63963188D01*
X29128880Y-63963188D02*
X29128880Y-63677474D01*
X29128880Y-63677474D02*
X29176500Y-63582236D01*
X29176500Y-63582236D02*
X29224119Y-63534617D01*
D11*
X57833333Y-50359580D02*
X57785714Y-50407200D01*
X57785714Y-50407200D02*
X57642857Y-50454819D01*
X57642857Y-50454819D02*
X57547619Y-50454819D01*
X57547619Y-50454819D02*
X57404762Y-50407200D01*
X57404762Y-50407200D02*
X57309524Y-50311961D01*
X57309524Y-50311961D02*
X57261905Y-50216723D01*
X57261905Y-50216723D02*
X57214286Y-50026247D01*
X57214286Y-50026247D02*
X57214286Y-49883390D01*
X57214286Y-49883390D02*
X57261905Y-49692914D01*
X57261905Y-49692914D02*
X57309524Y-49597676D01*
X57309524Y-49597676D02*
X57404762Y-49502438D01*
X57404762Y-49502438D02*
X57547619Y-49454819D01*
X57547619Y-49454819D02*
X57642857Y-49454819D01*
X57642857Y-49454819D02*
X57785714Y-49502438D01*
X57785714Y-49502438D02*
X57833333Y-49550057D01*
X58690476Y-49788152D02*
X58690476Y-50454819D01*
X58452381Y-49407200D02*
X58214286Y-50121485D01*
X58214286Y-50121485D02*
X58833333Y-50121485D01*
X59045180Y-38526190D02*
X58045180Y-39192856D01*
X59045180Y-39192856D02*
X58045180Y-38526190D01*
X59045180Y-39430952D02*
X59045180Y-40002380D01*
X58045180Y-39716666D02*
X59045180Y-39716666D01*
X58330895Y-40288095D02*
X58330895Y-40764285D01*
X58045180Y-40192857D02*
X59045180Y-40526190D01*
X59045180Y-40526190D02*
X58045180Y-40859523D01*
X58045180Y-41669047D02*
X58045180Y-41192857D01*
X58045180Y-41192857D02*
X59045180Y-41192857D01*
X58045180Y-42526190D02*
X58045180Y-41954762D01*
X58045180Y-42240476D02*
X59045180Y-42240476D01*
X59045180Y-42240476D02*
X58902323Y-42145238D01*
X58902323Y-42145238D02*
X58807085Y-42050000D01*
X58807085Y-42050000D02*
X58759466Y-41954762D01*
X41333333Y-42589580D02*
X41285714Y-42637200D01*
X41285714Y-42637200D02*
X41142857Y-42684819D01*
X41142857Y-42684819D02*
X41047619Y-42684819D01*
X41047619Y-42684819D02*
X40904762Y-42637200D01*
X40904762Y-42637200D02*
X40809524Y-42541961D01*
X40809524Y-42541961D02*
X40761905Y-42446723D01*
X40761905Y-42446723D02*
X40714286Y-42256247D01*
X40714286Y-42256247D02*
X40714286Y-42113390D01*
X40714286Y-42113390D02*
X40761905Y-41922914D01*
X40761905Y-41922914D02*
X40809524Y-41827676D01*
X40809524Y-41827676D02*
X40904762Y-41732438D01*
X40904762Y-41732438D02*
X41047619Y-41684819D01*
X41047619Y-41684819D02*
X41142857Y-41684819D01*
X41142857Y-41684819D02*
X41285714Y-41732438D01*
X41285714Y-41732438D02*
X41333333Y-41780057D01*
X41714286Y-41780057D02*
X41761905Y-41732438D01*
X41761905Y-41732438D02*
X41857143Y-41684819D01*
X41857143Y-41684819D02*
X42095238Y-41684819D01*
X42095238Y-41684819D02*
X42190476Y-41732438D01*
X42190476Y-41732438D02*
X42238095Y-41780057D01*
X42238095Y-41780057D02*
X42285714Y-41875295D01*
X42285714Y-41875295D02*
X42285714Y-41970533D01*
X42285714Y-41970533D02*
X42238095Y-42113390D01*
X42238095Y-42113390D02*
X41666667Y-42684819D01*
X41666667Y-42684819D02*
X42285714Y-42684819D01*
X5166666Y-16849819D02*
X5166666Y-17564104D01*
X5166666Y-17564104D02*
X5119047Y-17706961D01*
X5119047Y-17706961D02*
X5023809Y-17802200D01*
X5023809Y-17802200D02*
X4880952Y-17849819D01*
X4880952Y-17849819D02*
X4785714Y-17849819D01*
X5595238Y-16945057D02*
X5642857Y-16897438D01*
X5642857Y-16897438D02*
X5738095Y-16849819D01*
X5738095Y-16849819D02*
X5976190Y-16849819D01*
X5976190Y-16849819D02*
X6071428Y-16897438D01*
X6071428Y-16897438D02*
X6119047Y-16945057D01*
X6119047Y-16945057D02*
X6166666Y-17040295D01*
X6166666Y-17040295D02*
X6166666Y-17135533D01*
X6166666Y-17135533D02*
X6119047Y-17278390D01*
X6119047Y-17278390D02*
X5547619Y-17849819D01*
X5547619Y-17849819D02*
X6166666Y-17849819D01*
X63261905Y-57456819D02*
X63833333Y-57456819D01*
X63547619Y-58456819D02*
X63547619Y-57456819D01*
X64166667Y-58456819D02*
X64166667Y-57456819D01*
X64166667Y-57456819D02*
X64547619Y-57456819D01*
X64547619Y-57456819D02*
X64642857Y-57504438D01*
X64642857Y-57504438D02*
X64690476Y-57552057D01*
X64690476Y-57552057D02*
X64738095Y-57647295D01*
X64738095Y-57647295D02*
X64738095Y-57790152D01*
X64738095Y-57790152D02*
X64690476Y-57885390D01*
X64690476Y-57885390D02*
X64642857Y-57933009D01*
X64642857Y-57933009D02*
X64547619Y-57980628D01*
X64547619Y-57980628D02*
X64166667Y-57980628D01*
X65690476Y-58456819D02*
X65119048Y-58456819D01*
X65404762Y-58456819D02*
X65404762Y-57456819D01*
X65404762Y-57456819D02*
X65309524Y-57599676D01*
X65309524Y-57599676D02*
X65214286Y-57694914D01*
X65214286Y-57694914D02*
X65119048Y-57742533D01*
X66595238Y-57456819D02*
X66119048Y-57456819D01*
X66119048Y-57456819D02*
X66071429Y-57933009D01*
X66071429Y-57933009D02*
X66119048Y-57885390D01*
X66119048Y-57885390D02*
X66214286Y-57837771D01*
X66214286Y-57837771D02*
X66452381Y-57837771D01*
X66452381Y-57837771D02*
X66547619Y-57885390D01*
X66547619Y-57885390D02*
X66595238Y-57933009D01*
X66595238Y-57933009D02*
X66642857Y-58028247D01*
X66642857Y-58028247D02*
X66642857Y-58266342D01*
X66642857Y-58266342D02*
X66595238Y-58361580D01*
X66595238Y-58361580D02*
X66547619Y-58409200D01*
X66547619Y-58409200D02*
X66452381Y-58456819D01*
X66452381Y-58456819D02*
X66214286Y-58456819D01*
X66214286Y-58456819D02*
X66119048Y-58409200D01*
X66119048Y-58409200D02*
X66071429Y-58361580D01*
X54833333Y-10454819D02*
X54500000Y-9978628D01*
X54261905Y-10454819D02*
X54261905Y-9454819D01*
X54261905Y-9454819D02*
X54642857Y-9454819D01*
X54642857Y-9454819D02*
X54738095Y-9502438D01*
X54738095Y-9502438D02*
X54785714Y-9550057D01*
X54785714Y-9550057D02*
X54833333Y-9645295D01*
X54833333Y-9645295D02*
X54833333Y-9788152D01*
X54833333Y-9788152D02*
X54785714Y-9883390D01*
X54785714Y-9883390D02*
X54738095Y-9931009D01*
X54738095Y-9931009D02*
X54642857Y-9978628D01*
X54642857Y-9978628D02*
X54261905Y-9978628D01*
X55166667Y-9454819D02*
X55785714Y-9454819D01*
X55785714Y-9454819D02*
X55452381Y-9835771D01*
X55452381Y-9835771D02*
X55595238Y-9835771D01*
X55595238Y-9835771D02*
X55690476Y-9883390D01*
X55690476Y-9883390D02*
X55738095Y-9931009D01*
X55738095Y-9931009D02*
X55785714Y-10026247D01*
X55785714Y-10026247D02*
X55785714Y-10264342D01*
X55785714Y-10264342D02*
X55738095Y-10359580D01*
X55738095Y-10359580D02*
X55690476Y-10407200D01*
X55690476Y-10407200D02*
X55595238Y-10454819D01*
X55595238Y-10454819D02*
X55309524Y-10454819D01*
X55309524Y-10454819D02*
X55214286Y-10407200D01*
X55214286Y-10407200D02*
X55166667Y-10359580D01*
X32359580Y-38605357D02*
X32407200Y-38652976D01*
X32407200Y-38652976D02*
X32454819Y-38795833D01*
X32454819Y-38795833D02*
X32454819Y-38891071D01*
X32454819Y-38891071D02*
X32407200Y-39033928D01*
X32407200Y-39033928D02*
X32311961Y-39129166D01*
X32311961Y-39129166D02*
X32216723Y-39176785D01*
X32216723Y-39176785D02*
X32026247Y-39224404D01*
X32026247Y-39224404D02*
X31883390Y-39224404D01*
X31883390Y-39224404D02*
X31692914Y-39176785D01*
X31692914Y-39176785D02*
X31597676Y-39129166D01*
X31597676Y-39129166D02*
X31502438Y-39033928D01*
X31502438Y-39033928D02*
X31454819Y-38891071D01*
X31454819Y-38891071D02*
X31454819Y-38795833D01*
X31454819Y-38795833D02*
X31502438Y-38652976D01*
X31502438Y-38652976D02*
X31550057Y-38605357D01*
X32454819Y-37652976D02*
X32454819Y-38224404D01*
X32454819Y-37938690D02*
X31454819Y-37938690D01*
X31454819Y-37938690D02*
X31597676Y-38033928D01*
X31597676Y-38033928D02*
X31692914Y-38129166D01*
X31692914Y-38129166D02*
X31740533Y-38224404D01*
X31454819Y-36748214D02*
X31454819Y-37224404D01*
X31454819Y-37224404D02*
X31931009Y-37272023D01*
X31931009Y-37272023D02*
X31883390Y-37224404D01*
X31883390Y-37224404D02*
X31835771Y-37129166D01*
X31835771Y-37129166D02*
X31835771Y-36891071D01*
X31835771Y-36891071D02*
X31883390Y-36795833D01*
X31883390Y-36795833D02*
X31931009Y-36748214D01*
X31931009Y-36748214D02*
X32026247Y-36700595D01*
X32026247Y-36700595D02*
X32264342Y-36700595D01*
X32264342Y-36700595D02*
X32359580Y-36748214D01*
X32359580Y-36748214D02*
X32407200Y-36795833D01*
X32407200Y-36795833D02*
X32454819Y-36891071D01*
X32454819Y-36891071D02*
X32454819Y-37129166D01*
X32454819Y-37129166D02*
X32407200Y-37224404D01*
X32407200Y-37224404D02*
X32359580Y-37272023D01*
X59261905Y-57456819D02*
X59833333Y-57456819D01*
X59547619Y-58456819D02*
X59547619Y-57456819D01*
X60166667Y-58456819D02*
X60166667Y-57456819D01*
X60166667Y-57456819D02*
X60547619Y-57456819D01*
X60547619Y-57456819D02*
X60642857Y-57504438D01*
X60642857Y-57504438D02*
X60690476Y-57552057D01*
X60690476Y-57552057D02*
X60738095Y-57647295D01*
X60738095Y-57647295D02*
X60738095Y-57790152D01*
X60738095Y-57790152D02*
X60690476Y-57885390D01*
X60690476Y-57885390D02*
X60642857Y-57933009D01*
X60642857Y-57933009D02*
X60547619Y-57980628D01*
X60547619Y-57980628D02*
X60166667Y-57980628D01*
X61690476Y-58456819D02*
X61119048Y-58456819D01*
X61404762Y-58456819D02*
X61404762Y-57456819D01*
X61404762Y-57456819D02*
X61309524Y-57599676D01*
X61309524Y-57599676D02*
X61214286Y-57694914D01*
X61214286Y-57694914D02*
X61119048Y-57742533D01*
X62023810Y-57456819D02*
X62690476Y-57456819D01*
X62690476Y-57456819D02*
X62261905Y-58456819D01*
X52604819Y-51641666D02*
X52604819Y-52117856D01*
X52604819Y-52117856D02*
X51604819Y-52117856D01*
X52604819Y-50784523D02*
X52604819Y-51355951D01*
X52604819Y-51070237D02*
X51604819Y-51070237D01*
X51604819Y-51070237D02*
X51747676Y-51165475D01*
X51747676Y-51165475D02*
X51842914Y-51260713D01*
X51842914Y-51260713D02*
X51890533Y-51355951D01*
X55761905Y-6452819D02*
X56333333Y-6452819D01*
X56047619Y-7452819D02*
X56047619Y-6452819D01*
X56666667Y-7452819D02*
X56666667Y-6452819D01*
X56666667Y-6452819D02*
X57047619Y-6452819D01*
X57047619Y-6452819D02*
X57142857Y-6500438D01*
X57142857Y-6500438D02*
X57190476Y-6548057D01*
X57190476Y-6548057D02*
X57238095Y-6643295D01*
X57238095Y-6643295D02*
X57238095Y-6786152D01*
X57238095Y-6786152D02*
X57190476Y-6881390D01*
X57190476Y-6881390D02*
X57142857Y-6929009D01*
X57142857Y-6929009D02*
X57047619Y-6976628D01*
X57047619Y-6976628D02*
X56666667Y-6976628D01*
X58190476Y-7452819D02*
X57619048Y-7452819D01*
X57904762Y-7452819D02*
X57904762Y-6452819D01*
X57904762Y-6452819D02*
X57809524Y-6595676D01*
X57809524Y-6595676D02*
X57714286Y-6690914D01*
X57714286Y-6690914D02*
X57619048Y-6738533D01*
X59142857Y-7452819D02*
X58571429Y-7452819D01*
X58857143Y-7452819D02*
X58857143Y-6452819D01*
X58857143Y-6452819D02*
X58761905Y-6595676D01*
X58761905Y-6595676D02*
X58666667Y-6690914D01*
X58666667Y-6690914D02*
X58571429Y-6738533D01*
X10738095Y-57456819D02*
X11309523Y-57456819D01*
X11023809Y-58456819D02*
X11023809Y-57456819D01*
X11642857Y-58456819D02*
X11642857Y-57456819D01*
X11642857Y-57456819D02*
X12023809Y-57456819D01*
X12023809Y-57456819D02*
X12119047Y-57504438D01*
X12119047Y-57504438D02*
X12166666Y-57552057D01*
X12166666Y-57552057D02*
X12214285Y-57647295D01*
X12214285Y-57647295D02*
X12214285Y-57790152D01*
X12214285Y-57790152D02*
X12166666Y-57885390D01*
X12166666Y-57885390D02*
X12119047Y-57933009D01*
X12119047Y-57933009D02*
X12023809Y-57980628D01*
X12023809Y-57980628D02*
X11642857Y-57980628D01*
X13166666Y-58456819D02*
X12595238Y-58456819D01*
X12880952Y-58456819D02*
X12880952Y-57456819D01*
X12880952Y-57456819D02*
X12785714Y-57599676D01*
X12785714Y-57599676D02*
X12690476Y-57694914D01*
X12690476Y-57694914D02*
X12595238Y-57742533D01*
X37539580Y-28680357D02*
X37587200Y-28727976D01*
X37587200Y-28727976D02*
X37634819Y-28870833D01*
X37634819Y-28870833D02*
X37634819Y-28966071D01*
X37634819Y-28966071D02*
X37587200Y-29108928D01*
X37587200Y-29108928D02*
X37491961Y-29204166D01*
X37491961Y-29204166D02*
X37396723Y-29251785D01*
X37396723Y-29251785D02*
X37206247Y-29299404D01*
X37206247Y-29299404D02*
X37063390Y-29299404D01*
X37063390Y-29299404D02*
X36872914Y-29251785D01*
X36872914Y-29251785D02*
X36777676Y-29204166D01*
X36777676Y-29204166D02*
X36682438Y-29108928D01*
X36682438Y-29108928D02*
X36634819Y-28966071D01*
X36634819Y-28966071D02*
X36634819Y-28870833D01*
X36634819Y-28870833D02*
X36682438Y-28727976D01*
X36682438Y-28727976D02*
X36730057Y-28680357D01*
X37634819Y-27727976D02*
X37634819Y-28299404D01*
X37634819Y-28013690D02*
X36634819Y-28013690D01*
X36634819Y-28013690D02*
X36777676Y-28108928D01*
X36777676Y-28108928D02*
X36872914Y-28204166D01*
X36872914Y-28204166D02*
X36920533Y-28299404D01*
X36634819Y-27394642D02*
X36634819Y-26775595D01*
X36634819Y-26775595D02*
X37015771Y-27108928D01*
X37015771Y-27108928D02*
X37015771Y-26966071D01*
X37015771Y-26966071D02*
X37063390Y-26870833D01*
X37063390Y-26870833D02*
X37111009Y-26823214D01*
X37111009Y-26823214D02*
X37206247Y-26775595D01*
X37206247Y-26775595D02*
X37444342Y-26775595D01*
X37444342Y-26775595D02*
X37539580Y-26823214D01*
X37539580Y-26823214D02*
X37587200Y-26870833D01*
X37587200Y-26870833D02*
X37634819Y-26966071D01*
X37634819Y-26966071D02*
X37634819Y-27251785D01*
X37634819Y-27251785D02*
X37587200Y-27347023D01*
X37587200Y-27347023D02*
X37539580Y-27394642D01*
X57833333Y-10454819D02*
X57500000Y-9978628D01*
X57261905Y-10454819D02*
X57261905Y-9454819D01*
X57261905Y-9454819D02*
X57642857Y-9454819D01*
X57642857Y-9454819D02*
X57738095Y-9502438D01*
X57738095Y-9502438D02*
X57785714Y-9550057D01*
X57785714Y-9550057D02*
X57833333Y-9645295D01*
X57833333Y-9645295D02*
X57833333Y-9788152D01*
X57833333Y-9788152D02*
X57785714Y-9883390D01*
X57785714Y-9883390D02*
X57738095Y-9931009D01*
X57738095Y-9931009D02*
X57642857Y-9978628D01*
X57642857Y-9978628D02*
X57261905Y-9978628D01*
X58738095Y-9454819D02*
X58261905Y-9454819D01*
X58261905Y-9454819D02*
X58214286Y-9931009D01*
X58214286Y-9931009D02*
X58261905Y-9883390D01*
X58261905Y-9883390D02*
X58357143Y-9835771D01*
X58357143Y-9835771D02*
X58595238Y-9835771D01*
X58595238Y-9835771D02*
X58690476Y-9883390D01*
X58690476Y-9883390D02*
X58738095Y-9931009D01*
X58738095Y-9931009D02*
X58785714Y-10026247D01*
X58785714Y-10026247D02*
X58785714Y-10264342D01*
X58785714Y-10264342D02*
X58738095Y-10359580D01*
X58738095Y-10359580D02*
X58690476Y-10407200D01*
X58690476Y-10407200D02*
X58595238Y-10454819D01*
X58595238Y-10454819D02*
X58357143Y-10454819D01*
X58357143Y-10454819D02*
X58261905Y-10407200D01*
X58261905Y-10407200D02*
X58214286Y-10359580D01*
X63261905Y-6454819D02*
X63833333Y-6454819D01*
X63547619Y-7454819D02*
X63547619Y-6454819D01*
X64166667Y-7454819D02*
X64166667Y-6454819D01*
X64166667Y-6454819D02*
X64547619Y-6454819D01*
X64547619Y-6454819D02*
X64642857Y-6502438D01*
X64642857Y-6502438D02*
X64690476Y-6550057D01*
X64690476Y-6550057D02*
X64738095Y-6645295D01*
X64738095Y-6645295D02*
X64738095Y-6788152D01*
X64738095Y-6788152D02*
X64690476Y-6883390D01*
X64690476Y-6883390D02*
X64642857Y-6931009D01*
X64642857Y-6931009D02*
X64547619Y-6978628D01*
X64547619Y-6978628D02*
X64166667Y-6978628D01*
X65690476Y-7454819D02*
X65119048Y-7454819D01*
X65404762Y-7454819D02*
X65404762Y-6454819D01*
X65404762Y-6454819D02*
X65309524Y-6597676D01*
X65309524Y-6597676D02*
X65214286Y-6692914D01*
X65214286Y-6692914D02*
X65119048Y-6740533D01*
X66071429Y-6550057D02*
X66119048Y-6502438D01*
X66119048Y-6502438D02*
X66214286Y-6454819D01*
X66214286Y-6454819D02*
X66452381Y-6454819D01*
X66452381Y-6454819D02*
X66547619Y-6502438D01*
X66547619Y-6502438D02*
X66595238Y-6550057D01*
X66595238Y-6550057D02*
X66642857Y-6645295D01*
X66642857Y-6645295D02*
X66642857Y-6740533D01*
X66642857Y-6740533D02*
X66595238Y-6883390D01*
X66595238Y-6883390D02*
X66023810Y-7454819D01*
X66023810Y-7454819D02*
X66642857Y-7454819D01*
X63666666Y-12954819D02*
X63666666Y-13669104D01*
X63666666Y-13669104D02*
X63619047Y-13811961D01*
X63619047Y-13811961D02*
X63523809Y-13907200D01*
X63523809Y-13907200D02*
X63380952Y-13954819D01*
X63380952Y-13954819D02*
X63285714Y-13954819D01*
X64666666Y-13954819D02*
X64095238Y-13954819D01*
X64380952Y-13954819D02*
X64380952Y-12954819D01*
X64380952Y-12954819D02*
X64285714Y-13097676D01*
X64285714Y-13097676D02*
X64190476Y-13192914D01*
X64190476Y-13192914D02*
X64095238Y-13240533D01*
X23034819Y-19824404D02*
X23844342Y-19824404D01*
X23844342Y-19824404D02*
X23939580Y-19776785D01*
X23939580Y-19776785D02*
X23987200Y-19729166D01*
X23987200Y-19729166D02*
X24034819Y-19633928D01*
X24034819Y-19633928D02*
X24034819Y-19443452D01*
X24034819Y-19443452D02*
X23987200Y-19348214D01*
X23987200Y-19348214D02*
X23939580Y-19300595D01*
X23939580Y-19300595D02*
X23844342Y-19252976D01*
X23844342Y-19252976D02*
X23034819Y-19252976D01*
X23130057Y-18824404D02*
X23082438Y-18776785D01*
X23082438Y-18776785D02*
X23034819Y-18681547D01*
X23034819Y-18681547D02*
X23034819Y-18443452D01*
X23034819Y-18443452D02*
X23082438Y-18348214D01*
X23082438Y-18348214D02*
X23130057Y-18300595D01*
X23130057Y-18300595D02*
X23225295Y-18252976D01*
X23225295Y-18252976D02*
X23320533Y-18252976D01*
X23320533Y-18252976D02*
X23463390Y-18300595D01*
X23463390Y-18300595D02*
X24034819Y-18872023D01*
X24034819Y-18872023D02*
X24034819Y-18252976D01*
X52679580Y-41230357D02*
X52727200Y-41277976D01*
X52727200Y-41277976D02*
X52774819Y-41420833D01*
X52774819Y-41420833D02*
X52774819Y-41516071D01*
X52774819Y-41516071D02*
X52727200Y-41658928D01*
X52727200Y-41658928D02*
X52631961Y-41754166D01*
X52631961Y-41754166D02*
X52536723Y-41801785D01*
X52536723Y-41801785D02*
X52346247Y-41849404D01*
X52346247Y-41849404D02*
X52203390Y-41849404D01*
X52203390Y-41849404D02*
X52012914Y-41801785D01*
X52012914Y-41801785D02*
X51917676Y-41754166D01*
X51917676Y-41754166D02*
X51822438Y-41658928D01*
X51822438Y-41658928D02*
X51774819Y-41516071D01*
X51774819Y-41516071D02*
X51774819Y-41420833D01*
X51774819Y-41420833D02*
X51822438Y-41277976D01*
X51822438Y-41277976D02*
X51870057Y-41230357D01*
X52774819Y-40277976D02*
X52774819Y-40849404D01*
X52774819Y-40563690D02*
X51774819Y-40563690D01*
X51774819Y-40563690D02*
X51917676Y-40658928D01*
X51917676Y-40658928D02*
X52012914Y-40754166D01*
X52012914Y-40754166D02*
X52060533Y-40849404D01*
X51774819Y-39658928D02*
X51774819Y-39563690D01*
X51774819Y-39563690D02*
X51822438Y-39468452D01*
X51822438Y-39468452D02*
X51870057Y-39420833D01*
X51870057Y-39420833D02*
X51965295Y-39373214D01*
X51965295Y-39373214D02*
X52155771Y-39325595D01*
X52155771Y-39325595D02*
X52393866Y-39325595D01*
X52393866Y-39325595D02*
X52584342Y-39373214D01*
X52584342Y-39373214D02*
X52679580Y-39420833D01*
X52679580Y-39420833D02*
X52727200Y-39468452D01*
X52727200Y-39468452D02*
X52774819Y-39563690D01*
X52774819Y-39563690D02*
X52774819Y-39658928D01*
X52774819Y-39658928D02*
X52727200Y-39754166D01*
X52727200Y-39754166D02*
X52679580Y-39801785D01*
X52679580Y-39801785D02*
X52584342Y-39849404D01*
X52584342Y-39849404D02*
X52393866Y-39897023D01*
X52393866Y-39897023D02*
X52155771Y-39897023D01*
X52155771Y-39897023D02*
X51965295Y-39849404D01*
X51965295Y-39849404D02*
X51870057Y-39801785D01*
X51870057Y-39801785D02*
X51822438Y-39754166D01*
X51822438Y-39754166D02*
X51774819Y-39658928D01*
X25859580Y-28381605D02*
X25907200Y-28429224D01*
X25907200Y-28429224D02*
X25954819Y-28572081D01*
X25954819Y-28572081D02*
X25954819Y-28667319D01*
X25954819Y-28667319D02*
X25907200Y-28810176D01*
X25907200Y-28810176D02*
X25811961Y-28905414D01*
X25811961Y-28905414D02*
X25716723Y-28953033D01*
X25716723Y-28953033D02*
X25526247Y-29000652D01*
X25526247Y-29000652D02*
X25383390Y-29000652D01*
X25383390Y-29000652D02*
X25192914Y-28953033D01*
X25192914Y-28953033D02*
X25097676Y-28905414D01*
X25097676Y-28905414D02*
X25002438Y-28810176D01*
X25002438Y-28810176D02*
X24954819Y-28667319D01*
X24954819Y-28667319D02*
X24954819Y-28572081D01*
X24954819Y-28572081D02*
X25002438Y-28429224D01*
X25002438Y-28429224D02*
X25050057Y-28381605D01*
X25954819Y-27429224D02*
X25954819Y-28000652D01*
X25954819Y-27714938D02*
X24954819Y-27714938D01*
X24954819Y-27714938D02*
X25097676Y-27810176D01*
X25097676Y-27810176D02*
X25192914Y-27905414D01*
X25192914Y-27905414D02*
X25240533Y-28000652D01*
X25288152Y-26572081D02*
X25954819Y-26572081D01*
X24907200Y-26810176D02*
X25621485Y-27048271D01*
X25621485Y-27048271D02*
X25621485Y-26429224D01*
X32104819Y-13142857D02*
X31628628Y-13476190D01*
X32104819Y-13714285D02*
X31104819Y-13714285D01*
X31104819Y-13714285D02*
X31104819Y-13333333D01*
X31104819Y-13333333D02*
X31152438Y-13238095D01*
X31152438Y-13238095D02*
X31200057Y-13190476D01*
X31200057Y-13190476D02*
X31295295Y-13142857D01*
X31295295Y-13142857D02*
X31438152Y-13142857D01*
X31438152Y-13142857D02*
X31533390Y-13190476D01*
X31533390Y-13190476D02*
X31581009Y-13238095D01*
X31581009Y-13238095D02*
X31628628Y-13333333D01*
X31628628Y-13333333D02*
X31628628Y-13714285D01*
X32104819Y-12190476D02*
X32104819Y-12761904D01*
X32104819Y-12476190D02*
X31104819Y-12476190D01*
X31104819Y-12476190D02*
X31247676Y-12571428D01*
X31247676Y-12571428D02*
X31342914Y-12666666D01*
X31342914Y-12666666D02*
X31390533Y-12761904D01*
X32104819Y-11238095D02*
X32104819Y-11809523D01*
X32104819Y-11523809D02*
X31104819Y-11523809D01*
X31104819Y-11523809D02*
X31247676Y-11619047D01*
X31247676Y-11619047D02*
X31342914Y-11714285D01*
X31342914Y-11714285D02*
X31390533Y-11809523D01*
X30738095Y-29854819D02*
X30738095Y-30664342D01*
X30738095Y-30664342D02*
X30785714Y-30759580D01*
X30785714Y-30759580D02*
X30833333Y-30807200D01*
X30833333Y-30807200D02*
X30928571Y-30854819D01*
X30928571Y-30854819D02*
X31119047Y-30854819D01*
X31119047Y-30854819D02*
X31214285Y-30807200D01*
X31214285Y-30807200D02*
X31261904Y-30759580D01*
X31261904Y-30759580D02*
X31309523Y-30664342D01*
X31309523Y-30664342D02*
X31309523Y-29854819D01*
X31690476Y-29854819D02*
X32309523Y-29854819D01*
X32309523Y-29854819D02*
X31976190Y-30235771D01*
X31976190Y-30235771D02*
X32119047Y-30235771D01*
X32119047Y-30235771D02*
X32214285Y-30283390D01*
X32214285Y-30283390D02*
X32261904Y-30331009D01*
X32261904Y-30331009D02*
X32309523Y-30426247D01*
X32309523Y-30426247D02*
X32309523Y-30664342D01*
X32309523Y-30664342D02*
X32261904Y-30759580D01*
X32261904Y-30759580D02*
X32214285Y-30807200D01*
X32214285Y-30807200D02*
X32119047Y-30854819D01*
X32119047Y-30854819D02*
X31833333Y-30854819D01*
X31833333Y-30854819D02*
X31738095Y-30807200D01*
X31738095Y-30807200D02*
X31690476Y-30759580D01*
X58679580Y-22597857D02*
X58727200Y-22645476D01*
X58727200Y-22645476D02*
X58774819Y-22788333D01*
X58774819Y-22788333D02*
X58774819Y-22883571D01*
X58774819Y-22883571D02*
X58727200Y-23026428D01*
X58727200Y-23026428D02*
X58631961Y-23121666D01*
X58631961Y-23121666D02*
X58536723Y-23169285D01*
X58536723Y-23169285D02*
X58346247Y-23216904D01*
X58346247Y-23216904D02*
X58203390Y-23216904D01*
X58203390Y-23216904D02*
X58012914Y-23169285D01*
X58012914Y-23169285D02*
X57917676Y-23121666D01*
X57917676Y-23121666D02*
X57822438Y-23026428D01*
X57822438Y-23026428D02*
X57774819Y-22883571D01*
X57774819Y-22883571D02*
X57774819Y-22788333D01*
X57774819Y-22788333D02*
X57822438Y-22645476D01*
X57822438Y-22645476D02*
X57870057Y-22597857D01*
X58774819Y-21645476D02*
X58774819Y-22216904D01*
X58774819Y-21931190D02*
X57774819Y-21931190D01*
X57774819Y-21931190D02*
X57917676Y-22026428D01*
X57917676Y-22026428D02*
X58012914Y-22121666D01*
X58012914Y-22121666D02*
X58060533Y-22216904D01*
X57774819Y-21312142D02*
X57774819Y-20645476D01*
X57774819Y-20645476D02*
X58774819Y-21074047D01*
X48833333Y-10454819D02*
X48500000Y-9978628D01*
X48261905Y-10454819D02*
X48261905Y-9454819D01*
X48261905Y-9454819D02*
X48642857Y-9454819D01*
X48642857Y-9454819D02*
X48738095Y-9502438D01*
X48738095Y-9502438D02*
X48785714Y-9550057D01*
X48785714Y-9550057D02*
X48833333Y-9645295D01*
X48833333Y-9645295D02*
X48833333Y-9788152D01*
X48833333Y-9788152D02*
X48785714Y-9883390D01*
X48785714Y-9883390D02*
X48738095Y-9931009D01*
X48738095Y-9931009D02*
X48642857Y-9978628D01*
X48642857Y-9978628D02*
X48261905Y-9978628D01*
X49690476Y-9454819D02*
X49500000Y-9454819D01*
X49500000Y-9454819D02*
X49404762Y-9502438D01*
X49404762Y-9502438D02*
X49357143Y-9550057D01*
X49357143Y-9550057D02*
X49261905Y-9692914D01*
X49261905Y-9692914D02*
X49214286Y-9883390D01*
X49214286Y-9883390D02*
X49214286Y-10264342D01*
X49214286Y-10264342D02*
X49261905Y-10359580D01*
X49261905Y-10359580D02*
X49309524Y-10407200D01*
X49309524Y-10407200D02*
X49404762Y-10454819D01*
X49404762Y-10454819D02*
X49595238Y-10454819D01*
X49595238Y-10454819D02*
X49690476Y-10407200D01*
X49690476Y-10407200D02*
X49738095Y-10359580D01*
X49738095Y-10359580D02*
X49785714Y-10264342D01*
X49785714Y-10264342D02*
X49785714Y-10026247D01*
X49785714Y-10026247D02*
X49738095Y-9931009D01*
X49738095Y-9931009D02*
X49690476Y-9883390D01*
X49690476Y-9883390D02*
X49595238Y-9835771D01*
X49595238Y-9835771D02*
X49404762Y-9835771D01*
X49404762Y-9835771D02*
X49309524Y-9883390D01*
X49309524Y-9883390D02*
X49261905Y-9931009D01*
X49261905Y-9931009D02*
X49214286Y-10026247D01*
X25738095Y-35017319D02*
X25738095Y-35826842D01*
X25738095Y-35826842D02*
X25785714Y-35922080D01*
X25785714Y-35922080D02*
X25833333Y-35969700D01*
X25833333Y-35969700D02*
X25928571Y-36017319D01*
X25928571Y-36017319D02*
X26119047Y-36017319D01*
X26119047Y-36017319D02*
X26214285Y-35969700D01*
X26214285Y-35969700D02*
X26261904Y-35922080D01*
X26261904Y-35922080D02*
X26309523Y-35826842D01*
X26309523Y-35826842D02*
X26309523Y-35017319D01*
X27214285Y-35350652D02*
X27214285Y-36017319D01*
X26976190Y-34969700D02*
X26738095Y-35683985D01*
X26738095Y-35683985D02*
X27357142Y-35683985D01*
X67261905Y-57454819D02*
X67833333Y-57454819D01*
X67547619Y-58454819D02*
X67547619Y-57454819D01*
X68166667Y-58454819D02*
X68166667Y-57454819D01*
X68166667Y-57454819D02*
X68547619Y-57454819D01*
X68547619Y-57454819D02*
X68642857Y-57502438D01*
X68642857Y-57502438D02*
X68690476Y-57550057D01*
X68690476Y-57550057D02*
X68738095Y-57645295D01*
X68738095Y-57645295D02*
X68738095Y-57788152D01*
X68738095Y-57788152D02*
X68690476Y-57883390D01*
X68690476Y-57883390D02*
X68642857Y-57931009D01*
X68642857Y-57931009D02*
X68547619Y-57978628D01*
X68547619Y-57978628D02*
X68166667Y-57978628D01*
X69690476Y-58454819D02*
X69119048Y-58454819D01*
X69404762Y-58454819D02*
X69404762Y-57454819D01*
X69404762Y-57454819D02*
X69309524Y-57597676D01*
X69309524Y-57597676D02*
X69214286Y-57692914D01*
X69214286Y-57692914D02*
X69119048Y-57740533D01*
X70166667Y-58454819D02*
X70357143Y-58454819D01*
X70357143Y-58454819D02*
X70452381Y-58407200D01*
X70452381Y-58407200D02*
X70500000Y-58359580D01*
X70500000Y-58359580D02*
X70595238Y-58216723D01*
X70595238Y-58216723D02*
X70642857Y-58026247D01*
X70642857Y-58026247D02*
X70642857Y-57645295D01*
X70642857Y-57645295D02*
X70595238Y-57550057D01*
X70595238Y-57550057D02*
X70547619Y-57502438D01*
X70547619Y-57502438D02*
X70452381Y-57454819D01*
X70452381Y-57454819D02*
X70261905Y-57454819D01*
X70261905Y-57454819D02*
X70166667Y-57502438D01*
X70166667Y-57502438D02*
X70119048Y-57550057D01*
X70119048Y-57550057D02*
X70071429Y-57645295D01*
X70071429Y-57645295D02*
X70071429Y-57883390D01*
X70071429Y-57883390D02*
X70119048Y-57978628D01*
X70119048Y-57978628D02*
X70166667Y-58026247D01*
X70166667Y-58026247D02*
X70261905Y-58073866D01*
X70261905Y-58073866D02*
X70452381Y-58073866D01*
X70452381Y-58073866D02*
X70547619Y-58026247D01*
X70547619Y-58026247D02*
X70595238Y-57978628D01*
X70595238Y-57978628D02*
X70642857Y-57883390D01*
X24738095Y-57456819D02*
X25309523Y-57456819D01*
X25023809Y-58456819D02*
X25023809Y-57456819D01*
X25642857Y-58456819D02*
X25642857Y-57456819D01*
X25642857Y-57456819D02*
X26023809Y-57456819D01*
X26023809Y-57456819D02*
X26119047Y-57504438D01*
X26119047Y-57504438D02*
X26166666Y-57552057D01*
X26166666Y-57552057D02*
X26214285Y-57647295D01*
X26214285Y-57647295D02*
X26214285Y-57790152D01*
X26214285Y-57790152D02*
X26166666Y-57885390D01*
X26166666Y-57885390D02*
X26119047Y-57933009D01*
X26119047Y-57933009D02*
X26023809Y-57980628D01*
X26023809Y-57980628D02*
X25642857Y-57980628D01*
X27071428Y-57456819D02*
X26880952Y-57456819D01*
X26880952Y-57456819D02*
X26785714Y-57504438D01*
X26785714Y-57504438D02*
X26738095Y-57552057D01*
X26738095Y-57552057D02*
X26642857Y-57694914D01*
X26642857Y-57694914D02*
X26595238Y-57885390D01*
X26595238Y-57885390D02*
X26595238Y-58266342D01*
X26595238Y-58266342D02*
X26642857Y-58361580D01*
X26642857Y-58361580D02*
X26690476Y-58409200D01*
X26690476Y-58409200D02*
X26785714Y-58456819D01*
X26785714Y-58456819D02*
X26976190Y-58456819D01*
X26976190Y-58456819D02*
X27071428Y-58409200D01*
X27071428Y-58409200D02*
X27119047Y-58361580D01*
X27119047Y-58361580D02*
X27166666Y-58266342D01*
X27166666Y-58266342D02*
X27166666Y-58028247D01*
X27166666Y-58028247D02*
X27119047Y-57933009D01*
X27119047Y-57933009D02*
X27071428Y-57885390D01*
X27071428Y-57885390D02*
X26976190Y-57837771D01*
X26976190Y-57837771D02*
X26785714Y-57837771D01*
X26785714Y-57837771D02*
X26690476Y-57885390D01*
X26690476Y-57885390D02*
X26642857Y-57933009D01*
X26642857Y-57933009D02*
X26595238Y-58028247D01*
X51833333Y-10454819D02*
X51500000Y-9978628D01*
X51261905Y-10454819D02*
X51261905Y-9454819D01*
X51261905Y-9454819D02*
X51642857Y-9454819D01*
X51642857Y-9454819D02*
X51738095Y-9502438D01*
X51738095Y-9502438D02*
X51785714Y-9550057D01*
X51785714Y-9550057D02*
X51833333Y-9645295D01*
X51833333Y-9645295D02*
X51833333Y-9788152D01*
X51833333Y-9788152D02*
X51785714Y-9883390D01*
X51785714Y-9883390D02*
X51738095Y-9931009D01*
X51738095Y-9931009D02*
X51642857Y-9978628D01*
X51642857Y-9978628D02*
X51261905Y-9978628D01*
X52214286Y-9550057D02*
X52261905Y-9502438D01*
X52261905Y-9502438D02*
X52357143Y-9454819D01*
X52357143Y-9454819D02*
X52595238Y-9454819D01*
X52595238Y-9454819D02*
X52690476Y-9502438D01*
X52690476Y-9502438D02*
X52738095Y-9550057D01*
X52738095Y-9550057D02*
X52785714Y-9645295D01*
X52785714Y-9645295D02*
X52785714Y-9740533D01*
X52785714Y-9740533D02*
X52738095Y-9883390D01*
X52738095Y-9883390D02*
X52166667Y-10454819D01*
X52166667Y-10454819D02*
X52785714Y-10454819D01*
X57833333Y-44359580D02*
X57785714Y-44407200D01*
X57785714Y-44407200D02*
X57642857Y-44454819D01*
X57642857Y-44454819D02*
X57547619Y-44454819D01*
X57547619Y-44454819D02*
X57404762Y-44407200D01*
X57404762Y-44407200D02*
X57309524Y-44311961D01*
X57309524Y-44311961D02*
X57261905Y-44216723D01*
X57261905Y-44216723D02*
X57214286Y-44026247D01*
X57214286Y-44026247D02*
X57214286Y-43883390D01*
X57214286Y-43883390D02*
X57261905Y-43692914D01*
X57261905Y-43692914D02*
X57309524Y-43597676D01*
X57309524Y-43597676D02*
X57404762Y-43502438D01*
X57404762Y-43502438D02*
X57547619Y-43454819D01*
X57547619Y-43454819D02*
X57642857Y-43454819D01*
X57642857Y-43454819D02*
X57785714Y-43502438D01*
X57785714Y-43502438D02*
X57833333Y-43550057D01*
X58690476Y-43454819D02*
X58500000Y-43454819D01*
X58500000Y-43454819D02*
X58404762Y-43502438D01*
X58404762Y-43502438D02*
X58357143Y-43550057D01*
X58357143Y-43550057D02*
X58261905Y-43692914D01*
X58261905Y-43692914D02*
X58214286Y-43883390D01*
X58214286Y-43883390D02*
X58214286Y-44264342D01*
X58214286Y-44264342D02*
X58261905Y-44359580D01*
X58261905Y-44359580D02*
X58309524Y-44407200D01*
X58309524Y-44407200D02*
X58404762Y-44454819D01*
X58404762Y-44454819D02*
X58595238Y-44454819D01*
X58595238Y-44454819D02*
X58690476Y-44407200D01*
X58690476Y-44407200D02*
X58738095Y-44359580D01*
X58738095Y-44359580D02*
X58785714Y-44264342D01*
X58785714Y-44264342D02*
X58785714Y-44026247D01*
X58785714Y-44026247D02*
X58738095Y-43931009D01*
X58738095Y-43931009D02*
X58690476Y-43883390D01*
X58690476Y-43883390D02*
X58595238Y-43835771D01*
X58595238Y-43835771D02*
X58404762Y-43835771D01*
X58404762Y-43835771D02*
X58309524Y-43883390D01*
X58309524Y-43883390D02*
X58261905Y-43931009D01*
X58261905Y-43931009D02*
X58214286Y-44026247D01*
X31333333Y-22804819D02*
X31000000Y-22328628D01*
X30761905Y-22804819D02*
X30761905Y-21804819D01*
X30761905Y-21804819D02*
X31142857Y-21804819D01*
X31142857Y-21804819D02*
X31238095Y-21852438D01*
X31238095Y-21852438D02*
X31285714Y-21900057D01*
X31285714Y-21900057D02*
X31333333Y-21995295D01*
X31333333Y-21995295D02*
X31333333Y-22138152D01*
X31333333Y-22138152D02*
X31285714Y-22233390D01*
X31285714Y-22233390D02*
X31238095Y-22281009D01*
X31238095Y-22281009D02*
X31142857Y-22328628D01*
X31142857Y-22328628D02*
X30761905Y-22328628D01*
X31809524Y-22804819D02*
X32000000Y-22804819D01*
X32000000Y-22804819D02*
X32095238Y-22757200D01*
X32095238Y-22757200D02*
X32142857Y-22709580D01*
X32142857Y-22709580D02*
X32238095Y-22566723D01*
X32238095Y-22566723D02*
X32285714Y-22376247D01*
X32285714Y-22376247D02*
X32285714Y-21995295D01*
X32285714Y-21995295D02*
X32238095Y-21900057D01*
X32238095Y-21900057D02*
X32190476Y-21852438D01*
X32190476Y-21852438D02*
X32095238Y-21804819D01*
X32095238Y-21804819D02*
X31904762Y-21804819D01*
X31904762Y-21804819D02*
X31809524Y-21852438D01*
X31809524Y-21852438D02*
X31761905Y-21900057D01*
X31761905Y-21900057D02*
X31714286Y-21995295D01*
X31714286Y-21995295D02*
X31714286Y-22233390D01*
X31714286Y-22233390D02*
X31761905Y-22328628D01*
X31761905Y-22328628D02*
X31809524Y-22376247D01*
X31809524Y-22376247D02*
X31904762Y-22423866D01*
X31904762Y-22423866D02*
X32095238Y-22423866D01*
X32095238Y-22423866D02*
X32190476Y-22376247D01*
X32190476Y-22376247D02*
X32238095Y-22328628D01*
X32238095Y-22328628D02*
X32285714Y-22233390D01*
X59261905Y-6452819D02*
X59833333Y-6452819D01*
X59547619Y-7452819D02*
X59547619Y-6452819D01*
X60166667Y-7452819D02*
X60166667Y-6452819D01*
X60166667Y-6452819D02*
X60547619Y-6452819D01*
X60547619Y-6452819D02*
X60642857Y-6500438D01*
X60642857Y-6500438D02*
X60690476Y-6548057D01*
X60690476Y-6548057D02*
X60738095Y-6643295D01*
X60738095Y-6643295D02*
X60738095Y-6786152D01*
X60738095Y-6786152D02*
X60690476Y-6881390D01*
X60690476Y-6881390D02*
X60642857Y-6929009D01*
X60642857Y-6929009D02*
X60547619Y-6976628D01*
X60547619Y-6976628D02*
X60166667Y-6976628D01*
X61690476Y-7452819D02*
X61119048Y-7452819D01*
X61404762Y-7452819D02*
X61404762Y-6452819D01*
X61404762Y-6452819D02*
X61309524Y-6595676D01*
X61309524Y-6595676D02*
X61214286Y-6690914D01*
X61214286Y-6690914D02*
X61119048Y-6738533D01*
X62023810Y-6452819D02*
X62642857Y-6452819D01*
X62642857Y-6452819D02*
X62309524Y-6833771D01*
X62309524Y-6833771D02*
X62452381Y-6833771D01*
X62452381Y-6833771D02*
X62547619Y-6881390D01*
X62547619Y-6881390D02*
X62595238Y-6929009D01*
X62595238Y-6929009D02*
X62642857Y-7024247D01*
X62642857Y-7024247D02*
X62642857Y-7262342D01*
X62642857Y-7262342D02*
X62595238Y-7357580D01*
X62595238Y-7357580D02*
X62547619Y-7405200D01*
X62547619Y-7405200D02*
X62452381Y-7452819D01*
X62452381Y-7452819D02*
X62166667Y-7452819D01*
X62166667Y-7452819D02*
X62071429Y-7405200D01*
X62071429Y-7405200D02*
X62023810Y-7357580D01*
X52261905Y-6452819D02*
X52833333Y-6452819D01*
X52547619Y-7452819D02*
X52547619Y-6452819D01*
X53166667Y-7452819D02*
X53166667Y-6452819D01*
X53166667Y-6452819D02*
X53547619Y-6452819D01*
X53547619Y-6452819D02*
X53642857Y-6500438D01*
X53642857Y-6500438D02*
X53690476Y-6548057D01*
X53690476Y-6548057D02*
X53738095Y-6643295D01*
X53738095Y-6643295D02*
X53738095Y-6786152D01*
X53738095Y-6786152D02*
X53690476Y-6881390D01*
X53690476Y-6881390D02*
X53642857Y-6929009D01*
X53642857Y-6929009D02*
X53547619Y-6976628D01*
X53547619Y-6976628D02*
X53166667Y-6976628D01*
X54690476Y-7452819D02*
X54119048Y-7452819D01*
X54404762Y-7452819D02*
X54404762Y-6452819D01*
X54404762Y-6452819D02*
X54309524Y-6595676D01*
X54309524Y-6595676D02*
X54214286Y-6690914D01*
X54214286Y-6690914D02*
X54119048Y-6738533D01*
X55309524Y-6452819D02*
X55404762Y-6452819D01*
X55404762Y-6452819D02*
X55500000Y-6500438D01*
X55500000Y-6500438D02*
X55547619Y-6548057D01*
X55547619Y-6548057D02*
X55595238Y-6643295D01*
X55595238Y-6643295D02*
X55642857Y-6833771D01*
X55642857Y-6833771D02*
X55642857Y-7071866D01*
X55642857Y-7071866D02*
X55595238Y-7262342D01*
X55595238Y-7262342D02*
X55547619Y-7357580D01*
X55547619Y-7357580D02*
X55500000Y-7405200D01*
X55500000Y-7405200D02*
X55404762Y-7452819D01*
X55404762Y-7452819D02*
X55309524Y-7452819D01*
X55309524Y-7452819D02*
X55214286Y-7405200D01*
X55214286Y-7405200D02*
X55166667Y-7357580D01*
X55166667Y-7357580D02*
X55119048Y-7262342D01*
X55119048Y-7262342D02*
X55071429Y-7071866D01*
X55071429Y-7071866D02*
X55071429Y-6833771D01*
X55071429Y-6833771D02*
X55119048Y-6643295D01*
X55119048Y-6643295D02*
X55166667Y-6548057D01*
X55166667Y-6548057D02*
X55214286Y-6500438D01*
X55214286Y-6500438D02*
X55309524Y-6452819D01*
X52261905Y-57456819D02*
X52833333Y-57456819D01*
X52547619Y-58456819D02*
X52547619Y-57456819D01*
X53166667Y-58456819D02*
X53166667Y-57456819D01*
X53166667Y-57456819D02*
X53547619Y-57456819D01*
X53547619Y-57456819D02*
X53642857Y-57504438D01*
X53642857Y-57504438D02*
X53690476Y-57552057D01*
X53690476Y-57552057D02*
X53738095Y-57647295D01*
X53738095Y-57647295D02*
X53738095Y-57790152D01*
X53738095Y-57790152D02*
X53690476Y-57885390D01*
X53690476Y-57885390D02*
X53642857Y-57933009D01*
X53642857Y-57933009D02*
X53547619Y-57980628D01*
X53547619Y-57980628D02*
X53166667Y-57980628D01*
X54690476Y-58456819D02*
X54119048Y-58456819D01*
X54404762Y-58456819D02*
X54404762Y-57456819D01*
X54404762Y-57456819D02*
X54309524Y-57599676D01*
X54309524Y-57599676D02*
X54214286Y-57694914D01*
X54214286Y-57694914D02*
X54119048Y-57742533D01*
X55547619Y-57790152D02*
X55547619Y-58456819D01*
X55309524Y-57409200D02*
X55071429Y-58123485D01*
X55071429Y-58123485D02*
X55690476Y-58123485D01*
X28164399Y-19619047D02*
X28212019Y-19666666D01*
X28212019Y-19666666D02*
X28259638Y-19809523D01*
X28259638Y-19809523D02*
X28259638Y-19904761D01*
X28259638Y-19904761D02*
X28212019Y-20047618D01*
X28212019Y-20047618D02*
X28116780Y-20142856D01*
X28116780Y-20142856D02*
X28021542Y-20190475D01*
X28021542Y-20190475D02*
X27831066Y-20238094D01*
X27831066Y-20238094D02*
X27688209Y-20238094D01*
X27688209Y-20238094D02*
X27497733Y-20190475D01*
X27497733Y-20190475D02*
X27402495Y-20142856D01*
X27402495Y-20142856D02*
X27307257Y-20047618D01*
X27307257Y-20047618D02*
X27259638Y-19904761D01*
X27259638Y-19904761D02*
X27259638Y-19809523D01*
X27259638Y-19809523D02*
X27307257Y-19666666D01*
X27307257Y-19666666D02*
X27354876Y-19619047D01*
X28259638Y-18666666D02*
X28259638Y-19238094D01*
X28259638Y-18952380D02*
X27259638Y-18952380D01*
X27259638Y-18952380D02*
X27402495Y-19047618D01*
X27402495Y-19047618D02*
X27497733Y-19142856D01*
X27497733Y-19142856D02*
X27545352Y-19238094D01*
X28259638Y-18190475D02*
X28259638Y-17999999D01*
X28259638Y-17999999D02*
X28212019Y-17904761D01*
X28212019Y-17904761D02*
X28164399Y-17857142D01*
X28164399Y-17857142D02*
X28021542Y-17761904D01*
X28021542Y-17761904D02*
X27831066Y-17714285D01*
X27831066Y-17714285D02*
X27450114Y-17714285D01*
X27450114Y-17714285D02*
X27354876Y-17761904D01*
X27354876Y-17761904D02*
X27307257Y-17809523D01*
X27307257Y-17809523D02*
X27259638Y-17904761D01*
X27259638Y-17904761D02*
X27259638Y-18095237D01*
X27259638Y-18095237D02*
X27307257Y-18190475D01*
X27307257Y-18190475D02*
X27354876Y-18238094D01*
X27354876Y-18238094D02*
X27450114Y-18285713D01*
X27450114Y-18285713D02*
X27688209Y-18285713D01*
X27688209Y-18285713D02*
X27783447Y-18238094D01*
X27783447Y-18238094D02*
X27831066Y-18190475D01*
X27831066Y-18190475D02*
X27878685Y-18095237D01*
X27878685Y-18095237D02*
X27878685Y-17904761D01*
X27878685Y-17904761D02*
X27831066Y-17809523D01*
X27831066Y-17809523D02*
X27783447Y-17761904D01*
X27783447Y-17761904D02*
X27688209Y-17714285D01*
X49238095Y-6452819D02*
X49809523Y-6452819D01*
X49523809Y-7452819D02*
X49523809Y-6452819D01*
X50142857Y-7452819D02*
X50142857Y-6452819D01*
X50142857Y-6452819D02*
X50523809Y-6452819D01*
X50523809Y-6452819D02*
X50619047Y-6500438D01*
X50619047Y-6500438D02*
X50666666Y-6548057D01*
X50666666Y-6548057D02*
X50714285Y-6643295D01*
X50714285Y-6643295D02*
X50714285Y-6786152D01*
X50714285Y-6786152D02*
X50666666Y-6881390D01*
X50666666Y-6881390D02*
X50619047Y-6929009D01*
X50619047Y-6929009D02*
X50523809Y-6976628D01*
X50523809Y-6976628D02*
X50142857Y-6976628D01*
X51190476Y-7452819D02*
X51380952Y-7452819D01*
X51380952Y-7452819D02*
X51476190Y-7405200D01*
X51476190Y-7405200D02*
X51523809Y-7357580D01*
X51523809Y-7357580D02*
X51619047Y-7214723D01*
X51619047Y-7214723D02*
X51666666Y-7024247D01*
X51666666Y-7024247D02*
X51666666Y-6643295D01*
X51666666Y-6643295D02*
X51619047Y-6548057D01*
X51619047Y-6548057D02*
X51571428Y-6500438D01*
X51571428Y-6500438D02*
X51476190Y-6452819D01*
X51476190Y-6452819D02*
X51285714Y-6452819D01*
X51285714Y-6452819D02*
X51190476Y-6500438D01*
X51190476Y-6500438D02*
X51142857Y-6548057D01*
X51142857Y-6548057D02*
X51095238Y-6643295D01*
X51095238Y-6643295D02*
X51095238Y-6881390D01*
X51095238Y-6881390D02*
X51142857Y-6976628D01*
X51142857Y-6976628D02*
X51190476Y-7024247D01*
X51190476Y-7024247D02*
X51285714Y-7071866D01*
X51285714Y-7071866D02*
X51476190Y-7071866D01*
X51476190Y-7071866D02*
X51571428Y-7024247D01*
X51571428Y-7024247D02*
X51619047Y-6976628D01*
X51619047Y-6976628D02*
X51666666Y-6881390D01*
X57833333Y-47859580D02*
X57785714Y-47907200D01*
X57785714Y-47907200D02*
X57642857Y-47954819D01*
X57642857Y-47954819D02*
X57547619Y-47954819D01*
X57547619Y-47954819D02*
X57404762Y-47907200D01*
X57404762Y-47907200D02*
X57309524Y-47811961D01*
X57309524Y-47811961D02*
X57261905Y-47716723D01*
X57261905Y-47716723D02*
X57214286Y-47526247D01*
X57214286Y-47526247D02*
X57214286Y-47383390D01*
X57214286Y-47383390D02*
X57261905Y-47192914D01*
X57261905Y-47192914D02*
X57309524Y-47097676D01*
X57309524Y-47097676D02*
X57404762Y-47002438D01*
X57404762Y-47002438D02*
X57547619Y-46954819D01*
X57547619Y-46954819D02*
X57642857Y-46954819D01*
X57642857Y-46954819D02*
X57785714Y-47002438D01*
X57785714Y-47002438D02*
X57833333Y-47050057D01*
X58166667Y-46954819D02*
X58785714Y-46954819D01*
X58785714Y-46954819D02*
X58452381Y-47335771D01*
X58452381Y-47335771D02*
X58595238Y-47335771D01*
X58595238Y-47335771D02*
X58690476Y-47383390D01*
X58690476Y-47383390D02*
X58738095Y-47431009D01*
X58738095Y-47431009D02*
X58785714Y-47526247D01*
X58785714Y-47526247D02*
X58785714Y-47764342D01*
X58785714Y-47764342D02*
X58738095Y-47859580D01*
X58738095Y-47859580D02*
X58690476Y-47907200D01*
X58690476Y-47907200D02*
X58595238Y-47954819D01*
X58595238Y-47954819D02*
X58309524Y-47954819D01*
X58309524Y-47954819D02*
X58214286Y-47907200D01*
X58214286Y-47907200D02*
X58166667Y-47859580D01*
X45738095Y-57456819D02*
X46309523Y-57456819D01*
X46023809Y-58456819D02*
X46023809Y-57456819D01*
X46642857Y-58456819D02*
X46642857Y-57456819D01*
X46642857Y-57456819D02*
X47023809Y-57456819D01*
X47023809Y-57456819D02*
X47119047Y-57504438D01*
X47119047Y-57504438D02*
X47166666Y-57552057D01*
X47166666Y-57552057D02*
X47214285Y-57647295D01*
X47214285Y-57647295D02*
X47214285Y-57790152D01*
X47214285Y-57790152D02*
X47166666Y-57885390D01*
X47166666Y-57885390D02*
X47119047Y-57933009D01*
X47119047Y-57933009D02*
X47023809Y-57980628D01*
X47023809Y-57980628D02*
X46642857Y-57980628D01*
X47547619Y-57456819D02*
X48214285Y-57456819D01*
X48214285Y-57456819D02*
X47785714Y-58456819D01*
X21238095Y-57456819D02*
X21809523Y-57456819D01*
X21523809Y-58456819D02*
X21523809Y-57456819D01*
X22142857Y-58456819D02*
X22142857Y-57456819D01*
X22142857Y-57456819D02*
X22523809Y-57456819D01*
X22523809Y-57456819D02*
X22619047Y-57504438D01*
X22619047Y-57504438D02*
X22666666Y-57552057D01*
X22666666Y-57552057D02*
X22714285Y-57647295D01*
X22714285Y-57647295D02*
X22714285Y-57790152D01*
X22714285Y-57790152D02*
X22666666Y-57885390D01*
X22666666Y-57885390D02*
X22619047Y-57933009D01*
X22619047Y-57933009D02*
X22523809Y-57980628D01*
X22523809Y-57980628D02*
X22142857Y-57980628D01*
X23571428Y-57790152D02*
X23571428Y-58456819D01*
X23333333Y-57409200D02*
X23095238Y-58123485D01*
X23095238Y-58123485D02*
X23714285Y-58123485D01*
X49238095Y-57456819D02*
X49809523Y-57456819D01*
X49523809Y-58456819D02*
X49523809Y-57456819D01*
X50142857Y-58456819D02*
X50142857Y-57456819D01*
X50142857Y-57456819D02*
X50523809Y-57456819D01*
X50523809Y-57456819D02*
X50619047Y-57504438D01*
X50619047Y-57504438D02*
X50666666Y-57552057D01*
X50666666Y-57552057D02*
X50714285Y-57647295D01*
X50714285Y-57647295D02*
X50714285Y-57790152D01*
X50714285Y-57790152D02*
X50666666Y-57885390D01*
X50666666Y-57885390D02*
X50619047Y-57933009D01*
X50619047Y-57933009D02*
X50523809Y-57980628D01*
X50523809Y-57980628D02*
X50142857Y-57980628D01*
X51285714Y-57885390D02*
X51190476Y-57837771D01*
X51190476Y-57837771D02*
X51142857Y-57790152D01*
X51142857Y-57790152D02*
X51095238Y-57694914D01*
X51095238Y-57694914D02*
X51095238Y-57647295D01*
X51095238Y-57647295D02*
X51142857Y-57552057D01*
X51142857Y-57552057D02*
X51190476Y-57504438D01*
X51190476Y-57504438D02*
X51285714Y-57456819D01*
X51285714Y-57456819D02*
X51476190Y-57456819D01*
X51476190Y-57456819D02*
X51571428Y-57504438D01*
X51571428Y-57504438D02*
X51619047Y-57552057D01*
X51619047Y-57552057D02*
X51666666Y-57647295D01*
X51666666Y-57647295D02*
X51666666Y-57694914D01*
X51666666Y-57694914D02*
X51619047Y-57790152D01*
X51619047Y-57790152D02*
X51571428Y-57837771D01*
X51571428Y-57837771D02*
X51476190Y-57885390D01*
X51476190Y-57885390D02*
X51285714Y-57885390D01*
X51285714Y-57885390D02*
X51190476Y-57933009D01*
X51190476Y-57933009D02*
X51142857Y-57980628D01*
X51142857Y-57980628D02*
X51095238Y-58075866D01*
X51095238Y-58075866D02*
X51095238Y-58266342D01*
X51095238Y-58266342D02*
X51142857Y-58361580D01*
X51142857Y-58361580D02*
X51190476Y-58409200D01*
X51190476Y-58409200D02*
X51285714Y-58456819D01*
X51285714Y-58456819D02*
X51476190Y-58456819D01*
X51476190Y-58456819D02*
X51571428Y-58409200D01*
X51571428Y-58409200D02*
X51619047Y-58361580D01*
X51619047Y-58361580D02*
X51666666Y-58266342D01*
X51666666Y-58266342D02*
X51666666Y-58075866D01*
X51666666Y-58075866D02*
X51619047Y-57980628D01*
X51619047Y-57980628D02*
X51571428Y-57933009D01*
X51571428Y-57933009D02*
X51476190Y-57885390D01*
X34359580Y-49629166D02*
X34407200Y-49676785D01*
X34407200Y-49676785D02*
X34454819Y-49819642D01*
X34454819Y-49819642D02*
X34454819Y-49914880D01*
X34454819Y-49914880D02*
X34407200Y-50057737D01*
X34407200Y-50057737D02*
X34311961Y-50152975D01*
X34311961Y-50152975D02*
X34216723Y-50200594D01*
X34216723Y-50200594D02*
X34026247Y-50248213D01*
X34026247Y-50248213D02*
X33883390Y-50248213D01*
X33883390Y-50248213D02*
X33692914Y-50200594D01*
X33692914Y-50200594D02*
X33597676Y-50152975D01*
X33597676Y-50152975D02*
X33502438Y-50057737D01*
X33502438Y-50057737D02*
X33454819Y-49914880D01*
X33454819Y-49914880D02*
X33454819Y-49819642D01*
X33454819Y-49819642D02*
X33502438Y-49676785D01*
X33502438Y-49676785D02*
X33550057Y-49629166D01*
X33454819Y-49295832D02*
X33454819Y-48629166D01*
X33454819Y-48629166D02*
X34454819Y-49057737D01*
X31954819Y-18415793D02*
X31478628Y-18749126D01*
X31954819Y-18987221D02*
X30954819Y-18987221D01*
X30954819Y-18987221D02*
X30954819Y-18606269D01*
X30954819Y-18606269D02*
X31002438Y-18511031D01*
X31002438Y-18511031D02*
X31050057Y-18463412D01*
X31050057Y-18463412D02*
X31145295Y-18415793D01*
X31145295Y-18415793D02*
X31288152Y-18415793D01*
X31288152Y-18415793D02*
X31383390Y-18463412D01*
X31383390Y-18463412D02*
X31431009Y-18511031D01*
X31431009Y-18511031D02*
X31478628Y-18606269D01*
X31478628Y-18606269D02*
X31478628Y-18987221D01*
X31954819Y-17463412D02*
X31954819Y-18034840D01*
X31954819Y-17749126D02*
X30954819Y-17749126D01*
X30954819Y-17749126D02*
X31097676Y-17844364D01*
X31097676Y-17844364D02*
X31192914Y-17939602D01*
X31192914Y-17939602D02*
X31240533Y-18034840D01*
X30954819Y-16844364D02*
X30954819Y-16749126D01*
X30954819Y-16749126D02*
X31002438Y-16653888D01*
X31002438Y-16653888D02*
X31050057Y-16606269D01*
X31050057Y-16606269D02*
X31145295Y-16558650D01*
X31145295Y-16558650D02*
X31335771Y-16511031D01*
X31335771Y-16511031D02*
X31573866Y-16511031D01*
X31573866Y-16511031D02*
X31764342Y-16558650D01*
X31764342Y-16558650D02*
X31859580Y-16606269D01*
X31859580Y-16606269D02*
X31907200Y-16653888D01*
X31907200Y-16653888D02*
X31954819Y-16749126D01*
X31954819Y-16749126D02*
X31954819Y-16844364D01*
X31954819Y-16844364D02*
X31907200Y-16939602D01*
X31907200Y-16939602D02*
X31859580Y-16987221D01*
X31859580Y-16987221D02*
X31764342Y-17034840D01*
X31764342Y-17034840D02*
X31573866Y-17082459D01*
X31573866Y-17082459D02*
X31335771Y-17082459D01*
X31335771Y-17082459D02*
X31145295Y-17034840D01*
X31145295Y-17034840D02*
X31050057Y-16987221D01*
X31050057Y-16987221D02*
X31002438Y-16939602D01*
X31002438Y-16939602D02*
X30954819Y-16844364D01*
X42179580Y-51679166D02*
X42227200Y-51726785D01*
X42227200Y-51726785D02*
X42274819Y-51869642D01*
X42274819Y-51869642D02*
X42274819Y-51964880D01*
X42274819Y-51964880D02*
X42227200Y-52107737D01*
X42227200Y-52107737D02*
X42131961Y-52202975D01*
X42131961Y-52202975D02*
X42036723Y-52250594D01*
X42036723Y-52250594D02*
X41846247Y-52298213D01*
X41846247Y-52298213D02*
X41703390Y-52298213D01*
X41703390Y-52298213D02*
X41512914Y-52250594D01*
X41512914Y-52250594D02*
X41417676Y-52202975D01*
X41417676Y-52202975D02*
X41322438Y-52107737D01*
X41322438Y-52107737D02*
X41274819Y-51964880D01*
X41274819Y-51964880D02*
X41274819Y-51869642D01*
X41274819Y-51869642D02*
X41322438Y-51726785D01*
X41322438Y-51726785D02*
X41370057Y-51679166D01*
X42274819Y-51202975D02*
X42274819Y-51012499D01*
X42274819Y-51012499D02*
X42227200Y-50917261D01*
X42227200Y-50917261D02*
X42179580Y-50869642D01*
X42179580Y-50869642D02*
X42036723Y-50774404D01*
X42036723Y-50774404D02*
X41846247Y-50726785D01*
X41846247Y-50726785D02*
X41465295Y-50726785D01*
X41465295Y-50726785D02*
X41370057Y-50774404D01*
X41370057Y-50774404D02*
X41322438Y-50822023D01*
X41322438Y-50822023D02*
X41274819Y-50917261D01*
X41274819Y-50917261D02*
X41274819Y-51107737D01*
X41274819Y-51107737D02*
X41322438Y-51202975D01*
X41322438Y-51202975D02*
X41370057Y-51250594D01*
X41370057Y-51250594D02*
X41465295Y-51298213D01*
X41465295Y-51298213D02*
X41703390Y-51298213D01*
X41703390Y-51298213D02*
X41798628Y-51250594D01*
X41798628Y-51250594D02*
X41846247Y-51202975D01*
X41846247Y-51202975D02*
X41893866Y-51107737D01*
X41893866Y-51107737D02*
X41893866Y-50917261D01*
X41893866Y-50917261D02*
X41846247Y-50822023D01*
X41846247Y-50822023D02*
X41798628Y-50774404D01*
X41798628Y-50774404D02*
X41703390Y-50726785D01*
X50357142Y-16634580D02*
X50309523Y-16682200D01*
X50309523Y-16682200D02*
X50166666Y-16729819D01*
X50166666Y-16729819D02*
X50071428Y-16729819D01*
X50071428Y-16729819D02*
X49928571Y-16682200D01*
X49928571Y-16682200D02*
X49833333Y-16586961D01*
X49833333Y-16586961D02*
X49785714Y-16491723D01*
X49785714Y-16491723D02*
X49738095Y-16301247D01*
X49738095Y-16301247D02*
X49738095Y-16158390D01*
X49738095Y-16158390D02*
X49785714Y-15967914D01*
X49785714Y-15967914D02*
X49833333Y-15872676D01*
X49833333Y-15872676D02*
X49928571Y-15777438D01*
X49928571Y-15777438D02*
X50071428Y-15729819D01*
X50071428Y-15729819D02*
X50166666Y-15729819D01*
X50166666Y-15729819D02*
X50309523Y-15777438D01*
X50309523Y-15777438D02*
X50357142Y-15825057D01*
X51309523Y-16729819D02*
X50738095Y-16729819D01*
X51023809Y-16729819D02*
X51023809Y-15729819D01*
X51023809Y-15729819D02*
X50928571Y-15872676D01*
X50928571Y-15872676D02*
X50833333Y-15967914D01*
X50833333Y-15967914D02*
X50738095Y-16015533D01*
X51690476Y-15825057D02*
X51738095Y-15777438D01*
X51738095Y-15777438D02*
X51833333Y-15729819D01*
X51833333Y-15729819D02*
X52071428Y-15729819D01*
X52071428Y-15729819D02*
X52166666Y-15777438D01*
X52166666Y-15777438D02*
X52214285Y-15825057D01*
X52214285Y-15825057D02*
X52261904Y-15920295D01*
X52261904Y-15920295D02*
X52261904Y-16015533D01*
X52261904Y-16015533D02*
X52214285Y-16158390D01*
X52214285Y-16158390D02*
X51642857Y-16729819D01*
X51642857Y-16729819D02*
X52261904Y-16729819D01*
X76166666Y-37454819D02*
X76166666Y-38169104D01*
X76166666Y-38169104D02*
X76119047Y-38311961D01*
X76119047Y-38311961D02*
X76023809Y-38407200D01*
X76023809Y-38407200D02*
X75880952Y-38454819D01*
X75880952Y-38454819D02*
X75785714Y-38454819D01*
X77071428Y-37788152D02*
X77071428Y-38454819D01*
X76833333Y-37407200D02*
X76595238Y-38121485D01*
X76595238Y-38121485D02*
X77214285Y-38121485D01*
X4166667Y-51177200D02*
X4309524Y-51224819D01*
X4309524Y-51224819D02*
X4547619Y-51224819D01*
X4547619Y-51224819D02*
X4642857Y-51177200D01*
X4642857Y-51177200D02*
X4690476Y-51129580D01*
X4690476Y-51129580D02*
X4738095Y-51034342D01*
X4738095Y-51034342D02*
X4738095Y-50939104D01*
X4738095Y-50939104D02*
X4690476Y-50843866D01*
X4690476Y-50843866D02*
X4642857Y-50796247D01*
X4642857Y-50796247D02*
X4547619Y-50748628D01*
X4547619Y-50748628D02*
X4357143Y-50701009D01*
X4357143Y-50701009D02*
X4261905Y-50653390D01*
X4261905Y-50653390D02*
X4214286Y-50605771D01*
X4214286Y-50605771D02*
X4166667Y-50510533D01*
X4166667Y-50510533D02*
X4166667Y-50415295D01*
X4166667Y-50415295D02*
X4214286Y-50320057D01*
X4214286Y-50320057D02*
X4261905Y-50272438D01*
X4261905Y-50272438D02*
X4357143Y-50224819D01*
X4357143Y-50224819D02*
X4595238Y-50224819D01*
X4595238Y-50224819D02*
X4738095Y-50272438D01*
X5071429Y-50224819D02*
X5309524Y-51224819D01*
X5309524Y-51224819D02*
X5500000Y-50510533D01*
X5500000Y-50510533D02*
X5690476Y-51224819D01*
X5690476Y-51224819D02*
X5928572Y-50224819D01*
X6261905Y-50320057D02*
X6309524Y-50272438D01*
X6309524Y-50272438D02*
X6404762Y-50224819D01*
X6404762Y-50224819D02*
X6642857Y-50224819D01*
X6642857Y-50224819D02*
X6738095Y-50272438D01*
X6738095Y-50272438D02*
X6785714Y-50320057D01*
X6785714Y-50320057D02*
X6833333Y-50415295D01*
X6833333Y-50415295D02*
X6833333Y-50510533D01*
X6833333Y-50510533D02*
X6785714Y-50653390D01*
X6785714Y-50653390D02*
X6214286Y-51224819D01*
X6214286Y-51224819D02*
X6833333Y-51224819D01*
X47679580Y-35754166D02*
X47727200Y-35801785D01*
X47727200Y-35801785D02*
X47774819Y-35944642D01*
X47774819Y-35944642D02*
X47774819Y-36039880D01*
X47774819Y-36039880D02*
X47727200Y-36182737D01*
X47727200Y-36182737D02*
X47631961Y-36277975D01*
X47631961Y-36277975D02*
X47536723Y-36325594D01*
X47536723Y-36325594D02*
X47346247Y-36373213D01*
X47346247Y-36373213D02*
X47203390Y-36373213D01*
X47203390Y-36373213D02*
X47012914Y-36325594D01*
X47012914Y-36325594D02*
X46917676Y-36277975D01*
X46917676Y-36277975D02*
X46822438Y-36182737D01*
X46822438Y-36182737D02*
X46774819Y-36039880D01*
X46774819Y-36039880D02*
X46774819Y-35944642D01*
X46774819Y-35944642D02*
X46822438Y-35801785D01*
X46822438Y-35801785D02*
X46870057Y-35754166D01*
X46774819Y-34849404D02*
X46774819Y-35325594D01*
X46774819Y-35325594D02*
X47251009Y-35373213D01*
X47251009Y-35373213D02*
X47203390Y-35325594D01*
X47203390Y-35325594D02*
X47155771Y-35230356D01*
X47155771Y-35230356D02*
X47155771Y-34992261D01*
X47155771Y-34992261D02*
X47203390Y-34897023D01*
X47203390Y-34897023D02*
X47251009Y-34849404D01*
X47251009Y-34849404D02*
X47346247Y-34801785D01*
X47346247Y-34801785D02*
X47584342Y-34801785D01*
X47584342Y-34801785D02*
X47679580Y-34849404D01*
X47679580Y-34849404D02*
X47727200Y-34897023D01*
X47727200Y-34897023D02*
X47774819Y-34992261D01*
X47774819Y-34992261D02*
X47774819Y-35230356D01*
X47774819Y-35230356D02*
X47727200Y-35325594D01*
X47727200Y-35325594D02*
X47679580Y-35373213D01*
X21359580Y-38567857D02*
X21407200Y-38615476D01*
X21407200Y-38615476D02*
X21454819Y-38758333D01*
X21454819Y-38758333D02*
X21454819Y-38853571D01*
X21454819Y-38853571D02*
X21407200Y-38996428D01*
X21407200Y-38996428D02*
X21311961Y-39091666D01*
X21311961Y-39091666D02*
X21216723Y-39139285D01*
X21216723Y-39139285D02*
X21026247Y-39186904D01*
X21026247Y-39186904D02*
X20883390Y-39186904D01*
X20883390Y-39186904D02*
X20692914Y-39139285D01*
X20692914Y-39139285D02*
X20597676Y-39091666D01*
X20597676Y-39091666D02*
X20502438Y-38996428D01*
X20502438Y-38996428D02*
X20454819Y-38853571D01*
X20454819Y-38853571D02*
X20454819Y-38758333D01*
X20454819Y-38758333D02*
X20502438Y-38615476D01*
X20502438Y-38615476D02*
X20550057Y-38567857D01*
X21454819Y-37615476D02*
X21454819Y-38186904D01*
X21454819Y-37901190D02*
X20454819Y-37901190D01*
X20454819Y-37901190D02*
X20597676Y-37996428D01*
X20597676Y-37996428D02*
X20692914Y-38091666D01*
X20692914Y-38091666D02*
X20740533Y-38186904D01*
X20454819Y-36758333D02*
X20454819Y-36948809D01*
X20454819Y-36948809D02*
X20502438Y-37044047D01*
X20502438Y-37044047D02*
X20550057Y-37091666D01*
X20550057Y-37091666D02*
X20692914Y-37186904D01*
X20692914Y-37186904D02*
X20883390Y-37234523D01*
X20883390Y-37234523D02*
X21264342Y-37234523D01*
X21264342Y-37234523D02*
X21359580Y-37186904D01*
X21359580Y-37186904D02*
X21407200Y-37139285D01*
X21407200Y-37139285D02*
X21454819Y-37044047D01*
X21454819Y-37044047D02*
X21454819Y-36853571D01*
X21454819Y-36853571D02*
X21407200Y-36758333D01*
X21407200Y-36758333D02*
X21359580Y-36710714D01*
X21359580Y-36710714D02*
X21264342Y-36663095D01*
X21264342Y-36663095D02*
X21026247Y-36663095D01*
X21026247Y-36663095D02*
X20931009Y-36710714D01*
X20931009Y-36710714D02*
X20883390Y-36758333D01*
X20883390Y-36758333D02*
X20835771Y-36853571D01*
X20835771Y-36853571D02*
X20835771Y-37044047D01*
X20835771Y-37044047D02*
X20883390Y-37139285D01*
X20883390Y-37139285D02*
X20931009Y-37186904D01*
X20931009Y-37186904D02*
X21026247Y-37234523D01*
X18954819Y-49629166D02*
X18478628Y-49962499D01*
X18954819Y-50200594D02*
X17954819Y-50200594D01*
X17954819Y-50200594D02*
X17954819Y-49819642D01*
X17954819Y-49819642D02*
X18002438Y-49724404D01*
X18002438Y-49724404D02*
X18050057Y-49676785D01*
X18050057Y-49676785D02*
X18145295Y-49629166D01*
X18145295Y-49629166D02*
X18288152Y-49629166D01*
X18288152Y-49629166D02*
X18383390Y-49676785D01*
X18383390Y-49676785D02*
X18431009Y-49724404D01*
X18431009Y-49724404D02*
X18478628Y-49819642D01*
X18478628Y-49819642D02*
X18478628Y-50200594D01*
X18954819Y-48676785D02*
X18954819Y-49248213D01*
X18954819Y-48962499D02*
X17954819Y-48962499D01*
X17954819Y-48962499D02*
X18097676Y-49057737D01*
X18097676Y-49057737D02*
X18192914Y-49152975D01*
X18192914Y-49152975D02*
X18240533Y-49248213D01*
X27761905Y-57456819D02*
X28333333Y-57456819D01*
X28047619Y-58456819D02*
X28047619Y-57456819D01*
X28666667Y-58456819D02*
X28666667Y-57456819D01*
X28666667Y-57456819D02*
X29047619Y-57456819D01*
X29047619Y-57456819D02*
X29142857Y-57504438D01*
X29142857Y-57504438D02*
X29190476Y-57552057D01*
X29190476Y-57552057D02*
X29238095Y-57647295D01*
X29238095Y-57647295D02*
X29238095Y-57790152D01*
X29238095Y-57790152D02*
X29190476Y-57885390D01*
X29190476Y-57885390D02*
X29142857Y-57933009D01*
X29142857Y-57933009D02*
X29047619Y-57980628D01*
X29047619Y-57980628D02*
X28666667Y-57980628D01*
X29619048Y-57552057D02*
X29666667Y-57504438D01*
X29666667Y-57504438D02*
X29761905Y-57456819D01*
X29761905Y-57456819D02*
X30000000Y-57456819D01*
X30000000Y-57456819D02*
X30095238Y-57504438D01*
X30095238Y-57504438D02*
X30142857Y-57552057D01*
X30142857Y-57552057D02*
X30190476Y-57647295D01*
X30190476Y-57647295D02*
X30190476Y-57742533D01*
X30190476Y-57742533D02*
X30142857Y-57885390D01*
X30142857Y-57885390D02*
X29571429Y-58456819D01*
X29571429Y-58456819D02*
X30190476Y-58456819D01*
X30809524Y-57456819D02*
X30904762Y-57456819D01*
X30904762Y-57456819D02*
X31000000Y-57504438D01*
X31000000Y-57504438D02*
X31047619Y-57552057D01*
X31047619Y-57552057D02*
X31095238Y-57647295D01*
X31095238Y-57647295D02*
X31142857Y-57837771D01*
X31142857Y-57837771D02*
X31142857Y-58075866D01*
X31142857Y-58075866D02*
X31095238Y-58266342D01*
X31095238Y-58266342D02*
X31047619Y-58361580D01*
X31047619Y-58361580D02*
X31000000Y-58409200D01*
X31000000Y-58409200D02*
X30904762Y-58456819D01*
X30904762Y-58456819D02*
X30809524Y-58456819D01*
X30809524Y-58456819D02*
X30714286Y-58409200D01*
X30714286Y-58409200D02*
X30666667Y-58361580D01*
X30666667Y-58361580D02*
X30619048Y-58266342D01*
X30619048Y-58266342D02*
X30571429Y-58075866D01*
X30571429Y-58075866D02*
X30571429Y-57837771D01*
X30571429Y-57837771D02*
X30619048Y-57647295D01*
X30619048Y-57647295D02*
X30666667Y-57552057D01*
X30666667Y-57552057D02*
X30714286Y-57504438D01*
X30714286Y-57504438D02*
X30809524Y-57456819D01*
X14238095Y-57456819D02*
X14809523Y-57456819D01*
X14523809Y-58456819D02*
X14523809Y-57456819D01*
X15142857Y-58456819D02*
X15142857Y-57456819D01*
X15142857Y-57456819D02*
X15523809Y-57456819D01*
X15523809Y-57456819D02*
X15619047Y-57504438D01*
X15619047Y-57504438D02*
X15666666Y-57552057D01*
X15666666Y-57552057D02*
X15714285Y-57647295D01*
X15714285Y-57647295D02*
X15714285Y-57790152D01*
X15714285Y-57790152D02*
X15666666Y-57885390D01*
X15666666Y-57885390D02*
X15619047Y-57933009D01*
X15619047Y-57933009D02*
X15523809Y-57980628D01*
X15523809Y-57980628D02*
X15142857Y-57980628D01*
X16095238Y-57552057D02*
X16142857Y-57504438D01*
X16142857Y-57504438D02*
X16238095Y-57456819D01*
X16238095Y-57456819D02*
X16476190Y-57456819D01*
X16476190Y-57456819D02*
X16571428Y-57504438D01*
X16571428Y-57504438D02*
X16619047Y-57552057D01*
X16619047Y-57552057D02*
X16666666Y-57647295D01*
X16666666Y-57647295D02*
X16666666Y-57742533D01*
X16666666Y-57742533D02*
X16619047Y-57885390D01*
X16619047Y-57885390D02*
X16047619Y-58456819D01*
X16047619Y-58456819D02*
X16666666Y-58456819D01*
X60833333Y-10454819D02*
X60500000Y-9978628D01*
X60261905Y-10454819D02*
X60261905Y-9454819D01*
X60261905Y-9454819D02*
X60642857Y-9454819D01*
X60642857Y-9454819D02*
X60738095Y-9502438D01*
X60738095Y-9502438D02*
X60785714Y-9550057D01*
X60785714Y-9550057D02*
X60833333Y-9645295D01*
X60833333Y-9645295D02*
X60833333Y-9788152D01*
X60833333Y-9788152D02*
X60785714Y-9883390D01*
X60785714Y-9883390D02*
X60738095Y-9931009D01*
X60738095Y-9931009D02*
X60642857Y-9978628D01*
X60642857Y-9978628D02*
X60261905Y-9978628D01*
X61690476Y-9788152D02*
X61690476Y-10454819D01*
X61452381Y-9407200D02*
X61214286Y-10121485D01*
X61214286Y-10121485D02*
X61833333Y-10121485D01*
X64857142Y-56104819D02*
X64523809Y-55628628D01*
X64285714Y-56104819D02*
X64285714Y-55104819D01*
X64285714Y-55104819D02*
X64666666Y-55104819D01*
X64666666Y-55104819D02*
X64761904Y-55152438D01*
X64761904Y-55152438D02*
X64809523Y-55200057D01*
X64809523Y-55200057D02*
X64857142Y-55295295D01*
X64857142Y-55295295D02*
X64857142Y-55438152D01*
X64857142Y-55438152D02*
X64809523Y-55533390D01*
X64809523Y-55533390D02*
X64761904Y-55581009D01*
X64761904Y-55581009D02*
X64666666Y-55628628D01*
X64666666Y-55628628D02*
X64285714Y-55628628D01*
X65809523Y-56104819D02*
X65238095Y-56104819D01*
X65523809Y-56104819D02*
X65523809Y-55104819D01*
X65523809Y-55104819D02*
X65428571Y-55247676D01*
X65428571Y-55247676D02*
X65333333Y-55342914D01*
X65333333Y-55342914D02*
X65238095Y-55390533D01*
X66142857Y-55104819D02*
X66761904Y-55104819D01*
X66761904Y-55104819D02*
X66428571Y-55485771D01*
X66428571Y-55485771D02*
X66571428Y-55485771D01*
X66571428Y-55485771D02*
X66666666Y-55533390D01*
X66666666Y-55533390D02*
X66714285Y-55581009D01*
X66714285Y-55581009D02*
X66761904Y-55676247D01*
X66761904Y-55676247D02*
X66761904Y-55914342D01*
X66761904Y-55914342D02*
X66714285Y-56009580D01*
X66714285Y-56009580D02*
X66666666Y-56057200D01*
X66666666Y-56057200D02*
X66571428Y-56104819D01*
X66571428Y-56104819D02*
X66285714Y-56104819D01*
X66285714Y-56104819D02*
X66190476Y-56057200D01*
X66190476Y-56057200D02*
X66142857Y-56009580D01*
X16819642Y-12179580D02*
X16772023Y-12227200D01*
X16772023Y-12227200D02*
X16629166Y-12274819D01*
X16629166Y-12274819D02*
X16533928Y-12274819D01*
X16533928Y-12274819D02*
X16391071Y-12227200D01*
X16391071Y-12227200D02*
X16295833Y-12131961D01*
X16295833Y-12131961D02*
X16248214Y-12036723D01*
X16248214Y-12036723D02*
X16200595Y-11846247D01*
X16200595Y-11846247D02*
X16200595Y-11703390D01*
X16200595Y-11703390D02*
X16248214Y-11512914D01*
X16248214Y-11512914D02*
X16295833Y-11417676D01*
X16295833Y-11417676D02*
X16391071Y-11322438D01*
X16391071Y-11322438D02*
X16533928Y-11274819D01*
X16533928Y-11274819D02*
X16629166Y-11274819D01*
X16629166Y-11274819D02*
X16772023Y-11322438D01*
X16772023Y-11322438D02*
X16819642Y-11370057D01*
X17772023Y-12274819D02*
X17200595Y-12274819D01*
X17486309Y-12274819D02*
X17486309Y-11274819D01*
X17486309Y-11274819D02*
X17391071Y-11417676D01*
X17391071Y-11417676D02*
X17295833Y-11512914D01*
X17295833Y-11512914D02*
X17200595Y-11560533D01*
X18724404Y-12274819D02*
X18152976Y-12274819D01*
X18438690Y-12274819D02*
X18438690Y-11274819D01*
X18438690Y-11274819D02*
X18343452Y-11417676D01*
X18343452Y-11417676D02*
X18248214Y-11512914D01*
X18248214Y-11512914D02*
X18152976Y-11560533D01*
X31261905Y-57454819D02*
X31833333Y-57454819D01*
X31547619Y-58454819D02*
X31547619Y-57454819D01*
X32166667Y-58454819D02*
X32166667Y-57454819D01*
X32166667Y-57454819D02*
X32547619Y-57454819D01*
X32547619Y-57454819D02*
X32642857Y-57502438D01*
X32642857Y-57502438D02*
X32690476Y-57550057D01*
X32690476Y-57550057D02*
X32738095Y-57645295D01*
X32738095Y-57645295D02*
X32738095Y-57788152D01*
X32738095Y-57788152D02*
X32690476Y-57883390D01*
X32690476Y-57883390D02*
X32642857Y-57931009D01*
X32642857Y-57931009D02*
X32547619Y-57978628D01*
X32547619Y-57978628D02*
X32166667Y-57978628D01*
X33690476Y-58454819D02*
X33119048Y-58454819D01*
X33404762Y-58454819D02*
X33404762Y-57454819D01*
X33404762Y-57454819D02*
X33309524Y-57597676D01*
X33309524Y-57597676D02*
X33214286Y-57692914D01*
X33214286Y-57692914D02*
X33119048Y-57740533D01*
X34261905Y-57883390D02*
X34166667Y-57835771D01*
X34166667Y-57835771D02*
X34119048Y-57788152D01*
X34119048Y-57788152D02*
X34071429Y-57692914D01*
X34071429Y-57692914D02*
X34071429Y-57645295D01*
X34071429Y-57645295D02*
X34119048Y-57550057D01*
X34119048Y-57550057D02*
X34166667Y-57502438D01*
X34166667Y-57502438D02*
X34261905Y-57454819D01*
X34261905Y-57454819D02*
X34452381Y-57454819D01*
X34452381Y-57454819D02*
X34547619Y-57502438D01*
X34547619Y-57502438D02*
X34595238Y-57550057D01*
X34595238Y-57550057D02*
X34642857Y-57645295D01*
X34642857Y-57645295D02*
X34642857Y-57692914D01*
X34642857Y-57692914D02*
X34595238Y-57788152D01*
X34595238Y-57788152D02*
X34547619Y-57835771D01*
X34547619Y-57835771D02*
X34452381Y-57883390D01*
X34452381Y-57883390D02*
X34261905Y-57883390D01*
X34261905Y-57883390D02*
X34166667Y-57931009D01*
X34166667Y-57931009D02*
X34119048Y-57978628D01*
X34119048Y-57978628D02*
X34071429Y-58073866D01*
X34071429Y-58073866D02*
X34071429Y-58264342D01*
X34071429Y-58264342D02*
X34119048Y-58359580D01*
X34119048Y-58359580D02*
X34166667Y-58407200D01*
X34166667Y-58407200D02*
X34261905Y-58454819D01*
X34261905Y-58454819D02*
X34452381Y-58454819D01*
X34452381Y-58454819D02*
X34547619Y-58407200D01*
X34547619Y-58407200D02*
X34595238Y-58359580D01*
X34595238Y-58359580D02*
X34642857Y-58264342D01*
X34642857Y-58264342D02*
X34642857Y-58073866D01*
X34642857Y-58073866D02*
X34595238Y-57978628D01*
X34595238Y-57978628D02*
X34547619Y-57931009D01*
X34547619Y-57931009D02*
X34452381Y-57883390D01*
X45261905Y-6452819D02*
X45833333Y-6452819D01*
X45547619Y-7452819D02*
X45547619Y-6452819D01*
X46166667Y-7452819D02*
X46166667Y-6452819D01*
X46166667Y-6452819D02*
X46547619Y-6452819D01*
X46547619Y-6452819D02*
X46642857Y-6500438D01*
X46642857Y-6500438D02*
X46690476Y-6548057D01*
X46690476Y-6548057D02*
X46738095Y-6643295D01*
X46738095Y-6643295D02*
X46738095Y-6786152D01*
X46738095Y-6786152D02*
X46690476Y-6881390D01*
X46690476Y-6881390D02*
X46642857Y-6929009D01*
X46642857Y-6929009D02*
X46547619Y-6976628D01*
X46547619Y-6976628D02*
X46166667Y-6976628D01*
X47119048Y-6548057D02*
X47166667Y-6500438D01*
X47166667Y-6500438D02*
X47261905Y-6452819D01*
X47261905Y-6452819D02*
X47500000Y-6452819D01*
X47500000Y-6452819D02*
X47595238Y-6500438D01*
X47595238Y-6500438D02*
X47642857Y-6548057D01*
X47642857Y-6548057D02*
X47690476Y-6643295D01*
X47690476Y-6643295D02*
X47690476Y-6738533D01*
X47690476Y-6738533D02*
X47642857Y-6881390D01*
X47642857Y-6881390D02*
X47071429Y-7452819D01*
X47071429Y-7452819D02*
X47690476Y-7452819D01*
X48642857Y-7452819D02*
X48071429Y-7452819D01*
X48357143Y-7452819D02*
X48357143Y-6452819D01*
X48357143Y-6452819D02*
X48261905Y-6595676D01*
X48261905Y-6595676D02*
X48166667Y-6690914D01*
X48166667Y-6690914D02*
X48071429Y-6738533D01*
X48054819Y-22716904D02*
X48864342Y-22716904D01*
X48864342Y-22716904D02*
X48959580Y-22669285D01*
X48959580Y-22669285D02*
X49007200Y-22621666D01*
X49007200Y-22621666D02*
X49054819Y-22526428D01*
X49054819Y-22526428D02*
X49054819Y-22335952D01*
X49054819Y-22335952D02*
X49007200Y-22240714D01*
X49007200Y-22240714D02*
X48959580Y-22193095D01*
X48959580Y-22193095D02*
X48864342Y-22145476D01*
X48864342Y-22145476D02*
X48054819Y-22145476D01*
X48054819Y-21193095D02*
X48054819Y-21669285D01*
X48054819Y-21669285D02*
X48531009Y-21716904D01*
X48531009Y-21716904D02*
X48483390Y-21669285D01*
X48483390Y-21669285D02*
X48435771Y-21574047D01*
X48435771Y-21574047D02*
X48435771Y-21335952D01*
X48435771Y-21335952D02*
X48483390Y-21240714D01*
X48483390Y-21240714D02*
X48531009Y-21193095D01*
X48531009Y-21193095D02*
X48626247Y-21145476D01*
X48626247Y-21145476D02*
X48864342Y-21145476D01*
X48864342Y-21145476D02*
X48959580Y-21193095D01*
X48959580Y-21193095D02*
X49007200Y-21240714D01*
X49007200Y-21240714D02*
X49054819Y-21335952D01*
X49054819Y-21335952D02*
X49054819Y-21574047D01*
X49054819Y-21574047D02*
X49007200Y-21669285D01*
X49007200Y-21669285D02*
X48959580Y-21716904D01*
X15604819Y-42166666D02*
X15128628Y-42499999D01*
X15604819Y-42738094D02*
X14604819Y-42738094D01*
X14604819Y-42738094D02*
X14604819Y-42357142D01*
X14604819Y-42357142D02*
X14652438Y-42261904D01*
X14652438Y-42261904D02*
X14700057Y-42214285D01*
X14700057Y-42214285D02*
X14795295Y-42166666D01*
X14795295Y-42166666D02*
X14938152Y-42166666D01*
X14938152Y-42166666D02*
X15033390Y-42214285D01*
X15033390Y-42214285D02*
X15081009Y-42261904D01*
X15081009Y-42261904D02*
X15128628Y-42357142D01*
X15128628Y-42357142D02*
X15128628Y-42738094D01*
X14604819Y-41833332D02*
X14604819Y-41166666D01*
X14604819Y-41166666D02*
X15604819Y-41595237D01*
X47238095Y-45304819D02*
X47238095Y-46114342D01*
X47238095Y-46114342D02*
X47285714Y-46209580D01*
X47285714Y-46209580D02*
X47333333Y-46257200D01*
X47333333Y-46257200D02*
X47428571Y-46304819D01*
X47428571Y-46304819D02*
X47619047Y-46304819D01*
X47619047Y-46304819D02*
X47714285Y-46257200D01*
X47714285Y-46257200D02*
X47761904Y-46209580D01*
X47761904Y-46209580D02*
X47809523Y-46114342D01*
X47809523Y-46114342D02*
X47809523Y-45304819D01*
X48809523Y-46304819D02*
X48238095Y-46304819D01*
X48523809Y-46304819D02*
X48523809Y-45304819D01*
X48523809Y-45304819D02*
X48428571Y-45447676D01*
X48428571Y-45447676D02*
X48333333Y-45542914D01*
X48333333Y-45542914D02*
X48238095Y-45590533D01*
X43833333Y-48334580D02*
X43785714Y-48382200D01*
X43785714Y-48382200D02*
X43642857Y-48429819D01*
X43642857Y-48429819D02*
X43547619Y-48429819D01*
X43547619Y-48429819D02*
X43404762Y-48382200D01*
X43404762Y-48382200D02*
X43309524Y-48286961D01*
X43309524Y-48286961D02*
X43261905Y-48191723D01*
X43261905Y-48191723D02*
X43214286Y-48001247D01*
X43214286Y-48001247D02*
X43214286Y-47858390D01*
X43214286Y-47858390D02*
X43261905Y-47667914D01*
X43261905Y-47667914D02*
X43309524Y-47572676D01*
X43309524Y-47572676D02*
X43404762Y-47477438D01*
X43404762Y-47477438D02*
X43547619Y-47429819D01*
X43547619Y-47429819D02*
X43642857Y-47429819D01*
X43642857Y-47429819D02*
X43785714Y-47477438D01*
X43785714Y-47477438D02*
X43833333Y-47525057D01*
X44404762Y-47858390D02*
X44309524Y-47810771D01*
X44309524Y-47810771D02*
X44261905Y-47763152D01*
X44261905Y-47763152D02*
X44214286Y-47667914D01*
X44214286Y-47667914D02*
X44214286Y-47620295D01*
X44214286Y-47620295D02*
X44261905Y-47525057D01*
X44261905Y-47525057D02*
X44309524Y-47477438D01*
X44309524Y-47477438D02*
X44404762Y-47429819D01*
X44404762Y-47429819D02*
X44595238Y-47429819D01*
X44595238Y-47429819D02*
X44690476Y-47477438D01*
X44690476Y-47477438D02*
X44738095Y-47525057D01*
X44738095Y-47525057D02*
X44785714Y-47620295D01*
X44785714Y-47620295D02*
X44785714Y-47667914D01*
X44785714Y-47667914D02*
X44738095Y-47763152D01*
X44738095Y-47763152D02*
X44690476Y-47810771D01*
X44690476Y-47810771D02*
X44595238Y-47858390D01*
X44595238Y-47858390D02*
X44404762Y-47858390D01*
X44404762Y-47858390D02*
X44309524Y-47906009D01*
X44309524Y-47906009D02*
X44261905Y-47953628D01*
X44261905Y-47953628D02*
X44214286Y-48048866D01*
X44214286Y-48048866D02*
X44214286Y-48239342D01*
X44214286Y-48239342D02*
X44261905Y-48334580D01*
X44261905Y-48334580D02*
X44309524Y-48382200D01*
X44309524Y-48382200D02*
X44404762Y-48429819D01*
X44404762Y-48429819D02*
X44595238Y-48429819D01*
X44595238Y-48429819D02*
X44690476Y-48382200D01*
X44690476Y-48382200D02*
X44738095Y-48334580D01*
X44738095Y-48334580D02*
X44785714Y-48239342D01*
X44785714Y-48239342D02*
X44785714Y-48048866D01*
X44785714Y-48048866D02*
X44738095Y-47953628D01*
X44738095Y-47953628D02*
X44690476Y-47906009D01*
X44690476Y-47906009D02*
X44595238Y-47858390D01*
X17738095Y-57456819D02*
X18309523Y-57456819D01*
X18023809Y-58456819D02*
X18023809Y-57456819D01*
X18642857Y-58456819D02*
X18642857Y-57456819D01*
X18642857Y-57456819D02*
X19023809Y-57456819D01*
X19023809Y-57456819D02*
X19119047Y-57504438D01*
X19119047Y-57504438D02*
X19166666Y-57552057D01*
X19166666Y-57552057D02*
X19214285Y-57647295D01*
X19214285Y-57647295D02*
X19214285Y-57790152D01*
X19214285Y-57790152D02*
X19166666Y-57885390D01*
X19166666Y-57885390D02*
X19119047Y-57933009D01*
X19119047Y-57933009D02*
X19023809Y-57980628D01*
X19023809Y-57980628D02*
X18642857Y-57980628D01*
X19547619Y-57456819D02*
X20166666Y-57456819D01*
X20166666Y-57456819D02*
X19833333Y-57837771D01*
X19833333Y-57837771D02*
X19976190Y-57837771D01*
X19976190Y-57837771D02*
X20071428Y-57885390D01*
X20071428Y-57885390D02*
X20119047Y-57933009D01*
X20119047Y-57933009D02*
X20166666Y-58028247D01*
X20166666Y-58028247D02*
X20166666Y-58266342D01*
X20166666Y-58266342D02*
X20119047Y-58361580D01*
X20119047Y-58361580D02*
X20071428Y-58409200D01*
X20071428Y-58409200D02*
X19976190Y-58456819D01*
X19976190Y-58456819D02*
X19690476Y-58456819D01*
X19690476Y-58456819D02*
X19595238Y-58409200D01*
X19595238Y-58409200D02*
X19547619Y-58361580D01*
X55761905Y-57456819D02*
X56333333Y-57456819D01*
X56047619Y-58456819D02*
X56047619Y-57456819D01*
X56666667Y-58456819D02*
X56666667Y-57456819D01*
X56666667Y-57456819D02*
X57047619Y-57456819D01*
X57047619Y-57456819D02*
X57142857Y-57504438D01*
X57142857Y-57504438D02*
X57190476Y-57552057D01*
X57190476Y-57552057D02*
X57238095Y-57647295D01*
X57238095Y-57647295D02*
X57238095Y-57790152D01*
X57238095Y-57790152D02*
X57190476Y-57885390D01*
X57190476Y-57885390D02*
X57142857Y-57933009D01*
X57142857Y-57933009D02*
X57047619Y-57980628D01*
X57047619Y-57980628D02*
X56666667Y-57980628D01*
X58190476Y-58456819D02*
X57619048Y-58456819D01*
X57904762Y-58456819D02*
X57904762Y-57456819D01*
X57904762Y-57456819D02*
X57809524Y-57599676D01*
X57809524Y-57599676D02*
X57714286Y-57694914D01*
X57714286Y-57694914D02*
X57619048Y-57742533D01*
X59047619Y-57456819D02*
X58857143Y-57456819D01*
X58857143Y-57456819D02*
X58761905Y-57504438D01*
X58761905Y-57504438D02*
X58714286Y-57552057D01*
X58714286Y-57552057D02*
X58619048Y-57694914D01*
X58619048Y-57694914D02*
X58571429Y-57885390D01*
X58571429Y-57885390D02*
X58571429Y-58266342D01*
X58571429Y-58266342D02*
X58619048Y-58361580D01*
X58619048Y-58361580D02*
X58666667Y-58409200D01*
X58666667Y-58409200D02*
X58761905Y-58456819D01*
X58761905Y-58456819D02*
X58952381Y-58456819D01*
X58952381Y-58456819D02*
X59047619Y-58409200D01*
X59047619Y-58409200D02*
X59095238Y-58361580D01*
X59095238Y-58361580D02*
X59142857Y-58266342D01*
X59142857Y-58266342D02*
X59142857Y-58028247D01*
X59142857Y-58028247D02*
X59095238Y-57933009D01*
X59095238Y-57933009D02*
X59047619Y-57885390D01*
X59047619Y-57885390D02*
X58952381Y-57837771D01*
X58952381Y-57837771D02*
X58761905Y-57837771D01*
X58761905Y-57837771D02*
X58666667Y-57885390D01*
X58666667Y-57885390D02*
X58619048Y-57933009D01*
X58619048Y-57933009D02*
X58571429Y-58028247D01*
X57104819Y-22121666D02*
X56628628Y-22454999D01*
X57104819Y-22693094D02*
X56104819Y-22693094D01*
X56104819Y-22693094D02*
X56104819Y-22312142D01*
X56104819Y-22312142D02*
X56152438Y-22216904D01*
X56152438Y-22216904D02*
X56200057Y-22169285D01*
X56200057Y-22169285D02*
X56295295Y-22121666D01*
X56295295Y-22121666D02*
X56438152Y-22121666D01*
X56438152Y-22121666D02*
X56533390Y-22169285D01*
X56533390Y-22169285D02*
X56581009Y-22216904D01*
X56581009Y-22216904D02*
X56628628Y-22312142D01*
X56628628Y-22312142D02*
X56628628Y-22693094D01*
X56533390Y-21550237D02*
X56485771Y-21645475D01*
X56485771Y-21645475D02*
X56438152Y-21693094D01*
X56438152Y-21693094D02*
X56342914Y-21740713D01*
X56342914Y-21740713D02*
X56295295Y-21740713D01*
X56295295Y-21740713D02*
X56200057Y-21693094D01*
X56200057Y-21693094D02*
X56152438Y-21645475D01*
X56152438Y-21645475D02*
X56104819Y-21550237D01*
X56104819Y-21550237D02*
X56104819Y-21359761D01*
X56104819Y-21359761D02*
X56152438Y-21264523D01*
X56152438Y-21264523D02*
X56200057Y-21216904D01*
X56200057Y-21216904D02*
X56295295Y-21169285D01*
X56295295Y-21169285D02*
X56342914Y-21169285D01*
X56342914Y-21169285D02*
X56438152Y-21216904D01*
X56438152Y-21216904D02*
X56485771Y-21264523D01*
X56485771Y-21264523D02*
X56533390Y-21359761D01*
X56533390Y-21359761D02*
X56533390Y-21550237D01*
X56533390Y-21550237D02*
X56581009Y-21645475D01*
X56581009Y-21645475D02*
X56628628Y-21693094D01*
X56628628Y-21693094D02*
X56723866Y-21740713D01*
X56723866Y-21740713D02*
X56914342Y-21740713D01*
X56914342Y-21740713D02*
X57009580Y-21693094D01*
X57009580Y-21693094D02*
X57057200Y-21645475D01*
X57057200Y-21645475D02*
X57104819Y-21550237D01*
X57104819Y-21550237D02*
X57104819Y-21359761D01*
X57104819Y-21359761D02*
X57057200Y-21264523D01*
X57057200Y-21264523D02*
X57009580Y-21216904D01*
X57009580Y-21216904D02*
X56914342Y-21169285D01*
X56914342Y-21169285D02*
X56723866Y-21169285D01*
X56723866Y-21169285D02*
X56628628Y-21216904D01*
X56628628Y-21216904D02*
X56581009Y-21264523D01*
X56581009Y-21264523D02*
X56533390Y-21359761D01*
X41632085Y-36359580D02*
X41584466Y-36407200D01*
X41584466Y-36407200D02*
X41441609Y-36454819D01*
X41441609Y-36454819D02*
X41346371Y-36454819D01*
X41346371Y-36454819D02*
X41203514Y-36407200D01*
X41203514Y-36407200D02*
X41108276Y-36311961D01*
X41108276Y-36311961D02*
X41060657Y-36216723D01*
X41060657Y-36216723D02*
X41013038Y-36026247D01*
X41013038Y-36026247D02*
X41013038Y-35883390D01*
X41013038Y-35883390D02*
X41060657Y-35692914D01*
X41060657Y-35692914D02*
X41108276Y-35597676D01*
X41108276Y-35597676D02*
X41203514Y-35502438D01*
X41203514Y-35502438D02*
X41346371Y-35454819D01*
X41346371Y-35454819D02*
X41441609Y-35454819D01*
X41441609Y-35454819D02*
X41584466Y-35502438D01*
X41584466Y-35502438D02*
X41632085Y-35550057D01*
X42584466Y-36454819D02*
X42013038Y-36454819D01*
X42298752Y-36454819D02*
X42298752Y-35454819D01*
X42298752Y-35454819D02*
X42203514Y-35597676D01*
X42203514Y-35597676D02*
X42108276Y-35692914D01*
X42108276Y-35692914D02*
X42013038Y-35740533D01*
X76166666Y-47454819D02*
X76166666Y-48169104D01*
X76166666Y-48169104D02*
X76119047Y-48311961D01*
X76119047Y-48311961D02*
X76023809Y-48407200D01*
X76023809Y-48407200D02*
X75880952Y-48454819D01*
X75880952Y-48454819D02*
X75785714Y-48454819D01*
X76547619Y-47454819D02*
X77166666Y-47454819D01*
X77166666Y-47454819D02*
X76833333Y-47835771D01*
X76833333Y-47835771D02*
X76976190Y-47835771D01*
X76976190Y-47835771D02*
X77071428Y-47883390D01*
X77071428Y-47883390D02*
X77119047Y-47931009D01*
X77119047Y-47931009D02*
X77166666Y-48026247D01*
X77166666Y-48026247D02*
X77166666Y-48264342D01*
X77166666Y-48264342D02*
X77119047Y-48359580D01*
X77119047Y-48359580D02*
X77071428Y-48407200D01*
X77071428Y-48407200D02*
X76976190Y-48454819D01*
X76976190Y-48454819D02*
X76690476Y-48454819D01*
X76690476Y-48454819D02*
X76595238Y-48407200D01*
X76595238Y-48407200D02*
X76547619Y-48359580D01*
X45838238Y-53134914D02*
X45838238Y-53439676D01*
X45624905Y-52799676D02*
X45838238Y-53134914D01*
X45838238Y-53134914D02*
X46051572Y-52799676D01*
X46600143Y-53439676D02*
X46234428Y-53439676D01*
X46417285Y-53439676D02*
X46417285Y-52799676D01*
X46417285Y-52799676D02*
X46356333Y-52891104D01*
X46356333Y-52891104D02*
X46295381Y-52952057D01*
X46295381Y-52952057D02*
X46234428Y-52982533D01*
X17319642Y-23179580D02*
X17272023Y-23227200D01*
X17272023Y-23227200D02*
X17129166Y-23274819D01*
X17129166Y-23274819D02*
X17033928Y-23274819D01*
X17033928Y-23274819D02*
X16891071Y-23227200D01*
X16891071Y-23227200D02*
X16795833Y-23131961D01*
X16795833Y-23131961D02*
X16748214Y-23036723D01*
X16748214Y-23036723D02*
X16700595Y-22846247D01*
X16700595Y-22846247D02*
X16700595Y-22703390D01*
X16700595Y-22703390D02*
X16748214Y-22512914D01*
X16748214Y-22512914D02*
X16795833Y-22417676D01*
X16795833Y-22417676D02*
X16891071Y-22322438D01*
X16891071Y-22322438D02*
X17033928Y-22274819D01*
X17033928Y-22274819D02*
X17129166Y-22274819D01*
X17129166Y-22274819D02*
X17272023Y-22322438D01*
X17272023Y-22322438D02*
X17319642Y-22370057D01*
X17700595Y-22370057D02*
X17748214Y-22322438D01*
X17748214Y-22322438D02*
X17843452Y-22274819D01*
X17843452Y-22274819D02*
X18081547Y-22274819D01*
X18081547Y-22274819D02*
X18176785Y-22322438D01*
X18176785Y-22322438D02*
X18224404Y-22370057D01*
X18224404Y-22370057D02*
X18272023Y-22465295D01*
X18272023Y-22465295D02*
X18272023Y-22560533D01*
X18272023Y-22560533D02*
X18224404Y-22703390D01*
X18224404Y-22703390D02*
X17652976Y-23274819D01*
X17652976Y-23274819D02*
X18272023Y-23274819D01*
X18891071Y-22274819D02*
X18986309Y-22274819D01*
X18986309Y-22274819D02*
X19081547Y-22322438D01*
X19081547Y-22322438D02*
X19129166Y-22370057D01*
X19129166Y-22370057D02*
X19176785Y-22465295D01*
X19176785Y-22465295D02*
X19224404Y-22655771D01*
X19224404Y-22655771D02*
X19224404Y-22893866D01*
X19224404Y-22893866D02*
X19176785Y-23084342D01*
X19176785Y-23084342D02*
X19129166Y-23179580D01*
X19129166Y-23179580D02*
X19081547Y-23227200D01*
X19081547Y-23227200D02*
X18986309Y-23274819D01*
X18986309Y-23274819D02*
X18891071Y-23274819D01*
X18891071Y-23274819D02*
X18795833Y-23227200D01*
X18795833Y-23227200D02*
X18748214Y-23179580D01*
X18748214Y-23179580D02*
X18700595Y-23084342D01*
X18700595Y-23084342D02*
X18652976Y-22893866D01*
X18652976Y-22893866D02*
X18652976Y-22655771D01*
X18652976Y-22655771D02*
X18700595Y-22465295D01*
X18700595Y-22465295D02*
X18748214Y-22370057D01*
X18748214Y-22370057D02*
X18795833Y-22322438D01*
X18795833Y-22322438D02*
X18891071Y-22274819D01*
X67238095Y-6452819D02*
X67809523Y-6452819D01*
X67523809Y-7452819D02*
X67523809Y-6452819D01*
X68142857Y-7452819D02*
X68142857Y-6452819D01*
X68142857Y-6452819D02*
X68523809Y-6452819D01*
X68523809Y-6452819D02*
X68619047Y-6500438D01*
X68619047Y-6500438D02*
X68666666Y-6548057D01*
X68666666Y-6548057D02*
X68714285Y-6643295D01*
X68714285Y-6643295D02*
X68714285Y-6786152D01*
X68714285Y-6786152D02*
X68666666Y-6881390D01*
X68666666Y-6881390D02*
X68619047Y-6929009D01*
X68619047Y-6929009D02*
X68523809Y-6976628D01*
X68523809Y-6976628D02*
X68142857Y-6976628D01*
X69619047Y-6452819D02*
X69142857Y-6452819D01*
X69142857Y-6452819D02*
X69095238Y-6929009D01*
X69095238Y-6929009D02*
X69142857Y-6881390D01*
X69142857Y-6881390D02*
X69238095Y-6833771D01*
X69238095Y-6833771D02*
X69476190Y-6833771D01*
X69476190Y-6833771D02*
X69571428Y-6881390D01*
X69571428Y-6881390D02*
X69619047Y-6929009D01*
X69619047Y-6929009D02*
X69666666Y-7024247D01*
X69666666Y-7024247D02*
X69666666Y-7262342D01*
X69666666Y-7262342D02*
X69619047Y-7357580D01*
X69619047Y-7357580D02*
X69571428Y-7405200D01*
X69571428Y-7405200D02*
X69476190Y-7452819D01*
X69476190Y-7452819D02*
X69238095Y-7452819D01*
X69238095Y-7452819D02*
X69142857Y-7405200D01*
X69142857Y-7405200D02*
X69095238Y-7357580D01*
X64857142Y-48304819D02*
X64523809Y-47828628D01*
X64285714Y-48304819D02*
X64285714Y-47304819D01*
X64285714Y-47304819D02*
X64666666Y-47304819D01*
X64666666Y-47304819D02*
X64761904Y-47352438D01*
X64761904Y-47352438D02*
X64809523Y-47400057D01*
X64809523Y-47400057D02*
X64857142Y-47495295D01*
X64857142Y-47495295D02*
X64857142Y-47638152D01*
X64857142Y-47638152D02*
X64809523Y-47733390D01*
X64809523Y-47733390D02*
X64761904Y-47781009D01*
X64761904Y-47781009D02*
X64666666Y-47828628D01*
X64666666Y-47828628D02*
X64285714Y-47828628D01*
X65809523Y-48304819D02*
X65238095Y-48304819D01*
X65523809Y-48304819D02*
X65523809Y-47304819D01*
X65523809Y-47304819D02*
X65428571Y-47447676D01*
X65428571Y-47447676D02*
X65333333Y-47542914D01*
X65333333Y-47542914D02*
X65238095Y-47590533D01*
X66190476Y-47400057D02*
X66238095Y-47352438D01*
X66238095Y-47352438D02*
X66333333Y-47304819D01*
X66333333Y-47304819D02*
X66571428Y-47304819D01*
X66571428Y-47304819D02*
X66666666Y-47352438D01*
X66666666Y-47352438D02*
X66714285Y-47400057D01*
X66714285Y-47400057D02*
X66761904Y-47495295D01*
X66761904Y-47495295D02*
X66761904Y-47590533D01*
X66761904Y-47590533D02*
X66714285Y-47733390D01*
X66714285Y-47733390D02*
X66142857Y-48304819D01*
X66142857Y-48304819D02*
X66761904Y-48304819D01*
X50319642Y-27994580D02*
X50272023Y-28042200D01*
X50272023Y-28042200D02*
X50129166Y-28089819D01*
X50129166Y-28089819D02*
X50033928Y-28089819D01*
X50033928Y-28089819D02*
X49891071Y-28042200D01*
X49891071Y-28042200D02*
X49795833Y-27946961D01*
X49795833Y-27946961D02*
X49748214Y-27851723D01*
X49748214Y-27851723D02*
X49700595Y-27661247D01*
X49700595Y-27661247D02*
X49700595Y-27518390D01*
X49700595Y-27518390D02*
X49748214Y-27327914D01*
X49748214Y-27327914D02*
X49795833Y-27232676D01*
X49795833Y-27232676D02*
X49891071Y-27137438D01*
X49891071Y-27137438D02*
X50033928Y-27089819D01*
X50033928Y-27089819D02*
X50129166Y-27089819D01*
X50129166Y-27089819D02*
X50272023Y-27137438D01*
X50272023Y-27137438D02*
X50319642Y-27185057D01*
X51272023Y-28089819D02*
X50700595Y-28089819D01*
X50986309Y-28089819D02*
X50986309Y-27089819D01*
X50986309Y-27089819D02*
X50891071Y-27232676D01*
X50891071Y-27232676D02*
X50795833Y-27327914D01*
X50795833Y-27327914D02*
X50700595Y-27375533D01*
X51843452Y-27518390D02*
X51748214Y-27470771D01*
X51748214Y-27470771D02*
X51700595Y-27423152D01*
X51700595Y-27423152D02*
X51652976Y-27327914D01*
X51652976Y-27327914D02*
X51652976Y-27280295D01*
X51652976Y-27280295D02*
X51700595Y-27185057D01*
X51700595Y-27185057D02*
X51748214Y-27137438D01*
X51748214Y-27137438D02*
X51843452Y-27089819D01*
X51843452Y-27089819D02*
X52033928Y-27089819D01*
X52033928Y-27089819D02*
X52129166Y-27137438D01*
X52129166Y-27137438D02*
X52176785Y-27185057D01*
X52176785Y-27185057D02*
X52224404Y-27280295D01*
X52224404Y-27280295D02*
X52224404Y-27327914D01*
X52224404Y-27327914D02*
X52176785Y-27423152D01*
X52176785Y-27423152D02*
X52129166Y-27470771D01*
X52129166Y-27470771D02*
X52033928Y-27518390D01*
X52033928Y-27518390D02*
X51843452Y-27518390D01*
X51843452Y-27518390D02*
X51748214Y-27566009D01*
X51748214Y-27566009D02*
X51700595Y-27613628D01*
X51700595Y-27613628D02*
X51652976Y-27708866D01*
X51652976Y-27708866D02*
X51652976Y-27899342D01*
X51652976Y-27899342D02*
X51700595Y-27994580D01*
X51700595Y-27994580D02*
X51748214Y-28042200D01*
X51748214Y-28042200D02*
X51843452Y-28089819D01*
X51843452Y-28089819D02*
X52033928Y-28089819D01*
X52033928Y-28089819D02*
X52129166Y-28042200D01*
X52129166Y-28042200D02*
X52176785Y-27994580D01*
X52176785Y-27994580D02*
X52224404Y-27899342D01*
X52224404Y-27899342D02*
X52224404Y-27708866D01*
X52224404Y-27708866D02*
X52176785Y-27613628D01*
X52176785Y-27613628D02*
X52129166Y-27566009D01*
X52129166Y-27566009D02*
X52033928Y-27518390D01*
X26943254Y-50007680D02*
X26943254Y-49198157D01*
X26943254Y-49198157D02*
X26895635Y-49102919D01*
X26895635Y-49102919D02*
X26848016Y-49055300D01*
X26848016Y-49055300D02*
X26752778Y-49007680D01*
X26752778Y-49007680D02*
X26562302Y-49007680D01*
X26562302Y-49007680D02*
X26467064Y-49055300D01*
X26467064Y-49055300D02*
X26419445Y-49102919D01*
X26419445Y-49102919D02*
X26371826Y-49198157D01*
X26371826Y-49198157D02*
X26371826Y-50007680D01*
X25467064Y-50007680D02*
X25657540Y-50007680D01*
X25657540Y-50007680D02*
X25752778Y-49960061D01*
X25752778Y-49960061D02*
X25800397Y-49912442D01*
X25800397Y-49912442D02*
X25895635Y-49769585D01*
X25895635Y-49769585D02*
X25943254Y-49579109D01*
X25943254Y-49579109D02*
X25943254Y-49198157D01*
X25943254Y-49198157D02*
X25895635Y-49102919D01*
X25895635Y-49102919D02*
X25848016Y-49055300D01*
X25848016Y-49055300D02*
X25752778Y-49007680D01*
X25752778Y-49007680D02*
X25562302Y-49007680D01*
X25562302Y-49007680D02*
X25467064Y-49055300D01*
X25467064Y-49055300D02*
X25419445Y-49102919D01*
X25419445Y-49102919D02*
X25371826Y-49198157D01*
X25371826Y-49198157D02*
X25371826Y-49436252D01*
X25371826Y-49436252D02*
X25419445Y-49531490D01*
X25419445Y-49531490D02*
X25467064Y-49579109D01*
X25467064Y-49579109D02*
X25562302Y-49626728D01*
X25562302Y-49626728D02*
X25752778Y-49626728D01*
X25752778Y-49626728D02*
X25848016Y-49579109D01*
X25848016Y-49579109D02*
X25895635Y-49531490D01*
X25895635Y-49531490D02*
X25943254Y-49436252D01*
X29616700Y-52473319D02*
X29616700Y-52711414D01*
X29378605Y-52616176D02*
X29616700Y-52711414D01*
X29616700Y-52711414D02*
X29854795Y-52616176D01*
X29473843Y-52901890D02*
X29616700Y-52711414D01*
X29616700Y-52711414D02*
X29759557Y-52901890D01*
X29616699Y-53563680D02*
X29616699Y-53325585D01*
X29854794Y-53420823D02*
X29616699Y-53325585D01*
X29616699Y-53325585D02*
X29378604Y-53420823D01*
X29759556Y-53135109D02*
X29616699Y-53325585D01*
X29616699Y-53325585D02*
X29473842Y-53135109D01*
D12*
%TO.C,C4*%
X54738748Y-49315000D02*
X55261252Y-49315000D01*
X54738748Y-50785000D02*
X55261252Y-50785000D01*
%TO.C,C2*%
X41761252Y-39815000D02*
X41238748Y-39815000D01*
X41761252Y-41285000D02*
X41238748Y-41285000D01*
%TO.C,J2*%
X4120000Y-18395000D02*
X5500000Y-18395000D01*
X4120000Y-19775000D02*
X4120000Y-18395000D01*
X4120000Y-21045000D02*
X4120000Y-23695000D01*
X4120000Y-21045000D02*
X6880000Y-21045000D01*
X4120000Y-23695000D02*
X6880000Y-23695000D01*
X6880000Y-21045000D02*
X6880000Y-23695000D01*
%TO.C,TP15*%
X65700000Y-60000000D02*
G75*
G02*
X63300000Y-60000000I-1200000J0D01*
G01*
X63300000Y-60000000D02*
G75*
G02*
X65700000Y-60000000I1200000J0D01*
G01*
%TO.C,R3*%
X54265000Y-12682064D02*
X54265000Y-12227936D01*
X55735000Y-12682064D02*
X55735000Y-12227936D01*
%TO.C,C15*%
X29765000Y-38223752D02*
X29765000Y-37701248D01*
X31235000Y-38223752D02*
X31235000Y-37701248D01*
%TO.C,TP17*%
X62200000Y-60000000D02*
G75*
G02*
X59800000Y-60000000I-1200000J0D01*
G01*
X59800000Y-60000000D02*
G75*
G02*
X62200000Y-60000000I1200000J0D01*
G01*
%TO.C,L1*%
X49790000Y-51213748D02*
X49790000Y-51736252D01*
X51210000Y-51213748D02*
X51210000Y-51736252D01*
%TO.C,TP11*%
X58700000Y-5000000D02*
G75*
G02*
X56300000Y-5000000I-1200000J0D01*
G01*
X56300000Y-5000000D02*
G75*
G02*
X58700000Y-5000000I1200000J0D01*
G01*
%TO.C,TP1*%
X13200000Y-60000000D02*
G75*
G02*
X10800000Y-60000000I-1200000J0D01*
G01*
X10800000Y-60000000D02*
G75*
G02*
X13200000Y-60000000I1200000J0D01*
G01*
%TO.C,C13*%
X34765000Y-27776248D02*
X34765000Y-28298752D01*
X36235000Y-27776248D02*
X36235000Y-28298752D01*
%TO.C,R5*%
X57265000Y-12682064D02*
X57265000Y-12227936D01*
X58735000Y-12682064D02*
X58735000Y-12227936D01*
%TO.C,TP12*%
X65700000Y-5000000D02*
G75*
G02*
X63300000Y-5000000I-1200000J0D01*
G01*
X63300000Y-5000000D02*
G75*
G02*
X65700000Y-5000000I1200000J0D01*
G01*
D13*
%TO.C,J1*%
X65450000Y-14270000D02*
X65450000Y-17080000D01*
X67070000Y-12625000D02*
X74130000Y-12625000D01*
X67470000Y-27375000D02*
X74130000Y-27375000D01*
X76970000Y-12625000D02*
X79950000Y-12625000D01*
X76970000Y-27375000D02*
X79950000Y-27375000D01*
X79950000Y-27375000D02*
X79950000Y-12625000D01*
D14*
X63700000Y-17750000D02*
G75*
G02*
X63500000Y-17750000I-100000J0D01*
G01*
X63500000Y-17750000D02*
G75*
G02*
X63700000Y-17750000I100000J0D01*
G01*
D12*
%TO.C,U2*%
X18140000Y-16952500D02*
X18615000Y-16952500D01*
X18140000Y-17427500D02*
X18140000Y-16952500D01*
X18140000Y-20697500D02*
X18140000Y-21172500D01*
X18140000Y-21172500D02*
X18615000Y-21172500D01*
X21885000Y-16952500D02*
X22120000Y-16952500D01*
X22360000Y-17427500D02*
X22360000Y-17252500D01*
X22360000Y-20697500D02*
X22360000Y-21172500D01*
X22360000Y-21172500D02*
X21885000Y-21172500D01*
X22690000Y-17192500D02*
X22360000Y-16952500D01*
X22690000Y-16712500D01*
X22690000Y-17192500D01*
G36*
X22690000Y-17192500D02*
G01*
X22360000Y-16952500D01*
X22690000Y-16712500D01*
X22690000Y-17192500D01*
G37*
%TO.C,C10*%
X53265000Y-40848752D02*
X53265000Y-40326248D01*
X54735000Y-40848752D02*
X54735000Y-40326248D01*
%TO.C,C14*%
X26765000Y-27738748D02*
X26765000Y-28261252D01*
X28235000Y-27738748D02*
X28235000Y-28261252D01*
%TO.C,R11*%
X29265000Y-12272936D02*
X29265000Y-12727064D01*
X30735000Y-12272936D02*
X30735000Y-12727064D01*
%TO.C,U3*%
X31500000Y-26440000D02*
X30700000Y-26440000D01*
X31500000Y-26440000D02*
X32300000Y-26440000D01*
X31500000Y-29560000D02*
X30700000Y-29560000D01*
X31500000Y-29560000D02*
X32300000Y-29560000D01*
X33040000Y-29840000D02*
X32560000Y-29840000D01*
X32800000Y-29510000D01*
X33040000Y-29840000D01*
G36*
X33040000Y-29840000D02*
G01*
X32560000Y-29840000D01*
X32800000Y-29510000D01*
X33040000Y-29840000D01*
G37*
%TO.C,C17*%
X59265000Y-22216252D02*
X59265000Y-21693748D01*
X60735000Y-22216252D02*
X60735000Y-21693748D01*
%TO.C,R6*%
X48265000Y-12682064D02*
X48265000Y-12227936D01*
X49735000Y-12682064D02*
X49735000Y-12227936D01*
%TO.C,U4*%
X26500000Y-36402500D02*
X25700000Y-36402500D01*
X26500000Y-36402500D02*
X27300000Y-36402500D01*
X26500000Y-39522500D02*
X25700000Y-39522500D01*
X26500000Y-39522500D02*
X27300000Y-39522500D01*
X25200000Y-36452500D02*
X24960000Y-36122500D01*
X25440000Y-36122500D01*
X25200000Y-36452500D01*
G36*
X25200000Y-36452500D02*
G01*
X24960000Y-36122500D01*
X25440000Y-36122500D01*
X25200000Y-36452500D01*
G37*
%TO.C,TP19*%
X69200000Y-60000000D02*
G75*
G02*
X66800000Y-60000000I-1200000J0D01*
G01*
X66800000Y-60000000D02*
G75*
G02*
X69200000Y-60000000I1200000J0D01*
G01*
%TO.C,TP6*%
X27200000Y-60000000D02*
G75*
G02*
X24800000Y-60000000I-1200000J0D01*
G01*
X24800000Y-60000000D02*
G75*
G02*
X27200000Y-60000000I1200000J0D01*
G01*
%TO.C,R2*%
X51265000Y-12682064D02*
X51265000Y-12227936D01*
X52735000Y-12682064D02*
X52735000Y-12227936D01*
%TO.C,C6*%
X54701248Y-43315000D02*
X55223752Y-43315000D01*
X54701248Y-44785000D02*
X55223752Y-44785000D01*
%TO.C,R9*%
X31272936Y-23265000D02*
X31727064Y-23265000D01*
X31272936Y-24735000D02*
X31727064Y-24735000D01*
%TO.C,TP13*%
X62200000Y-5000000D02*
G75*
G02*
X59800000Y-5000000I-1200000J0D01*
G01*
X59800000Y-5000000D02*
G75*
G02*
X62200000Y-5000000I1200000J0D01*
G01*
%TO.C,TP10*%
X55200000Y-5000000D02*
G75*
G02*
X52800000Y-5000000I-1200000J0D01*
G01*
X52800000Y-5000000D02*
G75*
G02*
X55200000Y-5000000I1200000J0D01*
G01*
%TO.C,TP14*%
X55200000Y-60000000D02*
G75*
G02*
X52800000Y-60000000I-1200000J0D01*
G01*
X52800000Y-60000000D02*
G75*
G02*
X55200000Y-60000000I1200000J0D01*
G01*
%TO.C,C19*%
X25265000Y-18738748D02*
X25265000Y-19261252D01*
X26735000Y-18738748D02*
X26735000Y-19261252D01*
%TO.C,TP9*%
X51700000Y-5000000D02*
G75*
G02*
X49300000Y-5000000I-1200000J0D01*
G01*
X49300000Y-5000000D02*
G75*
G02*
X51700000Y-5000000I1200000J0D01*
G01*
%TO.C,C3*%
X54738748Y-46815000D02*
X55261252Y-46815000D01*
X54738748Y-48285000D02*
X55261252Y-48285000D01*
%TO.C,TP7*%
X48200000Y-60000000D02*
G75*
G02*
X45800000Y-60000000I-1200000J0D01*
G01*
X45800000Y-60000000D02*
G75*
G02*
X48200000Y-60000000I1200000J0D01*
G01*
%TO.C,TP4*%
X23700000Y-60000000D02*
G75*
G02*
X21300000Y-60000000I-1200000J0D01*
G01*
X21300000Y-60000000D02*
G75*
G02*
X23700000Y-60000000I1200000J0D01*
G01*
%TO.C,TP8*%
X51700000Y-60000000D02*
G75*
G02*
X49300000Y-60000000I-1200000J0D01*
G01*
X49300000Y-60000000D02*
G75*
G02*
X51700000Y-60000000I1200000J0D01*
G01*
%TO.C,C7*%
X31265000Y-49723752D02*
X31265000Y-49201248D01*
X32735000Y-49723752D02*
X32735000Y-49201248D01*
%TO.C,R10*%
X29265000Y-18227064D02*
X29265000Y-17772936D01*
X30735000Y-18227064D02*
X30735000Y-17772936D01*
%TO.C,C9*%
X42765000Y-51773752D02*
X42765000Y-51251248D01*
X44235000Y-51773752D02*
X44235000Y-51251248D01*
%TO.C,C12*%
X50738748Y-17220000D02*
X51261252Y-17220000D01*
X50738748Y-18690000D02*
X51261252Y-18690000D01*
%TO.C,J4*%
X69990000Y-37130000D02*
X69990000Y-35800000D01*
X71100000Y-37130000D02*
X69990000Y-37130000D01*
X72560000Y-32900000D02*
X72150000Y-32900000D01*
X72560000Y-33620000D02*
X72150000Y-33620000D01*
X72560000Y-35440000D02*
X72210000Y-35440000D01*
X72560000Y-36160000D02*
X72210000Y-36160000D01*
X72560000Y-37130000D02*
X72560000Y-31930000D01*
X81190000Y-31930000D02*
X72560000Y-31930000D01*
X81190000Y-34530000D02*
X72560000Y-34530000D01*
X81190000Y-34648100D02*
X72560000Y-34648100D01*
X81190000Y-34766195D02*
X72560000Y-34766195D01*
X81190000Y-34884290D02*
X72560000Y-34884290D01*
X81190000Y-35002385D02*
X72560000Y-35002385D01*
X81190000Y-35120480D02*
X72560000Y-35120480D01*
X81190000Y-35238575D02*
X72560000Y-35238575D01*
X81190000Y-35356670D02*
X72560000Y-35356670D01*
X81190000Y-35474765D02*
X72560000Y-35474765D01*
X81190000Y-35592860D02*
X72560000Y-35592860D01*
X81190000Y-35710955D02*
X72560000Y-35710955D01*
X81190000Y-35829050D02*
X72560000Y-35829050D01*
X81190000Y-35947145D02*
X72560000Y-35947145D01*
X81190000Y-36065240D02*
X72560000Y-36065240D01*
X81190000Y-36183335D02*
X72560000Y-36183335D01*
X81190000Y-36301430D02*
X72560000Y-36301430D01*
X81190000Y-36419525D02*
X72560000Y-36419525D01*
X81190000Y-36537620D02*
X72560000Y-36537620D01*
X81190000Y-36655715D02*
X72560000Y-36655715D01*
X81190000Y-36773810D02*
X72560000Y-36773810D01*
X81190000Y-36891905D02*
X72560000Y-36891905D01*
X81190000Y-37010000D02*
X72560000Y-37010000D01*
X81190000Y-37130000D02*
X72560000Y-37130000D01*
X81190000Y-37130000D02*
X81190000Y-31930000D01*
%TO.C,SW2*%
X4170000Y-46730000D02*
X4170000Y-41590000D01*
X4170000Y-49330000D02*
X4170000Y-48000000D01*
X5500000Y-49330000D02*
X4170000Y-49330000D01*
X6830000Y-41590000D02*
X4170000Y-41590000D01*
X6830000Y-46730000D02*
X4170000Y-46730000D01*
X6830000Y-46730000D02*
X6830000Y-41590000D01*
%TO.C,C5*%
X48265000Y-35848752D02*
X48265000Y-35326248D01*
X49735000Y-35848752D02*
X49735000Y-35326248D01*
%TO.C,C16*%
X21765000Y-37663748D02*
X21765000Y-38186252D01*
X23235000Y-37663748D02*
X23235000Y-38186252D01*
%TO.C,R1*%
X19765000Y-49235436D02*
X19765000Y-49689564D01*
X21235000Y-49235436D02*
X21235000Y-49689564D01*
%TO.C,TP20*%
X30700000Y-60000000D02*
G75*
G02*
X28300000Y-60000000I-1200000J0D01*
G01*
X28300000Y-60000000D02*
G75*
G02*
X30700000Y-60000000I1200000J0D01*
G01*
%TO.C,TP2*%
X16700000Y-60000000D02*
G75*
G02*
X14300000Y-60000000I-1200000J0D01*
G01*
X14300000Y-60000000D02*
G75*
G02*
X16700000Y-60000000I1200000J0D01*
G01*
%TO.C,R4*%
X60265000Y-12682064D02*
X60265000Y-12227936D01*
X61735000Y-12682064D02*
X61735000Y-12227936D01*
%TO.C,R13*%
X65727064Y-53265000D02*
X65272936Y-53265000D01*
X65727064Y-54735000D02*
X65272936Y-54735000D01*
%TO.C,C11*%
X17201248Y-12765000D02*
X17723752Y-12765000D01*
X17201248Y-14235000D02*
X17723752Y-14235000D01*
%TO.C,TP18*%
X34200000Y-60000000D02*
G75*
G02*
X31800000Y-60000000I-1200000J0D01*
G01*
X31800000Y-60000000D02*
G75*
G02*
X34200000Y-60000000I1200000J0D01*
G01*
%TO.C,TP21*%
X48200000Y-5000000D02*
G75*
G02*
X45800000Y-5000000I-1200000J0D01*
G01*
X45800000Y-5000000D02*
G75*
G02*
X48200000Y-5000000I1200000J0D01*
G01*
%TO.C,U5*%
X49440000Y-21955000D02*
X49440000Y-21155000D01*
X49440000Y-21955000D02*
X49440000Y-22755000D01*
X52560000Y-21955000D02*
X52560000Y-21155000D01*
X52560000Y-21955000D02*
X52560000Y-22755000D01*
X49490000Y-23255000D02*
X49160000Y-23495000D01*
X49160000Y-23015000D01*
X49490000Y-23255000D01*
G36*
X49490000Y-23255000D02*
G01*
X49160000Y-23495000D01*
X49160000Y-23015000D01*
X49490000Y-23255000D01*
G37*
%TO.C,R7*%
X12765000Y-41772936D02*
X12765000Y-42227064D01*
X14235000Y-41772936D02*
X14235000Y-42227064D01*
%TO.C,U1*%
X45390000Y-39440000D02*
X45390000Y-39915000D01*
X45390000Y-44660000D02*
X45390000Y-44185000D01*
X45865000Y-39440000D02*
X45390000Y-39440000D01*
X45865000Y-44660000D02*
X45390000Y-44660000D01*
X50135000Y-39440000D02*
X50610000Y-39440000D01*
X50135000Y-44660000D02*
X50310000Y-44660000D01*
X50610000Y-39440000D02*
X50610000Y-39915000D01*
X50610000Y-44185000D02*
X50610000Y-44420000D01*
X50850000Y-44990000D02*
X50370000Y-44990000D01*
X50610000Y-44660000D01*
X50850000Y-44990000D01*
G36*
X50850000Y-44990000D02*
G01*
X50370000Y-44990000D01*
X50610000Y-44660000D01*
X50850000Y-44990000D01*
G37*
%TO.C,C8*%
X47261252Y-47740000D02*
X46738748Y-47740000D01*
X47261252Y-49210000D02*
X46738748Y-49210000D01*
%TO.C,TP3*%
X20200000Y-60000000D02*
G75*
G02*
X17800000Y-60000000I-1200000J0D01*
G01*
X17800000Y-60000000D02*
G75*
G02*
X20200000Y-60000000I1200000J0D01*
G01*
%TO.C,TP16*%
X58700000Y-60000000D02*
G75*
G02*
X56300000Y-60000000I-1200000J0D01*
G01*
X56300000Y-60000000D02*
G75*
G02*
X58700000Y-60000000I1200000J0D01*
G01*
%TO.C,R8*%
X54265000Y-21727936D02*
X54265000Y-22182064D01*
X55735000Y-21727936D02*
X55735000Y-22182064D01*
%TO.C,C1*%
X41798752Y-36815000D02*
X41276248Y-36815000D01*
X41798752Y-38285000D02*
X41276248Y-38285000D01*
%TO.C,J3*%
X69990000Y-54370000D02*
X69990000Y-53040000D01*
X71100000Y-54370000D02*
X69990000Y-54370000D01*
X72560000Y-50140000D02*
X72150000Y-50140000D01*
X72560000Y-50860000D02*
X72150000Y-50860000D01*
X72560000Y-52680000D02*
X72210000Y-52680000D01*
X72560000Y-53400000D02*
X72210000Y-53400000D01*
X72560000Y-54370000D02*
X72560000Y-49170000D01*
X81190000Y-49170000D02*
X72560000Y-49170000D01*
X81190000Y-51770000D02*
X72560000Y-51770000D01*
X81190000Y-51888100D02*
X72560000Y-51888100D01*
X81190000Y-52006195D02*
X72560000Y-52006195D01*
X81190000Y-52124290D02*
X72560000Y-52124290D01*
X81190000Y-52242385D02*
X72560000Y-52242385D01*
X81190000Y-52360480D02*
X72560000Y-52360480D01*
X81190000Y-52478575D02*
X72560000Y-52478575D01*
X81190000Y-52596670D02*
X72560000Y-52596670D01*
X81190000Y-52714765D02*
X72560000Y-52714765D01*
X81190000Y-52832860D02*
X72560000Y-52832860D01*
X81190000Y-52950955D02*
X72560000Y-52950955D01*
X81190000Y-53069050D02*
X72560000Y-53069050D01*
X81190000Y-53187145D02*
X72560000Y-53187145D01*
X81190000Y-53305240D02*
X72560000Y-53305240D01*
X81190000Y-53423335D02*
X72560000Y-53423335D01*
X81190000Y-53541430D02*
X72560000Y-53541430D01*
X81190000Y-53659525D02*
X72560000Y-53659525D01*
X81190000Y-53777620D02*
X72560000Y-53777620D01*
X81190000Y-53895715D02*
X72560000Y-53895715D01*
X81190000Y-54013810D02*
X72560000Y-54013810D01*
X81190000Y-54131905D02*
X72560000Y-54131905D01*
X81190000Y-54250000D02*
X72560000Y-54250000D01*
X81190000Y-54370000D02*
X72560000Y-54370000D01*
X81190000Y-54370000D02*
X81190000Y-49170000D01*
D14*
%TO.C,Y1*%
X47600000Y-49925000D02*
G75*
G02*
X47400000Y-49925000I-100000J0D01*
G01*
X47400000Y-49925000D02*
G75*
G02*
X47600000Y-49925000I100000J0D01*
G01*
D12*
%TO.C,C20*%
X17701248Y-23765000D02*
X18223752Y-23765000D01*
X17701248Y-25235000D02*
X18223752Y-25235000D01*
%TO.C,TP5*%
X69200000Y-5000000D02*
G75*
G02*
X66800000Y-5000000I-1200000J0D01*
G01*
X66800000Y-5000000D02*
G75*
G02*
X69200000Y-5000000I1200000J0D01*
G01*
%TO.C,R12*%
X65272936Y-48765000D02*
X65727064Y-48765000D01*
X65272936Y-50235000D02*
X65727064Y-50235000D01*
%TO.C,C18*%
X51223752Y-25220000D02*
X50701248Y-25220000D01*
X51223752Y-26690000D02*
X50701248Y-26690000D01*
D15*
%TO.C,U6*%
X23349250Y-46630400D02*
X23349250Y-46996160D01*
X23349250Y-48220440D02*
X23349250Y-50704560D01*
X23349250Y-51928840D02*
X23349250Y-52294600D01*
X23349250Y-52294600D02*
X29013450Y-52294600D01*
X29013450Y-46630400D02*
X23349250Y-46630400D01*
X29013450Y-46996160D02*
X29013450Y-46630400D01*
X29013450Y-50704560D02*
X29013450Y-48220440D01*
X29013450Y-52294600D02*
X29013450Y-51928840D01*
%TD*%
%LPC*%
D16*
%TO.C,C4*%
X53962500Y-50050000D03*
X56037500Y-50050000D03*
%TD*%
D17*
%TO.C,XTAL1*%
X57000000Y-41350001D03*
D18*
X57445999Y-40648975D03*
D17*
X57000000Y-39749999D03*
D18*
X56554001Y-40444000D03*
%TD*%
D19*
%TO.C,C2*%
X42537500Y-40550000D03*
X40462500Y-40550000D03*
%TD*%
D20*
%TO.C,J2*%
X5500000Y-19775000D03*
D21*
X5500000Y-22315000D03*
%TD*%
D22*
%TO.C,TP15*%
X64500000Y-60000000D03*
%TD*%
D23*
%TO.C,R3*%
X55000000Y-13455000D03*
X55000000Y-11455000D03*
%TD*%
D24*
%TO.C,C15*%
X30500000Y-39000000D03*
X30500000Y-36925000D03*
%TD*%
D22*
%TO.C,TP17*%
X61000000Y-60000000D03*
%TD*%
D25*
%TO.C,L1*%
X50500000Y-50450000D03*
X50500000Y-52500000D03*
%TD*%
D22*
%TO.C,TP11*%
X57500000Y-5000000D03*
%TD*%
%TO.C,TP1*%
X12000000Y-60000000D03*
%TD*%
D26*
%TO.C,C13*%
X35500000Y-27000000D03*
X35500000Y-29075000D03*
%TD*%
D27*
%TO.C,H4*%
X5000000Y-60000000D03*
%TD*%
D23*
%TO.C,R5*%
X58000000Y-13455000D03*
X58000000Y-11455000D03*
%TD*%
D22*
%TO.C,TP12*%
X64500000Y-5000000D03*
%TD*%
D28*
%TO.C,J1*%
X75950000Y-24950000D03*
X75950000Y-16950000D03*
D29*
X64950000Y-17750000D03*
X64950000Y-18850000D03*
X64950000Y-19950000D03*
X64950000Y-21050000D03*
X64950000Y-22150000D03*
X64950000Y-23250000D03*
X64950000Y-24350000D03*
X64950000Y-25450000D03*
X64950000Y-26550000D03*
D30*
X66250000Y-27750000D03*
D31*
X66000000Y-13150000D03*
D32*
X75550000Y-27750000D03*
X75550000Y-12250000D03*
%TD*%
D33*
%TO.C,U2*%
X21500000Y-17125000D03*
X21000000Y-17125000D03*
X20500000Y-17125000D03*
X20000000Y-17125000D03*
X19500000Y-17125000D03*
X19000000Y-17125000D03*
D34*
X18312500Y-17812500D03*
X18312500Y-18312500D03*
X18312500Y-18812500D03*
X18312500Y-19312500D03*
X18312500Y-19812500D03*
X18312500Y-20312500D03*
D33*
X19000000Y-21000000D03*
X19500000Y-21000000D03*
X20000000Y-21000000D03*
X20500000Y-21000000D03*
X21000000Y-21000000D03*
X21500000Y-21000000D03*
D34*
X22187500Y-20312500D03*
X22187500Y-19812500D03*
X22187500Y-19312500D03*
X22187500Y-18812500D03*
X22187500Y-18312500D03*
X22187500Y-17812500D03*
D35*
X20250000Y-19062500D03*
%TD*%
D24*
%TO.C,C10*%
X54000000Y-41625000D03*
X54000000Y-39550000D03*
%TD*%
D26*
%TO.C,C14*%
X27500000Y-26962500D03*
X27500000Y-29037500D03*
%TD*%
D36*
%TO.C,R11*%
X30000000Y-11500000D03*
X30000000Y-13500000D03*
%TD*%
D37*
%TO.C,U3*%
X32637500Y-28950000D03*
X32637500Y-28000000D03*
X32637500Y-27050000D03*
X30362500Y-27050000D03*
X30362500Y-28950000D03*
%TD*%
D24*
%TO.C,C17*%
X60000000Y-22992500D03*
X60000000Y-20917500D03*
%TD*%
D27*
%TO.C,H5*%
X40000000Y-60000000D03*
%TD*%
D23*
%TO.C,R6*%
X49000000Y-13455000D03*
X49000000Y-11455000D03*
%TD*%
D38*
%TO.C,U4*%
X25362500Y-37012500D03*
X25362500Y-37962500D03*
X25362500Y-38912500D03*
X27637500Y-38912500D03*
X27637500Y-37012500D03*
%TD*%
D22*
%TO.C,TP19*%
X68000000Y-60000000D03*
%TD*%
%TO.C,TP6*%
X26000000Y-60000000D03*
%TD*%
D23*
%TO.C,R2*%
X52000000Y-13455000D03*
X52000000Y-11455000D03*
%TD*%
D16*
%TO.C,C6*%
X53925000Y-44050000D03*
X56000000Y-44050000D03*
%TD*%
D39*
%TO.C,R9*%
X30500000Y-24000000D03*
X32500000Y-24000000D03*
%TD*%
D22*
%TO.C,TP13*%
X61000000Y-5000000D03*
%TD*%
%TO.C,TP10*%
X54000000Y-5000000D03*
%TD*%
%TO.C,TP14*%
X54000000Y-60000000D03*
%TD*%
D26*
%TO.C,C19*%
X26000000Y-17962500D03*
X26000000Y-20037500D03*
%TD*%
D22*
%TO.C,TP9*%
X50500000Y-5000000D03*
%TD*%
D16*
%TO.C,C3*%
X53962500Y-47550000D03*
X56037500Y-47550000D03*
%TD*%
D22*
%TO.C,TP7*%
X47000000Y-60000000D03*
%TD*%
%TO.C,TP4*%
X22500000Y-60000000D03*
%TD*%
%TO.C,TP8*%
X50500000Y-60000000D03*
%TD*%
D24*
%TO.C,C7*%
X32000000Y-50500000D03*
X32000000Y-48425000D03*
%TD*%
D23*
%TO.C,R10*%
X30000000Y-19000000D03*
X30000000Y-17000000D03*
%TD*%
D24*
%TO.C,C9*%
X43500000Y-52550000D03*
X43500000Y-50475000D03*
%TD*%
D16*
%TO.C,C12*%
X49962500Y-17955000D03*
X52037500Y-17955000D03*
%TD*%
D20*
%TO.C,J4*%
X71100000Y-35800000D03*
D21*
X71100000Y-33260000D03*
%TD*%
D20*
%TO.C,SW2*%
X5500000Y-48000000D03*
D21*
X5500000Y-45460000D03*
X5500000Y-42920000D03*
%TD*%
D24*
%TO.C,C5*%
X49000000Y-36625000D03*
X49000000Y-34550000D03*
%TD*%
D26*
%TO.C,C16*%
X22500000Y-36887500D03*
X22500000Y-38962500D03*
%TD*%
D36*
%TO.C,R1*%
X20500000Y-48462500D03*
X20500000Y-50462500D03*
%TD*%
D22*
%TO.C,TP20*%
X29500000Y-60000000D03*
%TD*%
%TO.C,TP2*%
X15500000Y-60000000D03*
%TD*%
D27*
%TO.C,H2*%
X40000000Y-5000000D03*
%TD*%
D23*
%TO.C,R4*%
X61000000Y-13455000D03*
X61000000Y-11455000D03*
%TD*%
D27*
%TO.C,H6*%
X75000000Y-60000000D03*
%TD*%
D40*
%TO.C,R13*%
X66500000Y-54000000D03*
X64500000Y-54000000D03*
%TD*%
D16*
%TO.C,C11*%
X16425000Y-13500000D03*
X18500000Y-13500000D03*
%TD*%
D27*
%TO.C,H3*%
X75000000Y-5000000D03*
%TD*%
D22*
%TO.C,TP18*%
X33000000Y-60000000D03*
%TD*%
%TO.C,TP21*%
X47000000Y-5000000D03*
%TD*%
D41*
%TO.C,U5*%
X50050000Y-23092500D03*
X51000000Y-23092500D03*
X51950000Y-23092500D03*
X51950000Y-20817500D03*
X50050000Y-20817500D03*
%TD*%
D36*
%TO.C,R7*%
X13500000Y-41000000D03*
X13500000Y-43000000D03*
%TD*%
D42*
%TO.C,U1*%
X50450000Y-43800000D03*
X50450000Y-43300000D03*
X50450000Y-42800000D03*
X50450000Y-42300000D03*
X50450000Y-41800000D03*
X50450000Y-41300000D03*
X50450000Y-40800000D03*
X50450000Y-40300000D03*
D43*
X49750000Y-39600000D03*
X49250000Y-39600000D03*
X48750000Y-39600000D03*
X48250000Y-39600000D03*
X47750000Y-39600000D03*
X47250000Y-39600000D03*
X46750000Y-39600000D03*
X46250000Y-39600000D03*
D42*
X45550000Y-40300000D03*
X45550000Y-40800000D03*
X45550000Y-41300000D03*
X45550000Y-41800000D03*
X45550000Y-42300000D03*
X45550000Y-42800000D03*
X45550000Y-43300000D03*
X45550000Y-43800000D03*
D43*
X46250000Y-44500000D03*
X46750000Y-44500000D03*
X47250000Y-44500000D03*
X47750000Y-44500000D03*
X48250000Y-44500000D03*
X48750000Y-44500000D03*
X49250000Y-44500000D03*
X49750000Y-44500000D03*
D44*
X48000000Y-42050000D03*
%TD*%
D19*
%TO.C,C8*%
X48037500Y-48475000D03*
X45962500Y-48475000D03*
%TD*%
D27*
%TO.C,H1*%
X5000000Y-5000000D03*
%TD*%
D22*
%TO.C,TP3*%
X19000000Y-60000000D03*
%TD*%
%TO.C,TP16*%
X57500000Y-60000000D03*
%TD*%
D36*
%TO.C,R8*%
X55000000Y-20955000D03*
X55000000Y-22955000D03*
%TD*%
D19*
%TO.C,C1*%
X42575000Y-37550000D03*
X40500000Y-37550000D03*
%TD*%
D20*
%TO.C,J3*%
X71100000Y-53040000D03*
D21*
X71100000Y-50500000D03*
%TD*%
D45*
%TO.C,Y1*%
X47500000Y-50925000D03*
X46150000Y-50925000D03*
X46150000Y-51975000D03*
X47500000Y-51975000D03*
%TD*%
D16*
%TO.C,C20*%
X16925000Y-24500000D03*
X19000000Y-24500000D03*
%TD*%
D22*
%TO.C,TP5*%
X68000000Y-5000000D03*
%TD*%
D39*
%TO.C,R12*%
X64500000Y-49500000D03*
X66500000Y-49500000D03*
%TD*%
D19*
%TO.C,C18*%
X52000000Y-25955000D03*
X49925000Y-25955000D03*
%TD*%
D46*
%TO.C,U6*%
X29362700Y-51316700D03*
X23000000Y-51316700D03*
X29362700Y-47608300D03*
X23000000Y-47608300D03*
%TD*%
D47*
%TO.C,BT1*%
X39750000Y-46500000D03*
X39750000Y-16500000D03*
D48*
X13680000Y-48000000D03*
X13680000Y-35200000D03*
%TD*%
%LPD*%
M02*
