%TF.GenerationSoftware,KiCad,Pcbnew,9.0.1*%
%TF.CreationDate,2025-04-18T15:20:57+02:00*%
%TF.ProjectId,random_sampler,72616e64-6f6d-45f7-9361-6d706c65722e,rev?*%
%TF.SameCoordinates,Original*%
%TF.FileFunction,Paste,Top*%
%TF.FilePolarity,Positive*%
%FSLAX46Y46*%
G04 Gerber Fmt 4.6, Leading zero omitted, Abs format (unit mm)*
G04 Created by KiCad (PCBNEW 9.0.1) date 2025-04-18 15:20:57*
%MOMM*%
%LPD*%
G01*
G04 APERTURE LIST*
G04 Aperture macros list*
%AMRoundRect*
0 Rectangle with rounded corners*
0 $1 Rounding radius*
0 $2 $3 $4 $5 $6 $7 $8 $9 X,Y pos of 4 corners*
0 Add a 4 corners polygon primitive as box body*
4,1,4,$2,$3,$4,$5,$6,$7,$8,$9,$2,$3,0*
0 Add four circle primitives for the rounded corners*
1,1,$1+$1,$2,$3*
1,1,$1+$1,$4,$5*
1,1,$1+$1,$6,$7*
1,1,$1+$1,$8,$9*
0 Add four rect primitives between the rounded corners*
20,1,$1+$1,$2,$3,$4,$5,0*
20,1,$1+$1,$4,$5,$6,$7,0*
20,1,$1+$1,$6,$7,$8,$9,0*
20,1,$1+$1,$8,$9,$2,$3,0*%
G04 Aperture macros list end*
%ADD10RoundRect,0.250000X-0.337500X-0.475000X0.337500X-0.475000X0.337500X0.475000X-0.337500X0.475000X0*%
%ADD11R,1.397000X0.406400*%
%ADD12R,0.508000X0.304800*%
%ADD13RoundRect,0.250000X0.337500X0.475000X-0.337500X0.475000X-0.337500X-0.475000X0.337500X-0.475000X0*%
%ADD14RoundRect,0.250000X0.450000X-0.350000X0.450000X0.350000X-0.450000X0.350000X-0.450000X-0.350000X0*%
%ADD15RoundRect,0.250000X0.475000X-0.337500X0.475000X0.337500X-0.475000X0.337500X-0.475000X-0.337500X0*%
%ADD16RoundRect,0.250000X-0.450000X0.325000X-0.450000X-0.325000X0.450000X-0.325000X0.450000X0.325000X0*%
%ADD17RoundRect,0.250000X-0.475000X0.337500X-0.475000X-0.337500X0.475000X-0.337500X0.475000X0.337500X0*%
%ADD18R,1.600000X0.700000*%
%ADD19R,1.800000X1.200000*%
%ADD20R,1.500000X1.600000*%
%ADD21R,2.200000X1.200000*%
%ADD22RoundRect,0.160000X-0.160000X0.160000X-0.160000X-0.160000X0.160000X-0.160000X0.160000X0.160000X0*%
%ADD23RoundRect,0.062500X-0.062500X0.375000X-0.062500X-0.375000X0.062500X-0.375000X0.062500X0.375000X0*%
%ADD24RoundRect,0.062500X-0.375000X0.062500X-0.375000X-0.062500X0.375000X-0.062500X0.375000X0.062500X0*%
%ADD25RoundRect,0.250000X-0.450000X0.350000X-0.450000X-0.350000X0.450000X-0.350000X0.450000X0.350000X0*%
%ADD26RoundRect,0.150000X0.512500X0.150000X-0.512500X0.150000X-0.512500X-0.150000X0.512500X-0.150000X0*%
%ADD27RoundRect,0.150000X-0.512500X-0.150000X0.512500X-0.150000X0.512500X0.150000X-0.512500X0.150000X0*%
%ADD28RoundRect,0.250000X-0.350000X-0.450000X0.350000X-0.450000X0.350000X0.450000X-0.350000X0.450000X0*%
%ADD29RoundRect,0.250000X0.350000X0.450000X-0.350000X0.450000X-0.350000X-0.450000X0.350000X-0.450000X0*%
%ADD30RoundRect,0.150000X0.150000X-0.512500X0.150000X0.512500X-0.150000X0.512500X-0.150000X-0.512500X0*%
%ADD31RoundRect,0.250000X0.495000X0.495000X-0.495000X0.495000X-0.495000X-0.495000X0.495000X-0.495000X0*%
%ADD32RoundRect,0.062500X0.337500X0.062500X-0.337500X0.062500X-0.337500X-0.062500X0.337500X-0.062500X0*%
%ADD33RoundRect,0.062500X0.062500X0.337500X-0.062500X0.337500X-0.062500X-0.337500X0.062500X-0.337500X0*%
%ADD34R,0.850000X0.750000*%
%ADD35R,0.952500X0.558800*%
G04 APERTURE END LIST*
D10*
%TO.C,C4*%
X53962500Y-50050000D03*
X56037500Y-50050000D03*
%TD*%
D11*
%TO.C,XTAL1*%
X57000000Y-41350001D03*
D12*
X57445999Y-40648975D03*
D11*
X57000000Y-39749999D03*
D12*
X56554001Y-40444000D03*
%TD*%
D13*
%TO.C,C2*%
X42537500Y-40550000D03*
X40462500Y-40550000D03*
%TD*%
D14*
%TO.C,R3*%
X55000000Y-13455000D03*
X55000000Y-11455000D03*
%TD*%
D15*
%TO.C,C15*%
X30500000Y-39000000D03*
X30500000Y-36925000D03*
%TD*%
D16*
%TO.C,L1*%
X50500000Y-50450000D03*
X50500000Y-52500000D03*
%TD*%
D17*
%TO.C,C13*%
X35500000Y-27000000D03*
X35500000Y-29075000D03*
%TD*%
D14*
%TO.C,R5*%
X58000000Y-13455000D03*
X58000000Y-11455000D03*
%TD*%
D18*
%TO.C,J1*%
X64950000Y-17750000D03*
X64950000Y-18850000D03*
X64950000Y-19950000D03*
X64950000Y-21050000D03*
X64950000Y-22150000D03*
X64950000Y-23250000D03*
X64950000Y-24350000D03*
X64950000Y-25450000D03*
X64950000Y-26550000D03*
D19*
X66250000Y-27750000D03*
D20*
X66000000Y-13150000D03*
D21*
X75550000Y-27750000D03*
X75550000Y-12250000D03*
%TD*%
D22*
%TO.C,U2*%
X21120000Y-18192500D03*
X20250000Y-18192500D03*
X19380000Y-18192500D03*
X21120000Y-19062500D03*
X20250000Y-19062500D03*
X19380000Y-19062500D03*
X21120000Y-19932500D03*
X20250000Y-19932500D03*
X19380000Y-19932500D03*
D23*
X21500000Y-17125000D03*
X21000000Y-17125000D03*
X20500000Y-17125000D03*
X20000000Y-17125000D03*
X19500000Y-17125000D03*
X19000000Y-17125000D03*
D24*
X18312500Y-17812500D03*
X18312500Y-18312500D03*
X18312500Y-18812500D03*
X18312500Y-19312500D03*
X18312500Y-19812500D03*
X18312500Y-20312500D03*
D23*
X19000000Y-21000000D03*
X19500000Y-21000000D03*
X20000000Y-21000000D03*
X20500000Y-21000000D03*
X21000000Y-21000000D03*
X21500000Y-21000000D03*
D24*
X22187500Y-20312500D03*
X22187500Y-19812500D03*
X22187500Y-19312500D03*
X22187500Y-18812500D03*
X22187500Y-18312500D03*
X22187500Y-17812500D03*
%TD*%
D15*
%TO.C,C10*%
X54000000Y-41625000D03*
X54000000Y-39550000D03*
%TD*%
D17*
%TO.C,C14*%
X27500000Y-26962500D03*
X27500000Y-29037500D03*
%TD*%
D25*
%TO.C,R11*%
X30000000Y-11500000D03*
X30000000Y-13500000D03*
%TD*%
D26*
%TO.C,U3*%
X32637500Y-28950000D03*
X32637500Y-28000000D03*
X32637500Y-27050000D03*
X30362500Y-27050000D03*
X30362500Y-28950000D03*
%TD*%
D15*
%TO.C,C17*%
X60000000Y-22992500D03*
X60000000Y-20917500D03*
%TD*%
D14*
%TO.C,R6*%
X49000000Y-13455000D03*
X49000000Y-11455000D03*
%TD*%
D27*
%TO.C,U4*%
X25362500Y-37012500D03*
X25362500Y-37962500D03*
X25362500Y-38912500D03*
X27637500Y-38912500D03*
X27637500Y-37012500D03*
%TD*%
D14*
%TO.C,R2*%
X52000000Y-13455000D03*
X52000000Y-11455000D03*
%TD*%
D10*
%TO.C,C6*%
X53925000Y-44050000D03*
X56000000Y-44050000D03*
%TD*%
D28*
%TO.C,R9*%
X30500000Y-24000000D03*
X32500000Y-24000000D03*
%TD*%
D17*
%TO.C,C19*%
X26000000Y-17962500D03*
X26000000Y-20037500D03*
%TD*%
D10*
%TO.C,C3*%
X53962500Y-47550000D03*
X56037500Y-47550000D03*
%TD*%
D15*
%TO.C,C7*%
X32000000Y-50500000D03*
X32000000Y-48425000D03*
%TD*%
D14*
%TO.C,R10*%
X30000000Y-19000000D03*
X30000000Y-17000000D03*
%TD*%
D15*
%TO.C,C9*%
X43500000Y-52550000D03*
X43500000Y-50475000D03*
%TD*%
D10*
%TO.C,C12*%
X49962500Y-17955000D03*
X52037500Y-17955000D03*
%TD*%
D15*
%TO.C,C5*%
X49000000Y-36625000D03*
X49000000Y-34550000D03*
%TD*%
D17*
%TO.C,C16*%
X22500000Y-36887500D03*
X22500000Y-38962500D03*
%TD*%
D25*
%TO.C,R1*%
X20500000Y-48462500D03*
X20500000Y-50462500D03*
%TD*%
D14*
%TO.C,R4*%
X61000000Y-13455000D03*
X61000000Y-11455000D03*
%TD*%
D29*
%TO.C,R13*%
X66500000Y-54000000D03*
X64500000Y-54000000D03*
%TD*%
D10*
%TO.C,C11*%
X16425000Y-13500000D03*
X18500000Y-13500000D03*
%TD*%
D30*
%TO.C,U5*%
X50050000Y-23092500D03*
X51000000Y-23092500D03*
X51950000Y-23092500D03*
X51950000Y-20817500D03*
X50050000Y-20817500D03*
%TD*%
D25*
%TO.C,R7*%
X13500000Y-41000000D03*
X13500000Y-43000000D03*
%TD*%
D31*
%TO.C,U1*%
X48925000Y-42975000D03*
X48925000Y-41125000D03*
X47075000Y-42975000D03*
X47075000Y-41125000D03*
D32*
X50450000Y-43800000D03*
X50450000Y-43300000D03*
X50450000Y-42800000D03*
X50450000Y-42300000D03*
X50450000Y-41800000D03*
X50450000Y-41300000D03*
X50450000Y-40800000D03*
X50450000Y-40300000D03*
D33*
X49750000Y-39600000D03*
X49250000Y-39600000D03*
X48750000Y-39600000D03*
X48250000Y-39600000D03*
X47750000Y-39600000D03*
X47250000Y-39600000D03*
X46750000Y-39600000D03*
X46250000Y-39600000D03*
D32*
X45550000Y-40300000D03*
X45550000Y-40800000D03*
X45550000Y-41300000D03*
X45550000Y-41800000D03*
X45550000Y-42300000D03*
X45550000Y-42800000D03*
X45550000Y-43300000D03*
X45550000Y-43800000D03*
D33*
X46250000Y-44500000D03*
X46750000Y-44500000D03*
X47250000Y-44500000D03*
X47750000Y-44500000D03*
X48250000Y-44500000D03*
X48750000Y-44500000D03*
X49250000Y-44500000D03*
X49750000Y-44500000D03*
%TD*%
D13*
%TO.C,C8*%
X48037500Y-48475000D03*
X45962500Y-48475000D03*
%TD*%
D25*
%TO.C,R8*%
X55000000Y-20955000D03*
X55000000Y-22955000D03*
%TD*%
D13*
%TO.C,C1*%
X42575000Y-37550000D03*
X40500000Y-37550000D03*
%TD*%
D34*
%TO.C,Y1*%
X47500000Y-50925000D03*
X46150000Y-50925000D03*
X46150000Y-51975000D03*
X47500000Y-51975000D03*
%TD*%
D10*
%TO.C,C20*%
X16925000Y-24500000D03*
X19000000Y-24500000D03*
%TD*%
D28*
%TO.C,R12*%
X64500000Y-49500000D03*
X66500000Y-49500000D03*
%TD*%
D13*
%TO.C,C18*%
X52000000Y-25955000D03*
X49925000Y-25955000D03*
%TD*%
D35*
%TO.C,U6*%
X29362700Y-51316700D03*
X23000000Y-51316700D03*
X29362700Y-47608300D03*
X23000000Y-47608300D03*
%TD*%
M02*
