%TF.GenerationSoftware,KiCad,Pcbnew,8.0.6-8.0.6-0~ubuntu24.04.1*%
%TF.CreationDate,2024-11-06T15:00:48+01:00*%
%TF.ProjectId,random_sampler,72616e64-6f6d-45f7-9361-6d706c65722e,rev?*%
%TF.SameCoordinates,Original*%
%TF.FileFunction,Soldermask,Top*%
%TF.FilePolarity,Negative*%
%FSLAX46Y46*%
G04 Gerber Fmt 4.6, Leading zero omitted, Abs format (unit mm)*
G04 Created by KiCad (PCBNEW 8.0.6-8.0.6-0~ubuntu24.04.1) date 2024-11-06 15:00:48*
%MOMM*%
%LPD*%
G01*
G04 APERTURE LIST*
G04 Aperture macros list*
%AMRoundRect*
0 Rectangle with rounded corners*
0 $1 Rounding radius*
0 $2 $3 $4 $5 $6 $7 $8 $9 X,Y pos of 4 corners*
0 Add a 4 corners polygon primitive as box body*
4,1,4,$2,$3,$4,$5,$6,$7,$8,$9,$2,$3,0*
0 Add four circle primitives for the rounded corners*
1,1,$1+$1,$2,$3*
1,1,$1+$1,$4,$5*
1,1,$1+$1,$6,$7*
1,1,$1+$1,$8,$9*
0 Add four rect primitives between the rounded corners*
20,1,$1+$1,$2,$3,$4,$5,0*
20,1,$1+$1,$4,$5,$6,$7,0*
20,1,$1+$1,$6,$7,$8,$9,0*
20,1,$1+$1,$8,$9,$2,$3,0*%
G04 Aperture macros list end*
%ADD10RoundRect,0.150000X-0.512500X-0.150000X0.512500X-0.150000X0.512500X0.150000X-0.512500X0.150000X0*%
%ADD11RoundRect,0.250000X-0.475000X0.337500X-0.475000X-0.337500X0.475000X-0.337500X0.475000X0.337500X0*%
%ADD12RoundRect,0.102000X-0.425000X-0.375000X0.425000X-0.375000X0.425000X0.375000X-0.425000X0.375000X0*%
%ADD13RoundRect,0.250000X0.350000X0.450000X-0.350000X0.450000X-0.350000X-0.450000X0.350000X-0.450000X0*%
%ADD14C,3.200000*%
%ADD15RoundRect,0.250000X0.475000X-0.337500X0.475000X0.337500X-0.475000X0.337500X-0.475000X-0.337500X0*%
%ADD16C,1.000000*%
%ADD17RoundRect,0.102000X0.800000X-0.350000X0.800000X0.350000X-0.800000X0.350000X-0.800000X-0.350000X0*%
%ADD18RoundRect,0.102000X0.900000X-0.600000X0.900000X0.600000X-0.900000X0.600000X-0.900000X-0.600000X0*%
%ADD19RoundRect,0.102000X0.750000X-0.800000X0.750000X0.800000X-0.750000X0.800000X-0.750000X-0.800000X0*%
%ADD20RoundRect,0.102000X1.100000X-0.600000X1.100000X0.600000X-1.100000X0.600000X-1.100000X-0.600000X0*%
%ADD21RoundRect,0.250000X-0.337500X-0.475000X0.337500X-0.475000X0.337500X0.475000X-0.337500X0.475000X0*%
%ADD22RoundRect,0.250000X0.450000X-0.350000X0.450000X0.350000X-0.450000X0.350000X-0.450000X-0.350000X0*%
%ADD23RoundRect,0.250000X-0.450000X0.350000X-0.450000X-0.350000X0.450000X-0.350000X0.450000X0.350000X0*%
%ADD24R,1.700000X1.700000*%
%ADD25O,1.700000X1.700000*%
%ADD26RoundRect,0.250000X-0.350000X-0.450000X0.350000X-0.450000X0.350000X0.450000X-0.350000X0.450000X0*%
%ADD27RoundRect,0.062500X-0.062500X0.375000X-0.062500X-0.375000X0.062500X-0.375000X0.062500X0.375000X0*%
%ADD28RoundRect,0.062500X-0.375000X0.062500X-0.375000X-0.062500X0.375000X-0.062500X0.375000X0.062500X0*%
%ADD29R,2.600000X2.600000*%
%ADD30RoundRect,0.250000X0.337500X0.475000X-0.337500X0.475000X-0.337500X-0.475000X0.337500X-0.475000X0*%
%ADD31R,0.406400X1.397000*%
%ADD32R,0.304800X0.508000*%
%ADD33RoundRect,0.062500X0.062500X-0.337500X0.062500X0.337500X-0.062500X0.337500X-0.062500X-0.337500X0*%
%ADD34RoundRect,0.062500X0.337500X-0.062500X0.337500X0.062500X-0.337500X0.062500X-0.337500X-0.062500X0*%
%ADD35R,3.700000X3.700000*%
%ADD36R,0.952500X0.558800*%
%ADD37RoundRect,0.250000X-0.325000X-0.450000X0.325000X-0.450000X0.325000X0.450000X-0.325000X0.450000X0*%
%ADD38C,2.370000*%
%ADD39C,1.959000*%
G04 APERTURE END LIST*
D10*
%TO.C,U4*%
X22449526Y-44138474D03*
X22449526Y-45088474D03*
X22449526Y-46038474D03*
X24724526Y-46038474D03*
X24724526Y-44138474D03*
%TD*%
D11*
%TO.C,C7*%
X47498000Y-43645000D03*
X47498000Y-45720000D03*
%TD*%
D12*
%TO.C,Y1*%
X26844000Y-31496000D03*
X28194000Y-31496000D03*
X28194000Y-30446000D03*
X26844000Y-30446000D03*
%TD*%
D10*
%TO.C,U5*%
X53351000Y-22860000D03*
X53351000Y-23810000D03*
X53351000Y-24760000D03*
X55626000Y-24760000D03*
X55626000Y-22860000D03*
%TD*%
D13*
%TO.C,R11*%
X22320000Y-13208000D03*
X20320000Y-13208000D03*
%TD*%
D11*
%TO.C,C3*%
X33782000Y-36279000D03*
X33782000Y-38354000D03*
%TD*%
D14*
%TO.C,H4*%
X5000000Y-60000000D03*
%TD*%
D15*
%TO.C,C2*%
X39370000Y-27221000D03*
X39370000Y-25146000D03*
%TD*%
D13*
%TO.C,R9*%
X19272000Y-31961000D03*
X17272000Y-31961000D03*
%TD*%
%TO.C,R13*%
X67532000Y-48006000D03*
X65532000Y-48006000D03*
%TD*%
D16*
%TO.C,J1*%
X76013500Y-24950000D03*
X76013500Y-16950000D03*
D17*
X65013500Y-17750000D03*
X65013500Y-18850000D03*
X65013500Y-19950000D03*
X65013500Y-21050000D03*
X65013500Y-22150000D03*
X65013500Y-23250000D03*
X65013500Y-24350000D03*
X65013500Y-25450000D03*
X65013500Y-26550000D03*
D18*
X66313500Y-27750000D03*
D19*
X66063500Y-13150000D03*
D20*
X75613500Y-27750000D03*
X75613500Y-12250000D03*
%TD*%
D14*
%TO.C,H5*%
X40000000Y-60000000D03*
%TD*%
D21*
%TO.C,C11*%
X14435000Y-15494000D03*
X16510000Y-15494000D03*
%TD*%
D22*
%TO.C,R4*%
X57658000Y-24860000D03*
X57658000Y-22860000D03*
%TD*%
D23*
%TO.C,R1*%
X47498000Y-39624000D03*
X47498000Y-41624000D03*
%TD*%
D24*
%TO.C,J3*%
X70784000Y-48000000D03*
D25*
X70784000Y-45460000D03*
%TD*%
D26*
%TO.C,R12*%
X65564000Y-45466000D03*
X67564000Y-45466000D03*
%TD*%
D23*
%TO.C,R2*%
X57658000Y-19082000D03*
X57658000Y-21082000D03*
%TD*%
D21*
%TO.C,C10*%
X38057000Y-38100000D03*
X40132000Y-38100000D03*
%TD*%
D15*
%TO.C,C15*%
X26767526Y-46081474D03*
X26767526Y-44006474D03*
%TD*%
D27*
%TO.C,U2*%
X17780000Y-17461000D03*
X17280000Y-17461000D03*
X16780000Y-17461000D03*
X16280000Y-17461000D03*
X15780000Y-17461000D03*
X15280000Y-17461000D03*
D28*
X14592500Y-18148500D03*
X14592500Y-18648500D03*
X14592500Y-19148500D03*
X14592500Y-19648500D03*
X14592500Y-20148500D03*
X14592500Y-20648500D03*
D27*
X15280000Y-21336000D03*
X15780000Y-21336000D03*
X16280000Y-21336000D03*
X16780000Y-21336000D03*
X17280000Y-21336000D03*
X17780000Y-21336000D03*
D28*
X18467500Y-20648500D03*
X18467500Y-20148500D03*
X18467500Y-19648500D03*
X18467500Y-19148500D03*
X18467500Y-18648500D03*
X18467500Y-18148500D03*
D29*
X16530000Y-19398500D03*
%TD*%
D15*
%TO.C,C16*%
X20417526Y-45065474D03*
X20417526Y-42990474D03*
%TD*%
D11*
%TO.C,C4*%
X31496000Y-36279000D03*
X31496000Y-38354000D03*
%TD*%
%TO.C,C12*%
X61722000Y-21060500D03*
X61722000Y-23135500D03*
%TD*%
D21*
%TO.C,C5*%
X42629000Y-32512000D03*
X44704000Y-32512000D03*
%TD*%
D11*
%TO.C,C18*%
X51054000Y-20277000D03*
X51054000Y-22352000D03*
%TD*%
D14*
%TO.C,H2*%
X40000000Y-5000000D03*
%TD*%
D15*
%TO.C,C1*%
X41656000Y-27221000D03*
X41656000Y-25146000D03*
%TD*%
D14*
%TO.C,H6*%
X75000000Y-60000000D03*
%TD*%
D13*
%TO.C,R8*%
X55372000Y-26670000D03*
X53372000Y-26670000D03*
%TD*%
D14*
%TO.C,H3*%
X75000000Y-5000000D03*
%TD*%
D30*
%TO.C,C19*%
X22352000Y-17526000D03*
X20277000Y-17526000D03*
%TD*%
D23*
%TO.C,R3*%
X55626000Y-19082000D03*
X55626000Y-21082000D03*
%TD*%
D15*
%TO.C,C17*%
X53340000Y-21125000D03*
X53340000Y-19050000D03*
%TD*%
D30*
%TO.C,C20*%
X16807000Y-23368000D03*
X14732000Y-23368000D03*
%TD*%
D10*
%TO.C,U3*%
X17029000Y-28151000D03*
X17029000Y-29101000D03*
X17029000Y-30051000D03*
X19304000Y-30051000D03*
X19304000Y-28151000D03*
%TD*%
D15*
%TO.C,C14*%
X21590000Y-29972000D03*
X21590000Y-27897000D03*
%TD*%
D22*
%TO.C,R5*%
X59690000Y-24860000D03*
X59690000Y-22860000D03*
%TD*%
D31*
%TO.C,XTAL1*%
X38277998Y-40132000D03*
D32*
X38979024Y-40577999D03*
D31*
X39878000Y-40132000D03*
D32*
X39183999Y-39686001D03*
%TD*%
D33*
%TO.C,U1*%
X36322000Y-34364000D03*
X36822000Y-34364000D03*
X37322000Y-34364000D03*
X37822000Y-34364000D03*
X38322000Y-34364000D03*
X38822000Y-34364000D03*
X39322000Y-34364000D03*
X39822000Y-34364000D03*
D34*
X40522000Y-33664000D03*
X40522000Y-33164000D03*
X40522000Y-32664000D03*
X40522000Y-32164000D03*
X40522000Y-31664000D03*
X40522000Y-31164000D03*
X40522000Y-30664000D03*
X40522000Y-30164000D03*
D33*
X39822000Y-29464000D03*
X39322000Y-29464000D03*
X38822000Y-29464000D03*
X38322000Y-29464000D03*
X37822000Y-29464000D03*
X37322000Y-29464000D03*
X36822000Y-29464000D03*
X36322000Y-29464000D03*
D34*
X35622000Y-30164000D03*
X35622000Y-30664000D03*
X35622000Y-31164000D03*
X35622000Y-31664000D03*
X35622000Y-32164000D03*
X35622000Y-32664000D03*
X35622000Y-33164000D03*
X35622000Y-33664000D03*
D35*
X38072000Y-31914000D03*
%TD*%
D23*
%TO.C,R6*%
X59690000Y-19066000D03*
X59690000Y-21066000D03*
%TD*%
D36*
%TO.C,U6*%
X49904650Y-43357800D03*
X56267350Y-43357800D03*
X49904650Y-47066200D03*
X56267350Y-47066200D03*
%TD*%
D14*
%TO.C,H1*%
X5000000Y-5000000D03*
%TD*%
D37*
%TO.C,L1*%
X27922000Y-33274000D03*
X29972000Y-33274000D03*
%TD*%
D21*
%TO.C,C8*%
X26627000Y-35560000D03*
X28702000Y-35560000D03*
%TD*%
D11*
%TO.C,C9*%
X30226000Y-29167000D03*
X30226000Y-31242000D03*
%TD*%
%TO.C,C6*%
X36068000Y-36279000D03*
X36068000Y-38354000D03*
%TD*%
D23*
%TO.C,R7*%
X13716000Y-38894000D03*
X13716000Y-40894000D03*
%TD*%
D13*
%TO.C,R10*%
X22320000Y-15240000D03*
X20320000Y-15240000D03*
%TD*%
D15*
%TO.C,C13*%
X14732000Y-29972000D03*
X14732000Y-27897000D03*
%TD*%
D38*
%TO.C,BT1*%
X39750000Y-46500000D03*
X39750000Y-16500000D03*
D39*
X13680000Y-48000000D03*
X13680000Y-35200000D03*
%TD*%
D24*
%TO.C,J2*%
X5000000Y-18000000D03*
D25*
X5000000Y-20540000D03*
%TD*%
D24*
%TO.C,SW2*%
X5000000Y-50000000D03*
D25*
X5000000Y-47460000D03*
X5000000Y-44920000D03*
%TD*%
M02*
