%TF.GenerationSoftware,KiCad,Pcbnew,8.0.6-8.0.6-0~ubuntu24.04.1*%
%TF.CreationDate,2024-11-06T15:02:39+01:00*%
%TF.ProjectId,random_sampler,72616e64-6f6d-45f7-9361-6d706c65722e,rev?*%
%TF.SameCoordinates,Original*%
%TF.FileFunction,Drillmap*%
%TF.FilePolarity,Positive*%
%FSLAX45Y45*%
G04 Gerber Fmt 4.5, Leading zero omitted, Abs format (unit mm)*
G04 Created by KiCad (PCBNEW 8.0.6-8.0.6-0~ubuntu24.04.1) date 2024-11-06 15:02:39*
%MOMM*%
%LPD*%
G01*
G04 APERTURE LIST*
%ADD10C,0.100000*%
%ADD11C,0.050000*%
%ADD12C,0.200000*%
%ADD13C,0.117000*%
G04 APERTURE END LIST*
D10*
X0Y-500000D02*
G75*
G02*
X500000Y0I500000J0D01*
G01*
D11*
X7500000Y0D02*
X500000Y0D01*
X8000000Y-6000000D02*
G75*
G02*
X7500000Y-6500000I-500000J0D01*
G01*
X8000000Y-6000000D02*
X8000000Y-500000D01*
X0Y-500000D02*
X0Y-6000000D01*
X7500000Y0D02*
G75*
G02*
X8000000Y-500000I0J-500000D01*
G01*
X500000Y-6500000D02*
X7500000Y-6500000D01*
X500000Y-6500000D02*
G75*
G02*
X0Y-6000000I0J500000D01*
G01*
D12*
D10*
X3643000Y-3181400D02*
X3663000Y-3201400D01*
X3663000Y-3181400D02*
X3643000Y-3201400D01*
X3797200Y-3027000D02*
X3817200Y-3047000D01*
X3817200Y-3027000D02*
X3797200Y-3047000D01*
X3797200Y-3181400D02*
X3817200Y-3201400D01*
X3817200Y-3181400D02*
X3797200Y-3201400D01*
X3797200Y-3335000D02*
X3817200Y-3355000D01*
X3817200Y-3335000D02*
X3797200Y-3355000D01*
X3950000Y-3181400D02*
X3970000Y-3201400D01*
X3970000Y-3181400D02*
X3950000Y-3201400D01*
X1558000Y-1834850D02*
G75*
G02*
X1538000Y-1834850I-10000J0D01*
G01*
X1538000Y-1834850D02*
G75*
G02*
X1558000Y-1834850I10000J0D01*
G01*
X1558000Y-1939850D02*
G75*
G02*
X1538000Y-1939850I-10000J0D01*
G01*
X1538000Y-1939850D02*
G75*
G02*
X1558000Y-1939850I10000J0D01*
G01*
X1558000Y-2044850D02*
G75*
G02*
X1538000Y-2044850I-10000J0D01*
G01*
X1538000Y-2044850D02*
G75*
G02*
X1558000Y-2044850I10000J0D01*
G01*
X1663000Y-1834850D02*
G75*
G02*
X1643000Y-1834850I-10000J0D01*
G01*
X1643000Y-1834850D02*
G75*
G02*
X1663000Y-1834850I10000J0D01*
G01*
X1663000Y-1939850D02*
G75*
G02*
X1643000Y-1939850I-10000J0D01*
G01*
X1643000Y-1939850D02*
G75*
G02*
X1663000Y-1939850I10000J0D01*
G01*
X1663000Y-2044850D02*
G75*
G02*
X1643000Y-2044850I-10000J0D01*
G01*
X1643000Y-2044850D02*
G75*
G02*
X1663000Y-2044850I10000J0D01*
G01*
X1768000Y-1834850D02*
G75*
G02*
X1748000Y-1834850I-10000J0D01*
G01*
X1748000Y-1834850D02*
G75*
G02*
X1768000Y-1834850I10000J0D01*
G01*
X1768000Y-1939850D02*
G75*
G02*
X1748000Y-1939850I-10000J0D01*
G01*
X1748000Y-1939850D02*
G75*
G02*
X1768000Y-1939850I10000J0D01*
G01*
X1768000Y-2044850D02*
G75*
G02*
X1748000Y-2044850I-10000J0D01*
G01*
X1748000Y-2044850D02*
G75*
G02*
X1768000Y-2044850I10000J0D01*
G01*
X1270000Y-1839850D02*
X1270000Y-1869850D01*
X1255000Y-1854850D02*
X1285000Y-1854850D01*
X1270000Y-2017000D02*
X1270000Y-2047000D01*
X1255000Y-2032000D02*
X1285000Y-2032000D01*
X1473200Y-3134600D02*
X1473200Y-3164600D01*
X1458200Y-3149600D02*
X1488200Y-3149600D01*
X1625600Y-2601200D02*
X1625600Y-2631200D01*
X1610600Y-2616200D02*
X1640600Y-2616200D01*
X1714500Y-1242300D02*
X1714500Y-1272300D01*
X1699500Y-1257300D02*
X1729500Y-1257300D01*
X1778000Y-5179300D02*
X1778000Y-5209300D01*
X1763000Y-5194300D02*
X1793000Y-5194300D01*
X1879600Y-3337800D02*
X1879600Y-3367800D01*
X1864600Y-3352800D02*
X1894600Y-3352800D01*
X2413000Y-1305800D02*
X2413000Y-1335800D01*
X2398000Y-1320800D02*
X2428000Y-1320800D01*
X2413000Y-1509000D02*
X2413000Y-1539000D01*
X2398000Y-1524000D02*
X2428000Y-1524000D01*
X2489200Y-4226800D02*
X2489200Y-4256800D01*
X2474200Y-4241800D02*
X2504200Y-4241800D01*
X2781300Y-2690100D02*
X2781300Y-2720100D01*
X2766300Y-2705100D02*
X2796300Y-2705100D01*
X2959100Y-5179300D02*
X2959100Y-5209300D01*
X2944100Y-5194300D02*
X2974100Y-5194300D01*
X3175000Y-3185400D02*
X3175000Y-3215400D01*
X3160000Y-3200400D02*
X3190000Y-3200400D01*
X3352800Y-3054600D02*
X3352800Y-3084600D01*
X3337800Y-3069600D02*
X3367800Y-3069600D01*
X3352800Y-3134600D02*
X3352800Y-3164600D01*
X3337800Y-3149600D02*
X3367800Y-3149600D01*
X3378200Y-3490200D02*
X3378200Y-3520200D01*
X3363200Y-3505200D02*
X3393200Y-3505200D01*
X3479800Y-2499600D02*
X3479800Y-2529600D01*
X3464800Y-2514600D02*
X3494800Y-2514600D01*
X3517900Y-1229600D02*
X3517900Y-1259600D01*
X3502900Y-1244600D02*
X3532900Y-1244600D01*
X3911600Y-3541000D02*
X3911600Y-3571000D01*
X3896600Y-3556000D02*
X3926600Y-3556000D01*
X4089400Y-3515600D02*
X4089400Y-3545600D01*
X4074400Y-3530600D02*
X4104400Y-3530600D01*
X4114800Y-2855200D02*
X4114800Y-2885200D01*
X4099800Y-2870200D02*
X4129800Y-2870200D01*
X4241800Y-3531800D02*
X4241800Y-3561800D01*
X4226800Y-3546800D02*
X4256800Y-3546800D01*
X4343400Y-3083800D02*
X4343400Y-3113800D01*
X4328400Y-3098800D02*
X4358400Y-3098800D01*
X4343400Y-3591800D02*
X4343400Y-3621800D01*
X4328400Y-3606800D02*
X4358400Y-3606800D01*
X4368800Y-3414000D02*
X4368800Y-3444000D01*
X4353800Y-3429000D02*
X4383800Y-3429000D01*
X4408060Y-2855709D02*
X4408060Y-2885709D01*
X4393060Y-2870709D02*
X4423060Y-2870709D01*
X4432300Y-5166600D02*
X4432300Y-5196600D01*
X4417300Y-5181600D02*
X4447300Y-5181600D01*
X4495800Y-2804400D02*
X4495800Y-2834400D01*
X4480800Y-2819400D02*
X4510800Y-2819400D01*
X4622800Y-3236200D02*
X4622800Y-3266200D01*
X4607800Y-3251200D02*
X4637800Y-3251200D01*
X4749800Y-3795000D02*
X4749800Y-3825000D01*
X4734800Y-3810000D02*
X4764800Y-3810000D01*
X4902200Y-2271000D02*
X4902200Y-2301000D01*
X4887200Y-2286000D02*
X4917200Y-2286000D01*
X5778500Y-1128000D02*
X5778500Y-1158000D01*
X5763500Y-1143000D02*
X5793500Y-1143000D01*
X5956300Y-3515600D02*
X5956300Y-3545600D01*
X5941300Y-3530600D02*
X5971300Y-3530600D01*
X5969000Y-2601200D02*
X5969000Y-2631200D01*
X5954000Y-2616200D02*
X5984000Y-2616200D01*
X5994400Y-5153900D02*
X5994400Y-5183900D01*
X5979400Y-5168900D02*
X6009400Y-5168900D01*
X6146800Y-1966200D02*
X6146800Y-1996200D01*
X6131800Y-1981200D02*
X6161800Y-1981200D01*
X6324600Y-1890000D02*
X6324600Y-1920000D01*
X6309600Y-1905000D02*
X6339600Y-1905000D01*
X6324600Y-2194800D02*
X6324600Y-2224800D01*
X6309600Y-2209800D02*
X6339600Y-2209800D01*
X535356Y-1835356D02*
X535356Y-1764644D01*
X464644Y-1764644D01*
X464644Y-1835356D01*
X535356Y-1835356D01*
X535356Y-2089356D02*
X535356Y-2018644D01*
X464644Y-2018644D01*
X464644Y-2089356D01*
X535356Y-2089356D01*
X535356Y-4527356D02*
X535356Y-4456644D01*
X464644Y-4456644D01*
X464644Y-4527356D01*
X535356Y-4527356D01*
X535356Y-4781356D02*
X535356Y-4710644D01*
X464644Y-4710644D01*
X464644Y-4781356D01*
X535356Y-4781356D01*
X535356Y-5035356D02*
X535356Y-4964644D01*
X464644Y-4964644D01*
X464644Y-5035356D01*
X535356Y-5035356D01*
X7113756Y-4581356D02*
X7113756Y-4510644D01*
X7043044Y-4510644D01*
X7043044Y-4581356D01*
X7113756Y-4581356D01*
X7113756Y-4835356D02*
X7113756Y-4764644D01*
X7043044Y-4764644D01*
X7043044Y-4835356D01*
X7113756Y-4835356D01*
D13*
X1368000Y-3578500D02*
X1426500Y-3520000D01*
X1368000Y-3461500D01*
X1309500Y-3520000D01*
X1368000Y-3578500D01*
X1368000Y-4858500D02*
X1426500Y-4800000D01*
X1368000Y-4741500D01*
X1309500Y-4800000D01*
X1368000Y-4858500D01*
D12*
X255777Y-6813984D02*
X255777Y-6613984D01*
X255777Y-6613984D02*
X303396Y-6613984D01*
X303396Y-6613984D02*
X331967Y-6623508D01*
X331967Y-6623508D02*
X351015Y-6642555D01*
X351015Y-6642555D02*
X360539Y-6661603D01*
X360539Y-6661603D02*
X370062Y-6699698D01*
X370062Y-6699698D02*
X370062Y-6728269D01*
X370062Y-6728269D02*
X360539Y-6766365D01*
X360539Y-6766365D02*
X351015Y-6785412D01*
X351015Y-6785412D02*
X331967Y-6804460D01*
X331967Y-6804460D02*
X303396Y-6813984D01*
X303396Y-6813984D02*
X255777Y-6813984D01*
X455777Y-6813984D02*
X455777Y-6680650D01*
X455777Y-6718746D02*
X465301Y-6699698D01*
X465301Y-6699698D02*
X474824Y-6690174D01*
X474824Y-6690174D02*
X493872Y-6680650D01*
X493872Y-6680650D02*
X512920Y-6680650D01*
X579586Y-6813984D02*
X579586Y-6680650D01*
X579586Y-6613984D02*
X570063Y-6623508D01*
X570063Y-6623508D02*
X579586Y-6633031D01*
X579586Y-6633031D02*
X589110Y-6623508D01*
X589110Y-6623508D02*
X579586Y-6613984D01*
X579586Y-6613984D02*
X579586Y-6633031D01*
X703396Y-6813984D02*
X684348Y-6804460D01*
X684348Y-6804460D02*
X674824Y-6785412D01*
X674824Y-6785412D02*
X674824Y-6613984D01*
X808158Y-6813984D02*
X789110Y-6804460D01*
X789110Y-6804460D02*
X779586Y-6785412D01*
X779586Y-6785412D02*
X779586Y-6613984D01*
X1036729Y-6813984D02*
X1036729Y-6613984D01*
X1036729Y-6613984D02*
X1103396Y-6756841D01*
X1103396Y-6756841D02*
X1170063Y-6613984D01*
X1170063Y-6613984D02*
X1170063Y-6813984D01*
X1351015Y-6813984D02*
X1351015Y-6709222D01*
X1351015Y-6709222D02*
X1341491Y-6690174D01*
X1341491Y-6690174D02*
X1322444Y-6680650D01*
X1322444Y-6680650D02*
X1284348Y-6680650D01*
X1284348Y-6680650D02*
X1265301Y-6690174D01*
X1351015Y-6804460D02*
X1331967Y-6813984D01*
X1331967Y-6813984D02*
X1284348Y-6813984D01*
X1284348Y-6813984D02*
X1265301Y-6804460D01*
X1265301Y-6804460D02*
X1255777Y-6785412D01*
X1255777Y-6785412D02*
X1255777Y-6766365D01*
X1255777Y-6766365D02*
X1265301Y-6747317D01*
X1265301Y-6747317D02*
X1284348Y-6737793D01*
X1284348Y-6737793D02*
X1331967Y-6737793D01*
X1331967Y-6737793D02*
X1351015Y-6728269D01*
X1446253Y-6680650D02*
X1446253Y-6880650D01*
X1446253Y-6690174D02*
X1465301Y-6680650D01*
X1465301Y-6680650D02*
X1503396Y-6680650D01*
X1503396Y-6680650D02*
X1522443Y-6690174D01*
X1522443Y-6690174D02*
X1531967Y-6699698D01*
X1531967Y-6699698D02*
X1541491Y-6718746D01*
X1541491Y-6718746D02*
X1541491Y-6775888D01*
X1541491Y-6775888D02*
X1531967Y-6794936D01*
X1531967Y-6794936D02*
X1522443Y-6804460D01*
X1522443Y-6804460D02*
X1503396Y-6813984D01*
X1503396Y-6813984D02*
X1465301Y-6813984D01*
X1465301Y-6813984D02*
X1446253Y-6804460D01*
X1627205Y-6794936D02*
X1636729Y-6804460D01*
X1636729Y-6804460D02*
X1627205Y-6813984D01*
X1627205Y-6813984D02*
X1617682Y-6804460D01*
X1617682Y-6804460D02*
X1627205Y-6794936D01*
X1627205Y-6794936D02*
X1627205Y-6813984D01*
X1627205Y-6690174D02*
X1636729Y-6699698D01*
X1636729Y-6699698D02*
X1627205Y-6709222D01*
X1627205Y-6709222D02*
X1617682Y-6699698D01*
X1617682Y-6699698D02*
X1627205Y-6690174D01*
X1627205Y-6690174D02*
X1627205Y-6709222D01*
D10*
X-25000Y-7132500D02*
X-5000Y-7152500D01*
X-5000Y-7132500D02*
X-25000Y-7152500D01*
D12*
X293872Y-7033984D02*
X312920Y-7033984D01*
X312920Y-7033984D02*
X331967Y-7043508D01*
X331967Y-7043508D02*
X341491Y-7053031D01*
X341491Y-7053031D02*
X351015Y-7072079D01*
X351015Y-7072079D02*
X360539Y-7110174D01*
X360539Y-7110174D02*
X360539Y-7157793D01*
X360539Y-7157793D02*
X351015Y-7195888D01*
X351015Y-7195888D02*
X341491Y-7214936D01*
X341491Y-7214936D02*
X331967Y-7224460D01*
X331967Y-7224460D02*
X312920Y-7233984D01*
X312920Y-7233984D02*
X293872Y-7233984D01*
X293872Y-7233984D02*
X274824Y-7224460D01*
X274824Y-7224460D02*
X265301Y-7214936D01*
X265301Y-7214936D02*
X255777Y-7195888D01*
X255777Y-7195888D02*
X246253Y-7157793D01*
X246253Y-7157793D02*
X246253Y-7110174D01*
X246253Y-7110174D02*
X255777Y-7072079D01*
X255777Y-7072079D02*
X265301Y-7053031D01*
X265301Y-7053031D02*
X274824Y-7043508D01*
X274824Y-7043508D02*
X293872Y-7033984D01*
X446253Y-7214936D02*
X455777Y-7224460D01*
X455777Y-7224460D02*
X446253Y-7233984D01*
X446253Y-7233984D02*
X436729Y-7224460D01*
X436729Y-7224460D02*
X446253Y-7214936D01*
X446253Y-7214936D02*
X446253Y-7233984D01*
X531967Y-7053031D02*
X541491Y-7043508D01*
X541491Y-7043508D02*
X560539Y-7033984D01*
X560539Y-7033984D02*
X608158Y-7033984D01*
X608158Y-7033984D02*
X627205Y-7043508D01*
X627205Y-7043508D02*
X636729Y-7053031D01*
X636729Y-7053031D02*
X646253Y-7072079D01*
X646253Y-7072079D02*
X646253Y-7091127D01*
X646253Y-7091127D02*
X636729Y-7119698D01*
X636729Y-7119698D02*
X522443Y-7233984D01*
X522443Y-7233984D02*
X646253Y-7233984D01*
X770062Y-7033984D02*
X789110Y-7033984D01*
X789110Y-7033984D02*
X808158Y-7043508D01*
X808158Y-7043508D02*
X817682Y-7053031D01*
X817682Y-7053031D02*
X827205Y-7072079D01*
X827205Y-7072079D02*
X836729Y-7110174D01*
X836729Y-7110174D02*
X836729Y-7157793D01*
X836729Y-7157793D02*
X827205Y-7195888D01*
X827205Y-7195888D02*
X817682Y-7214936D01*
X817682Y-7214936D02*
X808158Y-7224460D01*
X808158Y-7224460D02*
X789110Y-7233984D01*
X789110Y-7233984D02*
X770062Y-7233984D01*
X770062Y-7233984D02*
X751015Y-7224460D01*
X751015Y-7224460D02*
X741491Y-7214936D01*
X741491Y-7214936D02*
X731967Y-7195888D01*
X731967Y-7195888D02*
X722443Y-7157793D01*
X722443Y-7157793D02*
X722443Y-7110174D01*
X722443Y-7110174D02*
X731967Y-7072079D01*
X731967Y-7072079D02*
X741491Y-7053031D01*
X741491Y-7053031D02*
X751015Y-7043508D01*
X751015Y-7043508D02*
X770062Y-7033984D01*
X960539Y-7033984D02*
X979586Y-7033984D01*
X979586Y-7033984D02*
X998634Y-7043508D01*
X998634Y-7043508D02*
X1008158Y-7053031D01*
X1008158Y-7053031D02*
X1017682Y-7072079D01*
X1017682Y-7072079D02*
X1027205Y-7110174D01*
X1027205Y-7110174D02*
X1027205Y-7157793D01*
X1027205Y-7157793D02*
X1017682Y-7195888D01*
X1017682Y-7195888D02*
X1008158Y-7214936D01*
X1008158Y-7214936D02*
X998634Y-7224460D01*
X998634Y-7224460D02*
X979586Y-7233984D01*
X979586Y-7233984D02*
X960539Y-7233984D01*
X960539Y-7233984D02*
X941491Y-7224460D01*
X941491Y-7224460D02*
X931967Y-7214936D01*
X931967Y-7214936D02*
X922443Y-7195888D01*
X922443Y-7195888D02*
X912920Y-7157793D01*
X912920Y-7157793D02*
X912920Y-7110174D01*
X912920Y-7110174D02*
X922443Y-7072079D01*
X922443Y-7072079D02*
X931967Y-7053031D01*
X931967Y-7053031D02*
X941491Y-7043508D01*
X941491Y-7043508D02*
X960539Y-7033984D01*
X1112920Y-7233984D02*
X1112920Y-7100650D01*
X1112920Y-7119698D02*
X1122444Y-7110174D01*
X1122444Y-7110174D02*
X1141491Y-7100650D01*
X1141491Y-7100650D02*
X1170063Y-7100650D01*
X1170063Y-7100650D02*
X1189110Y-7110174D01*
X1189110Y-7110174D02*
X1198634Y-7129222D01*
X1198634Y-7129222D02*
X1198634Y-7233984D01*
X1198634Y-7129222D02*
X1208158Y-7110174D01*
X1208158Y-7110174D02*
X1227205Y-7100650D01*
X1227205Y-7100650D02*
X1255777Y-7100650D01*
X1255777Y-7100650D02*
X1274825Y-7110174D01*
X1274825Y-7110174D02*
X1284348Y-7129222D01*
X1284348Y-7129222D02*
X1284348Y-7233984D01*
X1379586Y-7233984D02*
X1379586Y-7100650D01*
X1379586Y-7119698D02*
X1389110Y-7110174D01*
X1389110Y-7110174D02*
X1408158Y-7100650D01*
X1408158Y-7100650D02*
X1436729Y-7100650D01*
X1436729Y-7100650D02*
X1455777Y-7110174D01*
X1455777Y-7110174D02*
X1465301Y-7129222D01*
X1465301Y-7129222D02*
X1465301Y-7233984D01*
X1465301Y-7129222D02*
X1474824Y-7110174D01*
X1474824Y-7110174D02*
X1493872Y-7100650D01*
X1493872Y-7100650D02*
X1522443Y-7100650D01*
X1522443Y-7100650D02*
X1541491Y-7110174D01*
X1541491Y-7110174D02*
X1551015Y-7129222D01*
X1551015Y-7129222D02*
X1551015Y-7233984D01*
X1941491Y-7024460D02*
X1770063Y-7281603D01*
X2198634Y-7033984D02*
X2217682Y-7033984D01*
X2217682Y-7033984D02*
X2236729Y-7043508D01*
X2236729Y-7043508D02*
X2246253Y-7053031D01*
X2246253Y-7053031D02*
X2255777Y-7072079D01*
X2255777Y-7072079D02*
X2265301Y-7110174D01*
X2265301Y-7110174D02*
X2265301Y-7157793D01*
X2265301Y-7157793D02*
X2255777Y-7195888D01*
X2255777Y-7195888D02*
X2246253Y-7214936D01*
X2246253Y-7214936D02*
X2236729Y-7224460D01*
X2236729Y-7224460D02*
X2217682Y-7233984D01*
X2217682Y-7233984D02*
X2198634Y-7233984D01*
X2198634Y-7233984D02*
X2179587Y-7224460D01*
X2179587Y-7224460D02*
X2170063Y-7214936D01*
X2170063Y-7214936D02*
X2160539Y-7195888D01*
X2160539Y-7195888D02*
X2151015Y-7157793D01*
X2151015Y-7157793D02*
X2151015Y-7110174D01*
X2151015Y-7110174D02*
X2160539Y-7072079D01*
X2160539Y-7072079D02*
X2170063Y-7053031D01*
X2170063Y-7053031D02*
X2179587Y-7043508D01*
X2179587Y-7043508D02*
X2198634Y-7033984D01*
X2351015Y-7214936D02*
X2360539Y-7224460D01*
X2360539Y-7224460D02*
X2351015Y-7233984D01*
X2351015Y-7233984D02*
X2341491Y-7224460D01*
X2341491Y-7224460D02*
X2351015Y-7214936D01*
X2351015Y-7214936D02*
X2351015Y-7233984D01*
X2484348Y-7033984D02*
X2503396Y-7033984D01*
X2503396Y-7033984D02*
X2522444Y-7043508D01*
X2522444Y-7043508D02*
X2531968Y-7053031D01*
X2531968Y-7053031D02*
X2541491Y-7072079D01*
X2541491Y-7072079D02*
X2551015Y-7110174D01*
X2551015Y-7110174D02*
X2551015Y-7157793D01*
X2551015Y-7157793D02*
X2541491Y-7195888D01*
X2541491Y-7195888D02*
X2531968Y-7214936D01*
X2531968Y-7214936D02*
X2522444Y-7224460D01*
X2522444Y-7224460D02*
X2503396Y-7233984D01*
X2503396Y-7233984D02*
X2484348Y-7233984D01*
X2484348Y-7233984D02*
X2465301Y-7224460D01*
X2465301Y-7224460D02*
X2455777Y-7214936D01*
X2455777Y-7214936D02*
X2446253Y-7195888D01*
X2446253Y-7195888D02*
X2436729Y-7157793D01*
X2436729Y-7157793D02*
X2436729Y-7110174D01*
X2436729Y-7110174D02*
X2446253Y-7072079D01*
X2446253Y-7072079D02*
X2455777Y-7053031D01*
X2455777Y-7053031D02*
X2465301Y-7043508D01*
X2465301Y-7043508D02*
X2484348Y-7033984D01*
X2674825Y-7033984D02*
X2693872Y-7033984D01*
X2693872Y-7033984D02*
X2712920Y-7043508D01*
X2712920Y-7043508D02*
X2722444Y-7053031D01*
X2722444Y-7053031D02*
X2731968Y-7072079D01*
X2731968Y-7072079D02*
X2741491Y-7110174D01*
X2741491Y-7110174D02*
X2741491Y-7157793D01*
X2741491Y-7157793D02*
X2731968Y-7195888D01*
X2731968Y-7195888D02*
X2722444Y-7214936D01*
X2722444Y-7214936D02*
X2712920Y-7224460D01*
X2712920Y-7224460D02*
X2693872Y-7233984D01*
X2693872Y-7233984D02*
X2674825Y-7233984D01*
X2674825Y-7233984D02*
X2655777Y-7224460D01*
X2655777Y-7224460D02*
X2646253Y-7214936D01*
X2646253Y-7214936D02*
X2636729Y-7195888D01*
X2636729Y-7195888D02*
X2627206Y-7157793D01*
X2627206Y-7157793D02*
X2627206Y-7110174D01*
X2627206Y-7110174D02*
X2636729Y-7072079D01*
X2636729Y-7072079D02*
X2646253Y-7053031D01*
X2646253Y-7053031D02*
X2655777Y-7043508D01*
X2655777Y-7043508D02*
X2674825Y-7033984D01*
X2808158Y-7033984D02*
X2941491Y-7033984D01*
X2941491Y-7033984D02*
X2855777Y-7233984D01*
X3027206Y-7233984D02*
X3065301Y-7233984D01*
X3065301Y-7233984D02*
X3084348Y-7224460D01*
X3084348Y-7224460D02*
X3093872Y-7214936D01*
X3093872Y-7214936D02*
X3112920Y-7186365D01*
X3112920Y-7186365D02*
X3122444Y-7148269D01*
X3122444Y-7148269D02*
X3122444Y-7072079D01*
X3122444Y-7072079D02*
X3112920Y-7053031D01*
X3112920Y-7053031D02*
X3103396Y-7043508D01*
X3103396Y-7043508D02*
X3084348Y-7033984D01*
X3084348Y-7033984D02*
X3046253Y-7033984D01*
X3046253Y-7033984D02*
X3027206Y-7043508D01*
X3027206Y-7043508D02*
X3017682Y-7053031D01*
X3017682Y-7053031D02*
X3008158Y-7072079D01*
X3008158Y-7072079D02*
X3008158Y-7119698D01*
X3008158Y-7119698D02*
X3017682Y-7138746D01*
X3017682Y-7138746D02*
X3027206Y-7148269D01*
X3027206Y-7148269D02*
X3046253Y-7157793D01*
X3046253Y-7157793D02*
X3084348Y-7157793D01*
X3084348Y-7157793D02*
X3103396Y-7148269D01*
X3103396Y-7148269D02*
X3112920Y-7138746D01*
X3112920Y-7138746D02*
X3122444Y-7119698D01*
X3198634Y-7033984D02*
X3198634Y-7072079D01*
X3274825Y-7033984D02*
X3274825Y-7072079D01*
X3570063Y-7310174D02*
X3560539Y-7300650D01*
X3560539Y-7300650D02*
X3541491Y-7272079D01*
X3541491Y-7272079D02*
X3531968Y-7253031D01*
X3531968Y-7253031D02*
X3522444Y-7224460D01*
X3522444Y-7224460D02*
X3512920Y-7176841D01*
X3512920Y-7176841D02*
X3512920Y-7138746D01*
X3512920Y-7138746D02*
X3522444Y-7091127D01*
X3522444Y-7091127D02*
X3531968Y-7062555D01*
X3531968Y-7062555D02*
X3541491Y-7043508D01*
X3541491Y-7043508D02*
X3560539Y-7014936D01*
X3560539Y-7014936D02*
X3570063Y-7005412D01*
X3741491Y-7033984D02*
X3646253Y-7033984D01*
X3646253Y-7033984D02*
X3636729Y-7129222D01*
X3636729Y-7129222D02*
X3646253Y-7119698D01*
X3646253Y-7119698D02*
X3665301Y-7110174D01*
X3665301Y-7110174D02*
X3712920Y-7110174D01*
X3712920Y-7110174D02*
X3731968Y-7119698D01*
X3731968Y-7119698D02*
X3741491Y-7129222D01*
X3741491Y-7129222D02*
X3751015Y-7148269D01*
X3751015Y-7148269D02*
X3751015Y-7195888D01*
X3751015Y-7195888D02*
X3741491Y-7214936D01*
X3741491Y-7214936D02*
X3731968Y-7224460D01*
X3731968Y-7224460D02*
X3712920Y-7233984D01*
X3712920Y-7233984D02*
X3665301Y-7233984D01*
X3665301Y-7233984D02*
X3646253Y-7224460D01*
X3646253Y-7224460D02*
X3636729Y-7214936D01*
X3989110Y-7233984D02*
X3989110Y-7033984D01*
X4074825Y-7233984D02*
X4074825Y-7129222D01*
X4074825Y-7129222D02*
X4065301Y-7110174D01*
X4065301Y-7110174D02*
X4046253Y-7100650D01*
X4046253Y-7100650D02*
X4017682Y-7100650D01*
X4017682Y-7100650D02*
X3998634Y-7110174D01*
X3998634Y-7110174D02*
X3989110Y-7119698D01*
X4198634Y-7233984D02*
X4179587Y-7224460D01*
X4179587Y-7224460D02*
X4170063Y-7214936D01*
X4170063Y-7214936D02*
X4160539Y-7195888D01*
X4160539Y-7195888D02*
X4160539Y-7138746D01*
X4160539Y-7138746D02*
X4170063Y-7119698D01*
X4170063Y-7119698D02*
X4179587Y-7110174D01*
X4179587Y-7110174D02*
X4198634Y-7100650D01*
X4198634Y-7100650D02*
X4227206Y-7100650D01*
X4227206Y-7100650D02*
X4246253Y-7110174D01*
X4246253Y-7110174D02*
X4255777Y-7119698D01*
X4255777Y-7119698D02*
X4265301Y-7138746D01*
X4265301Y-7138746D02*
X4265301Y-7195888D01*
X4265301Y-7195888D02*
X4255777Y-7214936D01*
X4255777Y-7214936D02*
X4246253Y-7224460D01*
X4246253Y-7224460D02*
X4227206Y-7233984D01*
X4227206Y-7233984D02*
X4198634Y-7233984D01*
X4379587Y-7233984D02*
X4360539Y-7224460D01*
X4360539Y-7224460D02*
X4351015Y-7205412D01*
X4351015Y-7205412D02*
X4351015Y-7033984D01*
X4531968Y-7224460D02*
X4512920Y-7233984D01*
X4512920Y-7233984D02*
X4474825Y-7233984D01*
X4474825Y-7233984D02*
X4455777Y-7224460D01*
X4455777Y-7224460D02*
X4446253Y-7205412D01*
X4446253Y-7205412D02*
X4446253Y-7129222D01*
X4446253Y-7129222D02*
X4455777Y-7110174D01*
X4455777Y-7110174D02*
X4474825Y-7100650D01*
X4474825Y-7100650D02*
X4512920Y-7100650D01*
X4512920Y-7100650D02*
X4531968Y-7110174D01*
X4531968Y-7110174D02*
X4541492Y-7129222D01*
X4541492Y-7129222D02*
X4541492Y-7148269D01*
X4541492Y-7148269D02*
X4446253Y-7167317D01*
X4617682Y-7224460D02*
X4636730Y-7233984D01*
X4636730Y-7233984D02*
X4674825Y-7233984D01*
X4674825Y-7233984D02*
X4693873Y-7224460D01*
X4693873Y-7224460D02*
X4703396Y-7205412D01*
X4703396Y-7205412D02*
X4703396Y-7195888D01*
X4703396Y-7195888D02*
X4693873Y-7176841D01*
X4693873Y-7176841D02*
X4674825Y-7167317D01*
X4674825Y-7167317D02*
X4646253Y-7167317D01*
X4646253Y-7167317D02*
X4627206Y-7157793D01*
X4627206Y-7157793D02*
X4617682Y-7138746D01*
X4617682Y-7138746D02*
X4617682Y-7129222D01*
X4617682Y-7129222D02*
X4627206Y-7110174D01*
X4627206Y-7110174D02*
X4646253Y-7100650D01*
X4646253Y-7100650D02*
X4674825Y-7100650D01*
X4674825Y-7100650D02*
X4693873Y-7110174D01*
X4770063Y-7310174D02*
X4779587Y-7300650D01*
X4779587Y-7300650D02*
X4798634Y-7272079D01*
X4798634Y-7272079D02*
X4808158Y-7253031D01*
X4808158Y-7253031D02*
X4817682Y-7224460D01*
X4817682Y-7224460D02*
X4827206Y-7176841D01*
X4827206Y-7176841D02*
X4827206Y-7138746D01*
X4827206Y-7138746D02*
X4817682Y-7091127D01*
X4817682Y-7091127D02*
X4808158Y-7062555D01*
X4808158Y-7062555D02*
X4798634Y-7043508D01*
X4798634Y-7043508D02*
X4779587Y-7014936D01*
X4779587Y-7014936D02*
X4770063Y-7005412D01*
D10*
X-5000Y-7406500D02*
G75*
G02*
X-25000Y-7406500I-10000J0D01*
G01*
X-25000Y-7406500D02*
G75*
G02*
X-5000Y-7406500I10000J0D01*
G01*
D12*
X293872Y-7297984D02*
X312920Y-7297984D01*
X312920Y-7297984D02*
X331967Y-7307508D01*
X331967Y-7307508D02*
X341491Y-7317031D01*
X341491Y-7317031D02*
X351015Y-7336079D01*
X351015Y-7336079D02*
X360539Y-7374174D01*
X360539Y-7374174D02*
X360539Y-7421793D01*
X360539Y-7421793D02*
X351015Y-7459888D01*
X351015Y-7459888D02*
X341491Y-7478936D01*
X341491Y-7478936D02*
X331967Y-7488460D01*
X331967Y-7488460D02*
X312920Y-7497984D01*
X312920Y-7497984D02*
X293872Y-7497984D01*
X293872Y-7497984D02*
X274824Y-7488460D01*
X274824Y-7488460D02*
X265301Y-7478936D01*
X265301Y-7478936D02*
X255777Y-7459888D01*
X255777Y-7459888D02*
X246253Y-7421793D01*
X246253Y-7421793D02*
X246253Y-7374174D01*
X246253Y-7374174D02*
X255777Y-7336079D01*
X255777Y-7336079D02*
X265301Y-7317031D01*
X265301Y-7317031D02*
X274824Y-7307508D01*
X274824Y-7307508D02*
X293872Y-7297984D01*
X446253Y-7478936D02*
X455777Y-7488460D01*
X455777Y-7488460D02*
X446253Y-7497984D01*
X446253Y-7497984D02*
X436729Y-7488460D01*
X436729Y-7488460D02*
X446253Y-7478936D01*
X446253Y-7478936D02*
X446253Y-7497984D01*
X531967Y-7317031D02*
X541491Y-7307508D01*
X541491Y-7307508D02*
X560539Y-7297984D01*
X560539Y-7297984D02*
X608158Y-7297984D01*
X608158Y-7297984D02*
X627205Y-7307508D01*
X627205Y-7307508D02*
X636729Y-7317031D01*
X636729Y-7317031D02*
X646253Y-7336079D01*
X646253Y-7336079D02*
X646253Y-7355127D01*
X646253Y-7355127D02*
X636729Y-7383698D01*
X636729Y-7383698D02*
X522443Y-7497984D01*
X522443Y-7497984D02*
X646253Y-7497984D01*
X770062Y-7297984D02*
X789110Y-7297984D01*
X789110Y-7297984D02*
X808158Y-7307508D01*
X808158Y-7307508D02*
X817682Y-7317031D01*
X817682Y-7317031D02*
X827205Y-7336079D01*
X827205Y-7336079D02*
X836729Y-7374174D01*
X836729Y-7374174D02*
X836729Y-7421793D01*
X836729Y-7421793D02*
X827205Y-7459888D01*
X827205Y-7459888D02*
X817682Y-7478936D01*
X817682Y-7478936D02*
X808158Y-7488460D01*
X808158Y-7488460D02*
X789110Y-7497984D01*
X789110Y-7497984D02*
X770062Y-7497984D01*
X770062Y-7497984D02*
X751015Y-7488460D01*
X751015Y-7488460D02*
X741491Y-7478936D01*
X741491Y-7478936D02*
X731967Y-7459888D01*
X731967Y-7459888D02*
X722443Y-7421793D01*
X722443Y-7421793D02*
X722443Y-7374174D01*
X722443Y-7374174D02*
X731967Y-7336079D01*
X731967Y-7336079D02*
X741491Y-7317031D01*
X741491Y-7317031D02*
X751015Y-7307508D01*
X751015Y-7307508D02*
X770062Y-7297984D01*
X960539Y-7297984D02*
X979586Y-7297984D01*
X979586Y-7297984D02*
X998634Y-7307508D01*
X998634Y-7307508D02*
X1008158Y-7317031D01*
X1008158Y-7317031D02*
X1017682Y-7336079D01*
X1017682Y-7336079D02*
X1027205Y-7374174D01*
X1027205Y-7374174D02*
X1027205Y-7421793D01*
X1027205Y-7421793D02*
X1017682Y-7459888D01*
X1017682Y-7459888D02*
X1008158Y-7478936D01*
X1008158Y-7478936D02*
X998634Y-7488460D01*
X998634Y-7488460D02*
X979586Y-7497984D01*
X979586Y-7497984D02*
X960539Y-7497984D01*
X960539Y-7497984D02*
X941491Y-7488460D01*
X941491Y-7488460D02*
X931967Y-7478936D01*
X931967Y-7478936D02*
X922443Y-7459888D01*
X922443Y-7459888D02*
X912920Y-7421793D01*
X912920Y-7421793D02*
X912920Y-7374174D01*
X912920Y-7374174D02*
X922443Y-7336079D01*
X922443Y-7336079D02*
X931967Y-7317031D01*
X931967Y-7317031D02*
X941491Y-7307508D01*
X941491Y-7307508D02*
X960539Y-7297984D01*
X1112920Y-7497984D02*
X1112920Y-7364650D01*
X1112920Y-7383698D02*
X1122444Y-7374174D01*
X1122444Y-7374174D02*
X1141491Y-7364650D01*
X1141491Y-7364650D02*
X1170063Y-7364650D01*
X1170063Y-7364650D02*
X1189110Y-7374174D01*
X1189110Y-7374174D02*
X1198634Y-7393222D01*
X1198634Y-7393222D02*
X1198634Y-7497984D01*
X1198634Y-7393222D02*
X1208158Y-7374174D01*
X1208158Y-7374174D02*
X1227205Y-7364650D01*
X1227205Y-7364650D02*
X1255777Y-7364650D01*
X1255777Y-7364650D02*
X1274825Y-7374174D01*
X1274825Y-7374174D02*
X1284348Y-7393222D01*
X1284348Y-7393222D02*
X1284348Y-7497984D01*
X1379586Y-7497984D02*
X1379586Y-7364650D01*
X1379586Y-7383698D02*
X1389110Y-7374174D01*
X1389110Y-7374174D02*
X1408158Y-7364650D01*
X1408158Y-7364650D02*
X1436729Y-7364650D01*
X1436729Y-7364650D02*
X1455777Y-7374174D01*
X1455777Y-7374174D02*
X1465301Y-7393222D01*
X1465301Y-7393222D02*
X1465301Y-7497984D01*
X1465301Y-7393222D02*
X1474824Y-7374174D01*
X1474824Y-7374174D02*
X1493872Y-7364650D01*
X1493872Y-7364650D02*
X1522443Y-7364650D01*
X1522443Y-7364650D02*
X1541491Y-7374174D01*
X1541491Y-7374174D02*
X1551015Y-7393222D01*
X1551015Y-7393222D02*
X1551015Y-7497984D01*
X1941491Y-7288460D02*
X1770063Y-7545603D01*
X2198634Y-7297984D02*
X2217682Y-7297984D01*
X2217682Y-7297984D02*
X2236729Y-7307508D01*
X2236729Y-7307508D02*
X2246253Y-7317031D01*
X2246253Y-7317031D02*
X2255777Y-7336079D01*
X2255777Y-7336079D02*
X2265301Y-7374174D01*
X2265301Y-7374174D02*
X2265301Y-7421793D01*
X2265301Y-7421793D02*
X2255777Y-7459888D01*
X2255777Y-7459888D02*
X2246253Y-7478936D01*
X2246253Y-7478936D02*
X2236729Y-7488460D01*
X2236729Y-7488460D02*
X2217682Y-7497984D01*
X2217682Y-7497984D02*
X2198634Y-7497984D01*
X2198634Y-7497984D02*
X2179587Y-7488460D01*
X2179587Y-7488460D02*
X2170063Y-7478936D01*
X2170063Y-7478936D02*
X2160539Y-7459888D01*
X2160539Y-7459888D02*
X2151015Y-7421793D01*
X2151015Y-7421793D02*
X2151015Y-7374174D01*
X2151015Y-7374174D02*
X2160539Y-7336079D01*
X2160539Y-7336079D02*
X2170063Y-7317031D01*
X2170063Y-7317031D02*
X2179587Y-7307508D01*
X2179587Y-7307508D02*
X2198634Y-7297984D01*
X2351015Y-7478936D02*
X2360539Y-7488460D01*
X2360539Y-7488460D02*
X2351015Y-7497984D01*
X2351015Y-7497984D02*
X2341491Y-7488460D01*
X2341491Y-7488460D02*
X2351015Y-7478936D01*
X2351015Y-7478936D02*
X2351015Y-7497984D01*
X2484348Y-7297984D02*
X2503396Y-7297984D01*
X2503396Y-7297984D02*
X2522444Y-7307508D01*
X2522444Y-7307508D02*
X2531968Y-7317031D01*
X2531968Y-7317031D02*
X2541491Y-7336079D01*
X2541491Y-7336079D02*
X2551015Y-7374174D01*
X2551015Y-7374174D02*
X2551015Y-7421793D01*
X2551015Y-7421793D02*
X2541491Y-7459888D01*
X2541491Y-7459888D02*
X2531968Y-7478936D01*
X2531968Y-7478936D02*
X2522444Y-7488460D01*
X2522444Y-7488460D02*
X2503396Y-7497984D01*
X2503396Y-7497984D02*
X2484348Y-7497984D01*
X2484348Y-7497984D02*
X2465301Y-7488460D01*
X2465301Y-7488460D02*
X2455777Y-7478936D01*
X2455777Y-7478936D02*
X2446253Y-7459888D01*
X2446253Y-7459888D02*
X2436729Y-7421793D01*
X2436729Y-7421793D02*
X2436729Y-7374174D01*
X2436729Y-7374174D02*
X2446253Y-7336079D01*
X2446253Y-7336079D02*
X2455777Y-7317031D01*
X2455777Y-7317031D02*
X2465301Y-7307508D01*
X2465301Y-7307508D02*
X2484348Y-7297984D01*
X2674825Y-7297984D02*
X2693872Y-7297984D01*
X2693872Y-7297984D02*
X2712920Y-7307508D01*
X2712920Y-7307508D02*
X2722444Y-7317031D01*
X2722444Y-7317031D02*
X2731968Y-7336079D01*
X2731968Y-7336079D02*
X2741491Y-7374174D01*
X2741491Y-7374174D02*
X2741491Y-7421793D01*
X2741491Y-7421793D02*
X2731968Y-7459888D01*
X2731968Y-7459888D02*
X2722444Y-7478936D01*
X2722444Y-7478936D02*
X2712920Y-7488460D01*
X2712920Y-7488460D02*
X2693872Y-7497984D01*
X2693872Y-7497984D02*
X2674825Y-7497984D01*
X2674825Y-7497984D02*
X2655777Y-7488460D01*
X2655777Y-7488460D02*
X2646253Y-7478936D01*
X2646253Y-7478936D02*
X2636729Y-7459888D01*
X2636729Y-7459888D02*
X2627206Y-7421793D01*
X2627206Y-7421793D02*
X2627206Y-7374174D01*
X2627206Y-7374174D02*
X2636729Y-7336079D01*
X2636729Y-7336079D02*
X2646253Y-7317031D01*
X2646253Y-7317031D02*
X2655777Y-7307508D01*
X2655777Y-7307508D02*
X2674825Y-7297984D01*
X2808158Y-7297984D02*
X2941491Y-7297984D01*
X2941491Y-7297984D02*
X2855777Y-7497984D01*
X3027206Y-7497984D02*
X3065301Y-7497984D01*
X3065301Y-7497984D02*
X3084348Y-7488460D01*
X3084348Y-7488460D02*
X3093872Y-7478936D01*
X3093872Y-7478936D02*
X3112920Y-7450365D01*
X3112920Y-7450365D02*
X3122444Y-7412269D01*
X3122444Y-7412269D02*
X3122444Y-7336079D01*
X3122444Y-7336079D02*
X3112920Y-7317031D01*
X3112920Y-7317031D02*
X3103396Y-7307508D01*
X3103396Y-7307508D02*
X3084348Y-7297984D01*
X3084348Y-7297984D02*
X3046253Y-7297984D01*
X3046253Y-7297984D02*
X3027206Y-7307508D01*
X3027206Y-7307508D02*
X3017682Y-7317031D01*
X3017682Y-7317031D02*
X3008158Y-7336079D01*
X3008158Y-7336079D02*
X3008158Y-7383698D01*
X3008158Y-7383698D02*
X3017682Y-7402746D01*
X3017682Y-7402746D02*
X3027206Y-7412269D01*
X3027206Y-7412269D02*
X3046253Y-7421793D01*
X3046253Y-7421793D02*
X3084348Y-7421793D01*
X3084348Y-7421793D02*
X3103396Y-7412269D01*
X3103396Y-7412269D02*
X3112920Y-7402746D01*
X3112920Y-7402746D02*
X3122444Y-7383698D01*
X3198634Y-7297984D02*
X3198634Y-7336079D01*
X3274825Y-7297984D02*
X3274825Y-7336079D01*
X3570063Y-7574174D02*
X3560539Y-7564650D01*
X3560539Y-7564650D02*
X3541491Y-7536079D01*
X3541491Y-7536079D02*
X3531968Y-7517031D01*
X3531968Y-7517031D02*
X3522444Y-7488460D01*
X3522444Y-7488460D02*
X3512920Y-7440841D01*
X3512920Y-7440841D02*
X3512920Y-7402746D01*
X3512920Y-7402746D02*
X3522444Y-7355127D01*
X3522444Y-7355127D02*
X3531968Y-7326555D01*
X3531968Y-7326555D02*
X3541491Y-7307508D01*
X3541491Y-7307508D02*
X3560539Y-7278936D01*
X3560539Y-7278936D02*
X3570063Y-7269412D01*
X3655777Y-7497984D02*
X3693872Y-7497984D01*
X3693872Y-7497984D02*
X3712920Y-7488460D01*
X3712920Y-7488460D02*
X3722444Y-7478936D01*
X3722444Y-7478936D02*
X3741491Y-7450365D01*
X3741491Y-7450365D02*
X3751015Y-7412269D01*
X3751015Y-7412269D02*
X3751015Y-7336079D01*
X3751015Y-7336079D02*
X3741491Y-7317031D01*
X3741491Y-7317031D02*
X3731968Y-7307508D01*
X3731968Y-7307508D02*
X3712920Y-7297984D01*
X3712920Y-7297984D02*
X3674825Y-7297984D01*
X3674825Y-7297984D02*
X3655777Y-7307508D01*
X3655777Y-7307508D02*
X3646253Y-7317031D01*
X3646253Y-7317031D02*
X3636729Y-7336079D01*
X3636729Y-7336079D02*
X3636729Y-7383698D01*
X3636729Y-7383698D02*
X3646253Y-7402746D01*
X3646253Y-7402746D02*
X3655777Y-7412269D01*
X3655777Y-7412269D02*
X3674825Y-7421793D01*
X3674825Y-7421793D02*
X3712920Y-7421793D01*
X3712920Y-7421793D02*
X3731968Y-7412269D01*
X3731968Y-7412269D02*
X3741491Y-7402746D01*
X3741491Y-7402746D02*
X3751015Y-7383698D01*
X3989110Y-7497984D02*
X3989110Y-7297984D01*
X4074825Y-7497984D02*
X4074825Y-7393222D01*
X4074825Y-7393222D02*
X4065301Y-7374174D01*
X4065301Y-7374174D02*
X4046253Y-7364650D01*
X4046253Y-7364650D02*
X4017682Y-7364650D01*
X4017682Y-7364650D02*
X3998634Y-7374174D01*
X3998634Y-7374174D02*
X3989110Y-7383698D01*
X4198634Y-7497984D02*
X4179587Y-7488460D01*
X4179587Y-7488460D02*
X4170063Y-7478936D01*
X4170063Y-7478936D02*
X4160539Y-7459888D01*
X4160539Y-7459888D02*
X4160539Y-7402746D01*
X4160539Y-7402746D02*
X4170063Y-7383698D01*
X4170063Y-7383698D02*
X4179587Y-7374174D01*
X4179587Y-7374174D02*
X4198634Y-7364650D01*
X4198634Y-7364650D02*
X4227206Y-7364650D01*
X4227206Y-7364650D02*
X4246253Y-7374174D01*
X4246253Y-7374174D02*
X4255777Y-7383698D01*
X4255777Y-7383698D02*
X4265301Y-7402746D01*
X4265301Y-7402746D02*
X4265301Y-7459888D01*
X4265301Y-7459888D02*
X4255777Y-7478936D01*
X4255777Y-7478936D02*
X4246253Y-7488460D01*
X4246253Y-7488460D02*
X4227206Y-7497984D01*
X4227206Y-7497984D02*
X4198634Y-7497984D01*
X4379587Y-7497984D02*
X4360539Y-7488460D01*
X4360539Y-7488460D02*
X4351015Y-7469412D01*
X4351015Y-7469412D02*
X4351015Y-7297984D01*
X4531968Y-7488460D02*
X4512920Y-7497984D01*
X4512920Y-7497984D02*
X4474825Y-7497984D01*
X4474825Y-7497984D02*
X4455777Y-7488460D01*
X4455777Y-7488460D02*
X4446253Y-7469412D01*
X4446253Y-7469412D02*
X4446253Y-7393222D01*
X4446253Y-7393222D02*
X4455777Y-7374174D01*
X4455777Y-7374174D02*
X4474825Y-7364650D01*
X4474825Y-7364650D02*
X4512920Y-7364650D01*
X4512920Y-7364650D02*
X4531968Y-7374174D01*
X4531968Y-7374174D02*
X4541492Y-7393222D01*
X4541492Y-7393222D02*
X4541492Y-7412269D01*
X4541492Y-7412269D02*
X4446253Y-7431317D01*
X4617682Y-7488460D02*
X4636730Y-7497984D01*
X4636730Y-7497984D02*
X4674825Y-7497984D01*
X4674825Y-7497984D02*
X4693873Y-7488460D01*
X4693873Y-7488460D02*
X4703396Y-7469412D01*
X4703396Y-7469412D02*
X4703396Y-7459888D01*
X4703396Y-7459888D02*
X4693873Y-7440841D01*
X4693873Y-7440841D02*
X4674825Y-7431317D01*
X4674825Y-7431317D02*
X4646253Y-7431317D01*
X4646253Y-7431317D02*
X4627206Y-7421793D01*
X4627206Y-7421793D02*
X4617682Y-7402746D01*
X4617682Y-7402746D02*
X4617682Y-7393222D01*
X4617682Y-7393222D02*
X4627206Y-7374174D01*
X4627206Y-7374174D02*
X4646253Y-7364650D01*
X4646253Y-7364650D02*
X4674825Y-7364650D01*
X4674825Y-7364650D02*
X4693873Y-7374174D01*
X4770063Y-7574174D02*
X4779587Y-7564650D01*
X4779587Y-7564650D02*
X4798634Y-7536079D01*
X4798634Y-7536079D02*
X4808158Y-7517031D01*
X4808158Y-7517031D02*
X4817682Y-7488460D01*
X4817682Y-7488460D02*
X4827206Y-7440841D01*
X4827206Y-7440841D02*
X4827206Y-7402746D01*
X4827206Y-7402746D02*
X4817682Y-7355127D01*
X4817682Y-7355127D02*
X4808158Y-7326555D01*
X4808158Y-7326555D02*
X4798634Y-7307508D01*
X4798634Y-7307508D02*
X4779587Y-7278936D01*
X4779587Y-7278936D02*
X4770063Y-7269412D01*
D10*
X-20000Y-7655500D02*
X-20000Y-7685500D01*
X-35000Y-7670500D02*
X-5000Y-7670500D01*
D12*
X293872Y-7561984D02*
X312920Y-7561984D01*
X312920Y-7561984D02*
X331967Y-7571508D01*
X331967Y-7571508D02*
X341491Y-7581031D01*
X341491Y-7581031D02*
X351015Y-7600079D01*
X351015Y-7600079D02*
X360539Y-7638174D01*
X360539Y-7638174D02*
X360539Y-7685793D01*
X360539Y-7685793D02*
X351015Y-7723888D01*
X351015Y-7723888D02*
X341491Y-7742936D01*
X341491Y-7742936D02*
X331967Y-7752460D01*
X331967Y-7752460D02*
X312920Y-7761984D01*
X312920Y-7761984D02*
X293872Y-7761984D01*
X293872Y-7761984D02*
X274824Y-7752460D01*
X274824Y-7752460D02*
X265301Y-7742936D01*
X265301Y-7742936D02*
X255777Y-7723888D01*
X255777Y-7723888D02*
X246253Y-7685793D01*
X246253Y-7685793D02*
X246253Y-7638174D01*
X246253Y-7638174D02*
X255777Y-7600079D01*
X255777Y-7600079D02*
X265301Y-7581031D01*
X265301Y-7581031D02*
X274824Y-7571508D01*
X274824Y-7571508D02*
X293872Y-7561984D01*
X446253Y-7742936D02*
X455777Y-7752460D01*
X455777Y-7752460D02*
X446253Y-7761984D01*
X446253Y-7761984D02*
X436729Y-7752460D01*
X436729Y-7752460D02*
X446253Y-7742936D01*
X446253Y-7742936D02*
X446253Y-7761984D01*
X522443Y-7561984D02*
X646253Y-7561984D01*
X646253Y-7561984D02*
X579586Y-7638174D01*
X579586Y-7638174D02*
X608158Y-7638174D01*
X608158Y-7638174D02*
X627205Y-7647698D01*
X627205Y-7647698D02*
X636729Y-7657222D01*
X636729Y-7657222D02*
X646253Y-7676269D01*
X646253Y-7676269D02*
X646253Y-7723888D01*
X646253Y-7723888D02*
X636729Y-7742936D01*
X636729Y-7742936D02*
X627205Y-7752460D01*
X627205Y-7752460D02*
X608158Y-7761984D01*
X608158Y-7761984D02*
X551015Y-7761984D01*
X551015Y-7761984D02*
X531967Y-7752460D01*
X531967Y-7752460D02*
X522443Y-7742936D01*
X770062Y-7561984D02*
X789110Y-7561984D01*
X789110Y-7561984D02*
X808158Y-7571508D01*
X808158Y-7571508D02*
X817682Y-7581031D01*
X817682Y-7581031D02*
X827205Y-7600079D01*
X827205Y-7600079D02*
X836729Y-7638174D01*
X836729Y-7638174D02*
X836729Y-7685793D01*
X836729Y-7685793D02*
X827205Y-7723888D01*
X827205Y-7723888D02*
X817682Y-7742936D01*
X817682Y-7742936D02*
X808158Y-7752460D01*
X808158Y-7752460D02*
X789110Y-7761984D01*
X789110Y-7761984D02*
X770062Y-7761984D01*
X770062Y-7761984D02*
X751015Y-7752460D01*
X751015Y-7752460D02*
X741491Y-7742936D01*
X741491Y-7742936D02*
X731967Y-7723888D01*
X731967Y-7723888D02*
X722443Y-7685793D01*
X722443Y-7685793D02*
X722443Y-7638174D01*
X722443Y-7638174D02*
X731967Y-7600079D01*
X731967Y-7600079D02*
X741491Y-7581031D01*
X741491Y-7581031D02*
X751015Y-7571508D01*
X751015Y-7571508D02*
X770062Y-7561984D01*
X960539Y-7561984D02*
X979586Y-7561984D01*
X979586Y-7561984D02*
X998634Y-7571508D01*
X998634Y-7571508D02*
X1008158Y-7581031D01*
X1008158Y-7581031D02*
X1017682Y-7600079D01*
X1017682Y-7600079D02*
X1027205Y-7638174D01*
X1027205Y-7638174D02*
X1027205Y-7685793D01*
X1027205Y-7685793D02*
X1017682Y-7723888D01*
X1017682Y-7723888D02*
X1008158Y-7742936D01*
X1008158Y-7742936D02*
X998634Y-7752460D01*
X998634Y-7752460D02*
X979586Y-7761984D01*
X979586Y-7761984D02*
X960539Y-7761984D01*
X960539Y-7761984D02*
X941491Y-7752460D01*
X941491Y-7752460D02*
X931967Y-7742936D01*
X931967Y-7742936D02*
X922443Y-7723888D01*
X922443Y-7723888D02*
X912920Y-7685793D01*
X912920Y-7685793D02*
X912920Y-7638174D01*
X912920Y-7638174D02*
X922443Y-7600079D01*
X922443Y-7600079D02*
X931967Y-7581031D01*
X931967Y-7581031D02*
X941491Y-7571508D01*
X941491Y-7571508D02*
X960539Y-7561984D01*
X1112920Y-7761984D02*
X1112920Y-7628650D01*
X1112920Y-7647698D02*
X1122444Y-7638174D01*
X1122444Y-7638174D02*
X1141491Y-7628650D01*
X1141491Y-7628650D02*
X1170063Y-7628650D01*
X1170063Y-7628650D02*
X1189110Y-7638174D01*
X1189110Y-7638174D02*
X1198634Y-7657222D01*
X1198634Y-7657222D02*
X1198634Y-7761984D01*
X1198634Y-7657222D02*
X1208158Y-7638174D01*
X1208158Y-7638174D02*
X1227205Y-7628650D01*
X1227205Y-7628650D02*
X1255777Y-7628650D01*
X1255777Y-7628650D02*
X1274825Y-7638174D01*
X1274825Y-7638174D02*
X1284348Y-7657222D01*
X1284348Y-7657222D02*
X1284348Y-7761984D01*
X1379586Y-7761984D02*
X1379586Y-7628650D01*
X1379586Y-7647698D02*
X1389110Y-7638174D01*
X1389110Y-7638174D02*
X1408158Y-7628650D01*
X1408158Y-7628650D02*
X1436729Y-7628650D01*
X1436729Y-7628650D02*
X1455777Y-7638174D01*
X1455777Y-7638174D02*
X1465301Y-7657222D01*
X1465301Y-7657222D02*
X1465301Y-7761984D01*
X1465301Y-7657222D02*
X1474824Y-7638174D01*
X1474824Y-7638174D02*
X1493872Y-7628650D01*
X1493872Y-7628650D02*
X1522443Y-7628650D01*
X1522443Y-7628650D02*
X1541491Y-7638174D01*
X1541491Y-7638174D02*
X1551015Y-7657222D01*
X1551015Y-7657222D02*
X1551015Y-7761984D01*
X1941491Y-7552460D02*
X1770063Y-7809603D01*
X2198634Y-7561984D02*
X2217682Y-7561984D01*
X2217682Y-7561984D02*
X2236729Y-7571508D01*
X2236729Y-7571508D02*
X2246253Y-7581031D01*
X2246253Y-7581031D02*
X2255777Y-7600079D01*
X2255777Y-7600079D02*
X2265301Y-7638174D01*
X2265301Y-7638174D02*
X2265301Y-7685793D01*
X2265301Y-7685793D02*
X2255777Y-7723888D01*
X2255777Y-7723888D02*
X2246253Y-7742936D01*
X2246253Y-7742936D02*
X2236729Y-7752460D01*
X2236729Y-7752460D02*
X2217682Y-7761984D01*
X2217682Y-7761984D02*
X2198634Y-7761984D01*
X2198634Y-7761984D02*
X2179587Y-7752460D01*
X2179587Y-7752460D02*
X2170063Y-7742936D01*
X2170063Y-7742936D02*
X2160539Y-7723888D01*
X2160539Y-7723888D02*
X2151015Y-7685793D01*
X2151015Y-7685793D02*
X2151015Y-7638174D01*
X2151015Y-7638174D02*
X2160539Y-7600079D01*
X2160539Y-7600079D02*
X2170063Y-7581031D01*
X2170063Y-7581031D02*
X2179587Y-7571508D01*
X2179587Y-7571508D02*
X2198634Y-7561984D01*
X2351015Y-7742936D02*
X2360539Y-7752460D01*
X2360539Y-7752460D02*
X2351015Y-7761984D01*
X2351015Y-7761984D02*
X2341491Y-7752460D01*
X2341491Y-7752460D02*
X2351015Y-7742936D01*
X2351015Y-7742936D02*
X2351015Y-7761984D01*
X2484348Y-7561984D02*
X2503396Y-7561984D01*
X2503396Y-7561984D02*
X2522444Y-7571508D01*
X2522444Y-7571508D02*
X2531968Y-7581031D01*
X2531968Y-7581031D02*
X2541491Y-7600079D01*
X2541491Y-7600079D02*
X2551015Y-7638174D01*
X2551015Y-7638174D02*
X2551015Y-7685793D01*
X2551015Y-7685793D02*
X2541491Y-7723888D01*
X2541491Y-7723888D02*
X2531968Y-7742936D01*
X2531968Y-7742936D02*
X2522444Y-7752460D01*
X2522444Y-7752460D02*
X2503396Y-7761984D01*
X2503396Y-7761984D02*
X2484348Y-7761984D01*
X2484348Y-7761984D02*
X2465301Y-7752460D01*
X2465301Y-7752460D02*
X2455777Y-7742936D01*
X2455777Y-7742936D02*
X2446253Y-7723888D01*
X2446253Y-7723888D02*
X2436729Y-7685793D01*
X2436729Y-7685793D02*
X2436729Y-7638174D01*
X2436729Y-7638174D02*
X2446253Y-7600079D01*
X2446253Y-7600079D02*
X2455777Y-7581031D01*
X2455777Y-7581031D02*
X2465301Y-7571508D01*
X2465301Y-7571508D02*
X2484348Y-7561984D01*
X2741491Y-7761984D02*
X2627206Y-7761984D01*
X2684348Y-7761984D02*
X2684348Y-7561984D01*
X2684348Y-7561984D02*
X2665301Y-7590555D01*
X2665301Y-7590555D02*
X2646253Y-7609603D01*
X2646253Y-7609603D02*
X2627206Y-7619127D01*
X2931967Y-7761984D02*
X2817682Y-7761984D01*
X2874825Y-7761984D02*
X2874825Y-7561984D01*
X2874825Y-7561984D02*
X2855777Y-7590555D01*
X2855777Y-7590555D02*
X2836729Y-7609603D01*
X2836729Y-7609603D02*
X2817682Y-7619127D01*
X3046253Y-7647698D02*
X3027206Y-7638174D01*
X3027206Y-7638174D02*
X3017682Y-7628650D01*
X3017682Y-7628650D02*
X3008158Y-7609603D01*
X3008158Y-7609603D02*
X3008158Y-7600079D01*
X3008158Y-7600079D02*
X3017682Y-7581031D01*
X3017682Y-7581031D02*
X3027206Y-7571508D01*
X3027206Y-7571508D02*
X3046253Y-7561984D01*
X3046253Y-7561984D02*
X3084348Y-7561984D01*
X3084348Y-7561984D02*
X3103396Y-7571508D01*
X3103396Y-7571508D02*
X3112920Y-7581031D01*
X3112920Y-7581031D02*
X3122444Y-7600079D01*
X3122444Y-7600079D02*
X3122444Y-7609603D01*
X3122444Y-7609603D02*
X3112920Y-7628650D01*
X3112920Y-7628650D02*
X3103396Y-7638174D01*
X3103396Y-7638174D02*
X3084348Y-7647698D01*
X3084348Y-7647698D02*
X3046253Y-7647698D01*
X3046253Y-7647698D02*
X3027206Y-7657222D01*
X3027206Y-7657222D02*
X3017682Y-7666746D01*
X3017682Y-7666746D02*
X3008158Y-7685793D01*
X3008158Y-7685793D02*
X3008158Y-7723888D01*
X3008158Y-7723888D02*
X3017682Y-7742936D01*
X3017682Y-7742936D02*
X3027206Y-7752460D01*
X3027206Y-7752460D02*
X3046253Y-7761984D01*
X3046253Y-7761984D02*
X3084348Y-7761984D01*
X3084348Y-7761984D02*
X3103396Y-7752460D01*
X3103396Y-7752460D02*
X3112920Y-7742936D01*
X3112920Y-7742936D02*
X3122444Y-7723888D01*
X3122444Y-7723888D02*
X3122444Y-7685793D01*
X3122444Y-7685793D02*
X3112920Y-7666746D01*
X3112920Y-7666746D02*
X3103396Y-7657222D01*
X3103396Y-7657222D02*
X3084348Y-7647698D01*
X3198634Y-7561984D02*
X3198634Y-7600079D01*
X3274825Y-7561984D02*
X3274825Y-7600079D01*
X3570063Y-7838174D02*
X3560539Y-7828650D01*
X3560539Y-7828650D02*
X3541491Y-7800079D01*
X3541491Y-7800079D02*
X3531968Y-7781031D01*
X3531968Y-7781031D02*
X3522444Y-7752460D01*
X3522444Y-7752460D02*
X3512920Y-7704841D01*
X3512920Y-7704841D02*
X3512920Y-7666746D01*
X3512920Y-7666746D02*
X3522444Y-7619127D01*
X3522444Y-7619127D02*
X3531968Y-7590555D01*
X3531968Y-7590555D02*
X3541491Y-7571508D01*
X3541491Y-7571508D02*
X3560539Y-7542936D01*
X3560539Y-7542936D02*
X3570063Y-7533412D01*
X3627206Y-7561984D02*
X3751015Y-7561984D01*
X3751015Y-7561984D02*
X3684348Y-7638174D01*
X3684348Y-7638174D02*
X3712920Y-7638174D01*
X3712920Y-7638174D02*
X3731968Y-7647698D01*
X3731968Y-7647698D02*
X3741491Y-7657222D01*
X3741491Y-7657222D02*
X3751015Y-7676269D01*
X3751015Y-7676269D02*
X3751015Y-7723888D01*
X3751015Y-7723888D02*
X3741491Y-7742936D01*
X3741491Y-7742936D02*
X3731968Y-7752460D01*
X3731968Y-7752460D02*
X3712920Y-7761984D01*
X3712920Y-7761984D02*
X3655777Y-7761984D01*
X3655777Y-7761984D02*
X3636729Y-7752460D01*
X3636729Y-7752460D02*
X3627206Y-7742936D01*
X3865301Y-7647698D02*
X3846253Y-7638174D01*
X3846253Y-7638174D02*
X3836729Y-7628650D01*
X3836729Y-7628650D02*
X3827206Y-7609603D01*
X3827206Y-7609603D02*
X3827206Y-7600079D01*
X3827206Y-7600079D02*
X3836729Y-7581031D01*
X3836729Y-7581031D02*
X3846253Y-7571508D01*
X3846253Y-7571508D02*
X3865301Y-7561984D01*
X3865301Y-7561984D02*
X3903396Y-7561984D01*
X3903396Y-7561984D02*
X3922444Y-7571508D01*
X3922444Y-7571508D02*
X3931968Y-7581031D01*
X3931968Y-7581031D02*
X3941491Y-7600079D01*
X3941491Y-7600079D02*
X3941491Y-7609603D01*
X3941491Y-7609603D02*
X3931968Y-7628650D01*
X3931968Y-7628650D02*
X3922444Y-7638174D01*
X3922444Y-7638174D02*
X3903396Y-7647698D01*
X3903396Y-7647698D02*
X3865301Y-7647698D01*
X3865301Y-7647698D02*
X3846253Y-7657222D01*
X3846253Y-7657222D02*
X3836729Y-7666746D01*
X3836729Y-7666746D02*
X3827206Y-7685793D01*
X3827206Y-7685793D02*
X3827206Y-7723888D01*
X3827206Y-7723888D02*
X3836729Y-7742936D01*
X3836729Y-7742936D02*
X3846253Y-7752460D01*
X3846253Y-7752460D02*
X3865301Y-7761984D01*
X3865301Y-7761984D02*
X3903396Y-7761984D01*
X3903396Y-7761984D02*
X3922444Y-7752460D01*
X3922444Y-7752460D02*
X3931968Y-7742936D01*
X3931968Y-7742936D02*
X3941491Y-7723888D01*
X3941491Y-7723888D02*
X3941491Y-7685793D01*
X3941491Y-7685793D02*
X3931968Y-7666746D01*
X3931968Y-7666746D02*
X3922444Y-7657222D01*
X3922444Y-7657222D02*
X3903396Y-7647698D01*
X4179587Y-7761984D02*
X4179587Y-7561984D01*
X4265301Y-7761984D02*
X4265301Y-7657222D01*
X4265301Y-7657222D02*
X4255777Y-7638174D01*
X4255777Y-7638174D02*
X4236730Y-7628650D01*
X4236730Y-7628650D02*
X4208158Y-7628650D01*
X4208158Y-7628650D02*
X4189110Y-7638174D01*
X4189110Y-7638174D02*
X4179587Y-7647698D01*
X4389111Y-7761984D02*
X4370063Y-7752460D01*
X4370063Y-7752460D02*
X4360539Y-7742936D01*
X4360539Y-7742936D02*
X4351015Y-7723888D01*
X4351015Y-7723888D02*
X4351015Y-7666746D01*
X4351015Y-7666746D02*
X4360539Y-7647698D01*
X4360539Y-7647698D02*
X4370063Y-7638174D01*
X4370063Y-7638174D02*
X4389111Y-7628650D01*
X4389111Y-7628650D02*
X4417682Y-7628650D01*
X4417682Y-7628650D02*
X4436730Y-7638174D01*
X4436730Y-7638174D02*
X4446253Y-7647698D01*
X4446253Y-7647698D02*
X4455777Y-7666746D01*
X4455777Y-7666746D02*
X4455777Y-7723888D01*
X4455777Y-7723888D02*
X4446253Y-7742936D01*
X4446253Y-7742936D02*
X4436730Y-7752460D01*
X4436730Y-7752460D02*
X4417682Y-7761984D01*
X4417682Y-7761984D02*
X4389111Y-7761984D01*
X4570063Y-7761984D02*
X4551015Y-7752460D01*
X4551015Y-7752460D02*
X4541492Y-7733412D01*
X4541492Y-7733412D02*
X4541492Y-7561984D01*
X4722444Y-7752460D02*
X4703396Y-7761984D01*
X4703396Y-7761984D02*
X4665301Y-7761984D01*
X4665301Y-7761984D02*
X4646253Y-7752460D01*
X4646253Y-7752460D02*
X4636730Y-7733412D01*
X4636730Y-7733412D02*
X4636730Y-7657222D01*
X4636730Y-7657222D02*
X4646253Y-7638174D01*
X4646253Y-7638174D02*
X4665301Y-7628650D01*
X4665301Y-7628650D02*
X4703396Y-7628650D01*
X4703396Y-7628650D02*
X4722444Y-7638174D01*
X4722444Y-7638174D02*
X4731968Y-7657222D01*
X4731968Y-7657222D02*
X4731968Y-7676269D01*
X4731968Y-7676269D02*
X4636730Y-7695317D01*
X4808158Y-7752460D02*
X4827206Y-7761984D01*
X4827206Y-7761984D02*
X4865301Y-7761984D01*
X4865301Y-7761984D02*
X4884349Y-7752460D01*
X4884349Y-7752460D02*
X4893873Y-7733412D01*
X4893873Y-7733412D02*
X4893873Y-7723888D01*
X4893873Y-7723888D02*
X4884349Y-7704841D01*
X4884349Y-7704841D02*
X4865301Y-7695317D01*
X4865301Y-7695317D02*
X4836730Y-7695317D01*
X4836730Y-7695317D02*
X4817682Y-7685793D01*
X4817682Y-7685793D02*
X4808158Y-7666746D01*
X4808158Y-7666746D02*
X4808158Y-7657222D01*
X4808158Y-7657222D02*
X4817682Y-7638174D01*
X4817682Y-7638174D02*
X4836730Y-7628650D01*
X4836730Y-7628650D02*
X4865301Y-7628650D01*
X4865301Y-7628650D02*
X4884349Y-7638174D01*
X4960539Y-7838174D02*
X4970063Y-7828650D01*
X4970063Y-7828650D02*
X4989111Y-7800079D01*
X4989111Y-7800079D02*
X4998634Y-7781031D01*
X4998634Y-7781031D02*
X5008158Y-7752460D01*
X5008158Y-7752460D02*
X5017682Y-7704841D01*
X5017682Y-7704841D02*
X5017682Y-7666746D01*
X5017682Y-7666746D02*
X5008158Y-7619127D01*
X5008158Y-7619127D02*
X4998634Y-7590555D01*
X4998634Y-7590555D02*
X4989111Y-7571508D01*
X4989111Y-7571508D02*
X4970063Y-7542936D01*
X4970063Y-7542936D02*
X4960539Y-7533412D01*
D10*
X-19644Y-7969856D02*
X-19644Y-7899144D01*
X-90356Y-7899144D01*
X-90356Y-7969856D01*
X-19644Y-7969856D01*
D12*
X360539Y-8025984D02*
X246253Y-8025984D01*
X303396Y-8025984D02*
X303396Y-7825984D01*
X303396Y-7825984D02*
X284348Y-7854555D01*
X284348Y-7854555D02*
X265301Y-7873603D01*
X265301Y-7873603D02*
X246253Y-7883127D01*
X446253Y-8006936D02*
X455777Y-8016460D01*
X455777Y-8016460D02*
X446253Y-8025984D01*
X446253Y-8025984D02*
X436729Y-8016460D01*
X436729Y-8016460D02*
X446253Y-8006936D01*
X446253Y-8006936D02*
X446253Y-8025984D01*
X579586Y-7825984D02*
X598634Y-7825984D01*
X598634Y-7825984D02*
X617682Y-7835508D01*
X617682Y-7835508D02*
X627205Y-7845031D01*
X627205Y-7845031D02*
X636729Y-7864079D01*
X636729Y-7864079D02*
X646253Y-7902174D01*
X646253Y-7902174D02*
X646253Y-7949793D01*
X646253Y-7949793D02*
X636729Y-7987888D01*
X636729Y-7987888D02*
X627205Y-8006936D01*
X627205Y-8006936D02*
X617682Y-8016460D01*
X617682Y-8016460D02*
X598634Y-8025984D01*
X598634Y-8025984D02*
X579586Y-8025984D01*
X579586Y-8025984D02*
X560539Y-8016460D01*
X560539Y-8016460D02*
X551015Y-8006936D01*
X551015Y-8006936D02*
X541491Y-7987888D01*
X541491Y-7987888D02*
X531967Y-7949793D01*
X531967Y-7949793D02*
X531967Y-7902174D01*
X531967Y-7902174D02*
X541491Y-7864079D01*
X541491Y-7864079D02*
X551015Y-7845031D01*
X551015Y-7845031D02*
X560539Y-7835508D01*
X560539Y-7835508D02*
X579586Y-7825984D01*
X770062Y-7825984D02*
X789110Y-7825984D01*
X789110Y-7825984D02*
X808158Y-7835508D01*
X808158Y-7835508D02*
X817682Y-7845031D01*
X817682Y-7845031D02*
X827205Y-7864079D01*
X827205Y-7864079D02*
X836729Y-7902174D01*
X836729Y-7902174D02*
X836729Y-7949793D01*
X836729Y-7949793D02*
X827205Y-7987888D01*
X827205Y-7987888D02*
X817682Y-8006936D01*
X817682Y-8006936D02*
X808158Y-8016460D01*
X808158Y-8016460D02*
X789110Y-8025984D01*
X789110Y-8025984D02*
X770062Y-8025984D01*
X770062Y-8025984D02*
X751015Y-8016460D01*
X751015Y-8016460D02*
X741491Y-8006936D01*
X741491Y-8006936D02*
X731967Y-7987888D01*
X731967Y-7987888D02*
X722443Y-7949793D01*
X722443Y-7949793D02*
X722443Y-7902174D01*
X722443Y-7902174D02*
X731967Y-7864079D01*
X731967Y-7864079D02*
X741491Y-7845031D01*
X741491Y-7845031D02*
X751015Y-7835508D01*
X751015Y-7835508D02*
X770062Y-7825984D01*
X960539Y-7825984D02*
X979586Y-7825984D01*
X979586Y-7825984D02*
X998634Y-7835508D01*
X998634Y-7835508D02*
X1008158Y-7845031D01*
X1008158Y-7845031D02*
X1017682Y-7864079D01*
X1017682Y-7864079D02*
X1027205Y-7902174D01*
X1027205Y-7902174D02*
X1027205Y-7949793D01*
X1027205Y-7949793D02*
X1017682Y-7987888D01*
X1017682Y-7987888D02*
X1008158Y-8006936D01*
X1008158Y-8006936D02*
X998634Y-8016460D01*
X998634Y-8016460D02*
X979586Y-8025984D01*
X979586Y-8025984D02*
X960539Y-8025984D01*
X960539Y-8025984D02*
X941491Y-8016460D01*
X941491Y-8016460D02*
X931967Y-8006936D01*
X931967Y-8006936D02*
X922443Y-7987888D01*
X922443Y-7987888D02*
X912920Y-7949793D01*
X912920Y-7949793D02*
X912920Y-7902174D01*
X912920Y-7902174D02*
X922443Y-7864079D01*
X922443Y-7864079D02*
X931967Y-7845031D01*
X931967Y-7845031D02*
X941491Y-7835508D01*
X941491Y-7835508D02*
X960539Y-7825984D01*
X1112920Y-8025984D02*
X1112920Y-7892650D01*
X1112920Y-7911698D02*
X1122444Y-7902174D01*
X1122444Y-7902174D02*
X1141491Y-7892650D01*
X1141491Y-7892650D02*
X1170063Y-7892650D01*
X1170063Y-7892650D02*
X1189110Y-7902174D01*
X1189110Y-7902174D02*
X1198634Y-7921222D01*
X1198634Y-7921222D02*
X1198634Y-8025984D01*
X1198634Y-7921222D02*
X1208158Y-7902174D01*
X1208158Y-7902174D02*
X1227205Y-7892650D01*
X1227205Y-7892650D02*
X1255777Y-7892650D01*
X1255777Y-7892650D02*
X1274825Y-7902174D01*
X1274825Y-7902174D02*
X1284348Y-7921222D01*
X1284348Y-7921222D02*
X1284348Y-8025984D01*
X1379586Y-8025984D02*
X1379586Y-7892650D01*
X1379586Y-7911698D02*
X1389110Y-7902174D01*
X1389110Y-7902174D02*
X1408158Y-7892650D01*
X1408158Y-7892650D02*
X1436729Y-7892650D01*
X1436729Y-7892650D02*
X1455777Y-7902174D01*
X1455777Y-7902174D02*
X1465301Y-7921222D01*
X1465301Y-7921222D02*
X1465301Y-8025984D01*
X1465301Y-7921222D02*
X1474824Y-7902174D01*
X1474824Y-7902174D02*
X1493872Y-7892650D01*
X1493872Y-7892650D02*
X1522443Y-7892650D01*
X1522443Y-7892650D02*
X1541491Y-7902174D01*
X1541491Y-7902174D02*
X1551015Y-7921222D01*
X1551015Y-7921222D02*
X1551015Y-8025984D01*
X1941491Y-7816460D02*
X1770063Y-8073603D01*
X2198634Y-7825984D02*
X2217682Y-7825984D01*
X2217682Y-7825984D02*
X2236729Y-7835508D01*
X2236729Y-7835508D02*
X2246253Y-7845031D01*
X2246253Y-7845031D02*
X2255777Y-7864079D01*
X2255777Y-7864079D02*
X2265301Y-7902174D01*
X2265301Y-7902174D02*
X2265301Y-7949793D01*
X2265301Y-7949793D02*
X2255777Y-7987888D01*
X2255777Y-7987888D02*
X2246253Y-8006936D01*
X2246253Y-8006936D02*
X2236729Y-8016460D01*
X2236729Y-8016460D02*
X2217682Y-8025984D01*
X2217682Y-8025984D02*
X2198634Y-8025984D01*
X2198634Y-8025984D02*
X2179587Y-8016460D01*
X2179587Y-8016460D02*
X2170063Y-8006936D01*
X2170063Y-8006936D02*
X2160539Y-7987888D01*
X2160539Y-7987888D02*
X2151015Y-7949793D01*
X2151015Y-7949793D02*
X2151015Y-7902174D01*
X2151015Y-7902174D02*
X2160539Y-7864079D01*
X2160539Y-7864079D02*
X2170063Y-7845031D01*
X2170063Y-7845031D02*
X2179587Y-7835508D01*
X2179587Y-7835508D02*
X2198634Y-7825984D01*
X2351015Y-8006936D02*
X2360539Y-8016460D01*
X2360539Y-8016460D02*
X2351015Y-8025984D01*
X2351015Y-8025984D02*
X2341491Y-8016460D01*
X2341491Y-8016460D02*
X2351015Y-8006936D01*
X2351015Y-8006936D02*
X2351015Y-8025984D01*
X2484348Y-7825984D02*
X2503396Y-7825984D01*
X2503396Y-7825984D02*
X2522444Y-7835508D01*
X2522444Y-7835508D02*
X2531968Y-7845031D01*
X2531968Y-7845031D02*
X2541491Y-7864079D01*
X2541491Y-7864079D02*
X2551015Y-7902174D01*
X2551015Y-7902174D02*
X2551015Y-7949793D01*
X2551015Y-7949793D02*
X2541491Y-7987888D01*
X2541491Y-7987888D02*
X2531968Y-8006936D01*
X2531968Y-8006936D02*
X2522444Y-8016460D01*
X2522444Y-8016460D02*
X2503396Y-8025984D01*
X2503396Y-8025984D02*
X2484348Y-8025984D01*
X2484348Y-8025984D02*
X2465301Y-8016460D01*
X2465301Y-8016460D02*
X2455777Y-8006936D01*
X2455777Y-8006936D02*
X2446253Y-7987888D01*
X2446253Y-7987888D02*
X2436729Y-7949793D01*
X2436729Y-7949793D02*
X2436729Y-7902174D01*
X2436729Y-7902174D02*
X2446253Y-7864079D01*
X2446253Y-7864079D02*
X2455777Y-7845031D01*
X2455777Y-7845031D02*
X2465301Y-7835508D01*
X2465301Y-7835508D02*
X2484348Y-7825984D01*
X2617682Y-7825984D02*
X2741491Y-7825984D01*
X2741491Y-7825984D02*
X2674825Y-7902174D01*
X2674825Y-7902174D02*
X2703396Y-7902174D01*
X2703396Y-7902174D02*
X2722444Y-7911698D01*
X2722444Y-7911698D02*
X2731968Y-7921222D01*
X2731968Y-7921222D02*
X2741491Y-7940269D01*
X2741491Y-7940269D02*
X2741491Y-7987888D01*
X2741491Y-7987888D02*
X2731968Y-8006936D01*
X2731968Y-8006936D02*
X2722444Y-8016460D01*
X2722444Y-8016460D02*
X2703396Y-8025984D01*
X2703396Y-8025984D02*
X2646253Y-8025984D01*
X2646253Y-8025984D02*
X2627206Y-8016460D01*
X2627206Y-8016460D02*
X2617682Y-8006936D01*
X2836729Y-8025984D02*
X2874825Y-8025984D01*
X2874825Y-8025984D02*
X2893872Y-8016460D01*
X2893872Y-8016460D02*
X2903396Y-8006936D01*
X2903396Y-8006936D02*
X2922444Y-7978365D01*
X2922444Y-7978365D02*
X2931967Y-7940269D01*
X2931967Y-7940269D02*
X2931967Y-7864079D01*
X2931967Y-7864079D02*
X2922444Y-7845031D01*
X2922444Y-7845031D02*
X2912920Y-7835508D01*
X2912920Y-7835508D02*
X2893872Y-7825984D01*
X2893872Y-7825984D02*
X2855777Y-7825984D01*
X2855777Y-7825984D02*
X2836729Y-7835508D01*
X2836729Y-7835508D02*
X2827206Y-7845031D01*
X2827206Y-7845031D02*
X2817682Y-7864079D01*
X2817682Y-7864079D02*
X2817682Y-7911698D01*
X2817682Y-7911698D02*
X2827206Y-7930746D01*
X2827206Y-7930746D02*
X2836729Y-7940269D01*
X2836729Y-7940269D02*
X2855777Y-7949793D01*
X2855777Y-7949793D02*
X2893872Y-7949793D01*
X2893872Y-7949793D02*
X2912920Y-7940269D01*
X2912920Y-7940269D02*
X2922444Y-7930746D01*
X2922444Y-7930746D02*
X2931967Y-7911698D01*
X3103396Y-7892650D02*
X3103396Y-8025984D01*
X3055777Y-7816460D02*
X3008158Y-7959317D01*
X3008158Y-7959317D02*
X3131967Y-7959317D01*
X3198634Y-7825984D02*
X3198634Y-7864079D01*
X3274825Y-7825984D02*
X3274825Y-7864079D01*
X3570063Y-8102174D02*
X3560539Y-8092650D01*
X3560539Y-8092650D02*
X3541491Y-8064079D01*
X3541491Y-8064079D02*
X3531968Y-8045031D01*
X3531968Y-8045031D02*
X3522444Y-8016460D01*
X3522444Y-8016460D02*
X3512920Y-7968841D01*
X3512920Y-7968841D02*
X3512920Y-7930746D01*
X3512920Y-7930746D02*
X3522444Y-7883127D01*
X3522444Y-7883127D02*
X3531968Y-7854555D01*
X3531968Y-7854555D02*
X3541491Y-7835508D01*
X3541491Y-7835508D02*
X3560539Y-7806936D01*
X3560539Y-7806936D02*
X3570063Y-7797412D01*
X3627206Y-7825984D02*
X3760539Y-7825984D01*
X3760539Y-7825984D02*
X3674825Y-8025984D01*
X3989110Y-8025984D02*
X3989110Y-7825984D01*
X4074825Y-8025984D02*
X4074825Y-7921222D01*
X4074825Y-7921222D02*
X4065301Y-7902174D01*
X4065301Y-7902174D02*
X4046253Y-7892650D01*
X4046253Y-7892650D02*
X4017682Y-7892650D01*
X4017682Y-7892650D02*
X3998634Y-7902174D01*
X3998634Y-7902174D02*
X3989110Y-7911698D01*
X4198634Y-8025984D02*
X4179587Y-8016460D01*
X4179587Y-8016460D02*
X4170063Y-8006936D01*
X4170063Y-8006936D02*
X4160539Y-7987888D01*
X4160539Y-7987888D02*
X4160539Y-7930746D01*
X4160539Y-7930746D02*
X4170063Y-7911698D01*
X4170063Y-7911698D02*
X4179587Y-7902174D01*
X4179587Y-7902174D02*
X4198634Y-7892650D01*
X4198634Y-7892650D02*
X4227206Y-7892650D01*
X4227206Y-7892650D02*
X4246253Y-7902174D01*
X4246253Y-7902174D02*
X4255777Y-7911698D01*
X4255777Y-7911698D02*
X4265301Y-7930746D01*
X4265301Y-7930746D02*
X4265301Y-7987888D01*
X4265301Y-7987888D02*
X4255777Y-8006936D01*
X4255777Y-8006936D02*
X4246253Y-8016460D01*
X4246253Y-8016460D02*
X4227206Y-8025984D01*
X4227206Y-8025984D02*
X4198634Y-8025984D01*
X4379587Y-8025984D02*
X4360539Y-8016460D01*
X4360539Y-8016460D02*
X4351015Y-7997412D01*
X4351015Y-7997412D02*
X4351015Y-7825984D01*
X4531968Y-8016460D02*
X4512920Y-8025984D01*
X4512920Y-8025984D02*
X4474825Y-8025984D01*
X4474825Y-8025984D02*
X4455777Y-8016460D01*
X4455777Y-8016460D02*
X4446253Y-7997412D01*
X4446253Y-7997412D02*
X4446253Y-7921222D01*
X4446253Y-7921222D02*
X4455777Y-7902174D01*
X4455777Y-7902174D02*
X4474825Y-7892650D01*
X4474825Y-7892650D02*
X4512920Y-7892650D01*
X4512920Y-7892650D02*
X4531968Y-7902174D01*
X4531968Y-7902174D02*
X4541492Y-7921222D01*
X4541492Y-7921222D02*
X4541492Y-7940269D01*
X4541492Y-7940269D02*
X4446253Y-7959317D01*
X4617682Y-8016460D02*
X4636730Y-8025984D01*
X4636730Y-8025984D02*
X4674825Y-8025984D01*
X4674825Y-8025984D02*
X4693873Y-8016460D01*
X4693873Y-8016460D02*
X4703396Y-7997412D01*
X4703396Y-7997412D02*
X4703396Y-7987888D01*
X4703396Y-7987888D02*
X4693873Y-7968841D01*
X4693873Y-7968841D02*
X4674825Y-7959317D01*
X4674825Y-7959317D02*
X4646253Y-7959317D01*
X4646253Y-7959317D02*
X4627206Y-7949793D01*
X4627206Y-7949793D02*
X4617682Y-7930746D01*
X4617682Y-7930746D02*
X4617682Y-7921222D01*
X4617682Y-7921222D02*
X4627206Y-7902174D01*
X4627206Y-7902174D02*
X4646253Y-7892650D01*
X4646253Y-7892650D02*
X4674825Y-7892650D01*
X4674825Y-7892650D02*
X4693873Y-7902174D01*
X4770063Y-8102174D02*
X4779587Y-8092650D01*
X4779587Y-8092650D02*
X4798634Y-8064079D01*
X4798634Y-8064079D02*
X4808158Y-8045031D01*
X4808158Y-8045031D02*
X4817682Y-8016460D01*
X4817682Y-8016460D02*
X4827206Y-7968841D01*
X4827206Y-7968841D02*
X4827206Y-7930746D01*
X4827206Y-7930746D02*
X4817682Y-7883127D01*
X4817682Y-7883127D02*
X4808158Y-7854555D01*
X4808158Y-7854555D02*
X4798634Y-7835508D01*
X4798634Y-7835508D02*
X4779587Y-7806936D01*
X4779587Y-7806936D02*
X4770063Y-7797412D01*
D13*
X-63500Y-8257000D02*
X-5000Y-8198500D01*
X-63500Y-8140000D01*
X-122000Y-8198500D01*
X-63500Y-8257000D01*
D12*
X360539Y-8289984D02*
X246253Y-8289984D01*
X303396Y-8289984D02*
X303396Y-8089984D01*
X303396Y-8089984D02*
X284348Y-8118555D01*
X284348Y-8118555D02*
X265301Y-8137603D01*
X265301Y-8137603D02*
X246253Y-8147127D01*
X446253Y-8270936D02*
X455777Y-8280460D01*
X455777Y-8280460D02*
X446253Y-8289984D01*
X446253Y-8289984D02*
X436729Y-8280460D01*
X436729Y-8280460D02*
X446253Y-8270936D01*
X446253Y-8270936D02*
X446253Y-8289984D01*
X646253Y-8289984D02*
X531967Y-8289984D01*
X589110Y-8289984D02*
X589110Y-8089984D01*
X589110Y-8089984D02*
X570063Y-8118555D01*
X570063Y-8118555D02*
X551015Y-8137603D01*
X551015Y-8137603D02*
X531967Y-8147127D01*
X712920Y-8089984D02*
X846253Y-8089984D01*
X846253Y-8089984D02*
X760539Y-8289984D01*
X960539Y-8089984D02*
X979586Y-8089984D01*
X979586Y-8089984D02*
X998634Y-8099508D01*
X998634Y-8099508D02*
X1008158Y-8109031D01*
X1008158Y-8109031D02*
X1017682Y-8128079D01*
X1017682Y-8128079D02*
X1027205Y-8166174D01*
X1027205Y-8166174D02*
X1027205Y-8213793D01*
X1027205Y-8213793D02*
X1017682Y-8251888D01*
X1017682Y-8251888D02*
X1008158Y-8270936D01*
X1008158Y-8270936D02*
X998634Y-8280460D01*
X998634Y-8280460D02*
X979586Y-8289984D01*
X979586Y-8289984D02*
X960539Y-8289984D01*
X960539Y-8289984D02*
X941491Y-8280460D01*
X941491Y-8280460D02*
X931967Y-8270936D01*
X931967Y-8270936D02*
X922443Y-8251888D01*
X922443Y-8251888D02*
X912920Y-8213793D01*
X912920Y-8213793D02*
X912920Y-8166174D01*
X912920Y-8166174D02*
X922443Y-8128079D01*
X922443Y-8128079D02*
X931967Y-8109031D01*
X931967Y-8109031D02*
X941491Y-8099508D01*
X941491Y-8099508D02*
X960539Y-8089984D01*
X1112920Y-8289984D02*
X1112920Y-8156650D01*
X1112920Y-8175698D02*
X1122444Y-8166174D01*
X1122444Y-8166174D02*
X1141491Y-8156650D01*
X1141491Y-8156650D02*
X1170063Y-8156650D01*
X1170063Y-8156650D02*
X1189110Y-8166174D01*
X1189110Y-8166174D02*
X1198634Y-8185222D01*
X1198634Y-8185222D02*
X1198634Y-8289984D01*
X1198634Y-8185222D02*
X1208158Y-8166174D01*
X1208158Y-8166174D02*
X1227205Y-8156650D01*
X1227205Y-8156650D02*
X1255777Y-8156650D01*
X1255777Y-8156650D02*
X1274825Y-8166174D01*
X1274825Y-8166174D02*
X1284348Y-8185222D01*
X1284348Y-8185222D02*
X1284348Y-8289984D01*
X1379586Y-8289984D02*
X1379586Y-8156650D01*
X1379586Y-8175698D02*
X1389110Y-8166174D01*
X1389110Y-8166174D02*
X1408158Y-8156650D01*
X1408158Y-8156650D02*
X1436729Y-8156650D01*
X1436729Y-8156650D02*
X1455777Y-8166174D01*
X1455777Y-8166174D02*
X1465301Y-8185222D01*
X1465301Y-8185222D02*
X1465301Y-8289984D01*
X1465301Y-8185222D02*
X1474824Y-8166174D01*
X1474824Y-8166174D02*
X1493872Y-8156650D01*
X1493872Y-8156650D02*
X1522443Y-8156650D01*
X1522443Y-8156650D02*
X1541491Y-8166174D01*
X1541491Y-8166174D02*
X1551015Y-8185222D01*
X1551015Y-8185222D02*
X1551015Y-8289984D01*
X1941491Y-8080460D02*
X1770063Y-8337603D01*
X2198634Y-8089984D02*
X2217682Y-8089984D01*
X2217682Y-8089984D02*
X2236729Y-8099508D01*
X2236729Y-8099508D02*
X2246253Y-8109031D01*
X2246253Y-8109031D02*
X2255777Y-8128079D01*
X2255777Y-8128079D02*
X2265301Y-8166174D01*
X2265301Y-8166174D02*
X2265301Y-8213793D01*
X2265301Y-8213793D02*
X2255777Y-8251888D01*
X2255777Y-8251888D02*
X2246253Y-8270936D01*
X2246253Y-8270936D02*
X2236729Y-8280460D01*
X2236729Y-8280460D02*
X2217682Y-8289984D01*
X2217682Y-8289984D02*
X2198634Y-8289984D01*
X2198634Y-8289984D02*
X2179587Y-8280460D01*
X2179587Y-8280460D02*
X2170063Y-8270936D01*
X2170063Y-8270936D02*
X2160539Y-8251888D01*
X2160539Y-8251888D02*
X2151015Y-8213793D01*
X2151015Y-8213793D02*
X2151015Y-8166174D01*
X2151015Y-8166174D02*
X2160539Y-8128079D01*
X2160539Y-8128079D02*
X2170063Y-8109031D01*
X2170063Y-8109031D02*
X2179587Y-8099508D01*
X2179587Y-8099508D02*
X2198634Y-8089984D01*
X2351015Y-8270936D02*
X2360539Y-8280460D01*
X2360539Y-8280460D02*
X2351015Y-8289984D01*
X2351015Y-8289984D02*
X2341491Y-8280460D01*
X2341491Y-8280460D02*
X2351015Y-8270936D01*
X2351015Y-8270936D02*
X2351015Y-8289984D01*
X2484348Y-8089984D02*
X2503396Y-8089984D01*
X2503396Y-8089984D02*
X2522444Y-8099508D01*
X2522444Y-8099508D02*
X2531968Y-8109031D01*
X2531968Y-8109031D02*
X2541491Y-8128079D01*
X2541491Y-8128079D02*
X2551015Y-8166174D01*
X2551015Y-8166174D02*
X2551015Y-8213793D01*
X2551015Y-8213793D02*
X2541491Y-8251888D01*
X2541491Y-8251888D02*
X2531968Y-8270936D01*
X2531968Y-8270936D02*
X2522444Y-8280460D01*
X2522444Y-8280460D02*
X2503396Y-8289984D01*
X2503396Y-8289984D02*
X2484348Y-8289984D01*
X2484348Y-8289984D02*
X2465301Y-8280460D01*
X2465301Y-8280460D02*
X2455777Y-8270936D01*
X2455777Y-8270936D02*
X2446253Y-8251888D01*
X2446253Y-8251888D02*
X2436729Y-8213793D01*
X2436729Y-8213793D02*
X2436729Y-8166174D01*
X2436729Y-8166174D02*
X2446253Y-8128079D01*
X2446253Y-8128079D02*
X2455777Y-8109031D01*
X2455777Y-8109031D02*
X2465301Y-8099508D01*
X2465301Y-8099508D02*
X2484348Y-8089984D01*
X2722444Y-8156650D02*
X2722444Y-8289984D01*
X2674825Y-8080460D02*
X2627206Y-8223317D01*
X2627206Y-8223317D02*
X2751015Y-8223317D01*
X2912920Y-8089984D02*
X2874825Y-8089984D01*
X2874825Y-8089984D02*
X2855777Y-8099508D01*
X2855777Y-8099508D02*
X2846253Y-8109031D01*
X2846253Y-8109031D02*
X2827206Y-8137603D01*
X2827206Y-8137603D02*
X2817682Y-8175698D01*
X2817682Y-8175698D02*
X2817682Y-8251888D01*
X2817682Y-8251888D02*
X2827206Y-8270936D01*
X2827206Y-8270936D02*
X2836729Y-8280460D01*
X2836729Y-8280460D02*
X2855777Y-8289984D01*
X2855777Y-8289984D02*
X2893872Y-8289984D01*
X2893872Y-8289984D02*
X2912920Y-8280460D01*
X2912920Y-8280460D02*
X2922444Y-8270936D01*
X2922444Y-8270936D02*
X2931967Y-8251888D01*
X2931967Y-8251888D02*
X2931967Y-8204269D01*
X2931967Y-8204269D02*
X2922444Y-8185222D01*
X2922444Y-8185222D02*
X2912920Y-8175698D01*
X2912920Y-8175698D02*
X2893872Y-8166174D01*
X2893872Y-8166174D02*
X2855777Y-8166174D01*
X2855777Y-8166174D02*
X2836729Y-8175698D01*
X2836729Y-8175698D02*
X2827206Y-8185222D01*
X2827206Y-8185222D02*
X2817682Y-8204269D01*
X3122444Y-8289984D02*
X3008158Y-8289984D01*
X3065301Y-8289984D02*
X3065301Y-8089984D01*
X3065301Y-8089984D02*
X3046253Y-8118555D01*
X3046253Y-8118555D02*
X3027206Y-8137603D01*
X3027206Y-8137603D02*
X3008158Y-8147127D01*
X3198634Y-8089984D02*
X3198634Y-8128079D01*
X3274825Y-8089984D02*
X3274825Y-8128079D01*
X3570063Y-8366174D02*
X3560539Y-8356650D01*
X3560539Y-8356650D02*
X3541491Y-8328079D01*
X3541491Y-8328079D02*
X3531968Y-8309031D01*
X3531968Y-8309031D02*
X3522444Y-8280460D01*
X3522444Y-8280460D02*
X3512920Y-8232841D01*
X3512920Y-8232841D02*
X3512920Y-8194746D01*
X3512920Y-8194746D02*
X3522444Y-8147127D01*
X3522444Y-8147127D02*
X3531968Y-8118555D01*
X3531968Y-8118555D02*
X3541491Y-8099508D01*
X3541491Y-8099508D02*
X3560539Y-8070936D01*
X3560539Y-8070936D02*
X3570063Y-8061412D01*
X3636729Y-8109031D02*
X3646253Y-8099508D01*
X3646253Y-8099508D02*
X3665301Y-8089984D01*
X3665301Y-8089984D02*
X3712920Y-8089984D01*
X3712920Y-8089984D02*
X3731968Y-8099508D01*
X3731968Y-8099508D02*
X3741491Y-8109031D01*
X3741491Y-8109031D02*
X3751015Y-8128079D01*
X3751015Y-8128079D02*
X3751015Y-8147127D01*
X3751015Y-8147127D02*
X3741491Y-8175698D01*
X3741491Y-8175698D02*
X3627206Y-8289984D01*
X3627206Y-8289984D02*
X3751015Y-8289984D01*
X3989110Y-8289984D02*
X3989110Y-8089984D01*
X4074825Y-8289984D02*
X4074825Y-8185222D01*
X4074825Y-8185222D02*
X4065301Y-8166174D01*
X4065301Y-8166174D02*
X4046253Y-8156650D01*
X4046253Y-8156650D02*
X4017682Y-8156650D01*
X4017682Y-8156650D02*
X3998634Y-8166174D01*
X3998634Y-8166174D02*
X3989110Y-8175698D01*
X4198634Y-8289984D02*
X4179587Y-8280460D01*
X4179587Y-8280460D02*
X4170063Y-8270936D01*
X4170063Y-8270936D02*
X4160539Y-8251888D01*
X4160539Y-8251888D02*
X4160539Y-8194746D01*
X4160539Y-8194746D02*
X4170063Y-8175698D01*
X4170063Y-8175698D02*
X4179587Y-8166174D01*
X4179587Y-8166174D02*
X4198634Y-8156650D01*
X4198634Y-8156650D02*
X4227206Y-8156650D01*
X4227206Y-8156650D02*
X4246253Y-8166174D01*
X4246253Y-8166174D02*
X4255777Y-8175698D01*
X4255777Y-8175698D02*
X4265301Y-8194746D01*
X4265301Y-8194746D02*
X4265301Y-8251888D01*
X4265301Y-8251888D02*
X4255777Y-8270936D01*
X4255777Y-8270936D02*
X4246253Y-8280460D01*
X4246253Y-8280460D02*
X4227206Y-8289984D01*
X4227206Y-8289984D02*
X4198634Y-8289984D01*
X4379587Y-8289984D02*
X4360539Y-8280460D01*
X4360539Y-8280460D02*
X4351015Y-8261412D01*
X4351015Y-8261412D02*
X4351015Y-8089984D01*
X4531968Y-8280460D02*
X4512920Y-8289984D01*
X4512920Y-8289984D02*
X4474825Y-8289984D01*
X4474825Y-8289984D02*
X4455777Y-8280460D01*
X4455777Y-8280460D02*
X4446253Y-8261412D01*
X4446253Y-8261412D02*
X4446253Y-8185222D01*
X4446253Y-8185222D02*
X4455777Y-8166174D01*
X4455777Y-8166174D02*
X4474825Y-8156650D01*
X4474825Y-8156650D02*
X4512920Y-8156650D01*
X4512920Y-8156650D02*
X4531968Y-8166174D01*
X4531968Y-8166174D02*
X4541492Y-8185222D01*
X4541492Y-8185222D02*
X4541492Y-8204269D01*
X4541492Y-8204269D02*
X4446253Y-8223317D01*
X4617682Y-8280460D02*
X4636730Y-8289984D01*
X4636730Y-8289984D02*
X4674825Y-8289984D01*
X4674825Y-8289984D02*
X4693873Y-8280460D01*
X4693873Y-8280460D02*
X4703396Y-8261412D01*
X4703396Y-8261412D02*
X4703396Y-8251888D01*
X4703396Y-8251888D02*
X4693873Y-8232841D01*
X4693873Y-8232841D02*
X4674825Y-8223317D01*
X4674825Y-8223317D02*
X4646253Y-8223317D01*
X4646253Y-8223317D02*
X4627206Y-8213793D01*
X4627206Y-8213793D02*
X4617682Y-8194746D01*
X4617682Y-8194746D02*
X4617682Y-8185222D01*
X4617682Y-8185222D02*
X4627206Y-8166174D01*
X4627206Y-8166174D02*
X4646253Y-8156650D01*
X4646253Y-8156650D02*
X4674825Y-8156650D01*
X4674825Y-8156650D02*
X4693873Y-8166174D01*
X4770063Y-8366174D02*
X4779587Y-8356650D01*
X4779587Y-8356650D02*
X4798634Y-8328079D01*
X4798634Y-8328079D02*
X4808158Y-8309031D01*
X4808158Y-8309031D02*
X4817682Y-8280460D01*
X4817682Y-8280460D02*
X4827206Y-8232841D01*
X4827206Y-8232841D02*
X4827206Y-8194746D01*
X4827206Y-8194746D02*
X4817682Y-8147127D01*
X4817682Y-8147127D02*
X4808158Y-8118555D01*
X4808158Y-8118555D02*
X4798634Y-8099508D01*
X4798634Y-8099508D02*
X4779587Y-8070936D01*
X4779587Y-8070936D02*
X4770063Y-8061412D01*
M02*
