%TF.GenerationSoftware,KiCad,Pcbnew,8.0.6-8.0.6-0~ubuntu24.04.1*%
%TF.CreationDate,2024-11-06T15:00:48+01:00*%
%TF.ProjectId,random_sampler,72616e64-6f6d-45f7-9361-6d706c65722e,rev?*%
%TF.SameCoordinates,Original*%
%TF.FileFunction,Paste,Top*%
%TF.FilePolarity,Positive*%
%FSLAX46Y46*%
G04 Gerber Fmt 4.6, Leading zero omitted, Abs format (unit mm)*
G04 Created by KiCad (PCBNEW 8.0.6-8.0.6-0~ubuntu24.04.1) date 2024-11-06 15:00:48*
%MOMM*%
%LPD*%
G01*
G04 APERTURE LIST*
G04 Aperture macros list*
%AMRoundRect*
0 Rectangle with rounded corners*
0 $1 Rounding radius*
0 $2 $3 $4 $5 $6 $7 $8 $9 X,Y pos of 4 corners*
0 Add a 4 corners polygon primitive as box body*
4,1,4,$2,$3,$4,$5,$6,$7,$8,$9,$2,$3,0*
0 Add four circle primitives for the rounded corners*
1,1,$1+$1,$2,$3*
1,1,$1+$1,$4,$5*
1,1,$1+$1,$6,$7*
1,1,$1+$1,$8,$9*
0 Add four rect primitives between the rounded corners*
20,1,$1+$1,$2,$3,$4,$5,0*
20,1,$1+$1,$4,$5,$6,$7,0*
20,1,$1+$1,$6,$7,$8,$9,0*
20,1,$1+$1,$8,$9,$2,$3,0*%
%AMFreePoly0*
4,1,25,0.297052,0.463394,0.325894,0.441263,0.441263,0.325894,0.477307,0.263464,0.482052,0.227420,0.482052,-0.227420,0.463394,-0.297052,0.441263,-0.325894,0.325894,-0.441263,0.263464,-0.477307,0.227420,-0.482052,-0.227420,-0.482052,-0.297052,-0.463394,-0.325894,-0.441263,-0.441263,-0.325894,-0.477307,-0.263464,-0.482052,-0.227420,-0.482052,0.227420,-0.463394,0.297052,-0.441263,0.325894,
-0.325894,0.441263,-0.263464,0.477307,-0.227420,0.482052,0.227420,0.482052,0.297052,0.463394,0.297052,0.463394,$1*%
G04 Aperture macros list end*
%ADD10RoundRect,0.150000X-0.512500X-0.150000X0.512500X-0.150000X0.512500X0.150000X-0.512500X0.150000X0*%
%ADD11RoundRect,0.250000X-0.475000X0.337500X-0.475000X-0.337500X0.475000X-0.337500X0.475000X0.337500X0*%
%ADD12R,0.850000X0.750000*%
%ADD13RoundRect,0.250000X0.350000X0.450000X-0.350000X0.450000X-0.350000X-0.450000X0.350000X-0.450000X0*%
%ADD14RoundRect,0.250000X0.475000X-0.337500X0.475000X0.337500X-0.475000X0.337500X-0.475000X-0.337500X0*%
%ADD15R,1.600000X0.700000*%
%ADD16R,1.800000X1.200000*%
%ADD17R,1.500000X1.600000*%
%ADD18R,2.200000X1.200000*%
%ADD19RoundRect,0.250000X-0.337500X-0.475000X0.337500X-0.475000X0.337500X0.475000X-0.337500X0.475000X0*%
%ADD20RoundRect,0.250000X0.450000X-0.350000X0.450000X0.350000X-0.450000X0.350000X-0.450000X-0.350000X0*%
%ADD21RoundRect,0.250000X-0.450000X0.350000X-0.450000X-0.350000X0.450000X-0.350000X0.450000X0.350000X0*%
%ADD22RoundRect,0.250000X-0.350000X-0.450000X0.350000X-0.450000X0.350000X0.450000X-0.350000X0.450000X0*%
%ADD23FreePoly0,270.000000*%
%ADD24RoundRect,0.062500X-0.062500X0.375000X-0.062500X-0.375000X0.062500X-0.375000X0.062500X0.375000X0*%
%ADD25RoundRect,0.062500X-0.375000X0.062500X-0.375000X-0.062500X0.375000X-0.062500X0.375000X0.062500X0*%
%ADD26RoundRect,0.250000X0.337500X0.475000X-0.337500X0.475000X-0.337500X-0.475000X0.337500X-0.475000X0*%
%ADD27R,0.406400X1.397000*%
%ADD28R,0.304800X0.508000*%
%ADD29RoundRect,0.250000X0.495000X-0.495000X0.495000X0.495000X-0.495000X0.495000X-0.495000X-0.495000X0*%
%ADD30RoundRect,0.062500X0.062500X-0.337500X0.062500X0.337500X-0.062500X0.337500X-0.062500X-0.337500X0*%
%ADD31RoundRect,0.062500X0.337500X-0.062500X0.337500X0.062500X-0.337500X0.062500X-0.337500X-0.062500X0*%
%ADD32R,0.952500X0.558800*%
%ADD33RoundRect,0.250000X-0.325000X-0.450000X0.325000X-0.450000X0.325000X0.450000X-0.325000X0.450000X0*%
G04 APERTURE END LIST*
D10*
%TO.C,U4*%
X22449526Y-44138474D03*
X22449526Y-45088474D03*
X22449526Y-46038474D03*
X24724526Y-46038474D03*
X24724526Y-44138474D03*
%TD*%
D11*
%TO.C,C7*%
X47498000Y-43645000D03*
X47498000Y-45720000D03*
%TD*%
D12*
%TO.C,Y1*%
X26844000Y-31496000D03*
X28194000Y-31496000D03*
X28194000Y-30446000D03*
X26844000Y-30446000D03*
%TD*%
D10*
%TO.C,U5*%
X53351000Y-22860000D03*
X53351000Y-23810000D03*
X53351000Y-24760000D03*
X55626000Y-24760000D03*
X55626000Y-22860000D03*
%TD*%
D13*
%TO.C,R11*%
X22320000Y-13208000D03*
X20320000Y-13208000D03*
%TD*%
D11*
%TO.C,C3*%
X33782000Y-36279000D03*
X33782000Y-38354000D03*
%TD*%
D14*
%TO.C,C2*%
X39370000Y-27221000D03*
X39370000Y-25146000D03*
%TD*%
D13*
%TO.C,R9*%
X19272000Y-31961000D03*
X17272000Y-31961000D03*
%TD*%
%TO.C,R13*%
X67532000Y-48006000D03*
X65532000Y-48006000D03*
%TD*%
D15*
%TO.C,J1*%
X65013500Y-17750000D03*
X65013500Y-18850000D03*
X65013500Y-19950000D03*
X65013500Y-21050000D03*
X65013500Y-22150000D03*
X65013500Y-23250000D03*
X65013500Y-24350000D03*
X65013500Y-25450000D03*
X65013500Y-26550000D03*
D16*
X66313500Y-27750000D03*
D17*
X66063500Y-13150000D03*
D18*
X75613500Y-27750000D03*
X75613500Y-12250000D03*
%TD*%
D19*
%TO.C,C11*%
X14435000Y-15494000D03*
X16510000Y-15494000D03*
%TD*%
D20*
%TO.C,R4*%
X57658000Y-24860000D03*
X57658000Y-22860000D03*
%TD*%
D21*
%TO.C,R1*%
X47498000Y-39624000D03*
X47498000Y-41624000D03*
%TD*%
D22*
%TO.C,R12*%
X65564000Y-45466000D03*
X67564000Y-45466000D03*
%TD*%
D21*
%TO.C,R2*%
X57658000Y-19082000D03*
X57658000Y-21082000D03*
%TD*%
D19*
%TO.C,C10*%
X38057000Y-38100000D03*
X40132000Y-38100000D03*
%TD*%
D14*
%TO.C,C15*%
X26767526Y-46081474D03*
X26767526Y-44006474D03*
%TD*%
D23*
%TO.C,U2*%
X17130000Y-18798500D03*
X15940000Y-18798500D03*
X17130000Y-19988500D03*
X15940000Y-19988500D03*
D24*
X17780000Y-17461000D03*
X17280000Y-17461000D03*
X16780000Y-17461000D03*
X16280000Y-17461000D03*
X15780000Y-17461000D03*
X15280000Y-17461000D03*
D25*
X14592500Y-18148500D03*
X14592500Y-18648500D03*
X14592500Y-19148500D03*
X14592500Y-19648500D03*
X14592500Y-20148500D03*
X14592500Y-20648500D03*
D24*
X15280000Y-21336000D03*
X15780000Y-21336000D03*
X16280000Y-21336000D03*
X16780000Y-21336000D03*
X17280000Y-21336000D03*
X17780000Y-21336000D03*
D25*
X18467500Y-20648500D03*
X18467500Y-20148500D03*
X18467500Y-19648500D03*
X18467500Y-19148500D03*
X18467500Y-18648500D03*
X18467500Y-18148500D03*
%TD*%
D14*
%TO.C,C16*%
X20417526Y-45065474D03*
X20417526Y-42990474D03*
%TD*%
D11*
%TO.C,C4*%
X31496000Y-36279000D03*
X31496000Y-38354000D03*
%TD*%
%TO.C,C12*%
X61722000Y-21060500D03*
X61722000Y-23135500D03*
%TD*%
D19*
%TO.C,C5*%
X42629000Y-32512000D03*
X44704000Y-32512000D03*
%TD*%
D11*
%TO.C,C18*%
X51054000Y-20277000D03*
X51054000Y-22352000D03*
%TD*%
D14*
%TO.C,C1*%
X41656000Y-27221000D03*
X41656000Y-25146000D03*
%TD*%
D13*
%TO.C,R8*%
X55372000Y-26670000D03*
X53372000Y-26670000D03*
%TD*%
D26*
%TO.C,C19*%
X22352000Y-17526000D03*
X20277000Y-17526000D03*
%TD*%
D21*
%TO.C,R3*%
X55626000Y-19082000D03*
X55626000Y-21082000D03*
%TD*%
D14*
%TO.C,C17*%
X53340000Y-21125000D03*
X53340000Y-19050000D03*
%TD*%
D26*
%TO.C,C20*%
X16807000Y-23368000D03*
X14732000Y-23368000D03*
%TD*%
D10*
%TO.C,U3*%
X17029000Y-28151000D03*
X17029000Y-29101000D03*
X17029000Y-30051000D03*
X19304000Y-30051000D03*
X19304000Y-28151000D03*
%TD*%
D14*
%TO.C,C14*%
X21590000Y-29972000D03*
X21590000Y-27897000D03*
%TD*%
D20*
%TO.C,R5*%
X59690000Y-24860000D03*
X59690000Y-22860000D03*
%TD*%
D27*
%TO.C,XTAL1*%
X38277998Y-40132000D03*
D28*
X38979024Y-40577999D03*
D27*
X39878000Y-40132000D03*
D28*
X39183999Y-39686001D03*
%TD*%
D29*
%TO.C,U1*%
X37147000Y-32839000D03*
X38997000Y-32839000D03*
X37147000Y-30989000D03*
X38997000Y-30989000D03*
D30*
X36322000Y-34364000D03*
X36822000Y-34364000D03*
X37322000Y-34364000D03*
X37822000Y-34364000D03*
X38322000Y-34364000D03*
X38822000Y-34364000D03*
X39322000Y-34364000D03*
X39822000Y-34364000D03*
D31*
X40522000Y-33664000D03*
X40522000Y-33164000D03*
X40522000Y-32664000D03*
X40522000Y-32164000D03*
X40522000Y-31664000D03*
X40522000Y-31164000D03*
X40522000Y-30664000D03*
X40522000Y-30164000D03*
D30*
X39822000Y-29464000D03*
X39322000Y-29464000D03*
X38822000Y-29464000D03*
X38322000Y-29464000D03*
X37822000Y-29464000D03*
X37322000Y-29464000D03*
X36822000Y-29464000D03*
X36322000Y-29464000D03*
D31*
X35622000Y-30164000D03*
X35622000Y-30664000D03*
X35622000Y-31164000D03*
X35622000Y-31664000D03*
X35622000Y-32164000D03*
X35622000Y-32664000D03*
X35622000Y-33164000D03*
X35622000Y-33664000D03*
%TD*%
D21*
%TO.C,R6*%
X59690000Y-19066000D03*
X59690000Y-21066000D03*
%TD*%
D32*
%TO.C,U6*%
X49904650Y-43357800D03*
X56267350Y-43357800D03*
X49904650Y-47066200D03*
X56267350Y-47066200D03*
%TD*%
D33*
%TO.C,L1*%
X27922000Y-33274000D03*
X29972000Y-33274000D03*
%TD*%
D19*
%TO.C,C8*%
X26627000Y-35560000D03*
X28702000Y-35560000D03*
%TD*%
D11*
%TO.C,C9*%
X30226000Y-29167000D03*
X30226000Y-31242000D03*
%TD*%
%TO.C,C6*%
X36068000Y-36279000D03*
X36068000Y-38354000D03*
%TD*%
D21*
%TO.C,R7*%
X13716000Y-38894000D03*
X13716000Y-40894000D03*
%TD*%
D13*
%TO.C,R10*%
X22320000Y-15240000D03*
X20320000Y-15240000D03*
%TD*%
D14*
%TO.C,C13*%
X14732000Y-29972000D03*
X14732000Y-27897000D03*
%TD*%
M02*
