%TF.GenerationSoftware,KiCad,Pcbnew,8.0.6-8.0.6-0~ubuntu24.04.1*%
%TF.CreationDate,2024-11-06T15:00:48+01:00*%
%TF.ProjectId,random_sampler,72616e64-6f6d-45f7-9361-6d706c65722e,rev?*%
%TF.SameCoordinates,Original*%
%TF.FileFunction,Legend,Top*%
%TF.FilePolarity,Positive*%
%FSLAX46Y46*%
G04 Gerber Fmt 4.6, Leading zero omitted, Abs format (unit mm)*
G04 Created by KiCad (PCBNEW 8.0.6-8.0.6-0~ubuntu24.04.1) date 2024-11-06 15:00:48*
%MOMM*%
%LPD*%
G01*
G04 APERTURE LIST*
G04 Aperture macros list*
%AMRoundRect*
0 Rectangle with rounded corners*
0 $1 Rounding radius*
0 $2 $3 $4 $5 $6 $7 $8 $9 X,Y pos of 4 corners*
0 Add a 4 corners polygon primitive as box body*
4,1,4,$2,$3,$4,$5,$6,$7,$8,$9,$2,$3,0*
0 Add four circle primitives for the rounded corners*
1,1,$1+$1,$2,$3*
1,1,$1+$1,$4,$5*
1,1,$1+$1,$6,$7*
1,1,$1+$1,$8,$9*
0 Add four rect primitives between the rounded corners*
20,1,$1+$1,$2,$3,$4,$5,0*
20,1,$1+$1,$4,$5,$6,$7,0*
20,1,$1+$1,$6,$7,$8,$9,0*
20,1,$1+$1,$8,$9,$2,$3,0*%
G04 Aperture macros list end*
%ADD10C,0.150000*%
%ADD11C,0.120000*%
%ADD12C,0.200000*%
%ADD13C,0.127000*%
%ADD14C,0.152400*%
%ADD15RoundRect,0.150000X-0.512500X-0.150000X0.512500X-0.150000X0.512500X0.150000X-0.512500X0.150000X0*%
%ADD16RoundRect,0.250000X-0.475000X0.337500X-0.475000X-0.337500X0.475000X-0.337500X0.475000X0.337500X0*%
%ADD17RoundRect,0.102000X-0.425000X-0.375000X0.425000X-0.375000X0.425000X0.375000X-0.425000X0.375000X0*%
%ADD18RoundRect,0.250000X0.350000X0.450000X-0.350000X0.450000X-0.350000X-0.450000X0.350000X-0.450000X0*%
%ADD19C,3.200000*%
%ADD20RoundRect,0.250000X0.475000X-0.337500X0.475000X0.337500X-0.475000X0.337500X-0.475000X-0.337500X0*%
%ADD21C,1.000000*%
%ADD22RoundRect,0.102000X0.800000X-0.350000X0.800000X0.350000X-0.800000X0.350000X-0.800000X-0.350000X0*%
%ADD23RoundRect,0.102000X0.900000X-0.600000X0.900000X0.600000X-0.900000X0.600000X-0.900000X-0.600000X0*%
%ADD24RoundRect,0.102000X0.750000X-0.800000X0.750000X0.800000X-0.750000X0.800000X-0.750000X-0.800000X0*%
%ADD25RoundRect,0.102000X1.100000X-0.600000X1.100000X0.600000X-1.100000X0.600000X-1.100000X-0.600000X0*%
%ADD26RoundRect,0.250000X-0.337500X-0.475000X0.337500X-0.475000X0.337500X0.475000X-0.337500X0.475000X0*%
%ADD27RoundRect,0.250000X0.450000X-0.350000X0.450000X0.350000X-0.450000X0.350000X-0.450000X-0.350000X0*%
%ADD28RoundRect,0.250000X-0.450000X0.350000X-0.450000X-0.350000X0.450000X-0.350000X0.450000X0.350000X0*%
%ADD29R,1.700000X1.700000*%
%ADD30O,1.700000X1.700000*%
%ADD31RoundRect,0.250000X-0.350000X-0.450000X0.350000X-0.450000X0.350000X0.450000X-0.350000X0.450000X0*%
%ADD32RoundRect,0.062500X-0.062500X0.375000X-0.062500X-0.375000X0.062500X-0.375000X0.062500X0.375000X0*%
%ADD33RoundRect,0.062500X-0.375000X0.062500X-0.375000X-0.062500X0.375000X-0.062500X0.375000X0.062500X0*%
%ADD34R,2.600000X2.600000*%
%ADD35RoundRect,0.250000X0.337500X0.475000X-0.337500X0.475000X-0.337500X-0.475000X0.337500X-0.475000X0*%
%ADD36R,0.406400X1.397000*%
%ADD37R,0.304800X0.508000*%
%ADD38RoundRect,0.062500X0.062500X-0.337500X0.062500X0.337500X-0.062500X0.337500X-0.062500X-0.337500X0*%
%ADD39RoundRect,0.062500X0.337500X-0.062500X0.337500X0.062500X-0.337500X0.062500X-0.337500X-0.062500X0*%
%ADD40R,3.700000X3.700000*%
%ADD41R,0.952500X0.558800*%
%ADD42RoundRect,0.250000X-0.325000X-0.450000X0.325000X-0.450000X0.325000X0.450000X-0.325000X0.450000X0*%
%ADD43C,2.370000*%
%ADD44C,1.959000*%
G04 APERTURE END LIST*
D10*
X22825121Y-42143293D02*
X22825121Y-42952816D01*
X22825121Y-42952816D02*
X22872740Y-43048054D01*
X22872740Y-43048054D02*
X22920359Y-43095674D01*
X22920359Y-43095674D02*
X23015597Y-43143293D01*
X23015597Y-43143293D02*
X23206073Y-43143293D01*
X23206073Y-43143293D02*
X23301311Y-43095674D01*
X23301311Y-43095674D02*
X23348930Y-43048054D01*
X23348930Y-43048054D02*
X23396549Y-42952816D01*
X23396549Y-42952816D02*
X23396549Y-42143293D01*
X24301311Y-42476626D02*
X24301311Y-43143293D01*
X24063216Y-42095674D02*
X23825121Y-42809959D01*
X23825121Y-42809959D02*
X24444168Y-42809959D01*
X46079580Y-44870666D02*
X46127200Y-44918285D01*
X46127200Y-44918285D02*
X46174819Y-45061142D01*
X46174819Y-45061142D02*
X46174819Y-45156380D01*
X46174819Y-45156380D02*
X46127200Y-45299237D01*
X46127200Y-45299237D02*
X46031961Y-45394475D01*
X46031961Y-45394475D02*
X45936723Y-45442094D01*
X45936723Y-45442094D02*
X45746247Y-45489713D01*
X45746247Y-45489713D02*
X45603390Y-45489713D01*
X45603390Y-45489713D02*
X45412914Y-45442094D01*
X45412914Y-45442094D02*
X45317676Y-45394475D01*
X45317676Y-45394475D02*
X45222438Y-45299237D01*
X45222438Y-45299237D02*
X45174819Y-45156380D01*
X45174819Y-45156380D02*
X45174819Y-45061142D01*
X45174819Y-45061142D02*
X45222438Y-44918285D01*
X45222438Y-44918285D02*
X45270057Y-44870666D01*
X45174819Y-44537332D02*
X45174819Y-43870666D01*
X45174819Y-43870666D02*
X46174819Y-44299237D01*
X27896238Y-29253114D02*
X27896238Y-29557876D01*
X27682905Y-28917876D02*
X27896238Y-29253114D01*
X27896238Y-29253114D02*
X28109572Y-28917876D01*
X28658143Y-29557876D02*
X28292428Y-29557876D01*
X28475285Y-29557876D02*
X28475285Y-28917876D01*
X28475285Y-28917876D02*
X28414333Y-29009304D01*
X28414333Y-29009304D02*
X28353381Y-29070257D01*
X28353381Y-29070257D02*
X28292428Y-29100733D01*
X50673095Y-24473819D02*
X50673095Y-25283342D01*
X50673095Y-25283342D02*
X50720714Y-25378580D01*
X50720714Y-25378580D02*
X50768333Y-25426200D01*
X50768333Y-25426200D02*
X50863571Y-25473819D01*
X50863571Y-25473819D02*
X51054047Y-25473819D01*
X51054047Y-25473819D02*
X51149285Y-25426200D01*
X51149285Y-25426200D02*
X51196904Y-25378580D01*
X51196904Y-25378580D02*
X51244523Y-25283342D01*
X51244523Y-25283342D02*
X51244523Y-24473819D01*
X52196904Y-24473819D02*
X51720714Y-24473819D01*
X51720714Y-24473819D02*
X51673095Y-24950009D01*
X51673095Y-24950009D02*
X51720714Y-24902390D01*
X51720714Y-24902390D02*
X51815952Y-24854771D01*
X51815952Y-24854771D02*
X52054047Y-24854771D01*
X52054047Y-24854771D02*
X52149285Y-24902390D01*
X52149285Y-24902390D02*
X52196904Y-24950009D01*
X52196904Y-24950009D02*
X52244523Y-25045247D01*
X52244523Y-25045247D02*
X52244523Y-25283342D01*
X52244523Y-25283342D02*
X52196904Y-25378580D01*
X52196904Y-25378580D02*
X52149285Y-25426200D01*
X52149285Y-25426200D02*
X52054047Y-25473819D01*
X52054047Y-25473819D02*
X51815952Y-25473819D01*
X51815952Y-25473819D02*
X51720714Y-25426200D01*
X51720714Y-25426200D02*
X51673095Y-25378580D01*
X25138142Y-13662819D02*
X24804809Y-13186628D01*
X24566714Y-13662819D02*
X24566714Y-12662819D01*
X24566714Y-12662819D02*
X24947666Y-12662819D01*
X24947666Y-12662819D02*
X25042904Y-12710438D01*
X25042904Y-12710438D02*
X25090523Y-12758057D01*
X25090523Y-12758057D02*
X25138142Y-12853295D01*
X25138142Y-12853295D02*
X25138142Y-12996152D01*
X25138142Y-12996152D02*
X25090523Y-13091390D01*
X25090523Y-13091390D02*
X25042904Y-13139009D01*
X25042904Y-13139009D02*
X24947666Y-13186628D01*
X24947666Y-13186628D02*
X24566714Y-13186628D01*
X26090523Y-13662819D02*
X25519095Y-13662819D01*
X25804809Y-13662819D02*
X25804809Y-12662819D01*
X25804809Y-12662819D02*
X25709571Y-12805676D01*
X25709571Y-12805676D02*
X25614333Y-12900914D01*
X25614333Y-12900914D02*
X25519095Y-12948533D01*
X27042904Y-13662819D02*
X26471476Y-13662819D01*
X26757190Y-13662819D02*
X26757190Y-12662819D01*
X26757190Y-12662819D02*
X26661952Y-12805676D01*
X26661952Y-12805676D02*
X26566714Y-12900914D01*
X26566714Y-12900914D02*
X26471476Y-12948533D01*
X34141580Y-40425666D02*
X34189200Y-40473285D01*
X34189200Y-40473285D02*
X34236819Y-40616142D01*
X34236819Y-40616142D02*
X34236819Y-40711380D01*
X34236819Y-40711380D02*
X34189200Y-40854237D01*
X34189200Y-40854237D02*
X34093961Y-40949475D01*
X34093961Y-40949475D02*
X33998723Y-40997094D01*
X33998723Y-40997094D02*
X33808247Y-41044713D01*
X33808247Y-41044713D02*
X33665390Y-41044713D01*
X33665390Y-41044713D02*
X33474914Y-40997094D01*
X33474914Y-40997094D02*
X33379676Y-40949475D01*
X33379676Y-40949475D02*
X33284438Y-40854237D01*
X33284438Y-40854237D02*
X33236819Y-40711380D01*
X33236819Y-40711380D02*
X33236819Y-40616142D01*
X33236819Y-40616142D02*
X33284438Y-40473285D01*
X33284438Y-40473285D02*
X33332057Y-40425666D01*
X33236819Y-40092332D02*
X33236819Y-39473285D01*
X33236819Y-39473285D02*
X33617771Y-39806618D01*
X33617771Y-39806618D02*
X33617771Y-39663761D01*
X33617771Y-39663761D02*
X33665390Y-39568523D01*
X33665390Y-39568523D02*
X33713009Y-39520904D01*
X33713009Y-39520904D02*
X33808247Y-39473285D01*
X33808247Y-39473285D02*
X34046342Y-39473285D01*
X34046342Y-39473285D02*
X34141580Y-39520904D01*
X34141580Y-39520904D02*
X34189200Y-39568523D01*
X34189200Y-39568523D02*
X34236819Y-39663761D01*
X34236819Y-39663761D02*
X34236819Y-39949475D01*
X34236819Y-39949475D02*
X34189200Y-40044713D01*
X34189200Y-40044713D02*
X34141580Y-40092332D01*
X39729580Y-23407666D02*
X39777200Y-23455285D01*
X39777200Y-23455285D02*
X39824819Y-23598142D01*
X39824819Y-23598142D02*
X39824819Y-23693380D01*
X39824819Y-23693380D02*
X39777200Y-23836237D01*
X39777200Y-23836237D02*
X39681961Y-23931475D01*
X39681961Y-23931475D02*
X39586723Y-23979094D01*
X39586723Y-23979094D02*
X39396247Y-24026713D01*
X39396247Y-24026713D02*
X39253390Y-24026713D01*
X39253390Y-24026713D02*
X39062914Y-23979094D01*
X39062914Y-23979094D02*
X38967676Y-23931475D01*
X38967676Y-23931475D02*
X38872438Y-23836237D01*
X38872438Y-23836237D02*
X38824819Y-23693380D01*
X38824819Y-23693380D02*
X38824819Y-23598142D01*
X38824819Y-23598142D02*
X38872438Y-23455285D01*
X38872438Y-23455285D02*
X38920057Y-23407666D01*
X38920057Y-23026713D02*
X38872438Y-22979094D01*
X38872438Y-22979094D02*
X38824819Y-22883856D01*
X38824819Y-22883856D02*
X38824819Y-22645761D01*
X38824819Y-22645761D02*
X38872438Y-22550523D01*
X38872438Y-22550523D02*
X38920057Y-22502904D01*
X38920057Y-22502904D02*
X39015295Y-22455285D01*
X39015295Y-22455285D02*
X39110533Y-22455285D01*
X39110533Y-22455285D02*
X39253390Y-22502904D01*
X39253390Y-22502904D02*
X39824819Y-23074332D01*
X39824819Y-23074332D02*
X39824819Y-22455285D01*
X18105333Y-34065819D02*
X17772000Y-33589628D01*
X17533905Y-34065819D02*
X17533905Y-33065819D01*
X17533905Y-33065819D02*
X17914857Y-33065819D01*
X17914857Y-33065819D02*
X18010095Y-33113438D01*
X18010095Y-33113438D02*
X18057714Y-33161057D01*
X18057714Y-33161057D02*
X18105333Y-33256295D01*
X18105333Y-33256295D02*
X18105333Y-33399152D01*
X18105333Y-33399152D02*
X18057714Y-33494390D01*
X18057714Y-33494390D02*
X18010095Y-33542009D01*
X18010095Y-33542009D02*
X17914857Y-33589628D01*
X17914857Y-33589628D02*
X17533905Y-33589628D01*
X18581524Y-34065819D02*
X18772000Y-34065819D01*
X18772000Y-34065819D02*
X18867238Y-34018200D01*
X18867238Y-34018200D02*
X18914857Y-33970580D01*
X18914857Y-33970580D02*
X19010095Y-33827723D01*
X19010095Y-33827723D02*
X19057714Y-33637247D01*
X19057714Y-33637247D02*
X19057714Y-33256295D01*
X19057714Y-33256295D02*
X19010095Y-33161057D01*
X19010095Y-33161057D02*
X18962476Y-33113438D01*
X18962476Y-33113438D02*
X18867238Y-33065819D01*
X18867238Y-33065819D02*
X18676762Y-33065819D01*
X18676762Y-33065819D02*
X18581524Y-33113438D01*
X18581524Y-33113438D02*
X18533905Y-33161057D01*
X18533905Y-33161057D02*
X18486286Y-33256295D01*
X18486286Y-33256295D02*
X18486286Y-33494390D01*
X18486286Y-33494390D02*
X18533905Y-33589628D01*
X18533905Y-33589628D02*
X18581524Y-33637247D01*
X18581524Y-33637247D02*
X18676762Y-33684866D01*
X18676762Y-33684866D02*
X18867238Y-33684866D01*
X18867238Y-33684866D02*
X18962476Y-33637247D01*
X18962476Y-33637247D02*
X19010095Y-33589628D01*
X19010095Y-33589628D02*
X19057714Y-33494390D01*
X65889142Y-50110819D02*
X65555809Y-49634628D01*
X65317714Y-50110819D02*
X65317714Y-49110819D01*
X65317714Y-49110819D02*
X65698666Y-49110819D01*
X65698666Y-49110819D02*
X65793904Y-49158438D01*
X65793904Y-49158438D02*
X65841523Y-49206057D01*
X65841523Y-49206057D02*
X65889142Y-49301295D01*
X65889142Y-49301295D02*
X65889142Y-49444152D01*
X65889142Y-49444152D02*
X65841523Y-49539390D01*
X65841523Y-49539390D02*
X65793904Y-49587009D01*
X65793904Y-49587009D02*
X65698666Y-49634628D01*
X65698666Y-49634628D02*
X65317714Y-49634628D01*
X66841523Y-50110819D02*
X66270095Y-50110819D01*
X66555809Y-50110819D02*
X66555809Y-49110819D01*
X66555809Y-49110819D02*
X66460571Y-49253676D01*
X66460571Y-49253676D02*
X66365333Y-49348914D01*
X66365333Y-49348914D02*
X66270095Y-49396533D01*
X67174857Y-49110819D02*
X67793904Y-49110819D01*
X67793904Y-49110819D02*
X67460571Y-49491771D01*
X67460571Y-49491771D02*
X67603428Y-49491771D01*
X67603428Y-49491771D02*
X67698666Y-49539390D01*
X67698666Y-49539390D02*
X67746285Y-49587009D01*
X67746285Y-49587009D02*
X67793904Y-49682247D01*
X67793904Y-49682247D02*
X67793904Y-49920342D01*
X67793904Y-49920342D02*
X67746285Y-50015580D01*
X67746285Y-50015580D02*
X67698666Y-50063200D01*
X67698666Y-50063200D02*
X67603428Y-50110819D01*
X67603428Y-50110819D02*
X67317714Y-50110819D01*
X67317714Y-50110819D02*
X67222476Y-50063200D01*
X67222476Y-50063200D02*
X67174857Y-50015580D01*
X64224819Y-29797333D02*
X64939104Y-29797333D01*
X64939104Y-29797333D02*
X65081961Y-29844952D01*
X65081961Y-29844952D02*
X65177200Y-29940190D01*
X65177200Y-29940190D02*
X65224819Y-30083047D01*
X65224819Y-30083047D02*
X65224819Y-30178285D01*
X65224819Y-28797333D02*
X65224819Y-29368761D01*
X65224819Y-29083047D02*
X64224819Y-29083047D01*
X64224819Y-29083047D02*
X64367676Y-29178285D01*
X64367676Y-29178285D02*
X64462914Y-29273523D01*
X64462914Y-29273523D02*
X64510533Y-29368761D01*
X14829642Y-14173580D02*
X14782023Y-14221200D01*
X14782023Y-14221200D02*
X14639166Y-14268819D01*
X14639166Y-14268819D02*
X14543928Y-14268819D01*
X14543928Y-14268819D02*
X14401071Y-14221200D01*
X14401071Y-14221200D02*
X14305833Y-14125961D01*
X14305833Y-14125961D02*
X14258214Y-14030723D01*
X14258214Y-14030723D02*
X14210595Y-13840247D01*
X14210595Y-13840247D02*
X14210595Y-13697390D01*
X14210595Y-13697390D02*
X14258214Y-13506914D01*
X14258214Y-13506914D02*
X14305833Y-13411676D01*
X14305833Y-13411676D02*
X14401071Y-13316438D01*
X14401071Y-13316438D02*
X14543928Y-13268819D01*
X14543928Y-13268819D02*
X14639166Y-13268819D01*
X14639166Y-13268819D02*
X14782023Y-13316438D01*
X14782023Y-13316438D02*
X14829642Y-13364057D01*
X15782023Y-14268819D02*
X15210595Y-14268819D01*
X15496309Y-14268819D02*
X15496309Y-13268819D01*
X15496309Y-13268819D02*
X15401071Y-13411676D01*
X15401071Y-13411676D02*
X15305833Y-13506914D01*
X15305833Y-13506914D02*
X15210595Y-13554533D01*
X16734404Y-14268819D02*
X16162976Y-14268819D01*
X16448690Y-14268819D02*
X16448690Y-13268819D01*
X16448690Y-13268819D02*
X16353452Y-13411676D01*
X16353452Y-13411676D02*
X16258214Y-13506914D01*
X16258214Y-13506914D02*
X16162976Y-13554533D01*
X58112819Y-26963666D02*
X57636628Y-27296999D01*
X58112819Y-27535094D02*
X57112819Y-27535094D01*
X57112819Y-27535094D02*
X57112819Y-27154142D01*
X57112819Y-27154142D02*
X57160438Y-27058904D01*
X57160438Y-27058904D02*
X57208057Y-27011285D01*
X57208057Y-27011285D02*
X57303295Y-26963666D01*
X57303295Y-26963666D02*
X57446152Y-26963666D01*
X57446152Y-26963666D02*
X57541390Y-27011285D01*
X57541390Y-27011285D02*
X57589009Y-27058904D01*
X57589009Y-27058904D02*
X57636628Y-27154142D01*
X57636628Y-27154142D02*
X57636628Y-27535094D01*
X57446152Y-26106523D02*
X58112819Y-26106523D01*
X57065200Y-26344618D02*
X57779485Y-26582713D01*
X57779485Y-26582713D02*
X57779485Y-25963666D01*
X46174819Y-40790666D02*
X45698628Y-41123999D01*
X46174819Y-41362094D02*
X45174819Y-41362094D01*
X45174819Y-41362094D02*
X45174819Y-40981142D01*
X45174819Y-40981142D02*
X45222438Y-40885904D01*
X45222438Y-40885904D02*
X45270057Y-40838285D01*
X45270057Y-40838285D02*
X45365295Y-40790666D01*
X45365295Y-40790666D02*
X45508152Y-40790666D01*
X45508152Y-40790666D02*
X45603390Y-40838285D01*
X45603390Y-40838285D02*
X45651009Y-40885904D01*
X45651009Y-40885904D02*
X45698628Y-40981142D01*
X45698628Y-40981142D02*
X45698628Y-41362094D01*
X46174819Y-39838285D02*
X46174819Y-40409713D01*
X46174819Y-40123999D02*
X45174819Y-40123999D01*
X45174819Y-40123999D02*
X45317676Y-40219237D01*
X45317676Y-40219237D02*
X45412914Y-40314475D01*
X45412914Y-40314475D02*
X45460533Y-40409713D01*
X74830666Y-50224819D02*
X74830666Y-50939104D01*
X74830666Y-50939104D02*
X74783047Y-51081961D01*
X74783047Y-51081961D02*
X74687809Y-51177200D01*
X74687809Y-51177200D02*
X74544952Y-51224819D01*
X74544952Y-51224819D02*
X74449714Y-51224819D01*
X75211619Y-50224819D02*
X75830666Y-50224819D01*
X75830666Y-50224819D02*
X75497333Y-50605771D01*
X75497333Y-50605771D02*
X75640190Y-50605771D01*
X75640190Y-50605771D02*
X75735428Y-50653390D01*
X75735428Y-50653390D02*
X75783047Y-50701009D01*
X75783047Y-50701009D02*
X75830666Y-50796247D01*
X75830666Y-50796247D02*
X75830666Y-51034342D01*
X75830666Y-51034342D02*
X75783047Y-51129580D01*
X75783047Y-51129580D02*
X75735428Y-51177200D01*
X75735428Y-51177200D02*
X75640190Y-51224819D01*
X75640190Y-51224819D02*
X75354476Y-51224819D01*
X75354476Y-51224819D02*
X75259238Y-51177200D01*
X75259238Y-51177200D02*
X75211619Y-51129580D01*
X65921142Y-44270819D02*
X65587809Y-43794628D01*
X65349714Y-44270819D02*
X65349714Y-43270819D01*
X65349714Y-43270819D02*
X65730666Y-43270819D01*
X65730666Y-43270819D02*
X65825904Y-43318438D01*
X65825904Y-43318438D02*
X65873523Y-43366057D01*
X65873523Y-43366057D02*
X65921142Y-43461295D01*
X65921142Y-43461295D02*
X65921142Y-43604152D01*
X65921142Y-43604152D02*
X65873523Y-43699390D01*
X65873523Y-43699390D02*
X65825904Y-43747009D01*
X65825904Y-43747009D02*
X65730666Y-43794628D01*
X65730666Y-43794628D02*
X65349714Y-43794628D01*
X66873523Y-44270819D02*
X66302095Y-44270819D01*
X66587809Y-44270819D02*
X66587809Y-43270819D01*
X66587809Y-43270819D02*
X66492571Y-43413676D01*
X66492571Y-43413676D02*
X66397333Y-43508914D01*
X66397333Y-43508914D02*
X66302095Y-43556533D01*
X67254476Y-43366057D02*
X67302095Y-43318438D01*
X67302095Y-43318438D02*
X67397333Y-43270819D01*
X67397333Y-43270819D02*
X67635428Y-43270819D01*
X67635428Y-43270819D02*
X67730666Y-43318438D01*
X67730666Y-43318438D02*
X67778285Y-43366057D01*
X67778285Y-43366057D02*
X67825904Y-43461295D01*
X67825904Y-43461295D02*
X67825904Y-43556533D01*
X67825904Y-43556533D02*
X67778285Y-43699390D01*
X67778285Y-43699390D02*
X67206857Y-44270819D01*
X67206857Y-44270819D02*
X67825904Y-44270819D01*
X58112819Y-17311666D02*
X57636628Y-17644999D01*
X58112819Y-17883094D02*
X57112819Y-17883094D01*
X57112819Y-17883094D02*
X57112819Y-17502142D01*
X57112819Y-17502142D02*
X57160438Y-17406904D01*
X57160438Y-17406904D02*
X57208057Y-17359285D01*
X57208057Y-17359285D02*
X57303295Y-17311666D01*
X57303295Y-17311666D02*
X57446152Y-17311666D01*
X57446152Y-17311666D02*
X57541390Y-17359285D01*
X57541390Y-17359285D02*
X57589009Y-17406904D01*
X57589009Y-17406904D02*
X57636628Y-17502142D01*
X57636628Y-17502142D02*
X57636628Y-17883094D01*
X57208057Y-16930713D02*
X57160438Y-16883094D01*
X57160438Y-16883094D02*
X57112819Y-16787856D01*
X57112819Y-16787856D02*
X57112819Y-16549761D01*
X57112819Y-16549761D02*
X57160438Y-16454523D01*
X57160438Y-16454523D02*
X57208057Y-16406904D01*
X57208057Y-16406904D02*
X57303295Y-16359285D01*
X57303295Y-16359285D02*
X57398533Y-16359285D01*
X57398533Y-16359285D02*
X57541390Y-16406904D01*
X57541390Y-16406904D02*
X58112819Y-16978332D01*
X58112819Y-16978332D02*
X58112819Y-16359285D01*
X41902142Y-38459580D02*
X41854523Y-38507200D01*
X41854523Y-38507200D02*
X41711666Y-38554819D01*
X41711666Y-38554819D02*
X41616428Y-38554819D01*
X41616428Y-38554819D02*
X41473571Y-38507200D01*
X41473571Y-38507200D02*
X41378333Y-38411961D01*
X41378333Y-38411961D02*
X41330714Y-38316723D01*
X41330714Y-38316723D02*
X41283095Y-38126247D01*
X41283095Y-38126247D02*
X41283095Y-37983390D01*
X41283095Y-37983390D02*
X41330714Y-37792914D01*
X41330714Y-37792914D02*
X41378333Y-37697676D01*
X41378333Y-37697676D02*
X41473571Y-37602438D01*
X41473571Y-37602438D02*
X41616428Y-37554819D01*
X41616428Y-37554819D02*
X41711666Y-37554819D01*
X41711666Y-37554819D02*
X41854523Y-37602438D01*
X41854523Y-37602438D02*
X41902142Y-37650057D01*
X42854523Y-38554819D02*
X42283095Y-38554819D01*
X42568809Y-38554819D02*
X42568809Y-37554819D01*
X42568809Y-37554819D02*
X42473571Y-37697676D01*
X42473571Y-37697676D02*
X42378333Y-37792914D01*
X42378333Y-37792914D02*
X42283095Y-37840533D01*
X43473571Y-37554819D02*
X43568809Y-37554819D01*
X43568809Y-37554819D02*
X43664047Y-37602438D01*
X43664047Y-37602438D02*
X43711666Y-37650057D01*
X43711666Y-37650057D02*
X43759285Y-37745295D01*
X43759285Y-37745295D02*
X43806904Y-37935771D01*
X43806904Y-37935771D02*
X43806904Y-38173866D01*
X43806904Y-38173866D02*
X43759285Y-38364342D01*
X43759285Y-38364342D02*
X43711666Y-38459580D01*
X43711666Y-38459580D02*
X43664047Y-38507200D01*
X43664047Y-38507200D02*
X43568809Y-38554819D01*
X43568809Y-38554819D02*
X43473571Y-38554819D01*
X43473571Y-38554819D02*
X43378333Y-38507200D01*
X43378333Y-38507200D02*
X43330714Y-38459580D01*
X43330714Y-38459580D02*
X43283095Y-38364342D01*
X43283095Y-38364342D02*
X43235476Y-38173866D01*
X43235476Y-38173866D02*
X43235476Y-37935771D01*
X43235476Y-37935771D02*
X43283095Y-37745295D01*
X43283095Y-37745295D02*
X43330714Y-37650057D01*
X43330714Y-37650057D02*
X43378333Y-37602438D01*
X43378333Y-37602438D02*
X43473571Y-37554819D01*
X28934580Y-45686831D02*
X28982200Y-45734450D01*
X28982200Y-45734450D02*
X29029819Y-45877307D01*
X29029819Y-45877307D02*
X29029819Y-45972545D01*
X29029819Y-45972545D02*
X28982200Y-46115402D01*
X28982200Y-46115402D02*
X28886961Y-46210640D01*
X28886961Y-46210640D02*
X28791723Y-46258259D01*
X28791723Y-46258259D02*
X28601247Y-46305878D01*
X28601247Y-46305878D02*
X28458390Y-46305878D01*
X28458390Y-46305878D02*
X28267914Y-46258259D01*
X28267914Y-46258259D02*
X28172676Y-46210640D01*
X28172676Y-46210640D02*
X28077438Y-46115402D01*
X28077438Y-46115402D02*
X28029819Y-45972545D01*
X28029819Y-45972545D02*
X28029819Y-45877307D01*
X28029819Y-45877307D02*
X28077438Y-45734450D01*
X28077438Y-45734450D02*
X28125057Y-45686831D01*
X29029819Y-44734450D02*
X29029819Y-45305878D01*
X29029819Y-45020164D02*
X28029819Y-45020164D01*
X28029819Y-45020164D02*
X28172676Y-45115402D01*
X28172676Y-45115402D02*
X28267914Y-45210640D01*
X28267914Y-45210640D02*
X28315533Y-45305878D01*
X28029819Y-43829688D02*
X28029819Y-44305878D01*
X28029819Y-44305878D02*
X28506009Y-44353497D01*
X28506009Y-44353497D02*
X28458390Y-44305878D01*
X28458390Y-44305878D02*
X28410771Y-44210640D01*
X28410771Y-44210640D02*
X28410771Y-43972545D01*
X28410771Y-43972545D02*
X28458390Y-43877307D01*
X28458390Y-43877307D02*
X28506009Y-43829688D01*
X28506009Y-43829688D02*
X28601247Y-43782069D01*
X28601247Y-43782069D02*
X28839342Y-43782069D01*
X28839342Y-43782069D02*
X28934580Y-43829688D01*
X28934580Y-43829688D02*
X28982200Y-43877307D01*
X28982200Y-43877307D02*
X29029819Y-43972545D01*
X29029819Y-43972545D02*
X29029819Y-44210640D01*
X29029819Y-44210640D02*
X28982200Y-44305878D01*
X28982200Y-44305878D02*
X28934580Y-44353497D01*
X19520819Y-21208904D02*
X20330342Y-21208904D01*
X20330342Y-21208904D02*
X20425580Y-21161285D01*
X20425580Y-21161285D02*
X20473200Y-21113666D01*
X20473200Y-21113666D02*
X20520819Y-21018428D01*
X20520819Y-21018428D02*
X20520819Y-20827952D01*
X20520819Y-20827952D02*
X20473200Y-20732714D01*
X20473200Y-20732714D02*
X20425580Y-20685095D01*
X20425580Y-20685095D02*
X20330342Y-20637476D01*
X20330342Y-20637476D02*
X19520819Y-20637476D01*
X19616057Y-20208904D02*
X19568438Y-20161285D01*
X19568438Y-20161285D02*
X19520819Y-20066047D01*
X19520819Y-20066047D02*
X19520819Y-19827952D01*
X19520819Y-19827952D02*
X19568438Y-19732714D01*
X19568438Y-19732714D02*
X19616057Y-19685095D01*
X19616057Y-19685095D02*
X19711295Y-19637476D01*
X19711295Y-19637476D02*
X19806533Y-19637476D01*
X19806533Y-19637476D02*
X19949390Y-19685095D01*
X19949390Y-19685095D02*
X20520819Y-20256523D01*
X20520819Y-20256523D02*
X20520819Y-19637476D01*
X19097106Y-44670831D02*
X19144726Y-44718450D01*
X19144726Y-44718450D02*
X19192345Y-44861307D01*
X19192345Y-44861307D02*
X19192345Y-44956545D01*
X19192345Y-44956545D02*
X19144726Y-45099402D01*
X19144726Y-45099402D02*
X19049487Y-45194640D01*
X19049487Y-45194640D02*
X18954249Y-45242259D01*
X18954249Y-45242259D02*
X18763773Y-45289878D01*
X18763773Y-45289878D02*
X18620916Y-45289878D01*
X18620916Y-45289878D02*
X18430440Y-45242259D01*
X18430440Y-45242259D02*
X18335202Y-45194640D01*
X18335202Y-45194640D02*
X18239964Y-45099402D01*
X18239964Y-45099402D02*
X18192345Y-44956545D01*
X18192345Y-44956545D02*
X18192345Y-44861307D01*
X18192345Y-44861307D02*
X18239964Y-44718450D01*
X18239964Y-44718450D02*
X18287583Y-44670831D01*
X19192345Y-43718450D02*
X19192345Y-44289878D01*
X19192345Y-44004164D02*
X18192345Y-44004164D01*
X18192345Y-44004164D02*
X18335202Y-44099402D01*
X18335202Y-44099402D02*
X18430440Y-44194640D01*
X18430440Y-44194640D02*
X18478059Y-44289878D01*
X18192345Y-42861307D02*
X18192345Y-43051783D01*
X18192345Y-43051783D02*
X18239964Y-43147021D01*
X18239964Y-43147021D02*
X18287583Y-43194640D01*
X18287583Y-43194640D02*
X18430440Y-43289878D01*
X18430440Y-43289878D02*
X18620916Y-43337497D01*
X18620916Y-43337497D02*
X19001868Y-43337497D01*
X19001868Y-43337497D02*
X19097106Y-43289878D01*
X19097106Y-43289878D02*
X19144726Y-43242259D01*
X19144726Y-43242259D02*
X19192345Y-43147021D01*
X19192345Y-43147021D02*
X19192345Y-42956545D01*
X19192345Y-42956545D02*
X19144726Y-42861307D01*
X19144726Y-42861307D02*
X19097106Y-42813688D01*
X19097106Y-42813688D02*
X19001868Y-42766069D01*
X19001868Y-42766069D02*
X18763773Y-42766069D01*
X18763773Y-42766069D02*
X18668535Y-42813688D01*
X18668535Y-42813688D02*
X18620916Y-42861307D01*
X18620916Y-42861307D02*
X18573297Y-42956545D01*
X18573297Y-42956545D02*
X18573297Y-43147021D01*
X18573297Y-43147021D02*
X18620916Y-43242259D01*
X18620916Y-43242259D02*
X18668535Y-43289878D01*
X18668535Y-43289878D02*
X18763773Y-43337497D01*
X31728580Y-40425666D02*
X31776200Y-40473285D01*
X31776200Y-40473285D02*
X31823819Y-40616142D01*
X31823819Y-40616142D02*
X31823819Y-40711380D01*
X31823819Y-40711380D02*
X31776200Y-40854237D01*
X31776200Y-40854237D02*
X31680961Y-40949475D01*
X31680961Y-40949475D02*
X31585723Y-40997094D01*
X31585723Y-40997094D02*
X31395247Y-41044713D01*
X31395247Y-41044713D02*
X31252390Y-41044713D01*
X31252390Y-41044713D02*
X31061914Y-40997094D01*
X31061914Y-40997094D02*
X30966676Y-40949475D01*
X30966676Y-40949475D02*
X30871438Y-40854237D01*
X30871438Y-40854237D02*
X30823819Y-40711380D01*
X30823819Y-40711380D02*
X30823819Y-40616142D01*
X30823819Y-40616142D02*
X30871438Y-40473285D01*
X30871438Y-40473285D02*
X30919057Y-40425666D01*
X31157152Y-39568523D02*
X31823819Y-39568523D01*
X30776200Y-39806618D02*
X31490485Y-40044713D01*
X31490485Y-40044713D02*
X31490485Y-39425666D01*
X62081580Y-26169857D02*
X62129200Y-26217476D01*
X62129200Y-26217476D02*
X62176819Y-26360333D01*
X62176819Y-26360333D02*
X62176819Y-26455571D01*
X62176819Y-26455571D02*
X62129200Y-26598428D01*
X62129200Y-26598428D02*
X62033961Y-26693666D01*
X62033961Y-26693666D02*
X61938723Y-26741285D01*
X61938723Y-26741285D02*
X61748247Y-26788904D01*
X61748247Y-26788904D02*
X61605390Y-26788904D01*
X61605390Y-26788904D02*
X61414914Y-26741285D01*
X61414914Y-26741285D02*
X61319676Y-26693666D01*
X61319676Y-26693666D02*
X61224438Y-26598428D01*
X61224438Y-26598428D02*
X61176819Y-26455571D01*
X61176819Y-26455571D02*
X61176819Y-26360333D01*
X61176819Y-26360333D02*
X61224438Y-26217476D01*
X61224438Y-26217476D02*
X61272057Y-26169857D01*
X62176819Y-25217476D02*
X62176819Y-25788904D01*
X62176819Y-25503190D02*
X61176819Y-25503190D01*
X61176819Y-25503190D02*
X61319676Y-25598428D01*
X61319676Y-25598428D02*
X61414914Y-25693666D01*
X61414914Y-25693666D02*
X61462533Y-25788904D01*
X61272057Y-24836523D02*
X61224438Y-24788904D01*
X61224438Y-24788904D02*
X61176819Y-24693666D01*
X61176819Y-24693666D02*
X61176819Y-24455571D01*
X61176819Y-24455571D02*
X61224438Y-24360333D01*
X61224438Y-24360333D02*
X61272057Y-24312714D01*
X61272057Y-24312714D02*
X61367295Y-24265095D01*
X61367295Y-24265095D02*
X61462533Y-24265095D01*
X61462533Y-24265095D02*
X61605390Y-24312714D01*
X61605390Y-24312714D02*
X62176819Y-24884142D01*
X62176819Y-24884142D02*
X62176819Y-24265095D01*
X44664333Y-31191580D02*
X44616714Y-31239200D01*
X44616714Y-31239200D02*
X44473857Y-31286819D01*
X44473857Y-31286819D02*
X44378619Y-31286819D01*
X44378619Y-31286819D02*
X44235762Y-31239200D01*
X44235762Y-31239200D02*
X44140524Y-31143961D01*
X44140524Y-31143961D02*
X44092905Y-31048723D01*
X44092905Y-31048723D02*
X44045286Y-30858247D01*
X44045286Y-30858247D02*
X44045286Y-30715390D01*
X44045286Y-30715390D02*
X44092905Y-30524914D01*
X44092905Y-30524914D02*
X44140524Y-30429676D01*
X44140524Y-30429676D02*
X44235762Y-30334438D01*
X44235762Y-30334438D02*
X44378619Y-30286819D01*
X44378619Y-30286819D02*
X44473857Y-30286819D01*
X44473857Y-30286819D02*
X44616714Y-30334438D01*
X44616714Y-30334438D02*
X44664333Y-30382057D01*
X45569095Y-30286819D02*
X45092905Y-30286819D01*
X45092905Y-30286819D02*
X45045286Y-30763009D01*
X45045286Y-30763009D02*
X45092905Y-30715390D01*
X45092905Y-30715390D02*
X45188143Y-30667771D01*
X45188143Y-30667771D02*
X45426238Y-30667771D01*
X45426238Y-30667771D02*
X45521476Y-30715390D01*
X45521476Y-30715390D02*
X45569095Y-30763009D01*
X45569095Y-30763009D02*
X45616714Y-30858247D01*
X45616714Y-30858247D02*
X45616714Y-31096342D01*
X45616714Y-31096342D02*
X45569095Y-31191580D01*
X45569095Y-31191580D02*
X45521476Y-31239200D01*
X45521476Y-31239200D02*
X45426238Y-31286819D01*
X45426238Y-31286819D02*
X45188143Y-31286819D01*
X45188143Y-31286819D02*
X45092905Y-31239200D01*
X45092905Y-31239200D02*
X45045286Y-31191580D01*
X49635580Y-21724857D02*
X49683200Y-21772476D01*
X49683200Y-21772476D02*
X49730819Y-21915333D01*
X49730819Y-21915333D02*
X49730819Y-22010571D01*
X49730819Y-22010571D02*
X49683200Y-22153428D01*
X49683200Y-22153428D02*
X49587961Y-22248666D01*
X49587961Y-22248666D02*
X49492723Y-22296285D01*
X49492723Y-22296285D02*
X49302247Y-22343904D01*
X49302247Y-22343904D02*
X49159390Y-22343904D01*
X49159390Y-22343904D02*
X48968914Y-22296285D01*
X48968914Y-22296285D02*
X48873676Y-22248666D01*
X48873676Y-22248666D02*
X48778438Y-22153428D01*
X48778438Y-22153428D02*
X48730819Y-22010571D01*
X48730819Y-22010571D02*
X48730819Y-21915333D01*
X48730819Y-21915333D02*
X48778438Y-21772476D01*
X48778438Y-21772476D02*
X48826057Y-21724857D01*
X49730819Y-20772476D02*
X49730819Y-21343904D01*
X49730819Y-21058190D02*
X48730819Y-21058190D01*
X48730819Y-21058190D02*
X48873676Y-21153428D01*
X48873676Y-21153428D02*
X48968914Y-21248666D01*
X48968914Y-21248666D02*
X49016533Y-21343904D01*
X49159390Y-20201047D02*
X49111771Y-20296285D01*
X49111771Y-20296285D02*
X49064152Y-20343904D01*
X49064152Y-20343904D02*
X48968914Y-20391523D01*
X48968914Y-20391523D02*
X48921295Y-20391523D01*
X48921295Y-20391523D02*
X48826057Y-20343904D01*
X48826057Y-20343904D02*
X48778438Y-20296285D01*
X48778438Y-20296285D02*
X48730819Y-20201047D01*
X48730819Y-20201047D02*
X48730819Y-20010571D01*
X48730819Y-20010571D02*
X48778438Y-19915333D01*
X48778438Y-19915333D02*
X48826057Y-19867714D01*
X48826057Y-19867714D02*
X48921295Y-19820095D01*
X48921295Y-19820095D02*
X48968914Y-19820095D01*
X48968914Y-19820095D02*
X49064152Y-19867714D01*
X49064152Y-19867714D02*
X49111771Y-19915333D01*
X49111771Y-19915333D02*
X49159390Y-20010571D01*
X49159390Y-20010571D02*
X49159390Y-20201047D01*
X49159390Y-20201047D02*
X49207009Y-20296285D01*
X49207009Y-20296285D02*
X49254628Y-20343904D01*
X49254628Y-20343904D02*
X49349866Y-20391523D01*
X49349866Y-20391523D02*
X49540342Y-20391523D01*
X49540342Y-20391523D02*
X49635580Y-20343904D01*
X49635580Y-20343904D02*
X49683200Y-20296285D01*
X49683200Y-20296285D02*
X49730819Y-20201047D01*
X49730819Y-20201047D02*
X49730819Y-20010571D01*
X49730819Y-20010571D02*
X49683200Y-19915333D01*
X49683200Y-19915333D02*
X49635580Y-19867714D01*
X49635580Y-19867714D02*
X49540342Y-19820095D01*
X49540342Y-19820095D02*
X49349866Y-19820095D01*
X49349866Y-19820095D02*
X49254628Y-19867714D01*
X49254628Y-19867714D02*
X49207009Y-19915333D01*
X49207009Y-19915333D02*
X49159390Y-20010571D01*
X42015580Y-23407666D02*
X42063200Y-23455285D01*
X42063200Y-23455285D02*
X42110819Y-23598142D01*
X42110819Y-23598142D02*
X42110819Y-23693380D01*
X42110819Y-23693380D02*
X42063200Y-23836237D01*
X42063200Y-23836237D02*
X41967961Y-23931475D01*
X41967961Y-23931475D02*
X41872723Y-23979094D01*
X41872723Y-23979094D02*
X41682247Y-24026713D01*
X41682247Y-24026713D02*
X41539390Y-24026713D01*
X41539390Y-24026713D02*
X41348914Y-23979094D01*
X41348914Y-23979094D02*
X41253676Y-23931475D01*
X41253676Y-23931475D02*
X41158438Y-23836237D01*
X41158438Y-23836237D02*
X41110819Y-23693380D01*
X41110819Y-23693380D02*
X41110819Y-23598142D01*
X41110819Y-23598142D02*
X41158438Y-23455285D01*
X41158438Y-23455285D02*
X41206057Y-23407666D01*
X42110819Y-22455285D02*
X42110819Y-23026713D01*
X42110819Y-22740999D02*
X41110819Y-22740999D01*
X41110819Y-22740999D02*
X41253676Y-22836237D01*
X41253676Y-22836237D02*
X41348914Y-22931475D01*
X41348914Y-22931475D02*
X41396533Y-23026713D01*
X54189333Y-28775819D02*
X53856000Y-28299628D01*
X53617905Y-28775819D02*
X53617905Y-27775819D01*
X53617905Y-27775819D02*
X53998857Y-27775819D01*
X53998857Y-27775819D02*
X54094095Y-27823438D01*
X54094095Y-27823438D02*
X54141714Y-27871057D01*
X54141714Y-27871057D02*
X54189333Y-27966295D01*
X54189333Y-27966295D02*
X54189333Y-28109152D01*
X54189333Y-28109152D02*
X54141714Y-28204390D01*
X54141714Y-28204390D02*
X54094095Y-28252009D01*
X54094095Y-28252009D02*
X53998857Y-28299628D01*
X53998857Y-28299628D02*
X53617905Y-28299628D01*
X54760762Y-28204390D02*
X54665524Y-28156771D01*
X54665524Y-28156771D02*
X54617905Y-28109152D01*
X54617905Y-28109152D02*
X54570286Y-28013914D01*
X54570286Y-28013914D02*
X54570286Y-27966295D01*
X54570286Y-27966295D02*
X54617905Y-27871057D01*
X54617905Y-27871057D02*
X54665524Y-27823438D01*
X54665524Y-27823438D02*
X54760762Y-27775819D01*
X54760762Y-27775819D02*
X54951238Y-27775819D01*
X54951238Y-27775819D02*
X55046476Y-27823438D01*
X55046476Y-27823438D02*
X55094095Y-27871057D01*
X55094095Y-27871057D02*
X55141714Y-27966295D01*
X55141714Y-27966295D02*
X55141714Y-28013914D01*
X55141714Y-28013914D02*
X55094095Y-28109152D01*
X55094095Y-28109152D02*
X55046476Y-28156771D01*
X55046476Y-28156771D02*
X54951238Y-28204390D01*
X54951238Y-28204390D02*
X54760762Y-28204390D01*
X54760762Y-28204390D02*
X54665524Y-28252009D01*
X54665524Y-28252009D02*
X54617905Y-28299628D01*
X54617905Y-28299628D02*
X54570286Y-28394866D01*
X54570286Y-28394866D02*
X54570286Y-28585342D01*
X54570286Y-28585342D02*
X54617905Y-28680580D01*
X54617905Y-28680580D02*
X54665524Y-28728200D01*
X54665524Y-28728200D02*
X54760762Y-28775819D01*
X54760762Y-28775819D02*
X54951238Y-28775819D01*
X54951238Y-28775819D02*
X55046476Y-28728200D01*
X55046476Y-28728200D02*
X55094095Y-28680580D01*
X55094095Y-28680580D02*
X55141714Y-28585342D01*
X55141714Y-28585342D02*
X55141714Y-28394866D01*
X55141714Y-28394866D02*
X55094095Y-28299628D01*
X55094095Y-28299628D02*
X55046476Y-28252009D01*
X55046476Y-28252009D02*
X54951238Y-28204390D01*
X24122142Y-17885580D02*
X24074523Y-17933200D01*
X24074523Y-17933200D02*
X23931666Y-17980819D01*
X23931666Y-17980819D02*
X23836428Y-17980819D01*
X23836428Y-17980819D02*
X23693571Y-17933200D01*
X23693571Y-17933200D02*
X23598333Y-17837961D01*
X23598333Y-17837961D02*
X23550714Y-17742723D01*
X23550714Y-17742723D02*
X23503095Y-17552247D01*
X23503095Y-17552247D02*
X23503095Y-17409390D01*
X23503095Y-17409390D02*
X23550714Y-17218914D01*
X23550714Y-17218914D02*
X23598333Y-17123676D01*
X23598333Y-17123676D02*
X23693571Y-17028438D01*
X23693571Y-17028438D02*
X23836428Y-16980819D01*
X23836428Y-16980819D02*
X23931666Y-16980819D01*
X23931666Y-16980819D02*
X24074523Y-17028438D01*
X24074523Y-17028438D02*
X24122142Y-17076057D01*
X25074523Y-17980819D02*
X24503095Y-17980819D01*
X24788809Y-17980819D02*
X24788809Y-16980819D01*
X24788809Y-16980819D02*
X24693571Y-17123676D01*
X24693571Y-17123676D02*
X24598333Y-17218914D01*
X24598333Y-17218914D02*
X24503095Y-17266533D01*
X25550714Y-17980819D02*
X25741190Y-17980819D01*
X25741190Y-17980819D02*
X25836428Y-17933200D01*
X25836428Y-17933200D02*
X25884047Y-17885580D01*
X25884047Y-17885580D02*
X25979285Y-17742723D01*
X25979285Y-17742723D02*
X26026904Y-17552247D01*
X26026904Y-17552247D02*
X26026904Y-17171295D01*
X26026904Y-17171295D02*
X25979285Y-17076057D01*
X25979285Y-17076057D02*
X25931666Y-17028438D01*
X25931666Y-17028438D02*
X25836428Y-16980819D01*
X25836428Y-16980819D02*
X25645952Y-16980819D01*
X25645952Y-16980819D02*
X25550714Y-17028438D01*
X25550714Y-17028438D02*
X25503095Y-17076057D01*
X25503095Y-17076057D02*
X25455476Y-17171295D01*
X25455476Y-17171295D02*
X25455476Y-17409390D01*
X25455476Y-17409390D02*
X25503095Y-17504628D01*
X25503095Y-17504628D02*
X25550714Y-17552247D01*
X25550714Y-17552247D02*
X25645952Y-17599866D01*
X25645952Y-17599866D02*
X25836428Y-17599866D01*
X25836428Y-17599866D02*
X25931666Y-17552247D01*
X25931666Y-17552247D02*
X25979285Y-17504628D01*
X25979285Y-17504628D02*
X26026904Y-17409390D01*
X56080819Y-17311666D02*
X55604628Y-17644999D01*
X56080819Y-17883094D02*
X55080819Y-17883094D01*
X55080819Y-17883094D02*
X55080819Y-17502142D01*
X55080819Y-17502142D02*
X55128438Y-17406904D01*
X55128438Y-17406904D02*
X55176057Y-17359285D01*
X55176057Y-17359285D02*
X55271295Y-17311666D01*
X55271295Y-17311666D02*
X55414152Y-17311666D01*
X55414152Y-17311666D02*
X55509390Y-17359285D01*
X55509390Y-17359285D02*
X55557009Y-17406904D01*
X55557009Y-17406904D02*
X55604628Y-17502142D01*
X55604628Y-17502142D02*
X55604628Y-17883094D01*
X55080819Y-16978332D02*
X55080819Y-16359285D01*
X55080819Y-16359285D02*
X55461771Y-16692618D01*
X55461771Y-16692618D02*
X55461771Y-16549761D01*
X55461771Y-16549761D02*
X55509390Y-16454523D01*
X55509390Y-16454523D02*
X55557009Y-16406904D01*
X55557009Y-16406904D02*
X55652247Y-16359285D01*
X55652247Y-16359285D02*
X55890342Y-16359285D01*
X55890342Y-16359285D02*
X55985580Y-16406904D01*
X55985580Y-16406904D02*
X56033200Y-16454523D01*
X56033200Y-16454523D02*
X56080819Y-16549761D01*
X56080819Y-16549761D02*
X56080819Y-16835475D01*
X56080819Y-16835475D02*
X56033200Y-16930713D01*
X56033200Y-16930713D02*
X55985580Y-16978332D01*
X53699580Y-17152857D02*
X53747200Y-17200476D01*
X53747200Y-17200476D02*
X53794819Y-17343333D01*
X53794819Y-17343333D02*
X53794819Y-17438571D01*
X53794819Y-17438571D02*
X53747200Y-17581428D01*
X53747200Y-17581428D02*
X53651961Y-17676666D01*
X53651961Y-17676666D02*
X53556723Y-17724285D01*
X53556723Y-17724285D02*
X53366247Y-17771904D01*
X53366247Y-17771904D02*
X53223390Y-17771904D01*
X53223390Y-17771904D02*
X53032914Y-17724285D01*
X53032914Y-17724285D02*
X52937676Y-17676666D01*
X52937676Y-17676666D02*
X52842438Y-17581428D01*
X52842438Y-17581428D02*
X52794819Y-17438571D01*
X52794819Y-17438571D02*
X52794819Y-17343333D01*
X52794819Y-17343333D02*
X52842438Y-17200476D01*
X52842438Y-17200476D02*
X52890057Y-17152857D01*
X53794819Y-16200476D02*
X53794819Y-16771904D01*
X53794819Y-16486190D02*
X52794819Y-16486190D01*
X52794819Y-16486190D02*
X52937676Y-16581428D01*
X52937676Y-16581428D02*
X53032914Y-16676666D01*
X53032914Y-16676666D02*
X53080533Y-16771904D01*
X52794819Y-15867142D02*
X52794819Y-15200476D01*
X52794819Y-15200476D02*
X53794819Y-15629047D01*
X15126642Y-25407580D02*
X15079023Y-25455200D01*
X15079023Y-25455200D02*
X14936166Y-25502819D01*
X14936166Y-25502819D02*
X14840928Y-25502819D01*
X14840928Y-25502819D02*
X14698071Y-25455200D01*
X14698071Y-25455200D02*
X14602833Y-25359961D01*
X14602833Y-25359961D02*
X14555214Y-25264723D01*
X14555214Y-25264723D02*
X14507595Y-25074247D01*
X14507595Y-25074247D02*
X14507595Y-24931390D01*
X14507595Y-24931390D02*
X14555214Y-24740914D01*
X14555214Y-24740914D02*
X14602833Y-24645676D01*
X14602833Y-24645676D02*
X14698071Y-24550438D01*
X14698071Y-24550438D02*
X14840928Y-24502819D01*
X14840928Y-24502819D02*
X14936166Y-24502819D01*
X14936166Y-24502819D02*
X15079023Y-24550438D01*
X15079023Y-24550438D02*
X15126642Y-24598057D01*
X15507595Y-24598057D02*
X15555214Y-24550438D01*
X15555214Y-24550438D02*
X15650452Y-24502819D01*
X15650452Y-24502819D02*
X15888547Y-24502819D01*
X15888547Y-24502819D02*
X15983785Y-24550438D01*
X15983785Y-24550438D02*
X16031404Y-24598057D01*
X16031404Y-24598057D02*
X16079023Y-24693295D01*
X16079023Y-24693295D02*
X16079023Y-24788533D01*
X16079023Y-24788533D02*
X16031404Y-24931390D01*
X16031404Y-24931390D02*
X15459976Y-25502819D01*
X15459976Y-25502819D02*
X16079023Y-25502819D01*
X16698071Y-24502819D02*
X16793309Y-24502819D01*
X16793309Y-24502819D02*
X16888547Y-24550438D01*
X16888547Y-24550438D02*
X16936166Y-24598057D01*
X16936166Y-24598057D02*
X16983785Y-24693295D01*
X16983785Y-24693295D02*
X17031404Y-24883771D01*
X17031404Y-24883771D02*
X17031404Y-25121866D01*
X17031404Y-25121866D02*
X16983785Y-25312342D01*
X16983785Y-25312342D02*
X16936166Y-25407580D01*
X16936166Y-25407580D02*
X16888547Y-25455200D01*
X16888547Y-25455200D02*
X16793309Y-25502819D01*
X16793309Y-25502819D02*
X16698071Y-25502819D01*
X16698071Y-25502819D02*
X16602833Y-25455200D01*
X16602833Y-25455200D02*
X16555214Y-25407580D01*
X16555214Y-25407580D02*
X16507595Y-25312342D01*
X16507595Y-25312342D02*
X16459976Y-25121866D01*
X16459976Y-25121866D02*
X16459976Y-24883771D01*
X16459976Y-24883771D02*
X16507595Y-24693295D01*
X16507595Y-24693295D02*
X16555214Y-24598057D01*
X16555214Y-24598057D02*
X16602833Y-24550438D01*
X16602833Y-24550438D02*
X16698071Y-24502819D01*
X17404595Y-26155819D02*
X17404595Y-26965342D01*
X17404595Y-26965342D02*
X17452214Y-27060580D01*
X17452214Y-27060580D02*
X17499833Y-27108200D01*
X17499833Y-27108200D02*
X17595071Y-27155819D01*
X17595071Y-27155819D02*
X17785547Y-27155819D01*
X17785547Y-27155819D02*
X17880785Y-27108200D01*
X17880785Y-27108200D02*
X17928404Y-27060580D01*
X17928404Y-27060580D02*
X17976023Y-26965342D01*
X17976023Y-26965342D02*
X17976023Y-26155819D01*
X18356976Y-26155819D02*
X18976023Y-26155819D01*
X18976023Y-26155819D02*
X18642690Y-26536771D01*
X18642690Y-26536771D02*
X18785547Y-26536771D01*
X18785547Y-26536771D02*
X18880785Y-26584390D01*
X18880785Y-26584390D02*
X18928404Y-26632009D01*
X18928404Y-26632009D02*
X18976023Y-26727247D01*
X18976023Y-26727247D02*
X18976023Y-26965342D01*
X18976023Y-26965342D02*
X18928404Y-27060580D01*
X18928404Y-27060580D02*
X18880785Y-27108200D01*
X18880785Y-27108200D02*
X18785547Y-27155819D01*
X18785547Y-27155819D02*
X18499833Y-27155819D01*
X18499833Y-27155819D02*
X18404595Y-27108200D01*
X18404595Y-27108200D02*
X18356976Y-27060580D01*
X23854580Y-29577357D02*
X23902200Y-29624976D01*
X23902200Y-29624976D02*
X23949819Y-29767833D01*
X23949819Y-29767833D02*
X23949819Y-29863071D01*
X23949819Y-29863071D02*
X23902200Y-30005928D01*
X23902200Y-30005928D02*
X23806961Y-30101166D01*
X23806961Y-30101166D02*
X23711723Y-30148785D01*
X23711723Y-30148785D02*
X23521247Y-30196404D01*
X23521247Y-30196404D02*
X23378390Y-30196404D01*
X23378390Y-30196404D02*
X23187914Y-30148785D01*
X23187914Y-30148785D02*
X23092676Y-30101166D01*
X23092676Y-30101166D02*
X22997438Y-30005928D01*
X22997438Y-30005928D02*
X22949819Y-29863071D01*
X22949819Y-29863071D02*
X22949819Y-29767833D01*
X22949819Y-29767833D02*
X22997438Y-29624976D01*
X22997438Y-29624976D02*
X23045057Y-29577357D01*
X23949819Y-28624976D02*
X23949819Y-29196404D01*
X23949819Y-28910690D02*
X22949819Y-28910690D01*
X22949819Y-28910690D02*
X23092676Y-29005928D01*
X23092676Y-29005928D02*
X23187914Y-29101166D01*
X23187914Y-29101166D02*
X23235533Y-29196404D01*
X23283152Y-27767833D02*
X23949819Y-27767833D01*
X22902200Y-28005928D02*
X23616485Y-28244023D01*
X23616485Y-28244023D02*
X23616485Y-27624976D01*
X60017819Y-27471666D02*
X59541628Y-27804999D01*
X60017819Y-28043094D02*
X59017819Y-28043094D01*
X59017819Y-28043094D02*
X59017819Y-27662142D01*
X59017819Y-27662142D02*
X59065438Y-27566904D01*
X59065438Y-27566904D02*
X59113057Y-27519285D01*
X59113057Y-27519285D02*
X59208295Y-27471666D01*
X59208295Y-27471666D02*
X59351152Y-27471666D01*
X59351152Y-27471666D02*
X59446390Y-27519285D01*
X59446390Y-27519285D02*
X59494009Y-27566904D01*
X59494009Y-27566904D02*
X59541628Y-27662142D01*
X59541628Y-27662142D02*
X59541628Y-28043094D01*
X59017819Y-26566904D02*
X59017819Y-27043094D01*
X59017819Y-27043094D02*
X59494009Y-27090713D01*
X59494009Y-27090713D02*
X59446390Y-27043094D01*
X59446390Y-27043094D02*
X59398771Y-26947856D01*
X59398771Y-26947856D02*
X59398771Y-26709761D01*
X59398771Y-26709761D02*
X59446390Y-26614523D01*
X59446390Y-26614523D02*
X59494009Y-26566904D01*
X59494009Y-26566904D02*
X59589247Y-26519285D01*
X59589247Y-26519285D02*
X59827342Y-26519285D01*
X59827342Y-26519285D02*
X59922580Y-26566904D01*
X59922580Y-26566904D02*
X59970200Y-26614523D01*
X59970200Y-26614523D02*
X60017819Y-26709761D01*
X60017819Y-26709761D02*
X60017819Y-26947856D01*
X60017819Y-26947856D02*
X59970200Y-27043094D01*
X59970200Y-27043094D02*
X59922580Y-27090713D01*
X37092190Y-41237819D02*
X37758856Y-42237819D01*
X37758856Y-41237819D02*
X37092190Y-42237819D01*
X37996952Y-41237819D02*
X38568380Y-41237819D01*
X38282666Y-42237819D02*
X38282666Y-41237819D01*
X38854095Y-41952104D02*
X39330285Y-41952104D01*
X38758857Y-42237819D02*
X39092190Y-41237819D01*
X39092190Y-41237819D02*
X39425523Y-42237819D01*
X40235047Y-42237819D02*
X39758857Y-42237819D01*
X39758857Y-42237819D02*
X39758857Y-41237819D01*
X41092190Y-42237819D02*
X40520762Y-42237819D01*
X40806476Y-42237819D02*
X40806476Y-41237819D01*
X40806476Y-41237819D02*
X40711238Y-41380676D01*
X40711238Y-41380676D02*
X40616000Y-41475914D01*
X40616000Y-41475914D02*
X40520762Y-41523533D01*
X33617819Y-33908904D02*
X34427342Y-33908904D01*
X34427342Y-33908904D02*
X34522580Y-33861285D01*
X34522580Y-33861285D02*
X34570200Y-33813666D01*
X34570200Y-33813666D02*
X34617819Y-33718428D01*
X34617819Y-33718428D02*
X34617819Y-33527952D01*
X34617819Y-33527952D02*
X34570200Y-33432714D01*
X34570200Y-33432714D02*
X34522580Y-33385095D01*
X34522580Y-33385095D02*
X34427342Y-33337476D01*
X34427342Y-33337476D02*
X33617819Y-33337476D01*
X34617819Y-32337476D02*
X34617819Y-32908904D01*
X34617819Y-32623190D02*
X33617819Y-32623190D01*
X33617819Y-32623190D02*
X33760676Y-32718428D01*
X33760676Y-32718428D02*
X33855914Y-32813666D01*
X33855914Y-32813666D02*
X33903533Y-32908904D01*
X60144819Y-17311666D02*
X59668628Y-17644999D01*
X60144819Y-17883094D02*
X59144819Y-17883094D01*
X59144819Y-17883094D02*
X59144819Y-17502142D01*
X59144819Y-17502142D02*
X59192438Y-17406904D01*
X59192438Y-17406904D02*
X59240057Y-17359285D01*
X59240057Y-17359285D02*
X59335295Y-17311666D01*
X59335295Y-17311666D02*
X59478152Y-17311666D01*
X59478152Y-17311666D02*
X59573390Y-17359285D01*
X59573390Y-17359285D02*
X59621009Y-17406904D01*
X59621009Y-17406904D02*
X59668628Y-17502142D01*
X59668628Y-17502142D02*
X59668628Y-17883094D01*
X59144819Y-16454523D02*
X59144819Y-16644999D01*
X59144819Y-16644999D02*
X59192438Y-16740237D01*
X59192438Y-16740237D02*
X59240057Y-16787856D01*
X59240057Y-16787856D02*
X59382914Y-16883094D01*
X59382914Y-16883094D02*
X59573390Y-16930713D01*
X59573390Y-16930713D02*
X59954342Y-16930713D01*
X59954342Y-16930713D02*
X60049580Y-16883094D01*
X60049580Y-16883094D02*
X60097200Y-16835475D01*
X60097200Y-16835475D02*
X60144819Y-16740237D01*
X60144819Y-16740237D02*
X60144819Y-16549761D01*
X60144819Y-16549761D02*
X60097200Y-16454523D01*
X60097200Y-16454523D02*
X60049580Y-16406904D01*
X60049580Y-16406904D02*
X59954342Y-16359285D01*
X59954342Y-16359285D02*
X59716247Y-16359285D01*
X59716247Y-16359285D02*
X59621009Y-16406904D01*
X59621009Y-16406904D02*
X59573390Y-16454523D01*
X59573390Y-16454523D02*
X59525771Y-16549761D01*
X59525771Y-16549761D02*
X59525771Y-16740237D01*
X59525771Y-16740237D02*
X59573390Y-16835475D01*
X59573390Y-16835475D02*
X59621009Y-16883094D01*
X59621009Y-16883094D02*
X59716247Y-16930713D01*
X52197095Y-48603819D02*
X52197095Y-49413342D01*
X52197095Y-49413342D02*
X52244714Y-49508580D01*
X52244714Y-49508580D02*
X52292333Y-49556200D01*
X52292333Y-49556200D02*
X52387571Y-49603819D01*
X52387571Y-49603819D02*
X52578047Y-49603819D01*
X52578047Y-49603819D02*
X52673285Y-49556200D01*
X52673285Y-49556200D02*
X52720904Y-49508580D01*
X52720904Y-49508580D02*
X52768523Y-49413342D01*
X52768523Y-49413342D02*
X52768523Y-48603819D01*
X53673285Y-48603819D02*
X53482809Y-48603819D01*
X53482809Y-48603819D02*
X53387571Y-48651438D01*
X53387571Y-48651438D02*
X53339952Y-48699057D01*
X53339952Y-48699057D02*
X53244714Y-48841914D01*
X53244714Y-48841914D02*
X53197095Y-49032390D01*
X53197095Y-49032390D02*
X53197095Y-49413342D01*
X53197095Y-49413342D02*
X53244714Y-49508580D01*
X53244714Y-49508580D02*
X53292333Y-49556200D01*
X53292333Y-49556200D02*
X53387571Y-49603819D01*
X53387571Y-49603819D02*
X53578047Y-49603819D01*
X53578047Y-49603819D02*
X53673285Y-49556200D01*
X53673285Y-49556200D02*
X53720904Y-49508580D01*
X53720904Y-49508580D02*
X53768523Y-49413342D01*
X53768523Y-49413342D02*
X53768523Y-49175247D01*
X53768523Y-49175247D02*
X53720904Y-49080009D01*
X53720904Y-49080009D02*
X53673285Y-49032390D01*
X53673285Y-49032390D02*
X53578047Y-48984771D01*
X53578047Y-48984771D02*
X53387571Y-48984771D01*
X53387571Y-48984771D02*
X53292333Y-49032390D01*
X53292333Y-49032390D02*
X53244714Y-49080009D01*
X53244714Y-49080009D02*
X53197095Y-49175247D01*
X49650650Y-41110819D02*
X49650650Y-41348914D01*
X49412555Y-41253676D02*
X49650650Y-41348914D01*
X49650650Y-41348914D02*
X49888745Y-41253676D01*
X49507793Y-41539390D02*
X49650650Y-41348914D01*
X49650650Y-41348914D02*
X49793507Y-41539390D01*
X49650650Y-41110819D02*
X49650650Y-41348914D01*
X49412555Y-41253676D02*
X49650650Y-41348914D01*
X49650650Y-41348914D02*
X49888745Y-41253676D01*
X49507793Y-41539390D02*
X49650650Y-41348914D01*
X49650650Y-41348914D02*
X49793507Y-41539390D01*
X25995333Y-33728819D02*
X25519143Y-33728819D01*
X25519143Y-33728819D02*
X25519143Y-32728819D01*
X26852476Y-33728819D02*
X26281048Y-33728819D01*
X26566762Y-33728819D02*
X26566762Y-32728819D01*
X26566762Y-32728819D02*
X26471524Y-32871676D01*
X26471524Y-32871676D02*
X26376286Y-32966914D01*
X26376286Y-32966914D02*
X26281048Y-33014533D01*
X27497833Y-37697580D02*
X27450214Y-37745200D01*
X27450214Y-37745200D02*
X27307357Y-37792819D01*
X27307357Y-37792819D02*
X27212119Y-37792819D01*
X27212119Y-37792819D02*
X27069262Y-37745200D01*
X27069262Y-37745200D02*
X26974024Y-37649961D01*
X26974024Y-37649961D02*
X26926405Y-37554723D01*
X26926405Y-37554723D02*
X26878786Y-37364247D01*
X26878786Y-37364247D02*
X26878786Y-37221390D01*
X26878786Y-37221390D02*
X26926405Y-37030914D01*
X26926405Y-37030914D02*
X26974024Y-36935676D01*
X26974024Y-36935676D02*
X27069262Y-36840438D01*
X27069262Y-36840438D02*
X27212119Y-36792819D01*
X27212119Y-36792819D02*
X27307357Y-36792819D01*
X27307357Y-36792819D02*
X27450214Y-36840438D01*
X27450214Y-36840438D02*
X27497833Y-36888057D01*
X28069262Y-37221390D02*
X27974024Y-37173771D01*
X27974024Y-37173771D02*
X27926405Y-37126152D01*
X27926405Y-37126152D02*
X27878786Y-37030914D01*
X27878786Y-37030914D02*
X27878786Y-36983295D01*
X27878786Y-36983295D02*
X27926405Y-36888057D01*
X27926405Y-36888057D02*
X27974024Y-36840438D01*
X27974024Y-36840438D02*
X28069262Y-36792819D01*
X28069262Y-36792819D02*
X28259738Y-36792819D01*
X28259738Y-36792819D02*
X28354976Y-36840438D01*
X28354976Y-36840438D02*
X28402595Y-36888057D01*
X28402595Y-36888057D02*
X28450214Y-36983295D01*
X28450214Y-36983295D02*
X28450214Y-37030914D01*
X28450214Y-37030914D02*
X28402595Y-37126152D01*
X28402595Y-37126152D02*
X28354976Y-37173771D01*
X28354976Y-37173771D02*
X28259738Y-37221390D01*
X28259738Y-37221390D02*
X28069262Y-37221390D01*
X28069262Y-37221390D02*
X27974024Y-37269009D01*
X27974024Y-37269009D02*
X27926405Y-37316628D01*
X27926405Y-37316628D02*
X27878786Y-37411866D01*
X27878786Y-37411866D02*
X27878786Y-37602342D01*
X27878786Y-37602342D02*
X27926405Y-37697580D01*
X27926405Y-37697580D02*
X27974024Y-37745200D01*
X27974024Y-37745200D02*
X28069262Y-37792819D01*
X28069262Y-37792819D02*
X28259738Y-37792819D01*
X28259738Y-37792819D02*
X28354976Y-37745200D01*
X28354976Y-37745200D02*
X28402595Y-37697580D01*
X28402595Y-37697580D02*
X28450214Y-37602342D01*
X28450214Y-37602342D02*
X28450214Y-37411866D01*
X28450214Y-37411866D02*
X28402595Y-37316628D01*
X28402595Y-37316628D02*
X28354976Y-37269009D01*
X28354976Y-37269009D02*
X28259738Y-37221390D01*
X32265580Y-30371166D02*
X32313200Y-30418785D01*
X32313200Y-30418785D02*
X32360819Y-30561642D01*
X32360819Y-30561642D02*
X32360819Y-30656880D01*
X32360819Y-30656880D02*
X32313200Y-30799737D01*
X32313200Y-30799737D02*
X32217961Y-30894975D01*
X32217961Y-30894975D02*
X32122723Y-30942594D01*
X32122723Y-30942594D02*
X31932247Y-30990213D01*
X31932247Y-30990213D02*
X31789390Y-30990213D01*
X31789390Y-30990213D02*
X31598914Y-30942594D01*
X31598914Y-30942594D02*
X31503676Y-30894975D01*
X31503676Y-30894975D02*
X31408438Y-30799737D01*
X31408438Y-30799737D02*
X31360819Y-30656880D01*
X31360819Y-30656880D02*
X31360819Y-30561642D01*
X31360819Y-30561642D02*
X31408438Y-30418785D01*
X31408438Y-30418785D02*
X31456057Y-30371166D01*
X32360819Y-29894975D02*
X32360819Y-29704499D01*
X32360819Y-29704499D02*
X32313200Y-29609261D01*
X32313200Y-29609261D02*
X32265580Y-29561642D01*
X32265580Y-29561642D02*
X32122723Y-29466404D01*
X32122723Y-29466404D02*
X31932247Y-29418785D01*
X31932247Y-29418785D02*
X31551295Y-29418785D01*
X31551295Y-29418785D02*
X31456057Y-29466404D01*
X31456057Y-29466404D02*
X31408438Y-29514023D01*
X31408438Y-29514023D02*
X31360819Y-29609261D01*
X31360819Y-29609261D02*
X31360819Y-29799737D01*
X31360819Y-29799737D02*
X31408438Y-29894975D01*
X31408438Y-29894975D02*
X31456057Y-29942594D01*
X31456057Y-29942594D02*
X31551295Y-29990213D01*
X31551295Y-29990213D02*
X31789390Y-29990213D01*
X31789390Y-29990213D02*
X31884628Y-29942594D01*
X31884628Y-29942594D02*
X31932247Y-29894975D01*
X31932247Y-29894975D02*
X31979866Y-29799737D01*
X31979866Y-29799737D02*
X31979866Y-29609261D01*
X31979866Y-29609261D02*
X31932247Y-29514023D01*
X31932247Y-29514023D02*
X31884628Y-29466404D01*
X31884628Y-29466404D02*
X31789390Y-29418785D01*
X36427580Y-40425666D02*
X36475200Y-40473285D01*
X36475200Y-40473285D02*
X36522819Y-40616142D01*
X36522819Y-40616142D02*
X36522819Y-40711380D01*
X36522819Y-40711380D02*
X36475200Y-40854237D01*
X36475200Y-40854237D02*
X36379961Y-40949475D01*
X36379961Y-40949475D02*
X36284723Y-40997094D01*
X36284723Y-40997094D02*
X36094247Y-41044713D01*
X36094247Y-41044713D02*
X35951390Y-41044713D01*
X35951390Y-41044713D02*
X35760914Y-40997094D01*
X35760914Y-40997094D02*
X35665676Y-40949475D01*
X35665676Y-40949475D02*
X35570438Y-40854237D01*
X35570438Y-40854237D02*
X35522819Y-40711380D01*
X35522819Y-40711380D02*
X35522819Y-40616142D01*
X35522819Y-40616142D02*
X35570438Y-40473285D01*
X35570438Y-40473285D02*
X35618057Y-40425666D01*
X35522819Y-39568523D02*
X35522819Y-39758999D01*
X35522819Y-39758999D02*
X35570438Y-39854237D01*
X35570438Y-39854237D02*
X35618057Y-39901856D01*
X35618057Y-39901856D02*
X35760914Y-39997094D01*
X35760914Y-39997094D02*
X35951390Y-40044713D01*
X35951390Y-40044713D02*
X36332342Y-40044713D01*
X36332342Y-40044713D02*
X36427580Y-39997094D01*
X36427580Y-39997094D02*
X36475200Y-39949475D01*
X36475200Y-39949475D02*
X36522819Y-39854237D01*
X36522819Y-39854237D02*
X36522819Y-39663761D01*
X36522819Y-39663761D02*
X36475200Y-39568523D01*
X36475200Y-39568523D02*
X36427580Y-39520904D01*
X36427580Y-39520904D02*
X36332342Y-39473285D01*
X36332342Y-39473285D02*
X36094247Y-39473285D01*
X36094247Y-39473285D02*
X35999009Y-39520904D01*
X35999009Y-39520904D02*
X35951390Y-39568523D01*
X35951390Y-39568523D02*
X35903771Y-39663761D01*
X35903771Y-39663761D02*
X35903771Y-39854237D01*
X35903771Y-39854237D02*
X35951390Y-39949475D01*
X35951390Y-39949475D02*
X35999009Y-39997094D01*
X35999009Y-39997094D02*
X36094247Y-40044713D01*
X15820819Y-40060666D02*
X15344628Y-40393999D01*
X15820819Y-40632094D02*
X14820819Y-40632094D01*
X14820819Y-40632094D02*
X14820819Y-40251142D01*
X14820819Y-40251142D02*
X14868438Y-40155904D01*
X14868438Y-40155904D02*
X14916057Y-40108285D01*
X14916057Y-40108285D02*
X15011295Y-40060666D01*
X15011295Y-40060666D02*
X15154152Y-40060666D01*
X15154152Y-40060666D02*
X15249390Y-40108285D01*
X15249390Y-40108285D02*
X15297009Y-40155904D01*
X15297009Y-40155904D02*
X15344628Y-40251142D01*
X15344628Y-40251142D02*
X15344628Y-40632094D01*
X14820819Y-39727332D02*
X14820819Y-39060666D01*
X14820819Y-39060666D02*
X15820819Y-39489237D01*
X25138142Y-15694819D02*
X24804809Y-15218628D01*
X24566714Y-15694819D02*
X24566714Y-14694819D01*
X24566714Y-14694819D02*
X24947666Y-14694819D01*
X24947666Y-14694819D02*
X25042904Y-14742438D01*
X25042904Y-14742438D02*
X25090523Y-14790057D01*
X25090523Y-14790057D02*
X25138142Y-14885295D01*
X25138142Y-14885295D02*
X25138142Y-15028152D01*
X25138142Y-15028152D02*
X25090523Y-15123390D01*
X25090523Y-15123390D02*
X25042904Y-15171009D01*
X25042904Y-15171009D02*
X24947666Y-15218628D01*
X24947666Y-15218628D02*
X24566714Y-15218628D01*
X26090523Y-15694819D02*
X25519095Y-15694819D01*
X25804809Y-15694819D02*
X25804809Y-14694819D01*
X25804809Y-14694819D02*
X25709571Y-14837676D01*
X25709571Y-14837676D02*
X25614333Y-14932914D01*
X25614333Y-14932914D02*
X25519095Y-14980533D01*
X26709571Y-14694819D02*
X26804809Y-14694819D01*
X26804809Y-14694819D02*
X26900047Y-14742438D01*
X26900047Y-14742438D02*
X26947666Y-14790057D01*
X26947666Y-14790057D02*
X26995285Y-14885295D01*
X26995285Y-14885295D02*
X27042904Y-15075771D01*
X27042904Y-15075771D02*
X27042904Y-15313866D01*
X27042904Y-15313866D02*
X26995285Y-15504342D01*
X26995285Y-15504342D02*
X26947666Y-15599580D01*
X26947666Y-15599580D02*
X26900047Y-15647200D01*
X26900047Y-15647200D02*
X26804809Y-15694819D01*
X26804809Y-15694819D02*
X26709571Y-15694819D01*
X26709571Y-15694819D02*
X26614333Y-15647200D01*
X26614333Y-15647200D02*
X26566714Y-15599580D01*
X26566714Y-15599580D02*
X26519095Y-15504342D01*
X26519095Y-15504342D02*
X26471476Y-15313866D01*
X26471476Y-15313866D02*
X26471476Y-15075771D01*
X26471476Y-15075771D02*
X26519095Y-14885295D01*
X26519095Y-14885295D02*
X26566714Y-14790057D01*
X26566714Y-14790057D02*
X26614333Y-14742438D01*
X26614333Y-14742438D02*
X26709571Y-14694819D01*
X13411580Y-29577357D02*
X13459200Y-29624976D01*
X13459200Y-29624976D02*
X13506819Y-29767833D01*
X13506819Y-29767833D02*
X13506819Y-29863071D01*
X13506819Y-29863071D02*
X13459200Y-30005928D01*
X13459200Y-30005928D02*
X13363961Y-30101166D01*
X13363961Y-30101166D02*
X13268723Y-30148785D01*
X13268723Y-30148785D02*
X13078247Y-30196404D01*
X13078247Y-30196404D02*
X12935390Y-30196404D01*
X12935390Y-30196404D02*
X12744914Y-30148785D01*
X12744914Y-30148785D02*
X12649676Y-30101166D01*
X12649676Y-30101166D02*
X12554438Y-30005928D01*
X12554438Y-30005928D02*
X12506819Y-29863071D01*
X12506819Y-29863071D02*
X12506819Y-29767833D01*
X12506819Y-29767833D02*
X12554438Y-29624976D01*
X12554438Y-29624976D02*
X12602057Y-29577357D01*
X13506819Y-28624976D02*
X13506819Y-29196404D01*
X13506819Y-28910690D02*
X12506819Y-28910690D01*
X12506819Y-28910690D02*
X12649676Y-29005928D01*
X12649676Y-29005928D02*
X12744914Y-29101166D01*
X12744914Y-29101166D02*
X12792533Y-29196404D01*
X12506819Y-28291642D02*
X12506819Y-27672595D01*
X12506819Y-27672595D02*
X12887771Y-28005928D01*
X12887771Y-28005928D02*
X12887771Y-27863071D01*
X12887771Y-27863071D02*
X12935390Y-27767833D01*
X12935390Y-27767833D02*
X12983009Y-27720214D01*
X12983009Y-27720214D02*
X13078247Y-27672595D01*
X13078247Y-27672595D02*
X13316342Y-27672595D01*
X13316342Y-27672595D02*
X13411580Y-27720214D01*
X13411580Y-27720214D02*
X13459200Y-27767833D01*
X13459200Y-27767833D02*
X13506819Y-27863071D01*
X13506819Y-27863071D02*
X13506819Y-28148785D01*
X13506819Y-28148785D02*
X13459200Y-28244023D01*
X13459200Y-28244023D02*
X13411580Y-28291642D01*
D11*
%TO.C,U4*%
X23587026Y-43528474D02*
X22787026Y-43528474D01*
X23587026Y-43528474D02*
X24387026Y-43528474D01*
X23587026Y-46648474D02*
X22787026Y-46648474D01*
X23587026Y-46648474D02*
X24387026Y-46648474D01*
X22287026Y-43578474D02*
X22047026Y-43248474D01*
X22527026Y-43248474D01*
X22287026Y-43578474D01*
G36*
X22287026Y-43578474D02*
G01*
X22047026Y-43248474D01*
X22527026Y-43248474D01*
X22287026Y-43578474D01*
G37*
%TO.C,C7*%
X46763000Y-44421248D02*
X46763000Y-44943752D01*
X48233000Y-44421248D02*
X48233000Y-44943752D01*
D12*
%TO.C,Y1*%
X26944000Y-32496000D02*
G75*
G02*
X26744000Y-32496000I-100000J0D01*
G01*
X26744000Y-32496000D02*
G75*
G02*
X26944000Y-32496000I100000J0D01*
G01*
D11*
%TO.C,U5*%
X54488500Y-22250000D02*
X53688500Y-22250000D01*
X54488500Y-22250000D02*
X55288500Y-22250000D01*
X54488500Y-25370000D02*
X53688500Y-25370000D01*
X54488500Y-25370000D02*
X55288500Y-25370000D01*
X53188500Y-22300000D02*
X52948500Y-21970000D01*
X53428500Y-21970000D01*
X53188500Y-22300000D01*
G36*
X53188500Y-22300000D02*
G01*
X52948500Y-21970000D01*
X53428500Y-21970000D01*
X53188500Y-22300000D01*
G37*
%TO.C,R11*%
X21547064Y-12473000D02*
X21092936Y-12473000D01*
X21547064Y-13943000D02*
X21092936Y-13943000D01*
%TO.C,C3*%
X33047000Y-37055248D02*
X33047000Y-37577752D01*
X34517000Y-37055248D02*
X34517000Y-37577752D01*
%TO.C,C2*%
X38635000Y-26444752D02*
X38635000Y-25922248D01*
X40105000Y-26444752D02*
X40105000Y-25922248D01*
%TO.C,R9*%
X18499064Y-31226000D02*
X18044936Y-31226000D01*
X18499064Y-32696000D02*
X18044936Y-32696000D01*
%TO.C,R13*%
X66759064Y-47271000D02*
X66304936Y-47271000D01*
X66759064Y-48741000D02*
X66304936Y-48741000D01*
D13*
%TO.C,J1*%
X65513500Y-14270000D02*
X65513500Y-17080000D01*
X67133500Y-12625000D02*
X74193500Y-12625000D01*
X67533500Y-27375000D02*
X74193500Y-27375000D01*
X77033500Y-12625000D02*
X80013500Y-12625000D01*
X77033500Y-27375000D02*
X80013500Y-27375000D01*
X80013500Y-27375000D02*
X80013500Y-12625000D01*
D12*
X63763500Y-17750000D02*
G75*
G02*
X63563500Y-17750000I-100000J0D01*
G01*
X63563500Y-17750000D02*
G75*
G02*
X63763500Y-17750000I100000J0D01*
G01*
D11*
%TO.C,C11*%
X15211248Y-14759000D02*
X15733752Y-14759000D01*
X15211248Y-16229000D02*
X15733752Y-16229000D01*
%TO.C,R4*%
X56923000Y-24087064D02*
X56923000Y-23632936D01*
X58393000Y-24087064D02*
X58393000Y-23632936D01*
%TO.C,R1*%
X46763000Y-40396936D02*
X46763000Y-40851064D01*
X48233000Y-40396936D02*
X48233000Y-40851064D01*
%TO.C,J3*%
X69674000Y-49330000D02*
X69674000Y-48000000D01*
X70784000Y-49330000D02*
X69674000Y-49330000D01*
X72244000Y-45100000D02*
X71834000Y-45100000D01*
X72244000Y-45820000D02*
X71834000Y-45820000D01*
X72244000Y-47640000D02*
X71894000Y-47640000D01*
X72244000Y-48360000D02*
X71894000Y-48360000D01*
X72244000Y-49330000D02*
X72244000Y-44130000D01*
X80874000Y-44130000D02*
X72244000Y-44130000D01*
X80874000Y-46730000D02*
X72244000Y-46730000D01*
X80874000Y-46848100D02*
X72244000Y-46848100D01*
X80874000Y-46966195D02*
X72244000Y-46966195D01*
X80874000Y-47084290D02*
X72244000Y-47084290D01*
X80874000Y-47202385D02*
X72244000Y-47202385D01*
X80874000Y-47320480D02*
X72244000Y-47320480D01*
X80874000Y-47438575D02*
X72244000Y-47438575D01*
X80874000Y-47556670D02*
X72244000Y-47556670D01*
X80874000Y-47674765D02*
X72244000Y-47674765D01*
X80874000Y-47792860D02*
X72244000Y-47792860D01*
X80874000Y-47910955D02*
X72244000Y-47910955D01*
X80874000Y-48029050D02*
X72244000Y-48029050D01*
X80874000Y-48147145D02*
X72244000Y-48147145D01*
X80874000Y-48265240D02*
X72244000Y-48265240D01*
X80874000Y-48383335D02*
X72244000Y-48383335D01*
X80874000Y-48501430D02*
X72244000Y-48501430D01*
X80874000Y-48619525D02*
X72244000Y-48619525D01*
X80874000Y-48737620D02*
X72244000Y-48737620D01*
X80874000Y-48855715D02*
X72244000Y-48855715D01*
X80874000Y-48973810D02*
X72244000Y-48973810D01*
X80874000Y-49091905D02*
X72244000Y-49091905D01*
X80874000Y-49210000D02*
X72244000Y-49210000D01*
X80874000Y-49330000D02*
X72244000Y-49330000D01*
X80874000Y-49330000D02*
X80874000Y-44130000D01*
%TO.C,R12*%
X66336936Y-44731000D02*
X66791064Y-44731000D01*
X66336936Y-46201000D02*
X66791064Y-46201000D01*
%TO.C,R2*%
X56923000Y-19854936D02*
X56923000Y-20309064D01*
X58393000Y-19854936D02*
X58393000Y-20309064D01*
%TO.C,C10*%
X38833248Y-37365000D02*
X39355752Y-37365000D01*
X38833248Y-38835000D02*
X39355752Y-38835000D01*
%TO.C,C15*%
X26032526Y-45305226D02*
X26032526Y-44782722D01*
X27502526Y-45305226D02*
X27502526Y-44782722D01*
%TO.C,U2*%
X14420000Y-17288500D02*
X14895000Y-17288500D01*
X14420000Y-17763500D02*
X14420000Y-17288500D01*
X14420000Y-21033500D02*
X14420000Y-21508500D01*
X14420000Y-21508500D02*
X14895000Y-21508500D01*
X18165000Y-17288500D02*
X18400000Y-17288500D01*
X18640000Y-17763500D02*
X18640000Y-17588500D01*
X18640000Y-21033500D02*
X18640000Y-21508500D01*
X18640000Y-21508500D02*
X18165000Y-21508500D01*
X18970000Y-17528500D02*
X18640000Y-17288500D01*
X18970000Y-17048500D01*
X18970000Y-17528500D01*
G36*
X18970000Y-17528500D02*
G01*
X18640000Y-17288500D01*
X18970000Y-17048500D01*
X18970000Y-17528500D01*
G37*
%TO.C,C16*%
X19682526Y-44289226D02*
X19682526Y-43766722D01*
X21152526Y-44289226D02*
X21152526Y-43766722D01*
%TO.C,C4*%
X30761000Y-37055248D02*
X30761000Y-37577752D01*
X32231000Y-37055248D02*
X32231000Y-37577752D01*
%TO.C,C12*%
X60987000Y-21836748D02*
X60987000Y-22359252D01*
X62457000Y-21836748D02*
X62457000Y-22359252D01*
%TO.C,C5*%
X43405248Y-31777000D02*
X43927752Y-31777000D01*
X43405248Y-33247000D02*
X43927752Y-33247000D01*
%TO.C,C18*%
X50319000Y-21053248D02*
X50319000Y-21575752D01*
X51789000Y-21053248D02*
X51789000Y-21575752D01*
%TO.C,C1*%
X40921000Y-26444752D02*
X40921000Y-25922248D01*
X42391000Y-26444752D02*
X42391000Y-25922248D01*
%TO.C,R8*%
X54599064Y-25935000D02*
X54144936Y-25935000D01*
X54599064Y-27405000D02*
X54144936Y-27405000D01*
%TO.C,C19*%
X21575752Y-16791000D02*
X21053248Y-16791000D01*
X21575752Y-18261000D02*
X21053248Y-18261000D01*
%TO.C,R3*%
X54891000Y-19854936D02*
X54891000Y-20309064D01*
X56361000Y-19854936D02*
X56361000Y-20309064D01*
%TO.C,C17*%
X52605000Y-20348752D02*
X52605000Y-19826248D01*
X54075000Y-20348752D02*
X54075000Y-19826248D01*
%TO.C,C20*%
X16030752Y-22633000D02*
X15508248Y-22633000D01*
X16030752Y-24103000D02*
X15508248Y-24103000D01*
%TO.C,U3*%
X18166500Y-27541000D02*
X17366500Y-27541000D01*
X18166500Y-27541000D02*
X18966500Y-27541000D01*
X18166500Y-30661000D02*
X17366500Y-30661000D01*
X18166500Y-30661000D02*
X18966500Y-30661000D01*
X16866500Y-27591000D02*
X16626500Y-27261000D01*
X17106500Y-27261000D01*
X16866500Y-27591000D01*
G36*
X16866500Y-27591000D02*
G01*
X16626500Y-27261000D01*
X17106500Y-27261000D01*
X16866500Y-27591000D01*
G37*
%TO.C,C14*%
X20855000Y-29195752D02*
X20855000Y-28673248D01*
X22325000Y-29195752D02*
X22325000Y-28673248D01*
%TO.C,R5*%
X58955000Y-24087064D02*
X58955000Y-23632936D01*
X60425000Y-24087064D02*
X60425000Y-23632936D01*
%TO.C,U1*%
X35462000Y-29304000D02*
X35937000Y-29304000D01*
X35462000Y-29779000D02*
X35462000Y-29304000D01*
X35462000Y-34049000D02*
X35462000Y-34224000D01*
X35937000Y-34524000D02*
X35702000Y-34524000D01*
X40682000Y-29304000D02*
X40207000Y-29304000D01*
X40682000Y-29779000D02*
X40682000Y-29304000D01*
X40682000Y-34049000D02*
X40682000Y-34524000D01*
X40682000Y-34524000D02*
X40207000Y-34524000D01*
X35462000Y-34524000D02*
X35132000Y-34764000D01*
X35132000Y-34284000D01*
X35462000Y-34524000D01*
G36*
X35462000Y-34524000D02*
G01*
X35132000Y-34764000D01*
X35132000Y-34284000D01*
X35462000Y-34524000D01*
G37*
%TO.C,R6*%
X58955000Y-19838936D02*
X58955000Y-20293064D01*
X60425000Y-19838936D02*
X60425000Y-20293064D01*
D14*
%TO.C,U6*%
X50253900Y-42379900D02*
X50253900Y-42745660D01*
X50253900Y-43969940D02*
X50253900Y-46454060D01*
X50253900Y-47678340D02*
X50253900Y-48044100D01*
X50253900Y-48044100D02*
X55918100Y-48044100D01*
X55918100Y-42379900D02*
X50253900Y-42379900D01*
X55918100Y-42745660D02*
X55918100Y-42379900D01*
X55918100Y-46454060D02*
X55918100Y-43969940D01*
X55918100Y-48044100D02*
X55918100Y-47678340D01*
D11*
%TO.C,L1*%
X28685748Y-32564000D02*
X29208252Y-32564000D01*
X28685748Y-33984000D02*
X29208252Y-33984000D01*
%TO.C,C8*%
X27403248Y-34825000D02*
X27925752Y-34825000D01*
X27403248Y-36295000D02*
X27925752Y-36295000D01*
%TO.C,C9*%
X29491000Y-29943248D02*
X29491000Y-30465752D01*
X30961000Y-29943248D02*
X30961000Y-30465752D01*
%TO.C,C6*%
X35333000Y-37055248D02*
X35333000Y-37577752D01*
X36803000Y-37055248D02*
X36803000Y-37577752D01*
%TO.C,R7*%
X12981000Y-39666936D02*
X12981000Y-40121064D01*
X14451000Y-39666936D02*
X14451000Y-40121064D01*
%TO.C,R10*%
X21547064Y-14505000D02*
X21092936Y-14505000D01*
X21547064Y-15975000D02*
X21092936Y-15975000D01*
%TO.C,C13*%
X13997000Y-29195752D02*
X13997000Y-28673248D01*
X15467000Y-29195752D02*
X15467000Y-28673248D01*
%TD*%
%LPC*%
D15*
%TO.C,U4*%
X22449526Y-44138474D03*
X22449526Y-45088474D03*
X22449526Y-46038474D03*
X24724526Y-46038474D03*
X24724526Y-44138474D03*
%TD*%
D16*
%TO.C,C7*%
X47498000Y-43645000D03*
X47498000Y-45720000D03*
%TD*%
D17*
%TO.C,Y1*%
X26844000Y-31496000D03*
X28194000Y-31496000D03*
X28194000Y-30446000D03*
X26844000Y-30446000D03*
%TD*%
D15*
%TO.C,U5*%
X53351000Y-22860000D03*
X53351000Y-23810000D03*
X53351000Y-24760000D03*
X55626000Y-24760000D03*
X55626000Y-22860000D03*
%TD*%
D18*
%TO.C,R11*%
X22320000Y-13208000D03*
X20320000Y-13208000D03*
%TD*%
D16*
%TO.C,C3*%
X33782000Y-36279000D03*
X33782000Y-38354000D03*
%TD*%
D19*
%TO.C,H4*%
X5000000Y-60000000D03*
%TD*%
D20*
%TO.C,C2*%
X39370000Y-27221000D03*
X39370000Y-25146000D03*
%TD*%
D18*
%TO.C,R9*%
X19272000Y-31961000D03*
X17272000Y-31961000D03*
%TD*%
%TO.C,R13*%
X67532000Y-48006000D03*
X65532000Y-48006000D03*
%TD*%
D21*
%TO.C,J1*%
X76013500Y-24950000D03*
X76013500Y-16950000D03*
D22*
X65013500Y-17750000D03*
X65013500Y-18850000D03*
X65013500Y-19950000D03*
X65013500Y-21050000D03*
X65013500Y-22150000D03*
X65013500Y-23250000D03*
X65013500Y-24350000D03*
X65013500Y-25450000D03*
X65013500Y-26550000D03*
D23*
X66313500Y-27750000D03*
D24*
X66063500Y-13150000D03*
D25*
X75613500Y-27750000D03*
X75613500Y-12250000D03*
%TD*%
D19*
%TO.C,H5*%
X40000000Y-60000000D03*
%TD*%
D26*
%TO.C,C11*%
X14435000Y-15494000D03*
X16510000Y-15494000D03*
%TD*%
D27*
%TO.C,R4*%
X57658000Y-24860000D03*
X57658000Y-22860000D03*
%TD*%
D28*
%TO.C,R1*%
X47498000Y-39624000D03*
X47498000Y-41624000D03*
%TD*%
D29*
%TO.C,J3*%
X70784000Y-48000000D03*
D30*
X70784000Y-45460000D03*
%TD*%
D31*
%TO.C,R12*%
X65564000Y-45466000D03*
X67564000Y-45466000D03*
%TD*%
D28*
%TO.C,R2*%
X57658000Y-19082000D03*
X57658000Y-21082000D03*
%TD*%
D26*
%TO.C,C10*%
X38057000Y-38100000D03*
X40132000Y-38100000D03*
%TD*%
D20*
%TO.C,C15*%
X26767526Y-46081474D03*
X26767526Y-44006474D03*
%TD*%
D32*
%TO.C,U2*%
X17780000Y-17461000D03*
X17280000Y-17461000D03*
X16780000Y-17461000D03*
X16280000Y-17461000D03*
X15780000Y-17461000D03*
X15280000Y-17461000D03*
D33*
X14592500Y-18148500D03*
X14592500Y-18648500D03*
X14592500Y-19148500D03*
X14592500Y-19648500D03*
X14592500Y-20148500D03*
X14592500Y-20648500D03*
D32*
X15280000Y-21336000D03*
X15780000Y-21336000D03*
X16280000Y-21336000D03*
X16780000Y-21336000D03*
X17280000Y-21336000D03*
X17780000Y-21336000D03*
D33*
X18467500Y-20648500D03*
X18467500Y-20148500D03*
X18467500Y-19648500D03*
X18467500Y-19148500D03*
X18467500Y-18648500D03*
X18467500Y-18148500D03*
D34*
X16530000Y-19398500D03*
%TD*%
D20*
%TO.C,C16*%
X20417526Y-45065474D03*
X20417526Y-42990474D03*
%TD*%
D16*
%TO.C,C4*%
X31496000Y-36279000D03*
X31496000Y-38354000D03*
%TD*%
%TO.C,C12*%
X61722000Y-21060500D03*
X61722000Y-23135500D03*
%TD*%
D26*
%TO.C,C5*%
X42629000Y-32512000D03*
X44704000Y-32512000D03*
%TD*%
D16*
%TO.C,C18*%
X51054000Y-20277000D03*
X51054000Y-22352000D03*
%TD*%
D19*
%TO.C,H2*%
X40000000Y-5000000D03*
%TD*%
D20*
%TO.C,C1*%
X41656000Y-27221000D03*
X41656000Y-25146000D03*
%TD*%
D19*
%TO.C,H6*%
X75000000Y-60000000D03*
%TD*%
D18*
%TO.C,R8*%
X55372000Y-26670000D03*
X53372000Y-26670000D03*
%TD*%
D19*
%TO.C,H3*%
X75000000Y-5000000D03*
%TD*%
D35*
%TO.C,C19*%
X22352000Y-17526000D03*
X20277000Y-17526000D03*
%TD*%
D28*
%TO.C,R3*%
X55626000Y-19082000D03*
X55626000Y-21082000D03*
%TD*%
D20*
%TO.C,C17*%
X53340000Y-21125000D03*
X53340000Y-19050000D03*
%TD*%
D35*
%TO.C,C20*%
X16807000Y-23368000D03*
X14732000Y-23368000D03*
%TD*%
D15*
%TO.C,U3*%
X17029000Y-28151000D03*
X17029000Y-29101000D03*
X17029000Y-30051000D03*
X19304000Y-30051000D03*
X19304000Y-28151000D03*
%TD*%
D20*
%TO.C,C14*%
X21590000Y-29972000D03*
X21590000Y-27897000D03*
%TD*%
D27*
%TO.C,R5*%
X59690000Y-24860000D03*
X59690000Y-22860000D03*
%TD*%
D36*
%TO.C,XTAL1*%
X38277998Y-40132000D03*
D37*
X38979024Y-40577999D03*
D36*
X39878000Y-40132000D03*
D37*
X39183999Y-39686001D03*
%TD*%
D38*
%TO.C,U1*%
X36322000Y-34364000D03*
X36822000Y-34364000D03*
X37322000Y-34364000D03*
X37822000Y-34364000D03*
X38322000Y-34364000D03*
X38822000Y-34364000D03*
X39322000Y-34364000D03*
X39822000Y-34364000D03*
D39*
X40522000Y-33664000D03*
X40522000Y-33164000D03*
X40522000Y-32664000D03*
X40522000Y-32164000D03*
X40522000Y-31664000D03*
X40522000Y-31164000D03*
X40522000Y-30664000D03*
X40522000Y-30164000D03*
D38*
X39822000Y-29464000D03*
X39322000Y-29464000D03*
X38822000Y-29464000D03*
X38322000Y-29464000D03*
X37822000Y-29464000D03*
X37322000Y-29464000D03*
X36822000Y-29464000D03*
X36322000Y-29464000D03*
D39*
X35622000Y-30164000D03*
X35622000Y-30664000D03*
X35622000Y-31164000D03*
X35622000Y-31664000D03*
X35622000Y-32164000D03*
X35622000Y-32664000D03*
X35622000Y-33164000D03*
X35622000Y-33664000D03*
D40*
X38072000Y-31914000D03*
%TD*%
D28*
%TO.C,R6*%
X59690000Y-19066000D03*
X59690000Y-21066000D03*
%TD*%
D41*
%TO.C,U6*%
X49904650Y-43357800D03*
X56267350Y-43357800D03*
X49904650Y-47066200D03*
X56267350Y-47066200D03*
%TD*%
D19*
%TO.C,H1*%
X5000000Y-5000000D03*
%TD*%
D42*
%TO.C,L1*%
X27922000Y-33274000D03*
X29972000Y-33274000D03*
%TD*%
D26*
%TO.C,C8*%
X26627000Y-35560000D03*
X28702000Y-35560000D03*
%TD*%
D16*
%TO.C,C9*%
X30226000Y-29167000D03*
X30226000Y-31242000D03*
%TD*%
%TO.C,C6*%
X36068000Y-36279000D03*
X36068000Y-38354000D03*
%TD*%
D28*
%TO.C,R7*%
X13716000Y-38894000D03*
X13716000Y-40894000D03*
%TD*%
D18*
%TO.C,R10*%
X22320000Y-15240000D03*
X20320000Y-15240000D03*
%TD*%
D20*
%TO.C,C13*%
X14732000Y-29972000D03*
X14732000Y-27897000D03*
%TD*%
D43*
%TO.C,BT1*%
X39750000Y-46500000D03*
X39750000Y-16500000D03*
D44*
X13680000Y-48000000D03*
X13680000Y-35200000D03*
%TD*%
D29*
%TO.C,J2*%
X5000000Y-18000000D03*
D30*
X5000000Y-20540000D03*
%TD*%
D29*
%TO.C,SW2*%
X5000000Y-50000000D03*
D30*
X5000000Y-47460000D03*
X5000000Y-44920000D03*
%TD*%
%LPD*%
M02*
