%TF.GenerationSoftware,KiCad,Pcbnew,8.0.6-8.0.6-0~ubuntu24.04.1*%
%TF.CreationDate,2024-11-06T15:02:39+01:00*%
%TF.ProjectId,random_sampler,72616e64-6f6d-45f7-9361-6d706c65722e,rev?*%
%TF.SameCoordinates,Original*%
%TF.FileFunction,Drillmap*%
%TF.FilePolarity,Positive*%
%FSLAX45Y45*%
G04 Gerber Fmt 4.5, Leading zero omitted, Abs format (unit mm)*
G04 Created by KiCad (PCBNEW 8.0.6-8.0.6-0~ubuntu24.04.1) date 2024-11-06 15:02:39*
%MOMM*%
%LPD*%
G01*
G04 APERTURE LIST*
%ADD10C,0.100000*%
%ADD11C,0.050000*%
%ADD12C,0.200000*%
%ADD13C,0.237000*%
%ADD14C,0.320000*%
G04 APERTURE END LIST*
D10*
X0Y-500000D02*
G75*
G02*
X500000Y0I500000J0D01*
G01*
D11*
X7500000Y0D02*
X500000Y0D01*
X8000000Y-6000000D02*
G75*
G02*
X7500000Y-6500000I-500000J0D01*
G01*
X8000000Y-6000000D02*
X8000000Y-500000D01*
X0Y-500000D02*
X0Y-6000000D01*
X7500000Y0D02*
G75*
G02*
X8000000Y-500000I0J-500000D01*
G01*
X500000Y-6500000D02*
X7500000Y-6500000D01*
X500000Y-6500000D02*
G75*
G02*
X0Y-6000000I0J500000D01*
G01*
D12*
D10*
X7551350Y-1645000D02*
X7651350Y-1745000D01*
X7651350Y-1645000D02*
X7551350Y-1745000D01*
X7551350Y-2445000D02*
X7651350Y-2545000D01*
X7651350Y-2445000D02*
X7551350Y-2545000D01*
D13*
X4093500Y-1650000D02*
G75*
G02*
X3856500Y-1650000I-118500J0D01*
G01*
X3856500Y-1650000D02*
G75*
G02*
X4093500Y-1650000I118500J0D01*
G01*
X4093500Y-4650000D02*
G75*
G02*
X3856500Y-4650000I-118500J0D01*
G01*
X3856500Y-4650000D02*
G75*
G02*
X4093500Y-4650000I118500J0D01*
G01*
D14*
X500000Y-340000D02*
X500000Y-660000D01*
X340000Y-500000D02*
X660000Y-500000D01*
X500000Y-5840000D02*
X500000Y-6160000D01*
X340000Y-6000000D02*
X660000Y-6000000D01*
X4000000Y-340000D02*
X4000000Y-660000D01*
X3840000Y-500000D02*
X4160000Y-500000D01*
X4000000Y-5840000D02*
X4000000Y-6160000D01*
X3840000Y-6000000D02*
X4160000Y-6000000D01*
X7500000Y-340000D02*
X7500000Y-660000D01*
X7340000Y-500000D02*
X7660000Y-500000D01*
X7500000Y-5840000D02*
X7500000Y-6160000D01*
X7340000Y-6000000D02*
X7660000Y-6000000D01*
D12*
X255777Y-6813984D02*
X255777Y-6613984D01*
X255777Y-6613984D02*
X303396Y-6613984D01*
X303396Y-6613984D02*
X331967Y-6623508D01*
X331967Y-6623508D02*
X351015Y-6642555D01*
X351015Y-6642555D02*
X360539Y-6661603D01*
X360539Y-6661603D02*
X370062Y-6699698D01*
X370062Y-6699698D02*
X370062Y-6728269D01*
X370062Y-6728269D02*
X360539Y-6766365D01*
X360539Y-6766365D02*
X351015Y-6785412D01*
X351015Y-6785412D02*
X331967Y-6804460D01*
X331967Y-6804460D02*
X303396Y-6813984D01*
X303396Y-6813984D02*
X255777Y-6813984D01*
X455777Y-6813984D02*
X455777Y-6680650D01*
X455777Y-6718746D02*
X465301Y-6699698D01*
X465301Y-6699698D02*
X474824Y-6690174D01*
X474824Y-6690174D02*
X493872Y-6680650D01*
X493872Y-6680650D02*
X512920Y-6680650D01*
X579586Y-6813984D02*
X579586Y-6680650D01*
X579586Y-6613984D02*
X570063Y-6623508D01*
X570063Y-6623508D02*
X579586Y-6633031D01*
X579586Y-6633031D02*
X589110Y-6623508D01*
X589110Y-6623508D02*
X579586Y-6613984D01*
X579586Y-6613984D02*
X579586Y-6633031D01*
X703396Y-6813984D02*
X684348Y-6804460D01*
X684348Y-6804460D02*
X674824Y-6785412D01*
X674824Y-6785412D02*
X674824Y-6613984D01*
X808158Y-6813984D02*
X789110Y-6804460D01*
X789110Y-6804460D02*
X779586Y-6785412D01*
X779586Y-6785412D02*
X779586Y-6613984D01*
X1036729Y-6813984D02*
X1036729Y-6613984D01*
X1036729Y-6613984D02*
X1103396Y-6756841D01*
X1103396Y-6756841D02*
X1170063Y-6613984D01*
X1170063Y-6613984D02*
X1170063Y-6813984D01*
X1351015Y-6813984D02*
X1351015Y-6709222D01*
X1351015Y-6709222D02*
X1341491Y-6690174D01*
X1341491Y-6690174D02*
X1322444Y-6680650D01*
X1322444Y-6680650D02*
X1284348Y-6680650D01*
X1284348Y-6680650D02*
X1265301Y-6690174D01*
X1351015Y-6804460D02*
X1331967Y-6813984D01*
X1331967Y-6813984D02*
X1284348Y-6813984D01*
X1284348Y-6813984D02*
X1265301Y-6804460D01*
X1265301Y-6804460D02*
X1255777Y-6785412D01*
X1255777Y-6785412D02*
X1255777Y-6766365D01*
X1255777Y-6766365D02*
X1265301Y-6747317D01*
X1265301Y-6747317D02*
X1284348Y-6737793D01*
X1284348Y-6737793D02*
X1331967Y-6737793D01*
X1331967Y-6737793D02*
X1351015Y-6728269D01*
X1446253Y-6680650D02*
X1446253Y-6880650D01*
X1446253Y-6690174D02*
X1465301Y-6680650D01*
X1465301Y-6680650D02*
X1503396Y-6680650D01*
X1503396Y-6680650D02*
X1522443Y-6690174D01*
X1522443Y-6690174D02*
X1531967Y-6699698D01*
X1531967Y-6699698D02*
X1541491Y-6718746D01*
X1541491Y-6718746D02*
X1541491Y-6775888D01*
X1541491Y-6775888D02*
X1531967Y-6794936D01*
X1531967Y-6794936D02*
X1522443Y-6804460D01*
X1522443Y-6804460D02*
X1503396Y-6813984D01*
X1503396Y-6813984D02*
X1465301Y-6813984D01*
X1465301Y-6813984D02*
X1446253Y-6804460D01*
X1627205Y-6794936D02*
X1636729Y-6804460D01*
X1636729Y-6804460D02*
X1627205Y-6813984D01*
X1627205Y-6813984D02*
X1617682Y-6804460D01*
X1617682Y-6804460D02*
X1627205Y-6794936D01*
X1627205Y-6794936D02*
X1627205Y-6813984D01*
X1627205Y-6690174D02*
X1636729Y-6699698D01*
X1636729Y-6699698D02*
X1627205Y-6709222D01*
X1627205Y-6709222D02*
X1617682Y-6699698D01*
X1617682Y-6699698D02*
X1627205Y-6690174D01*
X1627205Y-6690174D02*
X1627205Y-6709222D01*
D10*
X-105000Y-7092500D02*
X-5000Y-7192500D01*
X-5000Y-7092500D02*
X-105000Y-7192500D01*
D12*
X360539Y-7233984D02*
X246253Y-7233984D01*
X303396Y-7233984D02*
X303396Y-7033984D01*
X303396Y-7033984D02*
X284348Y-7062555D01*
X284348Y-7062555D02*
X265301Y-7081603D01*
X265301Y-7081603D02*
X246253Y-7091127D01*
X446253Y-7214936D02*
X455777Y-7224460D01*
X455777Y-7224460D02*
X446253Y-7233984D01*
X446253Y-7233984D02*
X436729Y-7224460D01*
X436729Y-7224460D02*
X446253Y-7214936D01*
X446253Y-7214936D02*
X446253Y-7233984D01*
X579586Y-7033984D02*
X598634Y-7033984D01*
X598634Y-7033984D02*
X617682Y-7043508D01*
X617682Y-7043508D02*
X627205Y-7053031D01*
X627205Y-7053031D02*
X636729Y-7072079D01*
X636729Y-7072079D02*
X646253Y-7110174D01*
X646253Y-7110174D02*
X646253Y-7157793D01*
X646253Y-7157793D02*
X636729Y-7195888D01*
X636729Y-7195888D02*
X627205Y-7214936D01*
X627205Y-7214936D02*
X617682Y-7224460D01*
X617682Y-7224460D02*
X598634Y-7233984D01*
X598634Y-7233984D02*
X579586Y-7233984D01*
X579586Y-7233984D02*
X560539Y-7224460D01*
X560539Y-7224460D02*
X551015Y-7214936D01*
X551015Y-7214936D02*
X541491Y-7195888D01*
X541491Y-7195888D02*
X531967Y-7157793D01*
X531967Y-7157793D02*
X531967Y-7110174D01*
X531967Y-7110174D02*
X541491Y-7072079D01*
X541491Y-7072079D02*
X551015Y-7053031D01*
X551015Y-7053031D02*
X560539Y-7043508D01*
X560539Y-7043508D02*
X579586Y-7033984D01*
X770062Y-7033984D02*
X789110Y-7033984D01*
X789110Y-7033984D02*
X808158Y-7043508D01*
X808158Y-7043508D02*
X817682Y-7053031D01*
X817682Y-7053031D02*
X827205Y-7072079D01*
X827205Y-7072079D02*
X836729Y-7110174D01*
X836729Y-7110174D02*
X836729Y-7157793D01*
X836729Y-7157793D02*
X827205Y-7195888D01*
X827205Y-7195888D02*
X817682Y-7214936D01*
X817682Y-7214936D02*
X808158Y-7224460D01*
X808158Y-7224460D02*
X789110Y-7233984D01*
X789110Y-7233984D02*
X770062Y-7233984D01*
X770062Y-7233984D02*
X751015Y-7224460D01*
X751015Y-7224460D02*
X741491Y-7214936D01*
X741491Y-7214936D02*
X731967Y-7195888D01*
X731967Y-7195888D02*
X722443Y-7157793D01*
X722443Y-7157793D02*
X722443Y-7110174D01*
X722443Y-7110174D02*
X731967Y-7072079D01*
X731967Y-7072079D02*
X741491Y-7053031D01*
X741491Y-7053031D02*
X751015Y-7043508D01*
X751015Y-7043508D02*
X770062Y-7033984D01*
X960539Y-7033984D02*
X979586Y-7033984D01*
X979586Y-7033984D02*
X998634Y-7043508D01*
X998634Y-7043508D02*
X1008158Y-7053031D01*
X1008158Y-7053031D02*
X1017682Y-7072079D01*
X1017682Y-7072079D02*
X1027205Y-7110174D01*
X1027205Y-7110174D02*
X1027205Y-7157793D01*
X1027205Y-7157793D02*
X1017682Y-7195888D01*
X1017682Y-7195888D02*
X1008158Y-7214936D01*
X1008158Y-7214936D02*
X998634Y-7224460D01*
X998634Y-7224460D02*
X979586Y-7233984D01*
X979586Y-7233984D02*
X960539Y-7233984D01*
X960539Y-7233984D02*
X941491Y-7224460D01*
X941491Y-7224460D02*
X931967Y-7214936D01*
X931967Y-7214936D02*
X922443Y-7195888D01*
X922443Y-7195888D02*
X912920Y-7157793D01*
X912920Y-7157793D02*
X912920Y-7110174D01*
X912920Y-7110174D02*
X922443Y-7072079D01*
X922443Y-7072079D02*
X931967Y-7053031D01*
X931967Y-7053031D02*
X941491Y-7043508D01*
X941491Y-7043508D02*
X960539Y-7033984D01*
X1112920Y-7233984D02*
X1112920Y-7100650D01*
X1112920Y-7119698D02*
X1122444Y-7110174D01*
X1122444Y-7110174D02*
X1141491Y-7100650D01*
X1141491Y-7100650D02*
X1170063Y-7100650D01*
X1170063Y-7100650D02*
X1189110Y-7110174D01*
X1189110Y-7110174D02*
X1198634Y-7129222D01*
X1198634Y-7129222D02*
X1198634Y-7233984D01*
X1198634Y-7129222D02*
X1208158Y-7110174D01*
X1208158Y-7110174D02*
X1227205Y-7100650D01*
X1227205Y-7100650D02*
X1255777Y-7100650D01*
X1255777Y-7100650D02*
X1274825Y-7110174D01*
X1274825Y-7110174D02*
X1284348Y-7129222D01*
X1284348Y-7129222D02*
X1284348Y-7233984D01*
X1379586Y-7233984D02*
X1379586Y-7100650D01*
X1379586Y-7119698D02*
X1389110Y-7110174D01*
X1389110Y-7110174D02*
X1408158Y-7100650D01*
X1408158Y-7100650D02*
X1436729Y-7100650D01*
X1436729Y-7100650D02*
X1455777Y-7110174D01*
X1455777Y-7110174D02*
X1465301Y-7129222D01*
X1465301Y-7129222D02*
X1465301Y-7233984D01*
X1465301Y-7129222D02*
X1474824Y-7110174D01*
X1474824Y-7110174D02*
X1493872Y-7100650D01*
X1493872Y-7100650D02*
X1522443Y-7100650D01*
X1522443Y-7100650D02*
X1541491Y-7110174D01*
X1541491Y-7110174D02*
X1551015Y-7129222D01*
X1551015Y-7129222D02*
X1551015Y-7233984D01*
X1941491Y-7024460D02*
X1770063Y-7281603D01*
X2198634Y-7033984D02*
X2217682Y-7033984D01*
X2217682Y-7033984D02*
X2236729Y-7043508D01*
X2236729Y-7043508D02*
X2246253Y-7053031D01*
X2246253Y-7053031D02*
X2255777Y-7072079D01*
X2255777Y-7072079D02*
X2265301Y-7110174D01*
X2265301Y-7110174D02*
X2265301Y-7157793D01*
X2265301Y-7157793D02*
X2255777Y-7195888D01*
X2255777Y-7195888D02*
X2246253Y-7214936D01*
X2246253Y-7214936D02*
X2236729Y-7224460D01*
X2236729Y-7224460D02*
X2217682Y-7233984D01*
X2217682Y-7233984D02*
X2198634Y-7233984D01*
X2198634Y-7233984D02*
X2179587Y-7224460D01*
X2179587Y-7224460D02*
X2170063Y-7214936D01*
X2170063Y-7214936D02*
X2160539Y-7195888D01*
X2160539Y-7195888D02*
X2151015Y-7157793D01*
X2151015Y-7157793D02*
X2151015Y-7110174D01*
X2151015Y-7110174D02*
X2160539Y-7072079D01*
X2160539Y-7072079D02*
X2170063Y-7053031D01*
X2170063Y-7053031D02*
X2179587Y-7043508D01*
X2179587Y-7043508D02*
X2198634Y-7033984D01*
X2351015Y-7214936D02*
X2360539Y-7224460D01*
X2360539Y-7224460D02*
X2351015Y-7233984D01*
X2351015Y-7233984D02*
X2341491Y-7224460D01*
X2341491Y-7224460D02*
X2351015Y-7214936D01*
X2351015Y-7214936D02*
X2351015Y-7233984D01*
X2484348Y-7033984D02*
X2503396Y-7033984D01*
X2503396Y-7033984D02*
X2522444Y-7043508D01*
X2522444Y-7043508D02*
X2531968Y-7053031D01*
X2531968Y-7053031D02*
X2541491Y-7072079D01*
X2541491Y-7072079D02*
X2551015Y-7110174D01*
X2551015Y-7110174D02*
X2551015Y-7157793D01*
X2551015Y-7157793D02*
X2541491Y-7195888D01*
X2541491Y-7195888D02*
X2531968Y-7214936D01*
X2531968Y-7214936D02*
X2522444Y-7224460D01*
X2522444Y-7224460D02*
X2503396Y-7233984D01*
X2503396Y-7233984D02*
X2484348Y-7233984D01*
X2484348Y-7233984D02*
X2465301Y-7224460D01*
X2465301Y-7224460D02*
X2455777Y-7214936D01*
X2455777Y-7214936D02*
X2446253Y-7195888D01*
X2446253Y-7195888D02*
X2436729Y-7157793D01*
X2436729Y-7157793D02*
X2436729Y-7110174D01*
X2436729Y-7110174D02*
X2446253Y-7072079D01*
X2446253Y-7072079D02*
X2455777Y-7053031D01*
X2455777Y-7053031D02*
X2465301Y-7043508D01*
X2465301Y-7043508D02*
X2484348Y-7033984D01*
X2617682Y-7033984D02*
X2741491Y-7033984D01*
X2741491Y-7033984D02*
X2674825Y-7110174D01*
X2674825Y-7110174D02*
X2703396Y-7110174D01*
X2703396Y-7110174D02*
X2722444Y-7119698D01*
X2722444Y-7119698D02*
X2731968Y-7129222D01*
X2731968Y-7129222D02*
X2741491Y-7148269D01*
X2741491Y-7148269D02*
X2741491Y-7195888D01*
X2741491Y-7195888D02*
X2731968Y-7214936D01*
X2731968Y-7214936D02*
X2722444Y-7224460D01*
X2722444Y-7224460D02*
X2703396Y-7233984D01*
X2703396Y-7233984D02*
X2646253Y-7233984D01*
X2646253Y-7233984D02*
X2627206Y-7224460D01*
X2627206Y-7224460D02*
X2617682Y-7214936D01*
X2836729Y-7233984D02*
X2874825Y-7233984D01*
X2874825Y-7233984D02*
X2893872Y-7224460D01*
X2893872Y-7224460D02*
X2903396Y-7214936D01*
X2903396Y-7214936D02*
X2922444Y-7186365D01*
X2922444Y-7186365D02*
X2931967Y-7148269D01*
X2931967Y-7148269D02*
X2931967Y-7072079D01*
X2931967Y-7072079D02*
X2922444Y-7053031D01*
X2922444Y-7053031D02*
X2912920Y-7043508D01*
X2912920Y-7043508D02*
X2893872Y-7033984D01*
X2893872Y-7033984D02*
X2855777Y-7033984D01*
X2855777Y-7033984D02*
X2836729Y-7043508D01*
X2836729Y-7043508D02*
X2827206Y-7053031D01*
X2827206Y-7053031D02*
X2817682Y-7072079D01*
X2817682Y-7072079D02*
X2817682Y-7119698D01*
X2817682Y-7119698D02*
X2827206Y-7138746D01*
X2827206Y-7138746D02*
X2836729Y-7148269D01*
X2836729Y-7148269D02*
X2855777Y-7157793D01*
X2855777Y-7157793D02*
X2893872Y-7157793D01*
X2893872Y-7157793D02*
X2912920Y-7148269D01*
X2912920Y-7148269D02*
X2922444Y-7138746D01*
X2922444Y-7138746D02*
X2931967Y-7119698D01*
X3103396Y-7100650D02*
X3103396Y-7233984D01*
X3055777Y-7024460D02*
X3008158Y-7167317D01*
X3008158Y-7167317D02*
X3131967Y-7167317D01*
X3198634Y-7033984D02*
X3198634Y-7072079D01*
X3274825Y-7033984D02*
X3274825Y-7072079D01*
X3570063Y-7310174D02*
X3560539Y-7300650D01*
X3560539Y-7300650D02*
X3541491Y-7272079D01*
X3541491Y-7272079D02*
X3531968Y-7253031D01*
X3531968Y-7253031D02*
X3522444Y-7224460D01*
X3522444Y-7224460D02*
X3512920Y-7176841D01*
X3512920Y-7176841D02*
X3512920Y-7138746D01*
X3512920Y-7138746D02*
X3522444Y-7091127D01*
X3522444Y-7091127D02*
X3531968Y-7062555D01*
X3531968Y-7062555D02*
X3541491Y-7043508D01*
X3541491Y-7043508D02*
X3560539Y-7014936D01*
X3560539Y-7014936D02*
X3570063Y-7005412D01*
X3636729Y-7053031D02*
X3646253Y-7043508D01*
X3646253Y-7043508D02*
X3665301Y-7033984D01*
X3665301Y-7033984D02*
X3712920Y-7033984D01*
X3712920Y-7033984D02*
X3731968Y-7043508D01*
X3731968Y-7043508D02*
X3741491Y-7053031D01*
X3741491Y-7053031D02*
X3751015Y-7072079D01*
X3751015Y-7072079D02*
X3751015Y-7091127D01*
X3751015Y-7091127D02*
X3741491Y-7119698D01*
X3741491Y-7119698D02*
X3627206Y-7233984D01*
X3627206Y-7233984D02*
X3751015Y-7233984D01*
X3989110Y-7233984D02*
X3989110Y-7033984D01*
X4074825Y-7233984D02*
X4074825Y-7129222D01*
X4074825Y-7129222D02*
X4065301Y-7110174D01*
X4065301Y-7110174D02*
X4046253Y-7100650D01*
X4046253Y-7100650D02*
X4017682Y-7100650D01*
X4017682Y-7100650D02*
X3998634Y-7110174D01*
X3998634Y-7110174D02*
X3989110Y-7119698D01*
X4198634Y-7233984D02*
X4179587Y-7224460D01*
X4179587Y-7224460D02*
X4170063Y-7214936D01*
X4170063Y-7214936D02*
X4160539Y-7195888D01*
X4160539Y-7195888D02*
X4160539Y-7138746D01*
X4160539Y-7138746D02*
X4170063Y-7119698D01*
X4170063Y-7119698D02*
X4179587Y-7110174D01*
X4179587Y-7110174D02*
X4198634Y-7100650D01*
X4198634Y-7100650D02*
X4227206Y-7100650D01*
X4227206Y-7100650D02*
X4246253Y-7110174D01*
X4246253Y-7110174D02*
X4255777Y-7119698D01*
X4255777Y-7119698D02*
X4265301Y-7138746D01*
X4265301Y-7138746D02*
X4265301Y-7195888D01*
X4265301Y-7195888D02*
X4255777Y-7214936D01*
X4255777Y-7214936D02*
X4246253Y-7224460D01*
X4246253Y-7224460D02*
X4227206Y-7233984D01*
X4227206Y-7233984D02*
X4198634Y-7233984D01*
X4379587Y-7233984D02*
X4360539Y-7224460D01*
X4360539Y-7224460D02*
X4351015Y-7205412D01*
X4351015Y-7205412D02*
X4351015Y-7033984D01*
X4531968Y-7224460D02*
X4512920Y-7233984D01*
X4512920Y-7233984D02*
X4474825Y-7233984D01*
X4474825Y-7233984D02*
X4455777Y-7224460D01*
X4455777Y-7224460D02*
X4446253Y-7205412D01*
X4446253Y-7205412D02*
X4446253Y-7129222D01*
X4446253Y-7129222D02*
X4455777Y-7110174D01*
X4455777Y-7110174D02*
X4474825Y-7100650D01*
X4474825Y-7100650D02*
X4512920Y-7100650D01*
X4512920Y-7100650D02*
X4531968Y-7110174D01*
X4531968Y-7110174D02*
X4541492Y-7129222D01*
X4541492Y-7129222D02*
X4541492Y-7148269D01*
X4541492Y-7148269D02*
X4446253Y-7167317D01*
X4617682Y-7224460D02*
X4636730Y-7233984D01*
X4636730Y-7233984D02*
X4674825Y-7233984D01*
X4674825Y-7233984D02*
X4693873Y-7224460D01*
X4693873Y-7224460D02*
X4703396Y-7205412D01*
X4703396Y-7205412D02*
X4703396Y-7195888D01*
X4703396Y-7195888D02*
X4693873Y-7176841D01*
X4693873Y-7176841D02*
X4674825Y-7167317D01*
X4674825Y-7167317D02*
X4646253Y-7167317D01*
X4646253Y-7167317D02*
X4627206Y-7157793D01*
X4627206Y-7157793D02*
X4617682Y-7138746D01*
X4617682Y-7138746D02*
X4617682Y-7129222D01*
X4617682Y-7129222D02*
X4627206Y-7110174D01*
X4627206Y-7110174D02*
X4646253Y-7100650D01*
X4646253Y-7100650D02*
X4674825Y-7100650D01*
X4674825Y-7100650D02*
X4693873Y-7110174D01*
X4770063Y-7310174D02*
X4779587Y-7300650D01*
X4779587Y-7300650D02*
X4798634Y-7272079D01*
X4798634Y-7272079D02*
X4808158Y-7253031D01*
X4808158Y-7253031D02*
X4817682Y-7224460D01*
X4817682Y-7224460D02*
X4827206Y-7176841D01*
X4827206Y-7176841D02*
X4827206Y-7138746D01*
X4827206Y-7138746D02*
X4817682Y-7091127D01*
X4817682Y-7091127D02*
X4808158Y-7062555D01*
X4808158Y-7062555D02*
X4798634Y-7043508D01*
X4798634Y-7043508D02*
X4779587Y-7014936D01*
X4779587Y-7014936D02*
X4770063Y-7005412D01*
X5131968Y-7310174D02*
X5122444Y-7300650D01*
X5122444Y-7300650D02*
X5103396Y-7272079D01*
X5103396Y-7272079D02*
X5093873Y-7253031D01*
X5093873Y-7253031D02*
X5084349Y-7224460D01*
X5084349Y-7224460D02*
X5074825Y-7176841D01*
X5074825Y-7176841D02*
X5074825Y-7138746D01*
X5074825Y-7138746D02*
X5084349Y-7091127D01*
X5084349Y-7091127D02*
X5093873Y-7062555D01*
X5093873Y-7062555D02*
X5103396Y-7043508D01*
X5103396Y-7043508D02*
X5122444Y-7014936D01*
X5122444Y-7014936D02*
X5131968Y-7005412D01*
X5208158Y-7100650D02*
X5208158Y-7233984D01*
X5208158Y-7119698D02*
X5217682Y-7110174D01*
X5217682Y-7110174D02*
X5236730Y-7100650D01*
X5236730Y-7100650D02*
X5265301Y-7100650D01*
X5265301Y-7100650D02*
X5284349Y-7110174D01*
X5284349Y-7110174D02*
X5293873Y-7129222D01*
X5293873Y-7129222D02*
X5293873Y-7233984D01*
X5417682Y-7233984D02*
X5398634Y-7224460D01*
X5398634Y-7224460D02*
X5389111Y-7214936D01*
X5389111Y-7214936D02*
X5379587Y-7195888D01*
X5379587Y-7195888D02*
X5379587Y-7138746D01*
X5379587Y-7138746D02*
X5389111Y-7119698D01*
X5389111Y-7119698D02*
X5398634Y-7110174D01*
X5398634Y-7110174D02*
X5417682Y-7100650D01*
X5417682Y-7100650D02*
X5446254Y-7100650D01*
X5446254Y-7100650D02*
X5465301Y-7110174D01*
X5465301Y-7110174D02*
X5474825Y-7119698D01*
X5474825Y-7119698D02*
X5484349Y-7138746D01*
X5484349Y-7138746D02*
X5484349Y-7195888D01*
X5484349Y-7195888D02*
X5474825Y-7214936D01*
X5474825Y-7214936D02*
X5465301Y-7224460D01*
X5465301Y-7224460D02*
X5446254Y-7233984D01*
X5446254Y-7233984D02*
X5417682Y-7233984D01*
X5541492Y-7100650D02*
X5617682Y-7100650D01*
X5570063Y-7033984D02*
X5570063Y-7205412D01*
X5570063Y-7205412D02*
X5579587Y-7224460D01*
X5579587Y-7224460D02*
X5598634Y-7233984D01*
X5598634Y-7233984D02*
X5617682Y-7233984D01*
X5836730Y-7100650D02*
X5836730Y-7300650D01*
X5836730Y-7110174D02*
X5855777Y-7100650D01*
X5855777Y-7100650D02*
X5893873Y-7100650D01*
X5893873Y-7100650D02*
X5912920Y-7110174D01*
X5912920Y-7110174D02*
X5922444Y-7119698D01*
X5922444Y-7119698D02*
X5931968Y-7138746D01*
X5931968Y-7138746D02*
X5931968Y-7195888D01*
X5931968Y-7195888D02*
X5922444Y-7214936D01*
X5922444Y-7214936D02*
X5912920Y-7224460D01*
X5912920Y-7224460D02*
X5893873Y-7233984D01*
X5893873Y-7233984D02*
X5855777Y-7233984D01*
X5855777Y-7233984D02*
X5836730Y-7224460D01*
X6046253Y-7233984D02*
X6027206Y-7224460D01*
X6027206Y-7224460D02*
X6017682Y-7205412D01*
X6017682Y-7205412D02*
X6017682Y-7033984D01*
X6208158Y-7233984D02*
X6208158Y-7129222D01*
X6208158Y-7129222D02*
X6198634Y-7110174D01*
X6198634Y-7110174D02*
X6179587Y-7100650D01*
X6179587Y-7100650D02*
X6141492Y-7100650D01*
X6141492Y-7100650D02*
X6122444Y-7110174D01*
X6208158Y-7224460D02*
X6189111Y-7233984D01*
X6189111Y-7233984D02*
X6141492Y-7233984D01*
X6141492Y-7233984D02*
X6122444Y-7224460D01*
X6122444Y-7224460D02*
X6112920Y-7205412D01*
X6112920Y-7205412D02*
X6112920Y-7186365D01*
X6112920Y-7186365D02*
X6122444Y-7167317D01*
X6122444Y-7167317D02*
X6141492Y-7157793D01*
X6141492Y-7157793D02*
X6189111Y-7157793D01*
X6189111Y-7157793D02*
X6208158Y-7148269D01*
X6274825Y-7100650D02*
X6351015Y-7100650D01*
X6303396Y-7033984D02*
X6303396Y-7205412D01*
X6303396Y-7205412D02*
X6312920Y-7224460D01*
X6312920Y-7224460D02*
X6331968Y-7233984D01*
X6331968Y-7233984D02*
X6351015Y-7233984D01*
X6493873Y-7224460D02*
X6474825Y-7233984D01*
X6474825Y-7233984D02*
X6436730Y-7233984D01*
X6436730Y-7233984D02*
X6417682Y-7224460D01*
X6417682Y-7224460D02*
X6408158Y-7205412D01*
X6408158Y-7205412D02*
X6408158Y-7129222D01*
X6408158Y-7129222D02*
X6417682Y-7110174D01*
X6417682Y-7110174D02*
X6436730Y-7100650D01*
X6436730Y-7100650D02*
X6474825Y-7100650D01*
X6474825Y-7100650D02*
X6493873Y-7110174D01*
X6493873Y-7110174D02*
X6503396Y-7129222D01*
X6503396Y-7129222D02*
X6503396Y-7148269D01*
X6503396Y-7148269D02*
X6408158Y-7167317D01*
X6674825Y-7233984D02*
X6674825Y-7033984D01*
X6674825Y-7224460D02*
X6655777Y-7233984D01*
X6655777Y-7233984D02*
X6617682Y-7233984D01*
X6617682Y-7233984D02*
X6598634Y-7224460D01*
X6598634Y-7224460D02*
X6589111Y-7214936D01*
X6589111Y-7214936D02*
X6579587Y-7195888D01*
X6579587Y-7195888D02*
X6579587Y-7138746D01*
X6579587Y-7138746D02*
X6589111Y-7119698D01*
X6589111Y-7119698D02*
X6598634Y-7110174D01*
X6598634Y-7110174D02*
X6617682Y-7100650D01*
X6617682Y-7100650D02*
X6655777Y-7100650D01*
X6655777Y-7100650D02*
X6674825Y-7110174D01*
X6751015Y-7310174D02*
X6760539Y-7300650D01*
X6760539Y-7300650D02*
X6779587Y-7272079D01*
X6779587Y-7272079D02*
X6789111Y-7253031D01*
X6789111Y-7253031D02*
X6798634Y-7224460D01*
X6798634Y-7224460D02*
X6808158Y-7176841D01*
X6808158Y-7176841D02*
X6808158Y-7138746D01*
X6808158Y-7138746D02*
X6798634Y-7091127D01*
X6798634Y-7091127D02*
X6789111Y-7062555D01*
X6789111Y-7062555D02*
X6779587Y-7043508D01*
X6779587Y-7043508D02*
X6760539Y-7014936D01*
X6760539Y-7014936D02*
X6751015Y-7005412D01*
X-5000Y-7406500D02*
G75*
G02*
X-205000Y-7406500I-100000J0D01*
G01*
X-205000Y-7406500D02*
G75*
G02*
X-5000Y-7406500I100000J0D01*
G01*
X246253Y-7317031D02*
X255777Y-7307508D01*
X255777Y-7307508D02*
X274824Y-7297984D01*
X274824Y-7297984D02*
X322444Y-7297984D01*
X322444Y-7297984D02*
X341491Y-7307508D01*
X341491Y-7307508D02*
X351015Y-7317031D01*
X351015Y-7317031D02*
X360539Y-7336079D01*
X360539Y-7336079D02*
X360539Y-7355127D01*
X360539Y-7355127D02*
X351015Y-7383698D01*
X351015Y-7383698D02*
X236729Y-7497984D01*
X236729Y-7497984D02*
X360539Y-7497984D01*
X446253Y-7478936D02*
X455777Y-7488460D01*
X455777Y-7488460D02*
X446253Y-7497984D01*
X446253Y-7497984D02*
X436729Y-7488460D01*
X436729Y-7488460D02*
X446253Y-7478936D01*
X446253Y-7478936D02*
X446253Y-7497984D01*
X522443Y-7297984D02*
X646253Y-7297984D01*
X646253Y-7297984D02*
X579586Y-7374174D01*
X579586Y-7374174D02*
X608158Y-7374174D01*
X608158Y-7374174D02*
X627205Y-7383698D01*
X627205Y-7383698D02*
X636729Y-7393222D01*
X636729Y-7393222D02*
X646253Y-7412269D01*
X646253Y-7412269D02*
X646253Y-7459888D01*
X646253Y-7459888D02*
X636729Y-7478936D01*
X636729Y-7478936D02*
X627205Y-7488460D01*
X627205Y-7488460D02*
X608158Y-7497984D01*
X608158Y-7497984D02*
X551015Y-7497984D01*
X551015Y-7497984D02*
X531967Y-7488460D01*
X531967Y-7488460D02*
X522443Y-7478936D01*
X712920Y-7297984D02*
X846253Y-7297984D01*
X846253Y-7297984D02*
X760539Y-7497984D01*
X960539Y-7297984D02*
X979586Y-7297984D01*
X979586Y-7297984D02*
X998634Y-7307508D01*
X998634Y-7307508D02*
X1008158Y-7317031D01*
X1008158Y-7317031D02*
X1017682Y-7336079D01*
X1017682Y-7336079D02*
X1027205Y-7374174D01*
X1027205Y-7374174D02*
X1027205Y-7421793D01*
X1027205Y-7421793D02*
X1017682Y-7459888D01*
X1017682Y-7459888D02*
X1008158Y-7478936D01*
X1008158Y-7478936D02*
X998634Y-7488460D01*
X998634Y-7488460D02*
X979586Y-7497984D01*
X979586Y-7497984D02*
X960539Y-7497984D01*
X960539Y-7497984D02*
X941491Y-7488460D01*
X941491Y-7488460D02*
X931967Y-7478936D01*
X931967Y-7478936D02*
X922443Y-7459888D01*
X922443Y-7459888D02*
X912920Y-7421793D01*
X912920Y-7421793D02*
X912920Y-7374174D01*
X912920Y-7374174D02*
X922443Y-7336079D01*
X922443Y-7336079D02*
X931967Y-7317031D01*
X931967Y-7317031D02*
X941491Y-7307508D01*
X941491Y-7307508D02*
X960539Y-7297984D01*
X1112920Y-7497984D02*
X1112920Y-7364650D01*
X1112920Y-7383698D02*
X1122444Y-7374174D01*
X1122444Y-7374174D02*
X1141491Y-7364650D01*
X1141491Y-7364650D02*
X1170063Y-7364650D01*
X1170063Y-7364650D02*
X1189110Y-7374174D01*
X1189110Y-7374174D02*
X1198634Y-7393222D01*
X1198634Y-7393222D02*
X1198634Y-7497984D01*
X1198634Y-7393222D02*
X1208158Y-7374174D01*
X1208158Y-7374174D02*
X1227205Y-7364650D01*
X1227205Y-7364650D02*
X1255777Y-7364650D01*
X1255777Y-7364650D02*
X1274825Y-7374174D01*
X1274825Y-7374174D02*
X1284348Y-7393222D01*
X1284348Y-7393222D02*
X1284348Y-7497984D01*
X1379586Y-7497984D02*
X1379586Y-7364650D01*
X1379586Y-7383698D02*
X1389110Y-7374174D01*
X1389110Y-7374174D02*
X1408158Y-7364650D01*
X1408158Y-7364650D02*
X1436729Y-7364650D01*
X1436729Y-7364650D02*
X1455777Y-7374174D01*
X1455777Y-7374174D02*
X1465301Y-7393222D01*
X1465301Y-7393222D02*
X1465301Y-7497984D01*
X1465301Y-7393222D02*
X1474824Y-7374174D01*
X1474824Y-7374174D02*
X1493872Y-7364650D01*
X1493872Y-7364650D02*
X1522443Y-7364650D01*
X1522443Y-7364650D02*
X1541491Y-7374174D01*
X1541491Y-7374174D02*
X1551015Y-7393222D01*
X1551015Y-7393222D02*
X1551015Y-7497984D01*
X1941491Y-7288460D02*
X1770063Y-7545603D01*
X2198634Y-7297984D02*
X2217682Y-7297984D01*
X2217682Y-7297984D02*
X2236729Y-7307508D01*
X2236729Y-7307508D02*
X2246253Y-7317031D01*
X2246253Y-7317031D02*
X2255777Y-7336079D01*
X2255777Y-7336079D02*
X2265301Y-7374174D01*
X2265301Y-7374174D02*
X2265301Y-7421793D01*
X2265301Y-7421793D02*
X2255777Y-7459888D01*
X2255777Y-7459888D02*
X2246253Y-7478936D01*
X2246253Y-7478936D02*
X2236729Y-7488460D01*
X2236729Y-7488460D02*
X2217682Y-7497984D01*
X2217682Y-7497984D02*
X2198634Y-7497984D01*
X2198634Y-7497984D02*
X2179587Y-7488460D01*
X2179587Y-7488460D02*
X2170063Y-7478936D01*
X2170063Y-7478936D02*
X2160539Y-7459888D01*
X2160539Y-7459888D02*
X2151015Y-7421793D01*
X2151015Y-7421793D02*
X2151015Y-7374174D01*
X2151015Y-7374174D02*
X2160539Y-7336079D01*
X2160539Y-7336079D02*
X2170063Y-7317031D01*
X2170063Y-7317031D02*
X2179587Y-7307508D01*
X2179587Y-7307508D02*
X2198634Y-7297984D01*
X2351015Y-7478936D02*
X2360539Y-7488460D01*
X2360539Y-7488460D02*
X2351015Y-7497984D01*
X2351015Y-7497984D02*
X2341491Y-7488460D01*
X2341491Y-7488460D02*
X2351015Y-7478936D01*
X2351015Y-7478936D02*
X2351015Y-7497984D01*
X2484348Y-7297984D02*
X2503396Y-7297984D01*
X2503396Y-7297984D02*
X2522444Y-7307508D01*
X2522444Y-7307508D02*
X2531968Y-7317031D01*
X2531968Y-7317031D02*
X2541491Y-7336079D01*
X2541491Y-7336079D02*
X2551015Y-7374174D01*
X2551015Y-7374174D02*
X2551015Y-7421793D01*
X2551015Y-7421793D02*
X2541491Y-7459888D01*
X2541491Y-7459888D02*
X2531968Y-7478936D01*
X2531968Y-7478936D02*
X2522444Y-7488460D01*
X2522444Y-7488460D02*
X2503396Y-7497984D01*
X2503396Y-7497984D02*
X2484348Y-7497984D01*
X2484348Y-7497984D02*
X2465301Y-7488460D01*
X2465301Y-7488460D02*
X2455777Y-7478936D01*
X2455777Y-7478936D02*
X2446253Y-7459888D01*
X2446253Y-7459888D02*
X2436729Y-7421793D01*
X2436729Y-7421793D02*
X2436729Y-7374174D01*
X2436729Y-7374174D02*
X2446253Y-7336079D01*
X2446253Y-7336079D02*
X2455777Y-7317031D01*
X2455777Y-7317031D02*
X2465301Y-7307508D01*
X2465301Y-7307508D02*
X2484348Y-7297984D01*
X2646253Y-7497984D02*
X2684348Y-7497984D01*
X2684348Y-7497984D02*
X2703396Y-7488460D01*
X2703396Y-7488460D02*
X2712920Y-7478936D01*
X2712920Y-7478936D02*
X2731968Y-7450365D01*
X2731968Y-7450365D02*
X2741491Y-7412269D01*
X2741491Y-7412269D02*
X2741491Y-7336079D01*
X2741491Y-7336079D02*
X2731968Y-7317031D01*
X2731968Y-7317031D02*
X2722444Y-7307508D01*
X2722444Y-7307508D02*
X2703396Y-7297984D01*
X2703396Y-7297984D02*
X2665301Y-7297984D01*
X2665301Y-7297984D02*
X2646253Y-7307508D01*
X2646253Y-7307508D02*
X2636729Y-7317031D01*
X2636729Y-7317031D02*
X2627206Y-7336079D01*
X2627206Y-7336079D02*
X2627206Y-7383698D01*
X2627206Y-7383698D02*
X2636729Y-7402746D01*
X2636729Y-7402746D02*
X2646253Y-7412269D01*
X2646253Y-7412269D02*
X2665301Y-7421793D01*
X2665301Y-7421793D02*
X2703396Y-7421793D01*
X2703396Y-7421793D02*
X2722444Y-7412269D01*
X2722444Y-7412269D02*
X2731968Y-7402746D01*
X2731968Y-7402746D02*
X2741491Y-7383698D01*
X2808158Y-7297984D02*
X2931967Y-7297984D01*
X2931967Y-7297984D02*
X2865301Y-7374174D01*
X2865301Y-7374174D02*
X2893872Y-7374174D01*
X2893872Y-7374174D02*
X2912920Y-7383698D01*
X2912920Y-7383698D02*
X2922444Y-7393222D01*
X2922444Y-7393222D02*
X2931967Y-7412269D01*
X2931967Y-7412269D02*
X2931967Y-7459888D01*
X2931967Y-7459888D02*
X2922444Y-7478936D01*
X2922444Y-7478936D02*
X2912920Y-7488460D01*
X2912920Y-7488460D02*
X2893872Y-7497984D01*
X2893872Y-7497984D02*
X2836729Y-7497984D01*
X2836729Y-7497984D02*
X2817682Y-7488460D01*
X2817682Y-7488460D02*
X2808158Y-7478936D01*
X2998634Y-7297984D02*
X3122444Y-7297984D01*
X3122444Y-7297984D02*
X3055777Y-7374174D01*
X3055777Y-7374174D02*
X3084348Y-7374174D01*
X3084348Y-7374174D02*
X3103396Y-7383698D01*
X3103396Y-7383698D02*
X3112920Y-7393222D01*
X3112920Y-7393222D02*
X3122444Y-7412269D01*
X3122444Y-7412269D02*
X3122444Y-7459888D01*
X3122444Y-7459888D02*
X3112920Y-7478936D01*
X3112920Y-7478936D02*
X3103396Y-7488460D01*
X3103396Y-7488460D02*
X3084348Y-7497984D01*
X3084348Y-7497984D02*
X3027206Y-7497984D01*
X3027206Y-7497984D02*
X3008158Y-7488460D01*
X3008158Y-7488460D02*
X2998634Y-7478936D01*
X3198634Y-7297984D02*
X3198634Y-7336079D01*
X3274825Y-7297984D02*
X3274825Y-7336079D01*
X3570063Y-7574174D02*
X3560539Y-7564650D01*
X3560539Y-7564650D02*
X3541491Y-7536079D01*
X3541491Y-7536079D02*
X3531968Y-7517031D01*
X3531968Y-7517031D02*
X3522444Y-7488460D01*
X3522444Y-7488460D02*
X3512920Y-7440841D01*
X3512920Y-7440841D02*
X3512920Y-7402746D01*
X3512920Y-7402746D02*
X3522444Y-7355127D01*
X3522444Y-7355127D02*
X3531968Y-7326555D01*
X3531968Y-7326555D02*
X3541491Y-7307508D01*
X3541491Y-7307508D02*
X3560539Y-7278936D01*
X3560539Y-7278936D02*
X3570063Y-7269412D01*
X3636729Y-7317031D02*
X3646253Y-7307508D01*
X3646253Y-7307508D02*
X3665301Y-7297984D01*
X3665301Y-7297984D02*
X3712920Y-7297984D01*
X3712920Y-7297984D02*
X3731968Y-7307508D01*
X3731968Y-7307508D02*
X3741491Y-7317031D01*
X3741491Y-7317031D02*
X3751015Y-7336079D01*
X3751015Y-7336079D02*
X3751015Y-7355127D01*
X3751015Y-7355127D02*
X3741491Y-7383698D01*
X3741491Y-7383698D02*
X3627206Y-7497984D01*
X3627206Y-7497984D02*
X3751015Y-7497984D01*
X3989110Y-7497984D02*
X3989110Y-7297984D01*
X4074825Y-7497984D02*
X4074825Y-7393222D01*
X4074825Y-7393222D02*
X4065301Y-7374174D01*
X4065301Y-7374174D02*
X4046253Y-7364650D01*
X4046253Y-7364650D02*
X4017682Y-7364650D01*
X4017682Y-7364650D02*
X3998634Y-7374174D01*
X3998634Y-7374174D02*
X3989110Y-7383698D01*
X4198634Y-7497984D02*
X4179587Y-7488460D01*
X4179587Y-7488460D02*
X4170063Y-7478936D01*
X4170063Y-7478936D02*
X4160539Y-7459888D01*
X4160539Y-7459888D02*
X4160539Y-7402746D01*
X4160539Y-7402746D02*
X4170063Y-7383698D01*
X4170063Y-7383698D02*
X4179587Y-7374174D01*
X4179587Y-7374174D02*
X4198634Y-7364650D01*
X4198634Y-7364650D02*
X4227206Y-7364650D01*
X4227206Y-7364650D02*
X4246253Y-7374174D01*
X4246253Y-7374174D02*
X4255777Y-7383698D01*
X4255777Y-7383698D02*
X4265301Y-7402746D01*
X4265301Y-7402746D02*
X4265301Y-7459888D01*
X4265301Y-7459888D02*
X4255777Y-7478936D01*
X4255777Y-7478936D02*
X4246253Y-7488460D01*
X4246253Y-7488460D02*
X4227206Y-7497984D01*
X4227206Y-7497984D02*
X4198634Y-7497984D01*
X4379587Y-7497984D02*
X4360539Y-7488460D01*
X4360539Y-7488460D02*
X4351015Y-7469412D01*
X4351015Y-7469412D02*
X4351015Y-7297984D01*
X4531968Y-7488460D02*
X4512920Y-7497984D01*
X4512920Y-7497984D02*
X4474825Y-7497984D01*
X4474825Y-7497984D02*
X4455777Y-7488460D01*
X4455777Y-7488460D02*
X4446253Y-7469412D01*
X4446253Y-7469412D02*
X4446253Y-7393222D01*
X4446253Y-7393222D02*
X4455777Y-7374174D01*
X4455777Y-7374174D02*
X4474825Y-7364650D01*
X4474825Y-7364650D02*
X4512920Y-7364650D01*
X4512920Y-7364650D02*
X4531968Y-7374174D01*
X4531968Y-7374174D02*
X4541492Y-7393222D01*
X4541492Y-7393222D02*
X4541492Y-7412269D01*
X4541492Y-7412269D02*
X4446253Y-7431317D01*
X4617682Y-7488460D02*
X4636730Y-7497984D01*
X4636730Y-7497984D02*
X4674825Y-7497984D01*
X4674825Y-7497984D02*
X4693873Y-7488460D01*
X4693873Y-7488460D02*
X4703396Y-7469412D01*
X4703396Y-7469412D02*
X4703396Y-7459888D01*
X4703396Y-7459888D02*
X4693873Y-7440841D01*
X4693873Y-7440841D02*
X4674825Y-7431317D01*
X4674825Y-7431317D02*
X4646253Y-7431317D01*
X4646253Y-7431317D02*
X4627206Y-7421793D01*
X4627206Y-7421793D02*
X4617682Y-7402746D01*
X4617682Y-7402746D02*
X4617682Y-7393222D01*
X4617682Y-7393222D02*
X4627206Y-7374174D01*
X4627206Y-7374174D02*
X4646253Y-7364650D01*
X4646253Y-7364650D02*
X4674825Y-7364650D01*
X4674825Y-7364650D02*
X4693873Y-7374174D01*
X4770063Y-7574174D02*
X4779587Y-7564650D01*
X4779587Y-7564650D02*
X4798634Y-7536079D01*
X4798634Y-7536079D02*
X4808158Y-7517031D01*
X4808158Y-7517031D02*
X4817682Y-7488460D01*
X4817682Y-7488460D02*
X4827206Y-7440841D01*
X4827206Y-7440841D02*
X4827206Y-7402746D01*
X4827206Y-7402746D02*
X4817682Y-7355127D01*
X4817682Y-7355127D02*
X4808158Y-7326555D01*
X4808158Y-7326555D02*
X4798634Y-7307508D01*
X4798634Y-7307508D02*
X4779587Y-7278936D01*
X4779587Y-7278936D02*
X4770063Y-7269412D01*
X5131968Y-7574174D02*
X5122444Y-7564650D01*
X5122444Y-7564650D02*
X5103396Y-7536079D01*
X5103396Y-7536079D02*
X5093873Y-7517031D01*
X5093873Y-7517031D02*
X5084349Y-7488460D01*
X5084349Y-7488460D02*
X5074825Y-7440841D01*
X5074825Y-7440841D02*
X5074825Y-7402746D01*
X5074825Y-7402746D02*
X5084349Y-7355127D01*
X5084349Y-7355127D02*
X5093873Y-7326555D01*
X5093873Y-7326555D02*
X5103396Y-7307508D01*
X5103396Y-7307508D02*
X5122444Y-7278936D01*
X5122444Y-7278936D02*
X5131968Y-7269412D01*
X5208158Y-7364650D02*
X5208158Y-7497984D01*
X5208158Y-7383698D02*
X5217682Y-7374174D01*
X5217682Y-7374174D02*
X5236730Y-7364650D01*
X5236730Y-7364650D02*
X5265301Y-7364650D01*
X5265301Y-7364650D02*
X5284349Y-7374174D01*
X5284349Y-7374174D02*
X5293873Y-7393222D01*
X5293873Y-7393222D02*
X5293873Y-7497984D01*
X5417682Y-7497984D02*
X5398634Y-7488460D01*
X5398634Y-7488460D02*
X5389111Y-7478936D01*
X5389111Y-7478936D02*
X5379587Y-7459888D01*
X5379587Y-7459888D02*
X5379587Y-7402746D01*
X5379587Y-7402746D02*
X5389111Y-7383698D01*
X5389111Y-7383698D02*
X5398634Y-7374174D01*
X5398634Y-7374174D02*
X5417682Y-7364650D01*
X5417682Y-7364650D02*
X5446254Y-7364650D01*
X5446254Y-7364650D02*
X5465301Y-7374174D01*
X5465301Y-7374174D02*
X5474825Y-7383698D01*
X5474825Y-7383698D02*
X5484349Y-7402746D01*
X5484349Y-7402746D02*
X5484349Y-7459888D01*
X5484349Y-7459888D02*
X5474825Y-7478936D01*
X5474825Y-7478936D02*
X5465301Y-7488460D01*
X5465301Y-7488460D02*
X5446254Y-7497984D01*
X5446254Y-7497984D02*
X5417682Y-7497984D01*
X5541492Y-7364650D02*
X5617682Y-7364650D01*
X5570063Y-7297984D02*
X5570063Y-7469412D01*
X5570063Y-7469412D02*
X5579587Y-7488460D01*
X5579587Y-7488460D02*
X5598634Y-7497984D01*
X5598634Y-7497984D02*
X5617682Y-7497984D01*
X5836730Y-7364650D02*
X5836730Y-7564650D01*
X5836730Y-7374174D02*
X5855777Y-7364650D01*
X5855777Y-7364650D02*
X5893873Y-7364650D01*
X5893873Y-7364650D02*
X5912920Y-7374174D01*
X5912920Y-7374174D02*
X5922444Y-7383698D01*
X5922444Y-7383698D02*
X5931968Y-7402746D01*
X5931968Y-7402746D02*
X5931968Y-7459888D01*
X5931968Y-7459888D02*
X5922444Y-7478936D01*
X5922444Y-7478936D02*
X5912920Y-7488460D01*
X5912920Y-7488460D02*
X5893873Y-7497984D01*
X5893873Y-7497984D02*
X5855777Y-7497984D01*
X5855777Y-7497984D02*
X5836730Y-7488460D01*
X6046253Y-7497984D02*
X6027206Y-7488460D01*
X6027206Y-7488460D02*
X6017682Y-7469412D01*
X6017682Y-7469412D02*
X6017682Y-7297984D01*
X6208158Y-7497984D02*
X6208158Y-7393222D01*
X6208158Y-7393222D02*
X6198634Y-7374174D01*
X6198634Y-7374174D02*
X6179587Y-7364650D01*
X6179587Y-7364650D02*
X6141492Y-7364650D01*
X6141492Y-7364650D02*
X6122444Y-7374174D01*
X6208158Y-7488460D02*
X6189111Y-7497984D01*
X6189111Y-7497984D02*
X6141492Y-7497984D01*
X6141492Y-7497984D02*
X6122444Y-7488460D01*
X6122444Y-7488460D02*
X6112920Y-7469412D01*
X6112920Y-7469412D02*
X6112920Y-7450365D01*
X6112920Y-7450365D02*
X6122444Y-7431317D01*
X6122444Y-7431317D02*
X6141492Y-7421793D01*
X6141492Y-7421793D02*
X6189111Y-7421793D01*
X6189111Y-7421793D02*
X6208158Y-7412269D01*
X6274825Y-7364650D02*
X6351015Y-7364650D01*
X6303396Y-7297984D02*
X6303396Y-7469412D01*
X6303396Y-7469412D02*
X6312920Y-7488460D01*
X6312920Y-7488460D02*
X6331968Y-7497984D01*
X6331968Y-7497984D02*
X6351015Y-7497984D01*
X6493873Y-7488460D02*
X6474825Y-7497984D01*
X6474825Y-7497984D02*
X6436730Y-7497984D01*
X6436730Y-7497984D02*
X6417682Y-7488460D01*
X6417682Y-7488460D02*
X6408158Y-7469412D01*
X6408158Y-7469412D02*
X6408158Y-7393222D01*
X6408158Y-7393222D02*
X6417682Y-7374174D01*
X6417682Y-7374174D02*
X6436730Y-7364650D01*
X6436730Y-7364650D02*
X6474825Y-7364650D01*
X6474825Y-7364650D02*
X6493873Y-7374174D01*
X6493873Y-7374174D02*
X6503396Y-7393222D01*
X6503396Y-7393222D02*
X6503396Y-7412269D01*
X6503396Y-7412269D02*
X6408158Y-7431317D01*
X6674825Y-7497984D02*
X6674825Y-7297984D01*
X6674825Y-7488460D02*
X6655777Y-7497984D01*
X6655777Y-7497984D02*
X6617682Y-7497984D01*
X6617682Y-7497984D02*
X6598634Y-7488460D01*
X6598634Y-7488460D02*
X6589111Y-7478936D01*
X6589111Y-7478936D02*
X6579587Y-7459888D01*
X6579587Y-7459888D02*
X6579587Y-7402746D01*
X6579587Y-7402746D02*
X6589111Y-7383698D01*
X6589111Y-7383698D02*
X6598634Y-7374174D01*
X6598634Y-7374174D02*
X6617682Y-7364650D01*
X6617682Y-7364650D02*
X6655777Y-7364650D01*
X6655777Y-7364650D02*
X6674825Y-7374174D01*
X6751015Y-7574174D02*
X6760539Y-7564650D01*
X6760539Y-7564650D02*
X6779587Y-7536079D01*
X6779587Y-7536079D02*
X6789111Y-7517031D01*
X6789111Y-7517031D02*
X6798634Y-7488460D01*
X6798634Y-7488460D02*
X6808158Y-7440841D01*
X6808158Y-7440841D02*
X6808158Y-7402746D01*
X6808158Y-7402746D02*
X6798634Y-7355127D01*
X6798634Y-7355127D02*
X6789111Y-7326555D01*
X6789111Y-7326555D02*
X6779587Y-7307508D01*
X6779587Y-7307508D02*
X6760539Y-7278936D01*
X6760539Y-7278936D02*
X6751015Y-7269412D01*
X-105000Y-7626500D02*
X-105000Y-7826500D01*
X-205000Y-7726500D02*
X-5000Y-7726500D01*
X236729Y-7617984D02*
X360539Y-7617984D01*
X360539Y-7617984D02*
X293872Y-7694174D01*
X293872Y-7694174D02*
X322444Y-7694174D01*
X322444Y-7694174D02*
X341491Y-7703698D01*
X341491Y-7703698D02*
X351015Y-7713222D01*
X351015Y-7713222D02*
X360539Y-7732269D01*
X360539Y-7732269D02*
X360539Y-7779888D01*
X360539Y-7779888D02*
X351015Y-7798936D01*
X351015Y-7798936D02*
X341491Y-7808460D01*
X341491Y-7808460D02*
X322444Y-7817984D01*
X322444Y-7817984D02*
X265301Y-7817984D01*
X265301Y-7817984D02*
X246253Y-7808460D01*
X246253Y-7808460D02*
X236729Y-7798936D01*
X446253Y-7798936D02*
X455777Y-7808460D01*
X455777Y-7808460D02*
X446253Y-7817984D01*
X446253Y-7817984D02*
X436729Y-7808460D01*
X436729Y-7808460D02*
X446253Y-7798936D01*
X446253Y-7798936D02*
X446253Y-7817984D01*
X531967Y-7637031D02*
X541491Y-7627508D01*
X541491Y-7627508D02*
X560539Y-7617984D01*
X560539Y-7617984D02*
X608158Y-7617984D01*
X608158Y-7617984D02*
X627205Y-7627508D01*
X627205Y-7627508D02*
X636729Y-7637031D01*
X636729Y-7637031D02*
X646253Y-7656079D01*
X646253Y-7656079D02*
X646253Y-7675127D01*
X646253Y-7675127D02*
X636729Y-7703698D01*
X636729Y-7703698D02*
X522443Y-7817984D01*
X522443Y-7817984D02*
X646253Y-7817984D01*
X770062Y-7617984D02*
X789110Y-7617984D01*
X789110Y-7617984D02*
X808158Y-7627508D01*
X808158Y-7627508D02*
X817682Y-7637031D01*
X817682Y-7637031D02*
X827205Y-7656079D01*
X827205Y-7656079D02*
X836729Y-7694174D01*
X836729Y-7694174D02*
X836729Y-7741793D01*
X836729Y-7741793D02*
X827205Y-7779888D01*
X827205Y-7779888D02*
X817682Y-7798936D01*
X817682Y-7798936D02*
X808158Y-7808460D01*
X808158Y-7808460D02*
X789110Y-7817984D01*
X789110Y-7817984D02*
X770062Y-7817984D01*
X770062Y-7817984D02*
X751015Y-7808460D01*
X751015Y-7808460D02*
X741491Y-7798936D01*
X741491Y-7798936D02*
X731967Y-7779888D01*
X731967Y-7779888D02*
X722443Y-7741793D01*
X722443Y-7741793D02*
X722443Y-7694174D01*
X722443Y-7694174D02*
X731967Y-7656079D01*
X731967Y-7656079D02*
X741491Y-7637031D01*
X741491Y-7637031D02*
X751015Y-7627508D01*
X751015Y-7627508D02*
X770062Y-7617984D01*
X960539Y-7617984D02*
X979586Y-7617984D01*
X979586Y-7617984D02*
X998634Y-7627508D01*
X998634Y-7627508D02*
X1008158Y-7637031D01*
X1008158Y-7637031D02*
X1017682Y-7656079D01*
X1017682Y-7656079D02*
X1027205Y-7694174D01*
X1027205Y-7694174D02*
X1027205Y-7741793D01*
X1027205Y-7741793D02*
X1017682Y-7779888D01*
X1017682Y-7779888D02*
X1008158Y-7798936D01*
X1008158Y-7798936D02*
X998634Y-7808460D01*
X998634Y-7808460D02*
X979586Y-7817984D01*
X979586Y-7817984D02*
X960539Y-7817984D01*
X960539Y-7817984D02*
X941491Y-7808460D01*
X941491Y-7808460D02*
X931967Y-7798936D01*
X931967Y-7798936D02*
X922443Y-7779888D01*
X922443Y-7779888D02*
X912920Y-7741793D01*
X912920Y-7741793D02*
X912920Y-7694174D01*
X912920Y-7694174D02*
X922443Y-7656079D01*
X922443Y-7656079D02*
X931967Y-7637031D01*
X931967Y-7637031D02*
X941491Y-7627508D01*
X941491Y-7627508D02*
X960539Y-7617984D01*
X1112920Y-7817984D02*
X1112920Y-7684650D01*
X1112920Y-7703698D02*
X1122444Y-7694174D01*
X1122444Y-7694174D02*
X1141491Y-7684650D01*
X1141491Y-7684650D02*
X1170063Y-7684650D01*
X1170063Y-7684650D02*
X1189110Y-7694174D01*
X1189110Y-7694174D02*
X1198634Y-7713222D01*
X1198634Y-7713222D02*
X1198634Y-7817984D01*
X1198634Y-7713222D02*
X1208158Y-7694174D01*
X1208158Y-7694174D02*
X1227205Y-7684650D01*
X1227205Y-7684650D02*
X1255777Y-7684650D01*
X1255777Y-7684650D02*
X1274825Y-7694174D01*
X1274825Y-7694174D02*
X1284348Y-7713222D01*
X1284348Y-7713222D02*
X1284348Y-7817984D01*
X1379586Y-7817984D02*
X1379586Y-7684650D01*
X1379586Y-7703698D02*
X1389110Y-7694174D01*
X1389110Y-7694174D02*
X1408158Y-7684650D01*
X1408158Y-7684650D02*
X1436729Y-7684650D01*
X1436729Y-7684650D02*
X1455777Y-7694174D01*
X1455777Y-7694174D02*
X1465301Y-7713222D01*
X1465301Y-7713222D02*
X1465301Y-7817984D01*
X1465301Y-7713222D02*
X1474824Y-7694174D01*
X1474824Y-7694174D02*
X1493872Y-7684650D01*
X1493872Y-7684650D02*
X1522443Y-7684650D01*
X1522443Y-7684650D02*
X1541491Y-7694174D01*
X1541491Y-7694174D02*
X1551015Y-7713222D01*
X1551015Y-7713222D02*
X1551015Y-7817984D01*
X1941491Y-7608460D02*
X1770063Y-7865603D01*
X2198634Y-7617984D02*
X2217682Y-7617984D01*
X2217682Y-7617984D02*
X2236729Y-7627508D01*
X2236729Y-7627508D02*
X2246253Y-7637031D01*
X2246253Y-7637031D02*
X2255777Y-7656079D01*
X2255777Y-7656079D02*
X2265301Y-7694174D01*
X2265301Y-7694174D02*
X2265301Y-7741793D01*
X2265301Y-7741793D02*
X2255777Y-7779888D01*
X2255777Y-7779888D02*
X2246253Y-7798936D01*
X2246253Y-7798936D02*
X2236729Y-7808460D01*
X2236729Y-7808460D02*
X2217682Y-7817984D01*
X2217682Y-7817984D02*
X2198634Y-7817984D01*
X2198634Y-7817984D02*
X2179587Y-7808460D01*
X2179587Y-7808460D02*
X2170063Y-7798936D01*
X2170063Y-7798936D02*
X2160539Y-7779888D01*
X2160539Y-7779888D02*
X2151015Y-7741793D01*
X2151015Y-7741793D02*
X2151015Y-7694174D01*
X2151015Y-7694174D02*
X2160539Y-7656079D01*
X2160539Y-7656079D02*
X2170063Y-7637031D01*
X2170063Y-7637031D02*
X2179587Y-7627508D01*
X2179587Y-7627508D02*
X2198634Y-7617984D01*
X2351015Y-7798936D02*
X2360539Y-7808460D01*
X2360539Y-7808460D02*
X2351015Y-7817984D01*
X2351015Y-7817984D02*
X2341491Y-7808460D01*
X2341491Y-7808460D02*
X2351015Y-7798936D01*
X2351015Y-7798936D02*
X2351015Y-7817984D01*
X2551015Y-7817984D02*
X2436729Y-7817984D01*
X2493872Y-7817984D02*
X2493872Y-7617984D01*
X2493872Y-7617984D02*
X2474825Y-7646555D01*
X2474825Y-7646555D02*
X2455777Y-7665603D01*
X2455777Y-7665603D02*
X2436729Y-7675127D01*
X2627206Y-7637031D02*
X2636729Y-7627508D01*
X2636729Y-7627508D02*
X2655777Y-7617984D01*
X2655777Y-7617984D02*
X2703396Y-7617984D01*
X2703396Y-7617984D02*
X2722444Y-7627508D01*
X2722444Y-7627508D02*
X2731968Y-7637031D01*
X2731968Y-7637031D02*
X2741491Y-7656079D01*
X2741491Y-7656079D02*
X2741491Y-7675127D01*
X2741491Y-7675127D02*
X2731968Y-7703698D01*
X2731968Y-7703698D02*
X2617682Y-7817984D01*
X2617682Y-7817984D02*
X2741491Y-7817984D01*
X2912920Y-7617984D02*
X2874825Y-7617984D01*
X2874825Y-7617984D02*
X2855777Y-7627508D01*
X2855777Y-7627508D02*
X2846253Y-7637031D01*
X2846253Y-7637031D02*
X2827206Y-7665603D01*
X2827206Y-7665603D02*
X2817682Y-7703698D01*
X2817682Y-7703698D02*
X2817682Y-7779888D01*
X2817682Y-7779888D02*
X2827206Y-7798936D01*
X2827206Y-7798936D02*
X2836729Y-7808460D01*
X2836729Y-7808460D02*
X2855777Y-7817984D01*
X2855777Y-7817984D02*
X2893872Y-7817984D01*
X2893872Y-7817984D02*
X2912920Y-7808460D01*
X2912920Y-7808460D02*
X2922444Y-7798936D01*
X2922444Y-7798936D02*
X2931967Y-7779888D01*
X2931967Y-7779888D02*
X2931967Y-7732269D01*
X2931967Y-7732269D02*
X2922444Y-7713222D01*
X2922444Y-7713222D02*
X2912920Y-7703698D01*
X2912920Y-7703698D02*
X2893872Y-7694174D01*
X2893872Y-7694174D02*
X2855777Y-7694174D01*
X2855777Y-7694174D02*
X2836729Y-7703698D01*
X2836729Y-7703698D02*
X2827206Y-7713222D01*
X2827206Y-7713222D02*
X2817682Y-7732269D01*
X3055777Y-7617984D02*
X3074825Y-7617984D01*
X3074825Y-7617984D02*
X3093872Y-7627508D01*
X3093872Y-7627508D02*
X3103396Y-7637031D01*
X3103396Y-7637031D02*
X3112920Y-7656079D01*
X3112920Y-7656079D02*
X3122444Y-7694174D01*
X3122444Y-7694174D02*
X3122444Y-7741793D01*
X3122444Y-7741793D02*
X3112920Y-7779888D01*
X3112920Y-7779888D02*
X3103396Y-7798936D01*
X3103396Y-7798936D02*
X3093872Y-7808460D01*
X3093872Y-7808460D02*
X3074825Y-7817984D01*
X3074825Y-7817984D02*
X3055777Y-7817984D01*
X3055777Y-7817984D02*
X3036729Y-7808460D01*
X3036729Y-7808460D02*
X3027206Y-7798936D01*
X3027206Y-7798936D02*
X3017682Y-7779888D01*
X3017682Y-7779888D02*
X3008158Y-7741793D01*
X3008158Y-7741793D02*
X3008158Y-7694174D01*
X3008158Y-7694174D02*
X3017682Y-7656079D01*
X3017682Y-7656079D02*
X3027206Y-7637031D01*
X3027206Y-7637031D02*
X3036729Y-7627508D01*
X3036729Y-7627508D02*
X3055777Y-7617984D01*
X3198634Y-7617984D02*
X3198634Y-7656079D01*
X3274825Y-7617984D02*
X3274825Y-7656079D01*
X3570063Y-7894174D02*
X3560539Y-7884650D01*
X3560539Y-7884650D02*
X3541491Y-7856079D01*
X3541491Y-7856079D02*
X3531968Y-7837031D01*
X3531968Y-7837031D02*
X3522444Y-7808460D01*
X3522444Y-7808460D02*
X3512920Y-7760841D01*
X3512920Y-7760841D02*
X3512920Y-7722746D01*
X3512920Y-7722746D02*
X3522444Y-7675127D01*
X3522444Y-7675127D02*
X3531968Y-7646555D01*
X3531968Y-7646555D02*
X3541491Y-7627508D01*
X3541491Y-7627508D02*
X3560539Y-7598936D01*
X3560539Y-7598936D02*
X3570063Y-7589412D01*
X3731968Y-7617984D02*
X3693872Y-7617984D01*
X3693872Y-7617984D02*
X3674825Y-7627508D01*
X3674825Y-7627508D02*
X3665301Y-7637031D01*
X3665301Y-7637031D02*
X3646253Y-7665603D01*
X3646253Y-7665603D02*
X3636729Y-7703698D01*
X3636729Y-7703698D02*
X3636729Y-7779888D01*
X3636729Y-7779888D02*
X3646253Y-7798936D01*
X3646253Y-7798936D02*
X3655777Y-7808460D01*
X3655777Y-7808460D02*
X3674825Y-7817984D01*
X3674825Y-7817984D02*
X3712920Y-7817984D01*
X3712920Y-7817984D02*
X3731968Y-7808460D01*
X3731968Y-7808460D02*
X3741491Y-7798936D01*
X3741491Y-7798936D02*
X3751015Y-7779888D01*
X3751015Y-7779888D02*
X3751015Y-7732269D01*
X3751015Y-7732269D02*
X3741491Y-7713222D01*
X3741491Y-7713222D02*
X3731968Y-7703698D01*
X3731968Y-7703698D02*
X3712920Y-7694174D01*
X3712920Y-7694174D02*
X3674825Y-7694174D01*
X3674825Y-7694174D02*
X3655777Y-7703698D01*
X3655777Y-7703698D02*
X3646253Y-7713222D01*
X3646253Y-7713222D02*
X3636729Y-7732269D01*
X3989110Y-7817984D02*
X3989110Y-7617984D01*
X4074825Y-7817984D02*
X4074825Y-7713222D01*
X4074825Y-7713222D02*
X4065301Y-7694174D01*
X4065301Y-7694174D02*
X4046253Y-7684650D01*
X4046253Y-7684650D02*
X4017682Y-7684650D01*
X4017682Y-7684650D02*
X3998634Y-7694174D01*
X3998634Y-7694174D02*
X3989110Y-7703698D01*
X4198634Y-7817984D02*
X4179587Y-7808460D01*
X4179587Y-7808460D02*
X4170063Y-7798936D01*
X4170063Y-7798936D02*
X4160539Y-7779888D01*
X4160539Y-7779888D02*
X4160539Y-7722746D01*
X4160539Y-7722746D02*
X4170063Y-7703698D01*
X4170063Y-7703698D02*
X4179587Y-7694174D01*
X4179587Y-7694174D02*
X4198634Y-7684650D01*
X4198634Y-7684650D02*
X4227206Y-7684650D01*
X4227206Y-7684650D02*
X4246253Y-7694174D01*
X4246253Y-7694174D02*
X4255777Y-7703698D01*
X4255777Y-7703698D02*
X4265301Y-7722746D01*
X4265301Y-7722746D02*
X4265301Y-7779888D01*
X4265301Y-7779888D02*
X4255777Y-7798936D01*
X4255777Y-7798936D02*
X4246253Y-7808460D01*
X4246253Y-7808460D02*
X4227206Y-7817984D01*
X4227206Y-7817984D02*
X4198634Y-7817984D01*
X4379587Y-7817984D02*
X4360539Y-7808460D01*
X4360539Y-7808460D02*
X4351015Y-7789412D01*
X4351015Y-7789412D02*
X4351015Y-7617984D01*
X4531968Y-7808460D02*
X4512920Y-7817984D01*
X4512920Y-7817984D02*
X4474825Y-7817984D01*
X4474825Y-7817984D02*
X4455777Y-7808460D01*
X4455777Y-7808460D02*
X4446253Y-7789412D01*
X4446253Y-7789412D02*
X4446253Y-7713222D01*
X4446253Y-7713222D02*
X4455777Y-7694174D01*
X4455777Y-7694174D02*
X4474825Y-7684650D01*
X4474825Y-7684650D02*
X4512920Y-7684650D01*
X4512920Y-7684650D02*
X4531968Y-7694174D01*
X4531968Y-7694174D02*
X4541492Y-7713222D01*
X4541492Y-7713222D02*
X4541492Y-7732269D01*
X4541492Y-7732269D02*
X4446253Y-7751317D01*
X4617682Y-7808460D02*
X4636730Y-7817984D01*
X4636730Y-7817984D02*
X4674825Y-7817984D01*
X4674825Y-7817984D02*
X4693873Y-7808460D01*
X4693873Y-7808460D02*
X4703396Y-7789412D01*
X4703396Y-7789412D02*
X4703396Y-7779888D01*
X4703396Y-7779888D02*
X4693873Y-7760841D01*
X4693873Y-7760841D02*
X4674825Y-7751317D01*
X4674825Y-7751317D02*
X4646253Y-7751317D01*
X4646253Y-7751317D02*
X4627206Y-7741793D01*
X4627206Y-7741793D02*
X4617682Y-7722746D01*
X4617682Y-7722746D02*
X4617682Y-7713222D01*
X4617682Y-7713222D02*
X4627206Y-7694174D01*
X4627206Y-7694174D02*
X4646253Y-7684650D01*
X4646253Y-7684650D02*
X4674825Y-7684650D01*
X4674825Y-7684650D02*
X4693873Y-7694174D01*
X4770063Y-7894174D02*
X4779587Y-7884650D01*
X4779587Y-7884650D02*
X4798634Y-7856079D01*
X4798634Y-7856079D02*
X4808158Y-7837031D01*
X4808158Y-7837031D02*
X4817682Y-7808460D01*
X4817682Y-7808460D02*
X4827206Y-7760841D01*
X4827206Y-7760841D02*
X4827206Y-7722746D01*
X4827206Y-7722746D02*
X4817682Y-7675127D01*
X4817682Y-7675127D02*
X4808158Y-7646555D01*
X4808158Y-7646555D02*
X4798634Y-7627508D01*
X4798634Y-7627508D02*
X4779587Y-7598936D01*
X4779587Y-7598936D02*
X4770063Y-7589412D01*
X5131968Y-7894174D02*
X5122444Y-7884650D01*
X5122444Y-7884650D02*
X5103396Y-7856079D01*
X5103396Y-7856079D02*
X5093873Y-7837031D01*
X5093873Y-7837031D02*
X5084349Y-7808460D01*
X5084349Y-7808460D02*
X5074825Y-7760841D01*
X5074825Y-7760841D02*
X5074825Y-7722746D01*
X5074825Y-7722746D02*
X5084349Y-7675127D01*
X5084349Y-7675127D02*
X5093873Y-7646555D01*
X5093873Y-7646555D02*
X5103396Y-7627508D01*
X5103396Y-7627508D02*
X5122444Y-7598936D01*
X5122444Y-7598936D02*
X5131968Y-7589412D01*
X5208158Y-7684650D02*
X5208158Y-7817984D01*
X5208158Y-7703698D02*
X5217682Y-7694174D01*
X5217682Y-7694174D02*
X5236730Y-7684650D01*
X5236730Y-7684650D02*
X5265301Y-7684650D01*
X5265301Y-7684650D02*
X5284349Y-7694174D01*
X5284349Y-7694174D02*
X5293873Y-7713222D01*
X5293873Y-7713222D02*
X5293873Y-7817984D01*
X5417682Y-7817984D02*
X5398634Y-7808460D01*
X5398634Y-7808460D02*
X5389111Y-7798936D01*
X5389111Y-7798936D02*
X5379587Y-7779888D01*
X5379587Y-7779888D02*
X5379587Y-7722746D01*
X5379587Y-7722746D02*
X5389111Y-7703698D01*
X5389111Y-7703698D02*
X5398634Y-7694174D01*
X5398634Y-7694174D02*
X5417682Y-7684650D01*
X5417682Y-7684650D02*
X5446254Y-7684650D01*
X5446254Y-7684650D02*
X5465301Y-7694174D01*
X5465301Y-7694174D02*
X5474825Y-7703698D01*
X5474825Y-7703698D02*
X5484349Y-7722746D01*
X5484349Y-7722746D02*
X5484349Y-7779888D01*
X5484349Y-7779888D02*
X5474825Y-7798936D01*
X5474825Y-7798936D02*
X5465301Y-7808460D01*
X5465301Y-7808460D02*
X5446254Y-7817984D01*
X5446254Y-7817984D02*
X5417682Y-7817984D01*
X5541492Y-7684650D02*
X5617682Y-7684650D01*
X5570063Y-7617984D02*
X5570063Y-7789412D01*
X5570063Y-7789412D02*
X5579587Y-7808460D01*
X5579587Y-7808460D02*
X5598634Y-7817984D01*
X5598634Y-7817984D02*
X5617682Y-7817984D01*
X5836730Y-7684650D02*
X5836730Y-7884650D01*
X5836730Y-7694174D02*
X5855777Y-7684650D01*
X5855777Y-7684650D02*
X5893873Y-7684650D01*
X5893873Y-7684650D02*
X5912920Y-7694174D01*
X5912920Y-7694174D02*
X5922444Y-7703698D01*
X5922444Y-7703698D02*
X5931968Y-7722746D01*
X5931968Y-7722746D02*
X5931968Y-7779888D01*
X5931968Y-7779888D02*
X5922444Y-7798936D01*
X5922444Y-7798936D02*
X5912920Y-7808460D01*
X5912920Y-7808460D02*
X5893873Y-7817984D01*
X5893873Y-7817984D02*
X5855777Y-7817984D01*
X5855777Y-7817984D02*
X5836730Y-7808460D01*
X6046253Y-7817984D02*
X6027206Y-7808460D01*
X6027206Y-7808460D02*
X6017682Y-7789412D01*
X6017682Y-7789412D02*
X6017682Y-7617984D01*
X6208158Y-7817984D02*
X6208158Y-7713222D01*
X6208158Y-7713222D02*
X6198634Y-7694174D01*
X6198634Y-7694174D02*
X6179587Y-7684650D01*
X6179587Y-7684650D02*
X6141492Y-7684650D01*
X6141492Y-7684650D02*
X6122444Y-7694174D01*
X6208158Y-7808460D02*
X6189111Y-7817984D01*
X6189111Y-7817984D02*
X6141492Y-7817984D01*
X6141492Y-7817984D02*
X6122444Y-7808460D01*
X6122444Y-7808460D02*
X6112920Y-7789412D01*
X6112920Y-7789412D02*
X6112920Y-7770365D01*
X6112920Y-7770365D02*
X6122444Y-7751317D01*
X6122444Y-7751317D02*
X6141492Y-7741793D01*
X6141492Y-7741793D02*
X6189111Y-7741793D01*
X6189111Y-7741793D02*
X6208158Y-7732269D01*
X6274825Y-7684650D02*
X6351015Y-7684650D01*
X6303396Y-7617984D02*
X6303396Y-7789412D01*
X6303396Y-7789412D02*
X6312920Y-7808460D01*
X6312920Y-7808460D02*
X6331968Y-7817984D01*
X6331968Y-7817984D02*
X6351015Y-7817984D01*
X6493873Y-7808460D02*
X6474825Y-7817984D01*
X6474825Y-7817984D02*
X6436730Y-7817984D01*
X6436730Y-7817984D02*
X6417682Y-7808460D01*
X6417682Y-7808460D02*
X6408158Y-7789412D01*
X6408158Y-7789412D02*
X6408158Y-7713222D01*
X6408158Y-7713222D02*
X6417682Y-7694174D01*
X6417682Y-7694174D02*
X6436730Y-7684650D01*
X6436730Y-7684650D02*
X6474825Y-7684650D01*
X6474825Y-7684650D02*
X6493873Y-7694174D01*
X6493873Y-7694174D02*
X6503396Y-7713222D01*
X6503396Y-7713222D02*
X6503396Y-7732269D01*
X6503396Y-7732269D02*
X6408158Y-7751317D01*
X6674825Y-7817984D02*
X6674825Y-7617984D01*
X6674825Y-7808460D02*
X6655777Y-7817984D01*
X6655777Y-7817984D02*
X6617682Y-7817984D01*
X6617682Y-7817984D02*
X6598634Y-7808460D01*
X6598634Y-7808460D02*
X6589111Y-7798936D01*
X6589111Y-7798936D02*
X6579587Y-7779888D01*
X6579587Y-7779888D02*
X6579587Y-7722746D01*
X6579587Y-7722746D02*
X6589111Y-7703698D01*
X6589111Y-7703698D02*
X6598634Y-7694174D01*
X6598634Y-7694174D02*
X6617682Y-7684650D01*
X6617682Y-7684650D02*
X6655777Y-7684650D01*
X6655777Y-7684650D02*
X6674825Y-7694174D01*
X6751015Y-7894174D02*
X6760539Y-7884650D01*
X6760539Y-7884650D02*
X6779587Y-7856079D01*
X6779587Y-7856079D02*
X6789111Y-7837031D01*
X6789111Y-7837031D02*
X6798634Y-7808460D01*
X6798634Y-7808460D02*
X6808158Y-7760841D01*
X6808158Y-7760841D02*
X6808158Y-7722746D01*
X6808158Y-7722746D02*
X6798634Y-7675127D01*
X6798634Y-7675127D02*
X6789111Y-7646555D01*
X6789111Y-7646555D02*
X6779587Y-7627508D01*
X6779587Y-7627508D02*
X6760539Y-7598936D01*
X6760539Y-7598936D02*
X6751015Y-7589412D01*
M02*
