M48
; DRILL file {KiCad 8.0.6-8.0.6-0~ubuntu24.04.1} date 2024-11-06T15:02:18+0100
; FORMAT={-:-/ absolute / metric / decimal}
; #@! TF.CreationDate,2024-11-06T15:02:18+01:00
; #@! TF.GenerationSoftware,Kicad,Pcbnew,8.0.6-8.0.6-0~ubuntu24.04.1
; #@! TF.FileFunction,Plated,1,2,PTH
FMAT,2
METRIC
; #@! TA.AperFunction,Plated,PTH,ViaDrill
T1C0.200
; #@! TA.AperFunction,Plated,PTH,ComponentDrill
T2C0.200
; #@! TA.AperFunction,Plated,PTH,ViaDrill
T3C0.300
; #@! TA.AperFunction,Plated,PTH,ComponentDrill
T4C1.000
; #@! TA.AperFunction,Plated,PTH,ComponentDrill
T5C1.170
%
G90
G05
T1
X36.53Y-31.914
X38.072Y-30.37
X38.072Y-31.914
X38.072Y-33.45
X39.6Y-31.914
T2
X15.48Y-18.348
X15.48Y-19.398
X15.48Y-20.448
X16.53Y-18.348
X16.53Y-19.398
X16.53Y-20.448
X17.58Y-18.348
X17.58Y-19.398
X17.58Y-20.448
T3
X12.7Y-18.549
X12.7Y-20.32
X14.732Y-31.496
X16.256Y-26.162
X17.145Y-12.573
X17.78Y-51.943
X18.796Y-33.528
X24.13Y-13.208
X24.13Y-15.24
X24.892Y-42.418
X27.813Y-27.051
X29.591Y-51.943
X31.75Y-32.004
X33.528Y-30.696
X33.528Y-31.496
X33.782Y-35.052
X34.798Y-25.146
X35.179Y-12.446
X39.116Y-35.56
X40.894Y-35.306
X41.148Y-28.702
X42.418Y-35.468
X43.434Y-30.988
X43.434Y-36.068
X43.688Y-34.29
X44.081Y-28.707
X44.323Y-51.816
X44.958Y-28.194
X46.228Y-32.512
X47.498Y-38.1
X49.022Y-22.86
X57.785Y-11.43
X59.563Y-35.306
X59.69Y-26.162
X59.944Y-51.689
X61.468Y-19.812
X63.246Y-19.05
X63.246Y-22.098
T4
X5.0Y-18.0
X5.0Y-20.54
X5.0Y-44.92
X5.0Y-47.46
X5.0Y-50.0
X70.784Y-45.46
X70.784Y-48.0
T5
X13.68Y-35.2
X13.68Y-48.0
M30
