%TF.GenerationSoftware,KiCad,Pcbnew,8.0.6-8.0.6-0~ubuntu24.04.1*%
%TF.CreationDate,2024-11-06T15:00:47+01:00*%
%TF.ProjectId,random_sampler,72616e64-6f6d-45f7-9361-6d706c65722e,rev?*%
%TF.SameCoordinates,Original*%
%TF.FileFunction,Copper,L1,Top*%
%TF.FilePolarity,Positive*%
%FSLAX46Y46*%
G04 Gerber Fmt 4.6, Leading zero omitted, Abs format (unit mm)*
G04 Created by KiCad (PCBNEW 8.0.6-8.0.6-0~ubuntu24.04.1) date 2024-11-06 15:00:47*
%MOMM*%
%LPD*%
G01*
G04 APERTURE LIST*
G04 Aperture macros list*
%AMRoundRect*
0 Rectangle with rounded corners*
0 $1 Rounding radius*
0 $2 $3 $4 $5 $6 $7 $8 $9 X,Y pos of 4 corners*
0 Add a 4 corners polygon primitive as box body*
4,1,4,$2,$3,$4,$5,$6,$7,$8,$9,$2,$3,0*
0 Add four circle primitives for the rounded corners*
1,1,$1+$1,$2,$3*
1,1,$1+$1,$4,$5*
1,1,$1+$1,$6,$7*
1,1,$1+$1,$8,$9*
0 Add four rect primitives between the rounded corners*
20,1,$1+$1,$2,$3,$4,$5,0*
20,1,$1+$1,$4,$5,$6,$7,0*
20,1,$1+$1,$6,$7,$8,$9,0*
20,1,$1+$1,$8,$9,$2,$3,0*%
G04 Aperture macros list end*
%TA.AperFunction,SMDPad,CuDef*%
%ADD10RoundRect,0.150000X-0.512500X-0.150000X0.512500X-0.150000X0.512500X0.150000X-0.512500X0.150000X0*%
%TD*%
%TA.AperFunction,SMDPad,CuDef*%
%ADD11RoundRect,0.250000X-0.475000X0.337500X-0.475000X-0.337500X0.475000X-0.337500X0.475000X0.337500X0*%
%TD*%
%TA.AperFunction,SMDPad,CuDef*%
%ADD12R,0.850000X0.750000*%
%TD*%
%TA.AperFunction,SMDPad,CuDef*%
%ADD13RoundRect,0.250000X0.350000X0.450000X-0.350000X0.450000X-0.350000X-0.450000X0.350000X-0.450000X0*%
%TD*%
%TA.AperFunction,SMDPad,CuDef*%
%ADD14RoundRect,0.250000X0.475000X-0.337500X0.475000X0.337500X-0.475000X0.337500X-0.475000X-0.337500X0*%
%TD*%
%TA.AperFunction,SMDPad,CuDef*%
%ADD15R,1.600000X0.700000*%
%TD*%
%TA.AperFunction,SMDPad,CuDef*%
%ADD16R,1.800000X1.200000*%
%TD*%
%TA.AperFunction,SMDPad,CuDef*%
%ADD17R,1.500000X1.600000*%
%TD*%
%TA.AperFunction,SMDPad,CuDef*%
%ADD18R,2.200000X1.200000*%
%TD*%
%TA.AperFunction,SMDPad,CuDef*%
%ADD19RoundRect,0.250000X-0.337500X-0.475000X0.337500X-0.475000X0.337500X0.475000X-0.337500X0.475000X0*%
%TD*%
%TA.AperFunction,SMDPad,CuDef*%
%ADD20RoundRect,0.250000X0.450000X-0.350000X0.450000X0.350000X-0.450000X0.350000X-0.450000X-0.350000X0*%
%TD*%
%TA.AperFunction,SMDPad,CuDef*%
%ADD21RoundRect,0.250000X-0.450000X0.350000X-0.450000X-0.350000X0.450000X-0.350000X0.450000X0.350000X0*%
%TD*%
%TA.AperFunction,ComponentPad*%
%ADD22R,1.700000X1.700000*%
%TD*%
%TA.AperFunction,ComponentPad*%
%ADD23O,1.700000X1.700000*%
%TD*%
%TA.AperFunction,SMDPad,CuDef*%
%ADD24RoundRect,0.250000X-0.350000X-0.450000X0.350000X-0.450000X0.350000X0.450000X-0.350000X0.450000X0*%
%TD*%
%TA.AperFunction,SMDPad,CuDef*%
%ADD25RoundRect,0.062500X-0.062500X0.375000X-0.062500X-0.375000X0.062500X-0.375000X0.062500X0.375000X0*%
%TD*%
%TA.AperFunction,SMDPad,CuDef*%
%ADD26RoundRect,0.062500X-0.375000X0.062500X-0.375000X-0.062500X0.375000X-0.062500X0.375000X0.062500X0*%
%TD*%
%TA.AperFunction,HeatsinkPad*%
%ADD27C,0.500000*%
%TD*%
%TA.AperFunction,HeatsinkPad*%
%ADD28R,2.600000X2.600000*%
%TD*%
%TA.AperFunction,SMDPad,CuDef*%
%ADD29RoundRect,0.250000X0.337500X0.475000X-0.337500X0.475000X-0.337500X-0.475000X0.337500X-0.475000X0*%
%TD*%
%TA.AperFunction,SMDPad,CuDef*%
%ADD30R,0.406400X1.397000*%
%TD*%
%TA.AperFunction,SMDPad,CuDef*%
%ADD31R,0.304800X0.508000*%
%TD*%
%TA.AperFunction,SMDPad,CuDef*%
%ADD32RoundRect,0.062500X0.062500X-0.337500X0.062500X0.337500X-0.062500X0.337500X-0.062500X-0.337500X0*%
%TD*%
%TA.AperFunction,SMDPad,CuDef*%
%ADD33RoundRect,0.062500X0.337500X-0.062500X0.337500X0.062500X-0.337500X0.062500X-0.337500X-0.062500X0*%
%TD*%
%TA.AperFunction,HeatsinkPad*%
%ADD34R,3.700000X3.700000*%
%TD*%
%TA.AperFunction,SMDPad,CuDef*%
%ADD35R,0.952500X0.558800*%
%TD*%
%TA.AperFunction,SMDPad,CuDef*%
%ADD36RoundRect,0.250000X-0.325000X-0.450000X0.325000X-0.450000X0.325000X0.450000X-0.325000X0.450000X0*%
%TD*%
%TA.AperFunction,ComponentPad*%
%ADD37C,1.755000*%
%TD*%
%TA.AperFunction,ViaPad*%
%ADD38C,0.600000*%
%TD*%
%TA.AperFunction,ViaPad*%
%ADD39C,0.500000*%
%TD*%
%TA.AperFunction,Conductor*%
%ADD40C,0.200000*%
%TD*%
%TA.AperFunction,Conductor*%
%ADD41C,0.750000*%
%TD*%
G04 APERTURE END LIST*
D10*
%TO.P,U4,1,IN*%
%TO.N,Batt*%
X22449526Y-44138474D03*
%TO.P,U4,2,GND*%
%TO.N,GND*%
X22449526Y-45088474D03*
%TO.P,U4,3,EN*%
%TO.N,Batt*%
X22449526Y-46038474D03*
%TO.P,U4,4,GND*%
%TO.N,GND*%
X24724526Y-46038474D03*
%TO.P,U4,5,OUT*%
%TO.N,+3V3*%
X24724526Y-44138474D03*
%TD*%
D11*
%TO.P,C7,1*%
%TO.N,Net-(U1-CHIP_EN)*%
X47498000Y-43645000D03*
%TO.P,C7,2*%
%TO.N,GND*%
X47498000Y-45720000D03*
%TD*%
D12*
%TO.P,Y1,1*%
%TO.N,Net-(C8-Pad1)*%
X26844000Y-31496000D03*
%TO.P,Y1,2*%
%TO.N,GND*%
X28194000Y-31496000D03*
%TO.P,Y1,3*%
%TO.N,Net-(U1-XTAL_N)*%
X28194000Y-30446000D03*
%TO.P,Y1,4*%
%TO.N,N/C*%
X26844000Y-30446000D03*
%TD*%
D10*
%TO.P,U5,1,IN*%
%TO.N,Batt*%
X53351000Y-22860000D03*
%TO.P,U5,2,GND*%
%TO.N,GND*%
X53351000Y-23810000D03*
%TO.P,U5,3,EN*%
%TO.N,SD_POW_EN*%
X53351000Y-24760000D03*
%TO.P,U5,4,GND*%
%TO.N,GND*%
X55626000Y-24760000D03*
%TO.P,U5,5,OUT*%
%TO.N,Net-(J1-VDD)*%
X55626000Y-22860000D03*
%TD*%
D13*
%TO.P,R11,1*%
%TO.N,+3V3*%
X22320000Y-13208000D03*
%TO.P,R11,2*%
%TO.N,SCL*%
X20320000Y-13208000D03*
%TD*%
D11*
%TO.P,C3,1*%
%TO.N,+3V3*%
X33782000Y-36279000D03*
%TO.P,C3,2*%
%TO.N,GND*%
X33782000Y-38354000D03*
%TD*%
D14*
%TO.P,C2,1*%
%TO.N,Net-(U1-VDD_SPI)*%
X39370000Y-27221000D03*
%TO.P,C2,2*%
%TO.N,GND*%
X39370000Y-25146000D03*
%TD*%
D13*
%TO.P,R9,1*%
%TO.N,GND*%
X19272000Y-31961000D03*
%TO.P,R9,2*%
%TO.N,1V8_POW_EN*%
X17272000Y-31961000D03*
%TD*%
%TO.P,R13,1*%
%TO.N,Net-(J3-Pin_1)*%
X67532000Y-48006000D03*
%TO.P,R13,2*%
%TO.N,RX*%
X65532000Y-48006000D03*
%TD*%
D15*
%TO.P,J1,1,DAT2*%
%TO.N,Net-(J1-DAT2)*%
X65013500Y-17750000D03*
%TO.P,J1,2,CD/DAT3*%
%TO.N,GND*%
X65013500Y-18850000D03*
%TO.P,J1,3,CMD*%
%TO.N,SD_DI*%
X65013500Y-19950000D03*
%TO.P,J1,4,VDD*%
%TO.N,Net-(J1-VDD)*%
X65013500Y-21050000D03*
%TO.P,J1,5,CLK*%
%TO.N,SD_SCLK*%
X65013500Y-22150000D03*
%TO.P,J1,6,VSS*%
%TO.N,GND*%
X65013500Y-23250000D03*
%TO.P,J1,7,DAT0*%
%TO.N,SD_DO*%
X65013500Y-24350000D03*
%TO.P,J1,8,DAT1*%
%TO.N,Net-(J1-DAT1)*%
X65013500Y-25450000D03*
%TO.P,J1,CD,CD*%
%TO.N,unconnected-(J1-PadCD)*%
X65013500Y-26550000D03*
D16*
%TO.P,J1,G1,COVER_GND*%
%TO.N,GND*%
X66313500Y-27750000D03*
D17*
%TO.P,J1,G2,COVER_GND__1*%
X66063500Y-13150000D03*
D18*
%TO.P,J1,G3,COVER_GND__2*%
X75613500Y-27750000D03*
%TO.P,J1,G4,COVER_GND__3*%
X75613500Y-12250000D03*
%TD*%
D19*
%TO.P,C11,1*%
%TO.N,Batt*%
X14435000Y-15494000D03*
%TO.P,C11,2*%
%TO.N,GND*%
X16510000Y-15494000D03*
%TD*%
D20*
%TO.P,R4,1*%
%TO.N,Net-(J1-DAT1)*%
X57658000Y-24860000D03*
%TO.P,R4,2*%
%TO.N,Net-(J1-VDD)*%
X57658000Y-22860000D03*
%TD*%
D21*
%TO.P,R1,1*%
%TO.N,+3V3*%
X47498000Y-39624000D03*
%TO.P,R1,2*%
%TO.N,Net-(U1-CHIP_EN)*%
X47498000Y-41624000D03*
%TD*%
D22*
%TO.P,J3,1,Pin_1*%
%TO.N,Net-(J3-Pin_1)*%
X70784000Y-48000000D03*
D23*
%TO.P,J3,2,Pin_2*%
%TO.N,Net-(J3-Pin_2)*%
X70784000Y-45460000D03*
%TD*%
D24*
%TO.P,R12,1*%
%TO.N,TX*%
X65564000Y-45466000D03*
%TO.P,R12,2*%
%TO.N,Net-(J3-Pin_2)*%
X67564000Y-45466000D03*
%TD*%
D21*
%TO.P,R2,1*%
%TO.N,GND*%
X57658000Y-19082000D03*
%TO.P,R2,2*%
%TO.N,Net-(J1-VDD)*%
X57658000Y-21082000D03*
%TD*%
D19*
%TO.P,C10,1*%
%TO.N,Net-(U1-XTAL_32K_P)*%
X38057000Y-38100000D03*
%TO.P,C10,2*%
%TO.N,Net-(XTAL1-CLK_Out)*%
X40132000Y-38100000D03*
%TD*%
D14*
%TO.P,C15,1*%
%TO.N,GND*%
X26767526Y-46081474D03*
%TO.P,C15,2*%
%TO.N,+3V3*%
X26767526Y-44006474D03*
%TD*%
D25*
%TO.P,U2,1,SDA*%
%TO.N,SDA*%
X17780000Y-17461000D03*
%TO.P,U2,2,SCL*%
%TO.N,SCL*%
X17280000Y-17461000D03*
%TO.P,U2,3,TEST1*%
%TO.N,GND*%
X16780000Y-17461000D03*
%TO.P,U2,4,ADSEL2*%
X16280000Y-17461000D03*
%TO.P,U2,5,TEST3*%
X15780000Y-17461000D03*
%TO.P,U2,6,NC*%
%TO.N,unconnected-(U2-NC-Pad6)*%
X15280000Y-17461000D03*
D26*
%TO.P,U2,7,VDDP*%
%TO.N,Batt*%
X14592500Y-18148500D03*
%TO.P,U2,8,VDDP*%
X14592500Y-18648500D03*
%TO.P,U2,9,OUTB*%
%TO.N,Net-(J2-Pin_1)*%
X14592500Y-19148500D03*
%TO.P,U2,10,OUTA*%
%TO.N,Net-(J2-Pin_2)*%
X14592500Y-19648500D03*
%TO.P,U2,11,GNDP*%
%TO.N,GND*%
X14592500Y-20148500D03*
%TO.P,U2,12,GNDP*%
X14592500Y-20648500D03*
D25*
%TO.P,U2,13,STABA*%
%TO.N,Net-(U2-STABA)*%
X15280000Y-21336000D03*
%TO.P,U2,14,NC*%
%TO.N,unconnected-(U2-NC-Pad14)*%
X15780000Y-21336000D03*
%TO.P,U2,15,TEST2*%
%TO.N,GND*%
X16280000Y-21336000D03*
%TO.P,U2,16,ADSEL1*%
X16780000Y-21336000D03*
%TO.P,U2,17,SDI2*%
%TO.N,unconnected-(U2-SDI2-Pad17)*%
X17280000Y-21336000D03*
%TO.P,U2,18,SCK2*%
%TO.N,unconnected-(U2-SCK2-Pad18)*%
X17780000Y-21336000D03*
D26*
%TO.P,U2,19,LRCK2*%
%TO.N,unconnected-(U2-LRCK2-Pad19)*%
X18467500Y-20648500D03*
%TO.P,U2,20,SDI1*%
%TO.N,SDI*%
X18467500Y-20148500D03*
%TO.P,U2,21,SCK1*%
%TO.N,SCK*%
X18467500Y-19648500D03*
%TO.P,U2,22,LRCK1*%
%TO.N,LRCK*%
X18467500Y-19148500D03*
%TO.P,U2,23,VDD*%
%TO.N,+1V8*%
X18467500Y-18648500D03*
%TO.P,U2,24,GNDD*%
%TO.N,GND*%
X18467500Y-18148500D03*
D27*
%TO.P,U2,25,EP*%
X17580000Y-18348500D03*
X16530000Y-18348500D03*
X15480000Y-18348500D03*
X17580000Y-19398500D03*
X16530000Y-19398500D03*
D28*
X16530000Y-19398500D03*
D27*
X15480000Y-19398500D03*
X17580000Y-20448500D03*
X16530000Y-20448500D03*
X15480000Y-20448500D03*
%TD*%
D14*
%TO.P,C16,1*%
%TO.N,GND*%
X20417526Y-45065474D03*
%TO.P,C16,2*%
%TO.N,Batt*%
X20417526Y-42990474D03*
%TD*%
D11*
%TO.P,C4,1*%
%TO.N,+3V3*%
X31496000Y-36279000D03*
%TO.P,C4,2*%
%TO.N,GND*%
X31496000Y-38354000D03*
%TD*%
%TO.P,C12,1*%
%TO.N,Net-(J1-VDD)*%
X61722000Y-21060500D03*
%TO.P,C12,2*%
%TO.N,GND*%
X61722000Y-23135500D03*
%TD*%
D19*
%TO.P,C5,1*%
%TO.N,+3V3*%
X42629000Y-32512000D03*
%TO.P,C5,2*%
%TO.N,GND*%
X44704000Y-32512000D03*
%TD*%
D11*
%TO.P,C18,1*%
%TO.N,GND*%
X51054000Y-20277000D03*
%TO.P,C18,2*%
%TO.N,Batt*%
X51054000Y-22352000D03*
%TD*%
D14*
%TO.P,C1,1*%
%TO.N,+3V3*%
X41656000Y-27221000D03*
%TO.P,C1,2*%
%TO.N,GND*%
X41656000Y-25146000D03*
%TD*%
D13*
%TO.P,R8,1*%
%TO.N,GND*%
X55372000Y-26670000D03*
%TO.P,R8,2*%
%TO.N,SD_POW_EN*%
X53372000Y-26670000D03*
%TD*%
D29*
%TO.P,C19,1*%
%TO.N,GND*%
X22352000Y-17526000D03*
%TO.P,C19,2*%
%TO.N,+1V8*%
X20277000Y-17526000D03*
%TD*%
D21*
%TO.P,R3,1*%
%TO.N,Net-(J1-DAT2)*%
X55626000Y-19082000D03*
%TO.P,R3,2*%
%TO.N,Net-(J1-VDD)*%
X55626000Y-21082000D03*
%TD*%
D14*
%TO.P,C17,1*%
%TO.N,GND*%
X53340000Y-21125000D03*
%TO.P,C17,2*%
%TO.N,Net-(J1-VDD)*%
X53340000Y-19050000D03*
%TD*%
D29*
%TO.P,C20,1*%
%TO.N,GND*%
X16807000Y-23368000D03*
%TO.P,C20,2*%
%TO.N,Net-(U2-STABA)*%
X14732000Y-23368000D03*
%TD*%
D10*
%TO.P,U3,1,IN*%
%TO.N,Batt*%
X17029000Y-28151000D03*
%TO.P,U3,2,GND*%
%TO.N,GND*%
X17029000Y-29101000D03*
%TO.P,U3,3,EN*%
%TO.N,1V8_POW_EN*%
X17029000Y-30051000D03*
%TO.P,U3,4,GND*%
%TO.N,GND*%
X19304000Y-30051000D03*
%TO.P,U3,5,OUT*%
%TO.N,+1V8*%
X19304000Y-28151000D03*
%TD*%
D14*
%TO.P,C14,1*%
%TO.N,GND*%
X21590000Y-29972000D03*
%TO.P,C14,2*%
%TO.N,+1V8*%
X21590000Y-27897000D03*
%TD*%
D20*
%TO.P,R5,1*%
%TO.N,SD_DO*%
X59690000Y-24860000D03*
%TO.P,R5,2*%
%TO.N,Net-(J1-VDD)*%
X59690000Y-22860000D03*
%TD*%
D30*
%TO.P,XTAL1,1,NC*%
%TO.N,unconnected-(XTAL1-NC-Pad1)*%
X38277998Y-40132000D03*
D31*
%TO.P,XTAL1,2,GND*%
%TO.N,GND*%
X38979024Y-40577999D03*
D30*
%TO.P,XTAL1,3,CLK_Out*%
%TO.N,Net-(XTAL1-CLK_Out)*%
X39878000Y-40132000D03*
D31*
%TO.P,XTAL1,4,Vdd*%
%TO.N,+3V3*%
X39183999Y-39686001D03*
%TD*%
D32*
%TO.P,U1,1,LNA_IN*%
%TO.N,unconnected-(U1-LNA_IN-Pad1)*%
X36322000Y-34364000D03*
%TO.P,U1,2,VDD3P3*%
%TO.N,+3V3*%
X36822000Y-34364000D03*
%TO.P,U1,3,VDD3P3*%
X37322000Y-34364000D03*
%TO.P,U1,4,XTAL_32K_P*%
%TO.N,Net-(U1-XTAL_32K_P)*%
X37822000Y-34364000D03*
%TO.P,U1,5,XTAL_32K_N*%
%TO.N,unconnected-(U1-XTAL_32K_N-Pad5)*%
X38322000Y-34364000D03*
%TO.P,U1,6,GPIO2*%
%TO.N,SD_DI*%
X38822000Y-34364000D03*
%TO.P,U1,7,CHIP_EN*%
%TO.N,Net-(U1-CHIP_EN)*%
X39322000Y-34364000D03*
%TO.P,U1,8,GPIO3*%
%TO.N,GND*%
X39822000Y-34364000D03*
D33*
%TO.P,U1,9,MTMS*%
%TO.N,1V8_POW_EN*%
X40522000Y-33664000D03*
%TO.P,U1,10,MTDI*%
%TO.N,SD_POW_EN*%
X40522000Y-33164000D03*
%TO.P,U1,11,VDD3P3_RTC*%
%TO.N,+3V3*%
X40522000Y-32664000D03*
%TO.P,U1,12,MTCK*%
%TO.N,SD_SCLK*%
X40522000Y-32164000D03*
%TO.P,U1,13,MTDO*%
%TO.N,SD_DO*%
X40522000Y-31664000D03*
%TO.P,U1,14,GPIO8*%
%TO.N,SCL*%
X40522000Y-31164000D03*
%TO.P,U1,15,GPIO9*%
%TO.N,SDA*%
X40522000Y-30664000D03*
%TO.P,U1,16,GPIO10*%
%TO.N,LRCK*%
X40522000Y-30164000D03*
D32*
%TO.P,U1,17,VDD3P3_CPU*%
%TO.N,+3V3*%
X39822000Y-29464000D03*
%TO.P,U1,18,VDD_SPI*%
%TO.N,Net-(U1-VDD_SPI)*%
X39322000Y-29464000D03*
%TO.P,U1,19,SPIHD*%
%TO.N,unconnected-(U1-SPIHD-Pad19)*%
X38822000Y-29464000D03*
%TO.P,U1,20,SPIWP*%
%TO.N,unconnected-(U1-SPIWP-Pad20)*%
X38322000Y-29464000D03*
%TO.P,U1,21,SPICS0*%
%TO.N,unconnected-(U1-SPICS0-Pad21)*%
X37822000Y-29464000D03*
%TO.P,U1,22,SPICLK*%
%TO.N,unconnected-(U1-SPICLK-Pad22)*%
X37322000Y-29464000D03*
%TO.P,U1,23,SPID*%
%TO.N,unconnected-(U1-SPID-Pad23)*%
X36822000Y-29464000D03*
%TO.P,U1,24,SPIQ*%
%TO.N,unconnected-(U1-SPIQ-Pad24)*%
X36322000Y-29464000D03*
D33*
%TO.P,U1,25,GPIO18*%
%TO.N,SCK*%
X35622000Y-30164000D03*
%TO.P,U1,26,GPIO19*%
%TO.N,SDI*%
X35622000Y-30664000D03*
%TO.P,U1,27,U0RXD*%
%TO.N,RX*%
X35622000Y-31164000D03*
%TO.P,U1,28,U0TXD*%
%TO.N,TX*%
X35622000Y-31664000D03*
%TO.P,U1,29,XTAL_N*%
%TO.N,Net-(U1-XTAL_N)*%
X35622000Y-32164000D03*
%TO.P,U1,30,XTAL_P*%
%TO.N,Net-(U1-XTAL_P)*%
X35622000Y-32664000D03*
%TO.P,U1,31,VDDA*%
%TO.N,+3V3*%
X35622000Y-33164000D03*
%TO.P,U1,32,VDDA*%
X35622000Y-33664000D03*
D34*
%TO.P,U1,33,GND*%
%TO.N,GND*%
X38072000Y-31914000D03*
%TD*%
D21*
%TO.P,R6,1*%
%TO.N,SD_DI*%
X59690000Y-19066000D03*
%TO.P,R6,2*%
%TO.N,Net-(J1-VDD)*%
X59690000Y-21066000D03*
%TD*%
D35*
%TO.P,U6,1,1*%
%TO.N,Net-(U1-CHIP_EN)*%
X49904650Y-43357800D03*
%TO.P,U6,2,2*%
X56267350Y-43357800D03*
%TO.P,U6,3,3*%
%TO.N,GND*%
X49904650Y-47066200D03*
%TO.P,U6,4,4*%
X56267350Y-47066200D03*
%TD*%
D36*
%TO.P,L1,1,1*%
%TO.N,Net-(C8-Pad1)*%
X27922000Y-33274000D03*
%TO.P,L1,2,2*%
%TO.N,Net-(U1-XTAL_P)*%
X29972000Y-33274000D03*
%TD*%
D19*
%TO.P,C8,1*%
%TO.N,Net-(C8-Pad1)*%
X26627000Y-35560000D03*
%TO.P,C8,2*%
%TO.N,GND*%
X28702000Y-35560000D03*
%TD*%
D11*
%TO.P,C9,1*%
%TO.N,Net-(U1-XTAL_N)*%
X30226000Y-29167000D03*
%TO.P,C9,2*%
%TO.N,GND*%
X30226000Y-31242000D03*
%TD*%
%TO.P,C6,1*%
%TO.N,+3V3*%
X36068000Y-36279000D03*
%TO.P,C6,2*%
%TO.N,GND*%
X36068000Y-38354000D03*
%TD*%
D21*
%TO.P,R7,1*%
%TO.N,GND*%
X13716000Y-38894000D03*
%TO.P,R7,2*%
%TO.N,Net-(R7-Pad2)*%
X13716000Y-40894000D03*
%TD*%
D13*
%TO.P,R10,1*%
%TO.N,+3V3*%
X22320000Y-15240000D03*
%TO.P,R10,2*%
%TO.N,SDA*%
X20320000Y-15240000D03*
%TD*%
D14*
%TO.P,C13,1*%
%TO.N,GND*%
X14732000Y-29972000D03*
%TO.P,C13,2*%
%TO.N,Batt*%
X14732000Y-27897000D03*
%TD*%
D37*
%TO.P,BT1,+*%
%TO.N,Net-(BT1-Pad+)*%
X13680000Y-48000000D03*
%TO.P,BT1,-*%
%TO.N,GND*%
X13680000Y-35200000D03*
%TD*%
D22*
%TO.P,J2,1,Pin_1*%
%TO.N,Net-(J2-Pin_1)*%
X5000000Y-18000000D03*
D23*
%TO.P,J2,2,Pin_2*%
%TO.N,Net-(J2-Pin_2)*%
X5000000Y-20540000D03*
%TD*%
D22*
%TO.P,SW2,1,1*%
%TO.N,Net-(BT1-Pad+)*%
X5000000Y-50000000D03*
D23*
%TO.P,SW2,2,2*%
%TO.N,Batt*%
X5000000Y-47460000D03*
%TO.P,SW2,3,3*%
%TO.N,Net-(R7-Pad2)*%
X5000000Y-44920000D03*
%TD*%
D38*
%TO.N,GND*%
X63246000Y-19050000D03*
D39*
X39600000Y-31914000D03*
X38072000Y-31914000D03*
D38*
X17145000Y-12573000D03*
X40894000Y-35306000D03*
X17780000Y-51943000D03*
D39*
X38072000Y-30370000D03*
D38*
X44323000Y-51816000D03*
D39*
X38072000Y-33450000D03*
X36530000Y-31914000D03*
D38*
X59944000Y-51689000D03*
X46228000Y-32512000D03*
X34798000Y-25146000D03*
X59563000Y-35306000D03*
X31750000Y-32004000D03*
X27813000Y-27051000D03*
X35179000Y-12446000D03*
X57785000Y-11430000D03*
X14732000Y-31496000D03*
X29591000Y-51943000D03*
%TO.N,+3V3*%
X24130000Y-15240000D03*
X24892000Y-42418000D03*
X41148000Y-28702000D03*
X43434000Y-30988000D03*
X24130000Y-13208000D03*
X33782000Y-35052000D03*
X47498000Y-38100000D03*
%TO.N,Batt*%
X49022000Y-22860000D03*
X12700000Y-20320000D03*
X16256000Y-26162000D03*
X12700000Y-18548500D03*
%TO.N,SD_DI*%
X61468000Y-19812000D03*
X39116000Y-35560000D03*
%TO.N,SD_DO*%
X59690000Y-26162000D03*
X44080597Y-28707089D03*
%TO.N,SD_SCLK*%
X44958000Y-28194000D03*
X63246000Y-22098000D03*
%TO.N,1V8_POW_EN*%
X18796000Y-33528000D03*
X43688000Y-34290000D03*
%TO.N,TX*%
X43434000Y-36068000D03*
X33528000Y-31496000D03*
%TO.N,RX*%
X42418000Y-35468000D03*
X33528000Y-30695997D03*
%TD*%
D40*
%TO.N,GND*%
X43180000Y-45720000D02*
X38979024Y-41519024D01*
X56626000Y-23760000D02*
X61097500Y-23760000D01*
X28702000Y-35560000D02*
X28702000Y-36830000D01*
X21590000Y-29972000D02*
X19383000Y-29972000D01*
X18669000Y-17947000D02*
X18669000Y-16891000D01*
X54963499Y-24760000D02*
X55626000Y-24760000D01*
X28194000Y-31496000D02*
X29972000Y-31496000D01*
X66313500Y-27750000D02*
X66313500Y-23550000D01*
X48558450Y-45720000D02*
X49904650Y-47066200D01*
X57796000Y-18150000D02*
X63246000Y-18150000D01*
X66013500Y-23250000D02*
X65013500Y-23250000D01*
X33782000Y-38354000D02*
X36068000Y-38354000D01*
X55626000Y-24760000D02*
X55626000Y-26416000D01*
X53340000Y-21125000D02*
X51902000Y-21125000D01*
X16780000Y-17461000D02*
X16780000Y-15764000D01*
X31496000Y-38354000D02*
X30099000Y-38354000D01*
X61722000Y-23135500D02*
X64899000Y-23135500D01*
X18669000Y-16891000D02*
X19059000Y-16501000D01*
X75613500Y-27750000D02*
X66313500Y-27750000D01*
X25654000Y-37211000D02*
X21590000Y-33147000D01*
X18341500Y-23421500D02*
X18341500Y-29088500D01*
X44704000Y-32512000D02*
X47625000Y-29591000D01*
X16280000Y-21336000D02*
X16280000Y-22841000D01*
X54013499Y-23810000D02*
X54963499Y-24760000D01*
X29972000Y-31496000D02*
X30226000Y-31242000D01*
X16780000Y-21336000D02*
X16780000Y-19648500D01*
D41*
X13716000Y-38894000D02*
X13716000Y-35236000D01*
D40*
X30988000Y-32004000D02*
X30226000Y-31242000D01*
X16280000Y-19148500D02*
X16530000Y-19398500D01*
X19272000Y-30083000D02*
X19304000Y-30051000D01*
X26724526Y-46038474D02*
X26767526Y-46081474D01*
X28702000Y-36957000D02*
X28702000Y-35560000D01*
X63946000Y-18850000D02*
X65013500Y-18850000D01*
X38979024Y-40577999D02*
X38979024Y-41529000D01*
X54013499Y-23810000D02*
X54313500Y-23509999D01*
X39952000Y-34364000D02*
X39822000Y-34364000D01*
X57658000Y-19082000D02*
X57658000Y-18288000D01*
X21327000Y-16501000D02*
X22352000Y-17526000D01*
X14732000Y-31496000D02*
X14732000Y-29972000D01*
X16780000Y-15764000D02*
X16510000Y-15494000D01*
X16280000Y-21336000D02*
X16280000Y-19648500D01*
X63246000Y-19050000D02*
X63746000Y-19050000D01*
X14592500Y-20148500D02*
X15780000Y-20148500D01*
X24724526Y-47030474D02*
X24511000Y-47244000D01*
X15780000Y-17461000D02*
X15780000Y-16224000D01*
X44704000Y-32512000D02*
X46228000Y-32512000D01*
X28702000Y-35560000D02*
X28797000Y-35465000D01*
X17029000Y-29101000D02*
X15603000Y-29101000D01*
X41656000Y-25146000D02*
X39370000Y-25146000D01*
X56267350Y-47066200D02*
X49904650Y-47066200D01*
X38979024Y-41529000D02*
X37592000Y-41529000D01*
X55626000Y-26416000D02*
X55372000Y-26670000D01*
X61097500Y-23760000D02*
X61722000Y-23135500D01*
X22426526Y-45065474D02*
X22449526Y-45088474D01*
X13716000Y-35236000D02*
X13680000Y-35200000D01*
X63246000Y-18150000D02*
X63946000Y-18850000D01*
X20417526Y-46706526D02*
X20417526Y-45065474D01*
X19272000Y-31961000D02*
X19272000Y-30083000D01*
X14592500Y-20648500D02*
X14592500Y-20148500D01*
X15780000Y-17461000D02*
X15780000Y-18648500D01*
X31496000Y-38354000D02*
X33782000Y-38354000D01*
X15780000Y-16224000D02*
X16510000Y-15494000D01*
X54313500Y-23509999D02*
X54313500Y-22098500D01*
X36068000Y-40005000D02*
X36068000Y-38354000D01*
X17705000Y-18223500D02*
X17580000Y-18348500D01*
X28321000Y-37211000D02*
X25654000Y-37211000D01*
X63746000Y-19050000D02*
X63946000Y-18850000D01*
X20955000Y-47244000D02*
X20417526Y-46706526D01*
X28797000Y-32099000D02*
X28194000Y-31496000D01*
X66313500Y-23550000D02*
X66013500Y-23250000D01*
X16780000Y-23341000D02*
X16807000Y-23368000D01*
X39370000Y-25146000D02*
X34798000Y-25146000D01*
X28702000Y-36830000D02*
X28321000Y-37211000D01*
X15780000Y-18648500D02*
X16530000Y-19398500D01*
X40894000Y-35306000D02*
X39952000Y-34364000D01*
X51902000Y-21125000D02*
X51054000Y-20277000D01*
X28797000Y-35465000D02*
X28797000Y-32099000D01*
X66963500Y-12250000D02*
X66063500Y-13150000D01*
X16807000Y-23368000D02*
X18288000Y-23368000D01*
X31750000Y-32004000D02*
X30988000Y-32004000D01*
X16780000Y-19148500D02*
X16530000Y-19398500D01*
X24724526Y-46038474D02*
X26724526Y-46038474D01*
X16780000Y-19648500D02*
X16530000Y-19398500D01*
X47498000Y-45720000D02*
X48558450Y-45720000D01*
X26767526Y-46081474D02*
X31496000Y-41353000D01*
X17029000Y-29101000D02*
X18354000Y-29101000D01*
X16780000Y-17461000D02*
X16780000Y-19148500D01*
X16780000Y-21336000D02*
X16780000Y-23341000D01*
X54313500Y-22098500D02*
X53340000Y-21125000D01*
X49827000Y-20277000D02*
X51054000Y-20277000D01*
X16280000Y-19648500D02*
X16530000Y-19398500D01*
X31496000Y-41353000D02*
X31496000Y-38354000D01*
X16280000Y-15724000D02*
X16510000Y-15494000D01*
X19059000Y-16501000D02*
X21327000Y-16501000D01*
X18288000Y-23368000D02*
X18341500Y-23421500D01*
X18467500Y-18148500D02*
X18669000Y-17947000D01*
X30099000Y-38354000D02*
X28702000Y-36957000D01*
X66113500Y-23150000D02*
X66013500Y-23250000D01*
X47625000Y-22479000D02*
X49827000Y-20277000D01*
X15603000Y-29101000D02*
X14732000Y-29972000D01*
X21590000Y-33147000D02*
X21590000Y-29972000D01*
X47625000Y-29591000D02*
X47625000Y-22479000D01*
X66113500Y-13200000D02*
X66113500Y-23150000D01*
X18392500Y-18223500D02*
X17705000Y-18223500D01*
X20417526Y-45065474D02*
X22426526Y-45065474D01*
X75613500Y-12250000D02*
X66963500Y-12250000D01*
X15780000Y-20148500D02*
X16530000Y-19398500D01*
X24724526Y-46038474D02*
X24724526Y-47030474D01*
X18467500Y-18148500D02*
X18392500Y-18223500D01*
X16280000Y-22841000D02*
X16807000Y-23368000D01*
X19383000Y-29972000D02*
X19304000Y-30051000D01*
X24511000Y-47244000D02*
X20955000Y-47244000D01*
X47498000Y-45720000D02*
X43180000Y-45720000D01*
X64899000Y-23135500D02*
X65013500Y-23250000D01*
X55626000Y-24760000D02*
X56626000Y-23760000D01*
X37592000Y-41529000D02*
X36068000Y-40005000D01*
X16280000Y-17461000D02*
X16280000Y-19148500D01*
X53351000Y-23810000D02*
X54013499Y-23810000D01*
X16280000Y-17461000D02*
X16280000Y-15724000D01*
X18354000Y-29101000D02*
X19304000Y-30051000D01*
X38979024Y-41519024D02*
X38979024Y-40577999D01*
X66063500Y-13150000D02*
X66113500Y-13200000D01*
X18341500Y-29088500D02*
X18354000Y-29101000D01*
X57658000Y-18288000D02*
X57796000Y-18150000D01*
%TO.N,+3V3*%
X24724526Y-44138474D02*
X26635526Y-44138474D01*
X37093000Y-37304000D02*
X36068000Y-36279000D01*
X36822000Y-34364000D02*
X36822000Y-35525000D01*
X39822000Y-29055000D02*
X40661500Y-28215500D01*
X42629000Y-32512000D02*
X42477000Y-32664000D01*
X41148000Y-28702000D02*
X40661500Y-28215500D01*
X38631498Y-39133500D02*
X37300256Y-39133500D01*
X35622000Y-35833000D02*
X36068000Y-36279000D01*
X33782000Y-35052000D02*
X33782000Y-36279000D01*
X22320000Y-13208000D02*
X24130000Y-13208000D01*
X40661500Y-28215500D02*
X41656000Y-27221000D01*
X24892000Y-43971000D02*
X24724526Y-44138474D01*
X33782000Y-36279000D02*
X31496000Y-36279000D01*
X36822000Y-34364000D02*
X37322000Y-34364000D01*
X35622000Y-33664000D02*
X35622000Y-35833000D01*
X36822000Y-35525000D02*
X36068000Y-36279000D01*
X42477000Y-32664000D02*
X40522000Y-32664000D01*
X35622000Y-33164000D02*
X35622000Y-33664000D01*
X39822000Y-29464000D02*
X39822000Y-29055000D01*
X42629000Y-31793000D02*
X43434000Y-30988000D01*
X24892000Y-42418000D02*
X24892000Y-43971000D01*
X42629000Y-32512000D02*
X42629000Y-31793000D01*
X37093000Y-38926244D02*
X37093000Y-37304000D01*
X37300256Y-39133500D02*
X37093000Y-38926244D01*
X36068000Y-36279000D02*
X33782000Y-36279000D01*
X26635526Y-44138474D02*
X26767526Y-44006474D01*
X24130000Y-15240000D02*
X22320000Y-15240000D01*
X47498000Y-38100000D02*
X47498000Y-39624000D01*
X39183999Y-39686001D02*
X38631498Y-39133500D01*
%TO.N,Net-(U1-VDD_SPI)*%
X39322000Y-27269000D02*
X39370000Y-27221000D01*
X39322000Y-29464000D02*
X39322000Y-27269000D01*
%TO.N,Net-(U1-CHIP_EN)*%
X46119800Y-41624000D02*
X39322000Y-34826200D01*
X47498000Y-41624000D02*
X46119800Y-41624000D01*
X39322000Y-34826200D02*
X39322000Y-34364000D01*
X49904650Y-43357800D02*
X47785200Y-43357800D01*
X49904650Y-43357800D02*
X56267350Y-43357800D01*
X47785200Y-43357800D02*
X47498000Y-43645000D01*
X47498000Y-43645000D02*
X47498000Y-41624000D01*
%TO.N,Net-(C8-Pad1)*%
X27922000Y-32574000D02*
X26844000Y-31496000D01*
X27922000Y-33274000D02*
X27922000Y-32574000D01*
X27922000Y-34308000D02*
X27922000Y-33274000D01*
X26670000Y-35560000D02*
X27922000Y-34308000D01*
X26627000Y-35560000D02*
X26670000Y-35560000D01*
%TO.N,Net-(U1-XTAL_N)*%
X29473000Y-29167000D02*
X28194000Y-30446000D01*
X30226000Y-29167000D02*
X29473000Y-29167000D01*
X33223000Y-32164000D02*
X30226000Y-29167000D01*
X35622000Y-32164000D02*
X33223000Y-32164000D01*
%TO.N,Net-(U1-XTAL_32K_P)*%
X38057000Y-38100000D02*
X37822000Y-37865000D01*
X37822000Y-37865000D02*
X37822000Y-34364000D01*
%TO.N,Net-(XTAL1-CLK_Out)*%
X39878000Y-40132000D02*
X39878000Y-38354000D01*
X39878000Y-38354000D02*
X40132000Y-38100000D01*
%TO.N,Batt*%
X22449526Y-46038474D02*
X23112025Y-46038474D01*
X12700000Y-20320000D02*
X12700000Y-28448000D01*
X14592500Y-17640500D02*
X14478000Y-17526000D01*
X14592500Y-18648500D02*
X14592500Y-18148500D01*
D41*
X16256000Y-34544000D02*
X16256000Y-42990474D01*
D40*
X14732000Y-26670000D02*
X14732000Y-27897000D01*
D41*
X14921526Y-42990474D02*
X10452000Y-47460000D01*
X12700000Y-30988000D02*
X16256000Y-34544000D01*
D40*
X15240000Y-26162000D02*
X14732000Y-26670000D01*
X14592500Y-18648500D02*
X12800000Y-18648500D01*
X51562000Y-22860000D02*
X51054000Y-22352000D01*
X14478000Y-15537000D02*
X14435000Y-15494000D01*
D41*
X16256000Y-42990474D02*
X14921526Y-42990474D01*
D40*
X17029000Y-28151000D02*
X14986000Y-28151000D01*
D41*
X14732000Y-27897000D02*
X13251000Y-27897000D01*
D40*
X14592500Y-18148500D02*
X14592500Y-17640500D01*
D41*
X13251000Y-27897000D02*
X12700000Y-28448000D01*
D40*
X14986000Y-28151000D02*
X14732000Y-27897000D01*
X23112025Y-44138474D02*
X22449526Y-44138474D01*
X14478000Y-17526000D02*
X14478000Y-15537000D01*
X49530000Y-22352000D02*
X49022000Y-22860000D01*
X51054000Y-22352000D02*
X49530000Y-22352000D01*
X23412026Y-44438475D02*
X23112025Y-44138474D01*
X20417526Y-42990474D02*
X21301526Y-42990474D01*
X12800000Y-18648500D02*
X12700000Y-18548500D01*
X16256000Y-26162000D02*
X15240000Y-26162000D01*
X21301526Y-42990474D02*
X22449526Y-44138474D01*
X23412026Y-45738473D02*
X23412026Y-44438475D01*
D41*
X10452000Y-47460000D02*
X5000000Y-47460000D01*
D40*
X53351000Y-22860000D02*
X51562000Y-22860000D01*
D41*
X20417526Y-42990474D02*
X16256000Y-42990474D01*
X12700000Y-28448000D02*
X12700000Y-30988000D01*
D40*
X23112025Y-46038474D02*
X23412026Y-45738473D01*
%TO.N,Net-(J1-VDD)*%
X61722000Y-21060500D02*
X59695500Y-21060500D01*
X59674000Y-21082000D02*
X59690000Y-21066000D01*
X55626000Y-21082000D02*
X55626000Y-22860000D01*
X61732500Y-21050000D02*
X61722000Y-21060500D01*
X57658000Y-21082000D02*
X59674000Y-21082000D01*
X55626000Y-21082000D02*
X55372000Y-20828000D01*
X57658000Y-21082000D02*
X55626000Y-21082000D01*
X65013500Y-21050000D02*
X61732500Y-21050000D01*
X57658000Y-22860000D02*
X57658000Y-21082000D01*
X59690000Y-21066000D02*
X59690000Y-22860000D01*
X59695500Y-21060500D02*
X59690000Y-21066000D01*
X55118000Y-20828000D02*
X53340000Y-19050000D01*
X55372000Y-20828000D02*
X55118000Y-20828000D01*
X55626000Y-22860000D02*
X57658000Y-22860000D01*
X59690000Y-22860000D02*
X57658000Y-22860000D01*
%TO.N,+1V8*%
X20277000Y-17526000D02*
X19154500Y-18648500D01*
X19154500Y-18648500D02*
X18467500Y-18648500D01*
X20277000Y-17526000D02*
X20171500Y-17631500D01*
X19304000Y-28151000D02*
X21336000Y-28151000D01*
X21336000Y-28151000D02*
X21590000Y-27897000D01*
%TO.N,Net-(U2-STABA)*%
X15280000Y-22820000D02*
X14732000Y-23368000D01*
X15280000Y-21336000D02*
X15280000Y-22820000D01*
%TO.N,SD_DI*%
X38822000Y-34364000D02*
X38822000Y-35266000D01*
X38822000Y-35266000D02*
X39116000Y-35560000D01*
X61468000Y-19812000D02*
X61468000Y-19066000D01*
X59690000Y-19066000D02*
X61468000Y-19066000D01*
X62246000Y-19066000D02*
X63130000Y-19950000D01*
X63130000Y-19950000D02*
X65013500Y-19950000D01*
X61468000Y-19066000D02*
X62246000Y-19066000D01*
%TO.N,Net-(J1-DAT2)*%
X56958000Y-17750000D02*
X65013500Y-17750000D01*
X55626000Y-19082000D02*
X56958000Y-17750000D01*
%TO.N,SD_DO*%
X59690000Y-26162000D02*
X59690000Y-24860000D01*
X44080597Y-28707089D02*
X44024669Y-28707089D01*
X44024669Y-28707089D02*
X41067758Y-31664000D01*
X60200000Y-24350000D02*
X59690000Y-24860000D01*
X41067758Y-31664000D02*
X40522000Y-31664000D01*
X65013500Y-24350000D02*
X60200000Y-24350000D01*
%TO.N,SD_SCLK*%
X44329126Y-29307089D02*
X44073104Y-29307089D01*
X41216193Y-32164000D02*
X40522000Y-32164000D01*
X65013500Y-22150000D02*
X63298000Y-22150000D01*
X44958000Y-28194000D02*
X44958000Y-28678215D01*
X44958000Y-28678215D02*
X44329126Y-29307089D01*
X63298000Y-22150000D02*
X63246000Y-22098000D01*
X44073104Y-29307089D02*
X41216193Y-32164000D01*
%TO.N,Net-(J1-DAT1)*%
X60360000Y-26762000D02*
X61672000Y-25450000D01*
X58960000Y-26762000D02*
X60360000Y-26762000D01*
X61672000Y-25450000D02*
X65013500Y-25450000D01*
X57658000Y-25460000D02*
X58960000Y-26762000D01*
X57658000Y-24860000D02*
X57658000Y-25460000D01*
%TO.N,Net-(J2-Pin_1)*%
X7586000Y-18000000D02*
X5000000Y-18000000D01*
X14592500Y-19148500D02*
X8734500Y-19148500D01*
X8734500Y-19148500D02*
X7586000Y-18000000D01*
%TO.N,Net-(J2-Pin_2)*%
X5000000Y-20540000D02*
X7908000Y-20540000D01*
X8799500Y-19648500D02*
X14592500Y-19648500D01*
X7908000Y-20540000D02*
X8799500Y-19648500D01*
%TO.N,Net-(J3-Pin_1)*%
X67532000Y-48006000D02*
X70778000Y-48006000D01*
X70778000Y-48006000D02*
X70784000Y-48000000D01*
%TO.N,Net-(J3-Pin_2)*%
X67564000Y-45466000D02*
X70778000Y-45466000D01*
X70778000Y-45466000D02*
X70784000Y-45460000D01*
%TO.N,Net-(U1-XTAL_P)*%
X32182200Y-32664000D02*
X31572200Y-33274000D01*
X31572200Y-33274000D02*
X29972000Y-33274000D01*
X35622000Y-32664000D02*
X32182200Y-32664000D01*
D41*
%TO.N,Net-(R7-Pad2)*%
X5000000Y-44920000D02*
X9690000Y-44920000D01*
X9690000Y-44920000D02*
X13716000Y-40894000D01*
D40*
%TO.N,SD_POW_EN*%
X53372000Y-26670000D02*
X46505000Y-33537000D01*
X41411000Y-33537000D02*
X41038000Y-33164000D01*
X53351000Y-24760000D02*
X53351000Y-26649000D01*
X46505000Y-33537000D02*
X41411000Y-33537000D01*
X53351000Y-26649000D02*
X53372000Y-26670000D01*
X41038000Y-33164000D02*
X40522000Y-33164000D01*
%TO.N,1V8_POW_EN*%
X17029000Y-30051000D02*
X17029000Y-31718000D01*
X17272000Y-31961000D02*
X18796000Y-33485000D01*
X17029000Y-31718000D02*
X17272000Y-31961000D01*
X18796000Y-33485000D02*
X18796000Y-33528000D01*
X43688000Y-34290000D02*
X41148000Y-34290000D01*
X41148000Y-34290000D02*
X40522000Y-33664000D01*
%TO.N,SDA*%
X17780000Y-16510000D02*
X17780000Y-17461000D01*
X20320000Y-15240000D02*
X19050000Y-15240000D01*
X21320000Y-14240000D02*
X32912930Y-14240000D01*
X43081000Y-28519386D02*
X40936386Y-30664000D01*
X43081000Y-24408070D02*
X43081000Y-28519386D01*
X32912930Y-14240000D02*
X43081000Y-24408070D01*
X40936386Y-30664000D02*
X40522000Y-30664000D01*
X20320000Y-15240000D02*
X21320000Y-14240000D01*
X19050000Y-15240000D02*
X17780000Y-16510000D01*
%TO.N,SCL*%
X20320000Y-13208000D02*
X21320000Y-12208000D01*
X41002072Y-31164000D02*
X40522000Y-31164000D01*
X20320000Y-13208000D02*
X20320000Y-13370000D01*
X31446616Y-12208000D02*
X43481000Y-24242384D01*
X43481000Y-24242384D02*
X43481000Y-28685072D01*
X17280000Y-16410000D02*
X17280000Y-17461000D01*
X43481000Y-28685072D02*
X41002072Y-31164000D01*
X20320000Y-13370000D02*
X17280000Y-16410000D01*
X21320000Y-12208000D02*
X31446616Y-12208000D01*
%TO.N,TX*%
X65564000Y-45466000D02*
X56166000Y-36068000D01*
X33696000Y-31664000D02*
X35622000Y-31664000D01*
X56166000Y-36068000D02*
X43434000Y-36068000D01*
X33528000Y-31496000D02*
X33696000Y-31664000D01*
%TO.N,RX*%
X42418000Y-35468000D02*
X42418000Y-35900529D01*
X43185471Y-36668000D02*
X56200314Y-36668000D01*
X64516000Y-44983686D02*
X64516000Y-46990000D01*
X64516000Y-46990000D02*
X65532000Y-48006000D01*
X56200314Y-36668000D02*
X64516000Y-44983686D01*
X34044529Y-31164000D02*
X33576526Y-30695997D01*
X35622000Y-31164000D02*
X34044529Y-31164000D01*
X33576526Y-30695997D02*
X33528000Y-30695997D01*
X42418000Y-35900529D02*
X43185471Y-36668000D01*
%TO.N,LRCK*%
X18467500Y-19148500D02*
X37255744Y-19148500D01*
X42681000Y-28353700D02*
X40870700Y-30164000D01*
X40870700Y-30164000D02*
X40522000Y-30164000D01*
X42681000Y-24573756D02*
X42681000Y-28353700D01*
X37255744Y-19148500D02*
X42681000Y-24573756D01*
%TO.N,SCK*%
X24757800Y-19648500D02*
X35273300Y-30164000D01*
X18467500Y-19648500D02*
X24757800Y-19648500D01*
X35273300Y-30164000D02*
X35622000Y-30164000D01*
%TO.N,SDI*%
X18467500Y-20148500D02*
X24692114Y-20148500D01*
X35207614Y-30664000D02*
X35622000Y-30664000D01*
X24692114Y-20148500D02*
X35207614Y-30664000D01*
%TD*%
%TA.AperFunction,Conductor*%
%TO.N,GND*%
G36*
X40652203Y-34643884D02*
G01*
X40658656Y-34649892D01*
X40779284Y-34770520D01*
X40779286Y-34770521D01*
X40779287Y-34770522D01*
X40779290Y-34770524D01*
X40901017Y-34840802D01*
X40916216Y-34849577D01*
X41068943Y-34890501D01*
X41068945Y-34890501D01*
X41234654Y-34890501D01*
X41234670Y-34890500D01*
X41611098Y-34890500D01*
X41678137Y-34910185D01*
X41723892Y-34962989D01*
X41733836Y-35032147D01*
X41716091Y-35080473D01*
X41692211Y-35118475D01*
X41632631Y-35288745D01*
X41632630Y-35288750D01*
X41612435Y-35467996D01*
X41612435Y-35468003D01*
X41632630Y-35647249D01*
X41632631Y-35647254D01*
X41692211Y-35817523D01*
X41788184Y-35970262D01*
X41801321Y-35983399D01*
X41833414Y-36038985D01*
X41858421Y-36132310D01*
X41858422Y-36132313D01*
X41859947Y-36134953D01*
X41874697Y-36160501D01*
X41891622Y-36189816D01*
X41908044Y-36218260D01*
X41924516Y-36286160D01*
X41901663Y-36352187D01*
X41846741Y-36395377D01*
X41777188Y-36402018D01*
X41715086Y-36370001D01*
X41712975Y-36367940D01*
X40421064Y-35076029D01*
X40387579Y-35014706D01*
X40392563Y-34945014D01*
X40394184Y-34940894D01*
X40432522Y-34848340D01*
X40446999Y-34738377D01*
X40447000Y-34738363D01*
X40447000Y-34737597D01*
X40447064Y-34737376D01*
X40447265Y-34734320D01*
X40447949Y-34734364D01*
X40466685Y-34670558D01*
X40519489Y-34624803D01*
X40588647Y-34614859D01*
X40652203Y-34643884D01*
G37*
%TD.AperFunction*%
%TA.AperFunction,Conductor*%
G36*
X39104514Y-30348501D02*
G01*
X39104674Y-30347905D01*
X39112524Y-30350008D01*
X39112526Y-30350008D01*
X39112528Y-30350009D01*
X39222599Y-30364500D01*
X39421400Y-30364499D01*
X39491623Y-30355254D01*
X39560654Y-30366019D01*
X39612910Y-30412399D01*
X39631796Y-30479668D01*
X39630744Y-30494377D01*
X39621500Y-30564596D01*
X39621500Y-30763403D01*
X39635989Y-30873468D01*
X39638094Y-30881322D01*
X39634814Y-30882200D01*
X39640581Y-30936073D01*
X39637517Y-30946522D01*
X39638095Y-30946677D01*
X39635990Y-30954529D01*
X39621500Y-31064598D01*
X39621500Y-31263403D01*
X39635989Y-31373468D01*
X39638094Y-31381322D01*
X39634814Y-31382200D01*
X39640581Y-31436073D01*
X39637517Y-31446522D01*
X39638095Y-31446677D01*
X39635990Y-31454529D01*
X39621500Y-31564598D01*
X39621500Y-31763403D01*
X39635989Y-31873468D01*
X39638094Y-31881322D01*
X39634814Y-31882200D01*
X39640581Y-31936073D01*
X39637517Y-31946522D01*
X39638095Y-31946677D01*
X39635990Y-31954529D01*
X39621500Y-32064598D01*
X39621500Y-32263403D01*
X39635989Y-32373468D01*
X39638094Y-32381322D01*
X39634814Y-32382200D01*
X39640581Y-32436073D01*
X39637517Y-32446522D01*
X39638095Y-32446677D01*
X39635990Y-32454529D01*
X39621500Y-32564598D01*
X39621500Y-32763403D01*
X39635989Y-32873468D01*
X39638094Y-32881322D01*
X39634814Y-32882200D01*
X39640581Y-32936073D01*
X39637517Y-32946522D01*
X39638095Y-32946677D01*
X39635990Y-32954529D01*
X39621500Y-33064598D01*
X39621500Y-33263403D01*
X39630744Y-33333622D01*
X39619977Y-33402657D01*
X39573596Y-33454912D01*
X39506327Y-33473796D01*
X39491620Y-33472744D01*
X39421402Y-33463500D01*
X39222596Y-33463500D01*
X39112531Y-33477989D01*
X39104678Y-33480094D01*
X39103802Y-33476824D01*
X39049853Y-33482567D01*
X39039477Y-33479518D01*
X39039323Y-33480095D01*
X39031470Y-33477990D01*
X38921401Y-33463500D01*
X38722596Y-33463500D01*
X38612531Y-33477989D01*
X38604678Y-33480094D01*
X38603802Y-33476824D01*
X38549853Y-33482567D01*
X38539477Y-33479518D01*
X38539323Y-33480095D01*
X38531470Y-33477990D01*
X38421401Y-33463500D01*
X38222596Y-33463500D01*
X38112531Y-33477989D01*
X38104678Y-33480094D01*
X38103802Y-33476824D01*
X38049853Y-33482567D01*
X38039477Y-33479518D01*
X38039323Y-33480095D01*
X38031470Y-33477990D01*
X37921401Y-33463500D01*
X37722596Y-33463500D01*
X37612531Y-33477989D01*
X37604678Y-33480094D01*
X37603802Y-33476824D01*
X37549853Y-33482567D01*
X37539477Y-33479518D01*
X37539323Y-33480095D01*
X37531470Y-33477990D01*
X37421401Y-33463500D01*
X37222596Y-33463500D01*
X37112531Y-33477989D01*
X37104678Y-33480094D01*
X37103802Y-33476824D01*
X37049853Y-33482567D01*
X37039477Y-33479518D01*
X37039323Y-33480095D01*
X37031470Y-33477990D01*
X36921401Y-33463500D01*
X36722604Y-33463500D01*
X36652377Y-33472745D01*
X36583341Y-33461977D01*
X36531087Y-33415596D01*
X36512203Y-33348327D01*
X36513255Y-33333622D01*
X36522500Y-33263401D01*
X36522499Y-33064600D01*
X36508009Y-32954528D01*
X36508008Y-32954525D01*
X36505905Y-32946674D01*
X36509207Y-32945789D01*
X36503392Y-32892075D01*
X36506501Y-32881485D01*
X36505905Y-32881326D01*
X36508008Y-32873475D01*
X36508008Y-32873474D01*
X36508009Y-32873472D01*
X36522500Y-32763401D01*
X36522499Y-32564600D01*
X36522393Y-32563797D01*
X36518105Y-32531224D01*
X36508009Y-32454528D01*
X36508008Y-32454525D01*
X36505905Y-32446674D01*
X36509207Y-32445789D01*
X36503392Y-32392075D01*
X36506501Y-32381485D01*
X36505905Y-32381326D01*
X36508008Y-32373475D01*
X36508008Y-32373474D01*
X36508009Y-32373472D01*
X36522500Y-32263401D01*
X36522499Y-32064600D01*
X36522239Y-32062628D01*
X36512285Y-31987013D01*
X36508009Y-31954528D01*
X36508008Y-31954525D01*
X36505905Y-31946674D01*
X36509207Y-31945789D01*
X36503392Y-31892075D01*
X36506501Y-31881485D01*
X36505905Y-31881326D01*
X36508008Y-31873475D01*
X36508008Y-31873474D01*
X36508009Y-31873472D01*
X36522500Y-31763401D01*
X36522499Y-31564600D01*
X36508009Y-31454528D01*
X36508008Y-31454525D01*
X36505905Y-31446674D01*
X36509207Y-31445789D01*
X36503392Y-31392075D01*
X36506501Y-31381485D01*
X36505905Y-31381326D01*
X36508008Y-31373475D01*
X36508008Y-31373474D01*
X36508009Y-31373472D01*
X36522500Y-31263401D01*
X36522499Y-31064600D01*
X36521827Y-31059499D01*
X36513186Y-30993856D01*
X36508009Y-30954528D01*
X36508008Y-30954525D01*
X36505905Y-30946674D01*
X36509207Y-30945789D01*
X36503392Y-30892075D01*
X36506501Y-30881485D01*
X36505905Y-30881326D01*
X36508008Y-30873475D01*
X36508008Y-30873474D01*
X36508009Y-30873472D01*
X36522500Y-30763401D01*
X36522499Y-30564600D01*
X36513254Y-30494375D01*
X36524019Y-30425344D01*
X36570399Y-30373088D01*
X36637668Y-30354203D01*
X36652371Y-30355254D01*
X36722599Y-30364500D01*
X36921400Y-30364499D01*
X36921401Y-30364499D01*
X36938087Y-30362302D01*
X37031472Y-30350009D01*
X37031475Y-30350007D01*
X37039326Y-30347905D01*
X37040210Y-30351207D01*
X37093925Y-30345392D01*
X37104514Y-30348501D01*
X37104674Y-30347905D01*
X37112524Y-30350008D01*
X37112526Y-30350008D01*
X37112528Y-30350009D01*
X37222599Y-30364500D01*
X37421400Y-30364499D01*
X37421401Y-30364499D01*
X37438087Y-30362302D01*
X37531472Y-30350009D01*
X37531475Y-30350007D01*
X37539326Y-30347905D01*
X37540210Y-30351207D01*
X37593925Y-30345392D01*
X37604514Y-30348501D01*
X37604674Y-30347905D01*
X37612524Y-30350008D01*
X37612526Y-30350008D01*
X37612528Y-30350009D01*
X37722599Y-30364500D01*
X37921400Y-30364499D01*
X37921401Y-30364499D01*
X37938087Y-30362302D01*
X38031472Y-30350009D01*
X38031475Y-30350007D01*
X38039326Y-30347905D01*
X38040210Y-30351207D01*
X38093925Y-30345392D01*
X38104514Y-30348501D01*
X38104674Y-30347905D01*
X38112524Y-30350008D01*
X38112526Y-30350008D01*
X38112528Y-30350009D01*
X38222599Y-30364500D01*
X38421400Y-30364499D01*
X38421401Y-30364499D01*
X38438087Y-30362302D01*
X38531472Y-30350009D01*
X38531475Y-30350007D01*
X38539326Y-30347905D01*
X38540210Y-30351207D01*
X38593925Y-30345392D01*
X38604514Y-30348501D01*
X38604674Y-30347905D01*
X38612524Y-30350008D01*
X38612526Y-30350008D01*
X38612528Y-30350009D01*
X38722599Y-30364500D01*
X38921400Y-30364499D01*
X38921401Y-30364499D01*
X38938087Y-30362302D01*
X39031472Y-30350009D01*
X39031475Y-30350007D01*
X39039326Y-30347905D01*
X39040210Y-30351207D01*
X39093925Y-30345392D01*
X39104514Y-30348501D01*
G37*
%TD.AperFunction*%
%TA.AperFunction,Conductor*%
G36*
X31656201Y-31446882D02*
G01*
X31662680Y-31452915D01*
X32085445Y-31875680D01*
X32118930Y-31937003D01*
X32113946Y-32006695D01*
X32072074Y-32062628D01*
X32029859Y-32083135D01*
X31950415Y-32104422D01*
X31913362Y-32125816D01*
X31913361Y-32125816D01*
X31813487Y-32183477D01*
X31813482Y-32183481D01*
X31701678Y-32295286D01*
X31359784Y-32637181D01*
X31298461Y-32670666D01*
X31272103Y-32673500D01*
X31127301Y-32673500D01*
X31060262Y-32653815D01*
X31014507Y-32601011D01*
X31009595Y-32588504D01*
X31001674Y-32564599D01*
X30981814Y-32504666D01*
X30947316Y-32448736D01*
X30928877Y-32381345D01*
X30949800Y-32314682D01*
X31003442Y-32269912D01*
X31013854Y-32265935D01*
X31020115Y-32263860D01*
X31020124Y-32263856D01*
X31169345Y-32171815D01*
X31293315Y-32047845D01*
X31385356Y-31898624D01*
X31385358Y-31898619D01*
X31440505Y-31732197D01*
X31440506Y-31732190D01*
X31450999Y-31629486D01*
X31451000Y-31629473D01*
X31450999Y-31540597D01*
X31470683Y-31473558D01*
X31523486Y-31427802D01*
X31592645Y-31417858D01*
X31656201Y-31446882D01*
G37*
%TD.AperFunction*%
%TA.AperFunction,Conductor*%
G36*
X37022686Y-19768685D02*
G01*
X37043328Y-19785319D01*
X41114797Y-23856788D01*
X41148282Y-23918111D01*
X41143298Y-23987803D01*
X41101426Y-24043736D01*
X41039724Y-24067826D01*
X41028306Y-24068993D01*
X40861880Y-24124141D01*
X40861875Y-24124143D01*
X40712654Y-24216184D01*
X40600681Y-24328158D01*
X40539358Y-24361643D01*
X40469666Y-24356659D01*
X40425319Y-24328158D01*
X40313345Y-24216184D01*
X40164124Y-24124143D01*
X40164119Y-24124141D01*
X39997697Y-24068994D01*
X39997690Y-24068993D01*
X39894986Y-24058500D01*
X39620000Y-24058500D01*
X39620000Y-24896000D01*
X41782000Y-24896000D01*
X41849039Y-24915685D01*
X41894794Y-24968489D01*
X41906000Y-25020000D01*
X41906000Y-25272000D01*
X41886315Y-25339039D01*
X41833511Y-25384794D01*
X41782000Y-25396000D01*
X38145001Y-25396000D01*
X38145001Y-25533486D01*
X38155494Y-25636197D01*
X38210641Y-25802619D01*
X38210643Y-25802624D01*
X38302684Y-25951845D01*
X38426655Y-26075816D01*
X38426659Y-26075819D01*
X38429656Y-26077668D01*
X38431279Y-26079472D01*
X38432323Y-26080298D01*
X38432181Y-26080476D01*
X38476381Y-26129616D01*
X38487602Y-26198579D01*
X38459759Y-26262661D01*
X38429661Y-26288741D01*
X38426349Y-26290783D01*
X38426343Y-26290788D01*
X38302289Y-26414842D01*
X38210187Y-26564163D01*
X38210186Y-26564166D01*
X38155001Y-26730703D01*
X38155001Y-26730704D01*
X38155000Y-26730704D01*
X38144500Y-26833483D01*
X38144500Y-27608501D01*
X38144501Y-27608519D01*
X38155000Y-27711296D01*
X38155001Y-27711299D01*
X38210185Y-27877831D01*
X38210186Y-27877834D01*
X38302288Y-28027156D01*
X38426344Y-28151212D01*
X38575666Y-28243314D01*
X38636505Y-28263473D01*
X38693949Y-28303245D01*
X38720772Y-28367761D01*
X38721500Y-28381179D01*
X38721500Y-28454899D01*
X38701815Y-28521938D01*
X38649011Y-28567693D01*
X38613696Y-28577837D01*
X38612529Y-28577990D01*
X38604680Y-28580094D01*
X38603801Y-28576814D01*
X38549927Y-28582582D01*
X38539479Y-28579510D01*
X38539323Y-28580095D01*
X38531470Y-28577990D01*
X38421401Y-28563500D01*
X38222596Y-28563500D01*
X38112531Y-28577989D01*
X38104678Y-28580094D01*
X38103802Y-28576824D01*
X38049853Y-28582567D01*
X38039477Y-28579518D01*
X38039323Y-28580095D01*
X38031470Y-28577990D01*
X37921401Y-28563500D01*
X37722596Y-28563500D01*
X37612531Y-28577989D01*
X37604678Y-28580094D01*
X37603802Y-28576824D01*
X37549853Y-28582567D01*
X37539477Y-28579518D01*
X37539323Y-28580095D01*
X37531470Y-28577990D01*
X37421401Y-28563500D01*
X37222596Y-28563500D01*
X37112531Y-28577989D01*
X37104678Y-28580094D01*
X37103802Y-28576824D01*
X37049853Y-28582567D01*
X37039477Y-28579518D01*
X37039323Y-28580095D01*
X37031470Y-28577990D01*
X36921401Y-28563500D01*
X36722596Y-28563500D01*
X36612531Y-28577989D01*
X36604678Y-28580094D01*
X36603802Y-28576824D01*
X36549853Y-28582567D01*
X36539477Y-28579518D01*
X36539323Y-28580095D01*
X36531470Y-28577990D01*
X36421401Y-28563500D01*
X36222596Y-28563500D01*
X36112536Y-28577988D01*
X36112527Y-28577991D01*
X35975574Y-28634719D01*
X35975571Y-28634720D01*
X35975571Y-28634721D01*
X35857964Y-28724964D01*
X35775995Y-28831789D01*
X35767719Y-28842574D01*
X35710991Y-28979527D01*
X35710990Y-28979529D01*
X35696501Y-29089589D01*
X35696500Y-29089605D01*
X35696500Y-29414500D01*
X35676815Y-29481539D01*
X35624011Y-29527294D01*
X35572500Y-29538500D01*
X35548398Y-29538500D01*
X35481359Y-29518815D01*
X35460717Y-29502181D01*
X30717049Y-24758513D01*
X38145000Y-24758513D01*
X38145000Y-24896000D01*
X39120000Y-24896000D01*
X39120000Y-24058500D01*
X38845029Y-24058500D01*
X38845012Y-24058501D01*
X38742302Y-24068994D01*
X38575880Y-24124141D01*
X38575875Y-24124143D01*
X38426654Y-24216184D01*
X38302684Y-24340154D01*
X38210643Y-24489375D01*
X38210641Y-24489380D01*
X38155494Y-24655802D01*
X38155493Y-24655809D01*
X38145000Y-24758513D01*
X30717049Y-24758513D01*
X30706400Y-24747864D01*
X25919215Y-19960680D01*
X25885731Y-19899358D01*
X25890715Y-19829666D01*
X25932587Y-19773733D01*
X25998051Y-19749316D01*
X26006897Y-19749000D01*
X36955647Y-19749000D01*
X37022686Y-19768685D01*
G37*
%TD.AperFunction*%
%TA.AperFunction,Conductor*%
G36*
X16189375Y-17670168D02*
G01*
X16233722Y-17698669D01*
X16530000Y-17994947D01*
X16554467Y-17994947D01*
X16561879Y-17990899D01*
X16631571Y-17995878D01*
X16687508Y-18037745D01*
X16702807Y-18064611D01*
X16725718Y-18119924D01*
X16725718Y-18119925D01*
X16725720Y-18119928D01*
X16725721Y-18119929D01*
X16815964Y-18237536D01*
X16815967Y-18237538D01*
X16835039Y-18252173D01*
X16876242Y-18308600D01*
X16883120Y-18348068D01*
X17054999Y-18519946D01*
X17139627Y-18435318D01*
X17200950Y-18401833D01*
X17227301Y-18398999D01*
X17379400Y-18398999D01*
X17392039Y-18397335D01*
X17461073Y-18408100D01*
X17513329Y-18454480D01*
X17532215Y-18521749D01*
X17531164Y-18536452D01*
X17529500Y-18549097D01*
X17529500Y-18701188D01*
X17509815Y-18768227D01*
X17493182Y-18788868D01*
X17408553Y-18873499D01*
X17493181Y-18958127D01*
X17526666Y-19019450D01*
X17529500Y-19045808D01*
X17529500Y-19247903D01*
X17537398Y-19307906D01*
X17523355Y-19313724D01*
X17495224Y-19341855D01*
X17480000Y-19378609D01*
X17480000Y-19418391D01*
X17495224Y-19455145D01*
X17523355Y-19483276D01*
X17537399Y-19489093D01*
X17529500Y-19549098D01*
X17529500Y-19751188D01*
X17509815Y-19818227D01*
X17493182Y-19838868D01*
X17408553Y-19923499D01*
X17493181Y-20008127D01*
X17526666Y-20069450D01*
X17529500Y-20095808D01*
X17529500Y-20247900D01*
X17531165Y-20260545D01*
X17520396Y-20329580D01*
X17474013Y-20381833D01*
X17406743Y-20400715D01*
X17392046Y-20399664D01*
X17379402Y-20398000D01*
X17227309Y-20398000D01*
X17160270Y-20378315D01*
X17139628Y-20361681D01*
X17055000Y-20277053D01*
X16882701Y-20449351D01*
X16863868Y-20513490D01*
X16835041Y-20544825D01*
X16815966Y-20559461D01*
X16787937Y-20595989D01*
X16729862Y-20671675D01*
X16725719Y-20677074D01*
X16702807Y-20732389D01*
X16658966Y-20786792D01*
X16592672Y-20808857D01*
X16566014Y-20802053D01*
X16505523Y-20802053D01*
X16498103Y-20806104D01*
X16428412Y-20801115D01*
X16372481Y-20759239D01*
X16357193Y-20732389D01*
X16334280Y-20677074D01*
X16334279Y-20677071D01*
X16244036Y-20559464D01*
X16244033Y-20559461D01*
X16244031Y-20559459D01*
X16224959Y-20544824D01*
X16183757Y-20488396D01*
X16176879Y-20448932D01*
X16156556Y-20428609D01*
X16430000Y-20428609D01*
X16430000Y-20468391D01*
X16445224Y-20505145D01*
X16473355Y-20533276D01*
X16510109Y-20548500D01*
X16549891Y-20548500D01*
X16586645Y-20533276D01*
X16614776Y-20505145D01*
X16630000Y-20468391D01*
X16630000Y-20428609D01*
X16614776Y-20391855D01*
X16586645Y-20363724D01*
X16549891Y-20348500D01*
X16510109Y-20348500D01*
X16473355Y-20363724D01*
X16445224Y-20391855D01*
X16430000Y-20428609D01*
X16156556Y-20428609D01*
X16005001Y-20277053D01*
X16005000Y-20277053D01*
X15920370Y-20361682D01*
X15859046Y-20395166D01*
X15832690Y-20398000D01*
X15680596Y-20398000D01*
X15573178Y-20412140D01*
X15564776Y-20391855D01*
X15536645Y-20363724D01*
X15499891Y-20348500D01*
X15460109Y-20348500D01*
X15423355Y-20363724D01*
X15395224Y-20391855D01*
X15391992Y-20399657D01*
X15379402Y-20398000D01*
X15362303Y-20398000D01*
X15295264Y-20378315D01*
X15249509Y-20325511D01*
X15239565Y-20256353D01*
X15268590Y-20192797D01*
X15286812Y-20175628D01*
X15358565Y-20120570D01*
X15423733Y-20095377D01*
X15434050Y-20094947D01*
X15480000Y-20094947D01*
X15651447Y-19923500D01*
X16358553Y-19923500D01*
X16530000Y-20094947D01*
X16701447Y-19923500D01*
X16530000Y-19752053D01*
X16358553Y-19923500D01*
X15651447Y-19923500D01*
X15566818Y-19838871D01*
X15533333Y-19777548D01*
X15530499Y-19751190D01*
X15530499Y-19747908D01*
X15530500Y-19747901D01*
X15530499Y-19549100D01*
X15522599Y-19489093D01*
X15536645Y-19483276D01*
X15564776Y-19455145D01*
X15580000Y-19418391D01*
X15580000Y-19398500D01*
X15833553Y-19398500D01*
X16005000Y-19569947D01*
X16176447Y-19398500D01*
X16156556Y-19378609D01*
X16430000Y-19378609D01*
X16430000Y-19418391D01*
X16445224Y-19455145D01*
X16473355Y-19483276D01*
X16510109Y-19498500D01*
X16549891Y-19498500D01*
X16586645Y-19483276D01*
X16614776Y-19455145D01*
X16630000Y-19418391D01*
X16630000Y-19398500D01*
X16883553Y-19398500D01*
X17055000Y-19569947D01*
X17226447Y-19398500D01*
X17055000Y-19227053D01*
X16883553Y-19398500D01*
X16630000Y-19398500D01*
X16630000Y-19378609D01*
X16614776Y-19341855D01*
X16586645Y-19313724D01*
X16549891Y-19298500D01*
X16510109Y-19298500D01*
X16473355Y-19313724D01*
X16445224Y-19341855D01*
X16430000Y-19378609D01*
X16156556Y-19378609D01*
X16005000Y-19227053D01*
X15833553Y-19398500D01*
X15580000Y-19398500D01*
X15580000Y-19378609D01*
X15564776Y-19341855D01*
X15536645Y-19313724D01*
X15522600Y-19307906D01*
X15530500Y-19247901D01*
X15530499Y-19049100D01*
X15530499Y-19049099D01*
X15530499Y-19045811D01*
X15550183Y-18978771D01*
X15566818Y-18958128D01*
X15651445Y-18873500D01*
X16358553Y-18873500D01*
X16530000Y-19044947D01*
X16701447Y-18873500D01*
X16530000Y-18702053D01*
X16358553Y-18873500D01*
X15651445Y-18873500D01*
X15651446Y-18873499D01*
X15566818Y-18788871D01*
X15533333Y-18727548D01*
X15530499Y-18701197D01*
X15530499Y-18549100D01*
X15526898Y-18521749D01*
X15520249Y-18471237D01*
X15525445Y-18437914D01*
X15536645Y-18433276D01*
X15564776Y-18405145D01*
X15580000Y-18368391D01*
X15580000Y-18348604D01*
X15595727Y-18340496D01*
X15626429Y-18327779D01*
X15645629Y-18313045D01*
X15710792Y-18287852D01*
X15779238Y-18301889D01*
X15808794Y-18323741D01*
X16005000Y-18519947D01*
X16176447Y-18348500D01*
X16156556Y-18328609D01*
X16430000Y-18328609D01*
X16430000Y-18368391D01*
X16445224Y-18405145D01*
X16473355Y-18433276D01*
X16510109Y-18448500D01*
X16549891Y-18448500D01*
X16586645Y-18433276D01*
X16614776Y-18405145D01*
X16630000Y-18368391D01*
X16630000Y-18328609D01*
X16614776Y-18291855D01*
X16586645Y-18263724D01*
X16549891Y-18248500D01*
X16510109Y-18248500D01*
X16473355Y-18263724D01*
X16445224Y-18291855D01*
X16430000Y-18328609D01*
X16156556Y-18328609D01*
X16005000Y-18177053D01*
X15996197Y-18177053D01*
X15929158Y-18157368D01*
X15883403Y-18104564D01*
X15873459Y-18035406D01*
X15881636Y-18005601D01*
X15887725Y-17990899D01*
X15891009Y-17982972D01*
X15905500Y-17872901D01*
X15905500Y-17872895D01*
X15905766Y-17868850D01*
X15907572Y-17868968D01*
X15925185Y-17808989D01*
X15977989Y-17763234D01*
X15998187Y-17758839D01*
X16058360Y-17698668D01*
X16119684Y-17665184D01*
X16189375Y-17670168D01*
G37*
%TD.AperFunction*%
%TA.AperFunction,Conductor*%
G36*
X32679872Y-14860185D02*
G01*
X32700514Y-14876819D01*
X36160014Y-18336319D01*
X36193499Y-18397642D01*
X36188515Y-18467334D01*
X36146643Y-18523267D01*
X36081179Y-18547684D01*
X36072333Y-18548000D01*
X23455476Y-18548000D01*
X23388437Y-18528315D01*
X23342682Y-18475511D01*
X23332738Y-18406353D01*
X23349938Y-18358903D01*
X23373853Y-18320130D01*
X23373858Y-18320119D01*
X23429005Y-18153697D01*
X23429006Y-18153690D01*
X23439499Y-18050986D01*
X23439500Y-18050973D01*
X23439500Y-17776000D01*
X22226000Y-17776000D01*
X22158961Y-17756315D01*
X22113206Y-17703511D01*
X22102000Y-17652000D01*
X22102000Y-17400000D01*
X22121685Y-17332961D01*
X22174489Y-17287206D01*
X22226000Y-17276000D01*
X23439499Y-17276000D01*
X23439499Y-17001028D01*
X23439498Y-17001013D01*
X23429005Y-16898302D01*
X23373858Y-16731880D01*
X23373856Y-16731875D01*
X23281815Y-16582654D01*
X23152737Y-16453576D01*
X23153689Y-16452623D01*
X23117778Y-16401907D01*
X23114640Y-16332108D01*
X23147382Y-16273985D01*
X23262712Y-16158656D01*
X23354814Y-16009334D01*
X23382595Y-15925495D01*
X23422368Y-15868051D01*
X23486884Y-15841228D01*
X23500301Y-15840500D01*
X23547588Y-15840500D01*
X23614627Y-15860185D01*
X23624903Y-15867555D01*
X23627736Y-15869814D01*
X23627738Y-15869816D01*
X23780478Y-15965789D01*
X23904928Y-16009336D01*
X23950745Y-16025368D01*
X23950750Y-16025369D01*
X24129996Y-16045565D01*
X24130000Y-16045565D01*
X24130004Y-16045565D01*
X24309249Y-16025369D01*
X24309252Y-16025368D01*
X24309255Y-16025368D01*
X24479522Y-15965789D01*
X24632262Y-15869816D01*
X24759816Y-15742262D01*
X24855789Y-15589522D01*
X24915368Y-15419255D01*
X24916967Y-15405062D01*
X24935565Y-15240003D01*
X24935565Y-15239996D01*
X24915369Y-15060750D01*
X24915366Y-15060737D01*
X24896022Y-15005455D01*
X24892460Y-14935676D01*
X24927188Y-14875049D01*
X24989182Y-14842821D01*
X25013063Y-14840500D01*
X32612833Y-14840500D01*
X32679872Y-14860185D01*
G37*
%TD.AperFunction*%
%TA.AperFunction,Conductor*%
G36*
X16597539Y-17355685D02*
G01*
X16643294Y-17408489D01*
X16654500Y-17459938D01*
X16654501Y-17461938D01*
X16634850Y-17528987D01*
X16582069Y-17574769D01*
X16530501Y-17586000D01*
X16029500Y-17586000D01*
X15962461Y-17566315D01*
X15916706Y-17513511D01*
X15905500Y-17462062D01*
X15905499Y-17460062D01*
X15925150Y-17393013D01*
X15977931Y-17347231D01*
X16029499Y-17336000D01*
X16530500Y-17336000D01*
X16597539Y-17355685D01*
G37*
%TD.AperFunction*%
%TA.AperFunction,Conductor*%
G36*
X19246067Y-15995679D02*
G01*
X19302001Y-16037550D01*
X19308271Y-16046761D01*
X19354553Y-16121797D01*
X19377289Y-16158657D01*
X19487411Y-16268779D01*
X19520896Y-16330102D01*
X19515912Y-16399794D01*
X19475980Y-16453135D01*
X19476511Y-16453807D01*
X19470843Y-16458288D01*
X19346789Y-16582342D01*
X19254687Y-16731663D01*
X19254685Y-16731668D01*
X19254615Y-16731880D01*
X19199501Y-16898203D01*
X19199501Y-16898204D01*
X19199500Y-16898204D01*
X19189000Y-17000983D01*
X19189000Y-17435100D01*
X19169315Y-17502139D01*
X19116511Y-17547894D01*
X19047353Y-17557838D01*
X19017548Y-17549661D01*
X18989345Y-17537979D01*
X18989341Y-17537978D01*
X18879377Y-17523500D01*
X18571979Y-17523500D01*
X18555852Y-17532305D01*
X18486160Y-17527318D01*
X18430229Y-17485444D01*
X18405815Y-17419979D01*
X18405499Y-17411138D01*
X18405499Y-17049096D01*
X18391011Y-16939036D01*
X18391009Y-16939031D01*
X18391009Y-16939028D01*
X18389938Y-16936442D01*
X18380500Y-16888992D01*
X18380500Y-16810096D01*
X18400185Y-16743057D01*
X18416815Y-16722419D01*
X19115055Y-16024178D01*
X19176376Y-15990695D01*
X19246067Y-15995679D01*
G37*
%TD.AperFunction*%
%TA.AperFunction,Conductor*%
G36*
X75002702Y-500617D02*
G01*
X75386771Y-517386D01*
X75397506Y-518326D01*
X75775971Y-568152D01*
X75786597Y-570025D01*
X76159284Y-652648D01*
X76169710Y-655442D01*
X76533765Y-770227D01*
X76543911Y-773920D01*
X76896578Y-920000D01*
X76906369Y-924566D01*
X77244942Y-1100816D01*
X77254310Y-1106224D01*
X77576244Y-1311318D01*
X77585105Y-1317523D01*
X77887930Y-1549889D01*
X77896217Y-1556843D01*
X78177635Y-1814715D01*
X78185284Y-1822364D01*
X78443156Y-2103782D01*
X78450110Y-2112069D01*
X78682476Y-2414894D01*
X78688681Y-2423755D01*
X78893775Y-2745689D01*
X78899183Y-2755057D01*
X79075430Y-3093623D01*
X79080002Y-3103427D01*
X79226075Y-3456078D01*
X79229775Y-3466244D01*
X79344554Y-3830278D01*
X79347354Y-3840727D01*
X79429971Y-4213389D01*
X79431849Y-4224042D01*
X79481671Y-4602473D01*
X79482614Y-4613249D01*
X79499382Y-4997297D01*
X79499500Y-5002706D01*
X79499500Y-59997293D01*
X79499382Y-60002702D01*
X79482614Y-60386750D01*
X79481671Y-60397526D01*
X79431849Y-60775957D01*
X79429971Y-60786610D01*
X79347354Y-61159272D01*
X79344554Y-61169721D01*
X79229775Y-61533755D01*
X79226075Y-61543921D01*
X79080002Y-61896572D01*
X79075430Y-61906376D01*
X78899183Y-62244942D01*
X78893775Y-62254310D01*
X78688681Y-62576244D01*
X78682476Y-62585105D01*
X78450110Y-62887930D01*
X78443156Y-62896217D01*
X78185284Y-63177635D01*
X78177635Y-63185284D01*
X77896217Y-63443156D01*
X77887930Y-63450110D01*
X77585105Y-63682476D01*
X77576244Y-63688681D01*
X77254310Y-63893775D01*
X77244942Y-63899183D01*
X76906376Y-64075430D01*
X76896572Y-64080002D01*
X76543921Y-64226075D01*
X76533755Y-64229775D01*
X76169721Y-64344554D01*
X76159272Y-64347354D01*
X75786610Y-64429971D01*
X75775957Y-64431849D01*
X75397526Y-64481671D01*
X75386750Y-64482614D01*
X75002703Y-64499382D01*
X74997294Y-64499500D01*
X5002706Y-64499500D01*
X4997297Y-64499382D01*
X4613249Y-64482614D01*
X4602473Y-64481671D01*
X4224042Y-64431849D01*
X4213389Y-64429971D01*
X3840727Y-64347354D01*
X3830278Y-64344554D01*
X3466244Y-64229775D01*
X3456078Y-64226075D01*
X3103427Y-64080002D01*
X3093623Y-64075430D01*
X2755057Y-63899183D01*
X2745689Y-63893775D01*
X2423755Y-63688681D01*
X2414894Y-63682476D01*
X2112069Y-63450110D01*
X2103782Y-63443156D01*
X1822364Y-63185284D01*
X1814715Y-63177635D01*
X1556843Y-62896217D01*
X1549889Y-62887930D01*
X1317523Y-62585105D01*
X1311318Y-62576244D01*
X1106224Y-62254310D01*
X1100816Y-62244942D01*
X924569Y-61906376D01*
X919997Y-61896572D01*
X773920Y-61543911D01*
X770224Y-61533755D01*
X655442Y-61169710D01*
X652648Y-61159284D01*
X570025Y-60786597D01*
X568152Y-60775971D01*
X518326Y-60397506D01*
X517386Y-60386771D01*
X500618Y-60002702D01*
X500500Y-59997293D01*
X500500Y-59878711D01*
X3149500Y-59878711D01*
X3149500Y-60121288D01*
X3181161Y-60361785D01*
X3243947Y-60596104D01*
X3336773Y-60820205D01*
X3336776Y-60820212D01*
X3458064Y-61030289D01*
X3458066Y-61030292D01*
X3458067Y-61030293D01*
X3605733Y-61222736D01*
X3605739Y-61222743D01*
X3777256Y-61394260D01*
X3777262Y-61394265D01*
X3969711Y-61541936D01*
X4179788Y-61663224D01*
X4403900Y-61756054D01*
X4638211Y-61818838D01*
X4818586Y-61842584D01*
X4878711Y-61850500D01*
X4878712Y-61850500D01*
X5121289Y-61850500D01*
X5169388Y-61844167D01*
X5361789Y-61818838D01*
X5596100Y-61756054D01*
X5820212Y-61663224D01*
X6030289Y-61541936D01*
X6222738Y-61394265D01*
X6394265Y-61222738D01*
X6541936Y-61030289D01*
X6663224Y-60820212D01*
X6756054Y-60596100D01*
X6818838Y-60361789D01*
X6850500Y-60121288D01*
X6850500Y-59878712D01*
X6850500Y-59878711D01*
X38149500Y-59878711D01*
X38149500Y-60121288D01*
X38181161Y-60361785D01*
X38243947Y-60596104D01*
X38336773Y-60820205D01*
X38336776Y-60820212D01*
X38458064Y-61030289D01*
X38458066Y-61030292D01*
X38458067Y-61030293D01*
X38605733Y-61222736D01*
X38605739Y-61222743D01*
X38777256Y-61394260D01*
X38777262Y-61394265D01*
X38969711Y-61541936D01*
X39179788Y-61663224D01*
X39403900Y-61756054D01*
X39638211Y-61818838D01*
X39818586Y-61842584D01*
X39878711Y-61850500D01*
X39878712Y-61850500D01*
X40121289Y-61850500D01*
X40169388Y-61844167D01*
X40361789Y-61818838D01*
X40596100Y-61756054D01*
X40820212Y-61663224D01*
X41030289Y-61541936D01*
X41222738Y-61394265D01*
X41394265Y-61222738D01*
X41541936Y-61030289D01*
X41663224Y-60820212D01*
X41756054Y-60596100D01*
X41818838Y-60361789D01*
X41850500Y-60121288D01*
X41850500Y-59878712D01*
X41850500Y-59878711D01*
X73149500Y-59878711D01*
X73149500Y-60121288D01*
X73181161Y-60361785D01*
X73243947Y-60596104D01*
X73336773Y-60820205D01*
X73336776Y-60820212D01*
X73458064Y-61030289D01*
X73458066Y-61030292D01*
X73458067Y-61030293D01*
X73605733Y-61222736D01*
X73605739Y-61222743D01*
X73777256Y-61394260D01*
X73777262Y-61394265D01*
X73969711Y-61541936D01*
X74179788Y-61663224D01*
X74403900Y-61756054D01*
X74638211Y-61818838D01*
X74818586Y-61842584D01*
X74878711Y-61850500D01*
X74878712Y-61850500D01*
X75121289Y-61850500D01*
X75169388Y-61844167D01*
X75361789Y-61818838D01*
X75596100Y-61756054D01*
X75820212Y-61663224D01*
X76030289Y-61541936D01*
X76222738Y-61394265D01*
X76394265Y-61222738D01*
X76541936Y-61030289D01*
X76663224Y-60820212D01*
X76756054Y-60596100D01*
X76818838Y-60361789D01*
X76850500Y-60121288D01*
X76850500Y-59878712D01*
X76818838Y-59638211D01*
X76756054Y-59403900D01*
X76663224Y-59179788D01*
X76541936Y-58969711D01*
X76394265Y-58777262D01*
X76394260Y-58777256D01*
X76222743Y-58605739D01*
X76222736Y-58605733D01*
X76030293Y-58458067D01*
X76030292Y-58458066D01*
X76030289Y-58458064D01*
X75820212Y-58336776D01*
X75820205Y-58336773D01*
X75596104Y-58243947D01*
X75361785Y-58181161D01*
X75121289Y-58149500D01*
X75121288Y-58149500D01*
X74878712Y-58149500D01*
X74878711Y-58149500D01*
X74638214Y-58181161D01*
X74403895Y-58243947D01*
X74179794Y-58336773D01*
X74179785Y-58336777D01*
X73969706Y-58458067D01*
X73777263Y-58605733D01*
X73777256Y-58605739D01*
X73605739Y-58777256D01*
X73605733Y-58777263D01*
X73458067Y-58969706D01*
X73336777Y-59179785D01*
X73336773Y-59179794D01*
X73243947Y-59403895D01*
X73181161Y-59638214D01*
X73149500Y-59878711D01*
X41850500Y-59878711D01*
X41818838Y-59638211D01*
X41756054Y-59403900D01*
X41663224Y-59179788D01*
X41541936Y-58969711D01*
X41394265Y-58777262D01*
X41394260Y-58777256D01*
X41222743Y-58605739D01*
X41222736Y-58605733D01*
X41030293Y-58458067D01*
X41030292Y-58458066D01*
X41030289Y-58458064D01*
X40820212Y-58336776D01*
X40820205Y-58336773D01*
X40596104Y-58243947D01*
X40361785Y-58181161D01*
X40121289Y-58149500D01*
X40121288Y-58149500D01*
X39878712Y-58149500D01*
X39878711Y-58149500D01*
X39638214Y-58181161D01*
X39403895Y-58243947D01*
X39179794Y-58336773D01*
X39179785Y-58336777D01*
X38969706Y-58458067D01*
X38777263Y-58605733D01*
X38777256Y-58605739D01*
X38605739Y-58777256D01*
X38605733Y-58777263D01*
X38458067Y-58969706D01*
X38336777Y-59179785D01*
X38336773Y-59179794D01*
X38243947Y-59403895D01*
X38181161Y-59638214D01*
X38149500Y-59878711D01*
X6850500Y-59878711D01*
X6818838Y-59638211D01*
X6756054Y-59403900D01*
X6663224Y-59179788D01*
X6541936Y-58969711D01*
X6394265Y-58777262D01*
X6394260Y-58777256D01*
X6222743Y-58605739D01*
X6222736Y-58605733D01*
X6030293Y-58458067D01*
X6030292Y-58458066D01*
X6030289Y-58458064D01*
X5820212Y-58336776D01*
X5820205Y-58336773D01*
X5596104Y-58243947D01*
X5361785Y-58181161D01*
X5121289Y-58149500D01*
X5121288Y-58149500D01*
X4878712Y-58149500D01*
X4878711Y-58149500D01*
X4638214Y-58181161D01*
X4403895Y-58243947D01*
X4179794Y-58336773D01*
X4179785Y-58336777D01*
X3969706Y-58458067D01*
X3777263Y-58605733D01*
X3777256Y-58605739D01*
X3605739Y-58777256D01*
X3605733Y-58777263D01*
X3458067Y-58969706D01*
X3336777Y-59179785D01*
X3336773Y-59179794D01*
X3243947Y-59403895D01*
X3181161Y-59638214D01*
X3149500Y-59878711D01*
X500500Y-59878711D01*
X500500Y-38494013D01*
X12516000Y-38494013D01*
X12516000Y-38644000D01*
X13466000Y-38644000D01*
X13966000Y-38644000D01*
X14915999Y-38644000D01*
X14915999Y-38494028D01*
X14915998Y-38494013D01*
X14905505Y-38391302D01*
X14850358Y-38224880D01*
X14850356Y-38224875D01*
X14758315Y-38075654D01*
X14634345Y-37951684D01*
X14485124Y-37859643D01*
X14485119Y-37859641D01*
X14318697Y-37804494D01*
X14318690Y-37804493D01*
X14215986Y-37794000D01*
X13966000Y-37794000D01*
X13966000Y-38644000D01*
X13466000Y-38644000D01*
X13466000Y-37794000D01*
X13216029Y-37794000D01*
X13216012Y-37794001D01*
X13113302Y-37804494D01*
X12946880Y-37859641D01*
X12946875Y-37859643D01*
X12797654Y-37951684D01*
X12673684Y-38075654D01*
X12581643Y-38224875D01*
X12581641Y-38224880D01*
X12526494Y-38391302D01*
X12526493Y-38391309D01*
X12516000Y-38494013D01*
X500500Y-38494013D01*
X500500Y-20539999D01*
X3644341Y-20539999D01*
X3644341Y-20540000D01*
X3664936Y-20775403D01*
X3664938Y-20775413D01*
X3726094Y-21003655D01*
X3726096Y-21003659D01*
X3726097Y-21003663D01*
X3789906Y-21140501D01*
X3825965Y-21217830D01*
X3825967Y-21217834D01*
X3934281Y-21372521D01*
X3961505Y-21411401D01*
X4128599Y-21578495D01*
X4221199Y-21643334D01*
X4322165Y-21714032D01*
X4322167Y-21714033D01*
X4322170Y-21714035D01*
X4536337Y-21813903D01*
X4764592Y-21875063D01*
X4952918Y-21891539D01*
X4999999Y-21895659D01*
X5000000Y-21895659D01*
X5000001Y-21895659D01*
X5039234Y-21892226D01*
X5235408Y-21875063D01*
X5463663Y-21813903D01*
X5677830Y-21714035D01*
X5871401Y-21578495D01*
X6038495Y-21411401D01*
X6174035Y-21217830D01*
X6176707Y-21212097D01*
X6222878Y-21159658D01*
X6289091Y-21140500D01*
X7821331Y-21140500D01*
X7821347Y-21140501D01*
X7828943Y-21140501D01*
X7987054Y-21140501D01*
X7987057Y-21140501D01*
X8139785Y-21099577D01*
X8232948Y-21045789D01*
X8276716Y-21020520D01*
X8388520Y-20908716D01*
X8388520Y-20908714D01*
X8398724Y-20898511D01*
X8398727Y-20898506D01*
X9011916Y-20285319D01*
X9073239Y-20251834D01*
X9099597Y-20249000D01*
X11775622Y-20249000D01*
X11842661Y-20268685D01*
X11888416Y-20321489D01*
X11898842Y-20359117D01*
X11914630Y-20499249D01*
X11914631Y-20499254D01*
X11974211Y-20669523D01*
X11978954Y-20677071D01*
X12065987Y-20815583D01*
X12070185Y-20822263D01*
X12072445Y-20825097D01*
X12073334Y-20827275D01*
X12073889Y-20828158D01*
X12073734Y-20828255D01*
X12098855Y-20889783D01*
X12099500Y-20902412D01*
X12099500Y-27758993D01*
X12079815Y-27826032D01*
X12063181Y-27846674D01*
X12019957Y-27889897D01*
X12019954Y-27889901D01*
X11924145Y-28033288D01*
X11924138Y-28033301D01*
X11858146Y-28192621D01*
X11858143Y-28192633D01*
X11824500Y-28361766D01*
X11824500Y-31074233D01*
X11858143Y-31243366D01*
X11858146Y-31243378D01*
X11924138Y-31402698D01*
X11924145Y-31402711D01*
X12019954Y-31546098D01*
X12019957Y-31546102D01*
X14123246Y-33649390D01*
X14156731Y-33710713D01*
X14151747Y-33780405D01*
X14109875Y-33836338D01*
X14044411Y-33860755D01*
X14015156Y-33859380D01*
X13794143Y-33822500D01*
X13565858Y-33822500D01*
X13340682Y-33860075D01*
X13124771Y-33934197D01*
X13124766Y-33934199D01*
X12923993Y-34042853D01*
X12897234Y-34063679D01*
X12897234Y-34063680D01*
X13481188Y-34647634D01*
X13454198Y-34654867D01*
X13320802Y-34731883D01*
X13211883Y-34840802D01*
X13134867Y-34974198D01*
X13127634Y-35001188D01*
X12545067Y-34418621D01*
X12464372Y-34542136D01*
X12372671Y-34751195D01*
X12316631Y-34972490D01*
X12316629Y-34972502D01*
X12297779Y-35199994D01*
X12297779Y-35200005D01*
X12316629Y-35427497D01*
X12316631Y-35427509D01*
X12372671Y-35648804D01*
X12464371Y-35857860D01*
X12545068Y-35981376D01*
X13127634Y-35398810D01*
X13134867Y-35425802D01*
X13211883Y-35559198D01*
X13320802Y-35668117D01*
X13454198Y-35745133D01*
X13481187Y-35752364D01*
X12897233Y-36336318D01*
X12923999Y-36357149D01*
X13124766Y-36465800D01*
X13124771Y-36465802D01*
X13340682Y-36539924D01*
X13565858Y-36577500D01*
X13794142Y-36577500D01*
X14019317Y-36539924D01*
X14235228Y-36465802D01*
X14235233Y-36465800D01*
X14436004Y-36357147D01*
X14462764Y-36336319D01*
X14462764Y-36336318D01*
X13878812Y-35752364D01*
X13905802Y-35745133D01*
X14039198Y-35668117D01*
X14148117Y-35559198D01*
X14225133Y-35425802D01*
X14232364Y-35398811D01*
X14814930Y-35981377D01*
X14895626Y-35857865D01*
X14987328Y-35648804D01*
X15043368Y-35427509D01*
X15043370Y-35427497D01*
X15062221Y-35200005D01*
X15062221Y-35199994D01*
X15043370Y-34972502D01*
X15043366Y-34972481D01*
X15017267Y-34869419D01*
X15019891Y-34799599D01*
X15059847Y-34742281D01*
X15124448Y-34715664D01*
X15193184Y-34728198D01*
X15225153Y-34751297D01*
X15344181Y-34870325D01*
X15377666Y-34931648D01*
X15380500Y-34958006D01*
X15380500Y-41990974D01*
X15360815Y-42058013D01*
X15308011Y-42103768D01*
X15256500Y-42114974D01*
X14835294Y-42114974D01*
X14666159Y-42148617D01*
X14666147Y-42148620D01*
X14506827Y-42214612D01*
X14506814Y-42214619D01*
X14363427Y-42310428D01*
X14363423Y-42310431D01*
X10125675Y-46548181D01*
X10064352Y-46581666D01*
X10037994Y-46584500D01*
X6085758Y-46584500D01*
X6018719Y-46564815D01*
X5998077Y-46548181D01*
X5871402Y-46421506D01*
X5871396Y-46421501D01*
X5685842Y-46291575D01*
X5642217Y-46236998D01*
X5635023Y-46167500D01*
X5666546Y-46105145D01*
X5685842Y-46088425D01*
X5717154Y-46066500D01*
X5871401Y-45958495D01*
X5998077Y-45831819D01*
X6059400Y-45798334D01*
X6085758Y-45795500D01*
X9776231Y-45795500D01*
X9776232Y-45795499D01*
X9945374Y-45761855D01*
X10104705Y-45695858D01*
X10248099Y-45600045D01*
X13817325Y-42030817D01*
X13878648Y-41997333D01*
X13905006Y-41994499D01*
X14216002Y-41994499D01*
X14216008Y-41994499D01*
X14318797Y-41983999D01*
X14485334Y-41928814D01*
X14634656Y-41836712D01*
X14758712Y-41712656D01*
X14850814Y-41563334D01*
X14905999Y-41396797D01*
X14916500Y-41294009D01*
X14916499Y-40493992D01*
X14911012Y-40440282D01*
X14905999Y-40391203D01*
X14905998Y-40391200D01*
X14873567Y-40293331D01*
X14850814Y-40224666D01*
X14758712Y-40075344D01*
X14664695Y-39981327D01*
X14631210Y-39920004D01*
X14636194Y-39850312D01*
X14664695Y-39805964D01*
X14758317Y-39712342D01*
X14850356Y-39563124D01*
X14850358Y-39563119D01*
X14905505Y-39396697D01*
X14905506Y-39396690D01*
X14915999Y-39293986D01*
X14916000Y-39293973D01*
X14916000Y-39144000D01*
X12516001Y-39144000D01*
X12516001Y-39293986D01*
X12526494Y-39396697D01*
X12581641Y-39563119D01*
X12581643Y-39563124D01*
X12673684Y-39712345D01*
X12767304Y-39805965D01*
X12800789Y-39867288D01*
X12795805Y-39936980D01*
X12767305Y-39981327D01*
X12673287Y-40075345D01*
X12581187Y-40224663D01*
X12581186Y-40224666D01*
X12526001Y-40391203D01*
X12526001Y-40391204D01*
X12526000Y-40391204D01*
X12515500Y-40493983D01*
X12515500Y-40804993D01*
X12495815Y-40872032D01*
X12479181Y-40892674D01*
X9363675Y-44008181D01*
X9302352Y-44041666D01*
X9275994Y-44044500D01*
X6085758Y-44044500D01*
X6018719Y-44024815D01*
X5998077Y-44008181D01*
X5871402Y-43881506D01*
X5871395Y-43881501D01*
X5868587Y-43879535D01*
X5832521Y-43854281D01*
X5677834Y-43745967D01*
X5677830Y-43745965D01*
X5639467Y-43728076D01*
X5463663Y-43646097D01*
X5463659Y-43646096D01*
X5463655Y-43646094D01*
X5235413Y-43584938D01*
X5235403Y-43584936D01*
X5000001Y-43564341D01*
X4999999Y-43564341D01*
X4764596Y-43584936D01*
X4764586Y-43584938D01*
X4536344Y-43646094D01*
X4536337Y-43646096D01*
X4536337Y-43646097D01*
X4522816Y-43652401D01*
X4322171Y-43745964D01*
X4322169Y-43745965D01*
X4128597Y-43881505D01*
X3961505Y-44048597D01*
X3825965Y-44242169D01*
X3825964Y-44242171D01*
X3742339Y-44421506D01*
X3728513Y-44451157D01*
X3726098Y-44456335D01*
X3726094Y-44456344D01*
X3664938Y-44684586D01*
X3664936Y-44684596D01*
X3644341Y-44919999D01*
X3644341Y-44920000D01*
X3664936Y-45155403D01*
X3664938Y-45155413D01*
X3726094Y-45383655D01*
X3726096Y-45383659D01*
X3726097Y-45383663D01*
X3761694Y-45460000D01*
X3825965Y-45597830D01*
X3825967Y-45597834D01*
X3847143Y-45628076D01*
X3959455Y-45788474D01*
X3961501Y-45791395D01*
X3961506Y-45791402D01*
X4128597Y-45958493D01*
X4128603Y-45958498D01*
X4314158Y-46088425D01*
X4357783Y-46143002D01*
X4364977Y-46212500D01*
X4333454Y-46274855D01*
X4314158Y-46291575D01*
X4128597Y-46421505D01*
X3961505Y-46588597D01*
X3825965Y-46782169D01*
X3825964Y-46782171D01*
X3726098Y-46996335D01*
X3726094Y-46996344D01*
X3664938Y-47224586D01*
X3664937Y-47224590D01*
X3664937Y-47224592D01*
X3662507Y-47252366D01*
X3644341Y-47459999D01*
X3644341Y-47460000D01*
X3664936Y-47695403D01*
X3664938Y-47695413D01*
X3726094Y-47923655D01*
X3726096Y-47923659D01*
X3726097Y-47923663D01*
X3731617Y-47935500D01*
X3825965Y-48137830D01*
X3825967Y-48137834D01*
X3961501Y-48331395D01*
X3961506Y-48331402D01*
X4083430Y-48453326D01*
X4116915Y-48514649D01*
X4111931Y-48584341D01*
X4070059Y-48640274D01*
X4039083Y-48657189D01*
X3907669Y-48706203D01*
X3907664Y-48706206D01*
X3792455Y-48792452D01*
X3792452Y-48792455D01*
X3706206Y-48907664D01*
X3706202Y-48907671D01*
X3655908Y-49042517D01*
X3649501Y-49102116D01*
X3649501Y-49102123D01*
X3649500Y-49102135D01*
X3649500Y-50897870D01*
X3649501Y-50897876D01*
X3655908Y-50957483D01*
X3706202Y-51092328D01*
X3706206Y-51092335D01*
X3792452Y-51207544D01*
X3792455Y-51207547D01*
X3907664Y-51293793D01*
X3907671Y-51293797D01*
X4042517Y-51344091D01*
X4042516Y-51344091D01*
X4049444Y-51344835D01*
X4102127Y-51350500D01*
X5897872Y-51350499D01*
X5957483Y-51344091D01*
X6092331Y-51293796D01*
X6207546Y-51207546D01*
X6293796Y-51092331D01*
X6344091Y-50957483D01*
X6350500Y-50897873D01*
X6350499Y-49102128D01*
X6344091Y-49042517D01*
X6334686Y-49017302D01*
X6293797Y-48907671D01*
X6293793Y-48907664D01*
X6207547Y-48792455D01*
X6207544Y-48792452D01*
X6092335Y-48706206D01*
X6092328Y-48706202D01*
X5960917Y-48657189D01*
X5904983Y-48615318D01*
X5880566Y-48549853D01*
X5895418Y-48481580D01*
X5916563Y-48453332D01*
X5998079Y-48371816D01*
X6059401Y-48338334D01*
X6085758Y-48335500D01*
X10538231Y-48335500D01*
X10538232Y-48335499D01*
X10707374Y-48301855D01*
X10866705Y-48235858D01*
X11010099Y-48140045D01*
X11150150Y-47999994D01*
X12297277Y-47999994D01*
X12297277Y-48000005D01*
X12316134Y-48227580D01*
X12316136Y-48227592D01*
X12372196Y-48448967D01*
X12463930Y-48658102D01*
X12588834Y-48849283D01*
X12588837Y-48849286D01*
X12743507Y-49017302D01*
X12923722Y-49157569D01*
X13124566Y-49266261D01*
X13340562Y-49340412D01*
X13565816Y-49378000D01*
X13794184Y-49378000D01*
X14019438Y-49340412D01*
X14235434Y-49266261D01*
X14436278Y-49157569D01*
X14616493Y-49017302D01*
X14771163Y-48849286D01*
X14896069Y-48658103D01*
X14987803Y-48448969D01*
X15043864Y-48227589D01*
X15043865Y-48227580D01*
X15062723Y-48000005D01*
X15062723Y-47999994D01*
X15043865Y-47772419D01*
X15043863Y-47772407D01*
X14987803Y-47551032D01*
X14944793Y-47452979D01*
X14896069Y-47341897D01*
X14771165Y-47150716D01*
X14751321Y-47129160D01*
X14616493Y-46982698D01*
X14436278Y-46842431D01*
X14436276Y-46842430D01*
X14436275Y-46842429D01*
X14235435Y-46733739D01*
X14235430Y-46733737D01*
X14019440Y-46659588D01*
X13794184Y-46622000D01*
X13565816Y-46622000D01*
X13340559Y-46659588D01*
X13124569Y-46733737D01*
X13124564Y-46733739D01*
X12923724Y-46842429D01*
X12743508Y-46982697D01*
X12588834Y-47150716D01*
X12463930Y-47341897D01*
X12372196Y-47551032D01*
X12316136Y-47772407D01*
X12316134Y-47772419D01*
X12297277Y-47999994D01*
X11150150Y-47999994D01*
X13697184Y-45452960D01*
X19192527Y-45452960D01*
X19203020Y-45555671D01*
X19258167Y-45722093D01*
X19258169Y-45722098D01*
X19350210Y-45871319D01*
X19474180Y-45995289D01*
X19623401Y-46087330D01*
X19623406Y-46087332D01*
X19789828Y-46142479D01*
X19789835Y-46142480D01*
X19892545Y-46152973D01*
X20167525Y-46152973D01*
X20167526Y-46152972D01*
X20167526Y-45315474D01*
X19192527Y-45315474D01*
X19192527Y-45452960D01*
X13697184Y-45452960D01*
X15247851Y-43902293D01*
X15309174Y-43868808D01*
X15335532Y-43865974D01*
X16169771Y-43865974D01*
X19367796Y-43865974D01*
X19434835Y-43885659D01*
X19455477Y-43902293D01*
X19473870Y-43920686D01*
X19477154Y-43922711D01*
X19477179Y-43922727D01*
X19478971Y-43924720D01*
X19479537Y-43925167D01*
X19479460Y-43925263D01*
X19523905Y-43974673D01*
X19535129Y-44043635D01*
X19507287Y-44107718D01*
X19477191Y-44133800D01*
X19474186Y-44135653D01*
X19474181Y-44135657D01*
X19350210Y-44259628D01*
X19258169Y-44408849D01*
X19258167Y-44408854D01*
X19203020Y-44575276D01*
X19203019Y-44575283D01*
X19192526Y-44677987D01*
X19192526Y-44815474D01*
X21516320Y-44815474D01*
X21579440Y-44832741D01*
X21676628Y-44890218D01*
X21676635Y-44890220D01*
X21834452Y-44936071D01*
X21834455Y-44936071D01*
X21834457Y-44936072D01*
X21871332Y-44938974D01*
X22575526Y-44938974D01*
X22642565Y-44958659D01*
X22688320Y-45011463D01*
X22699526Y-45062974D01*
X22699526Y-45113974D01*
X22679841Y-45181013D01*
X22627037Y-45226768D01*
X22575526Y-45237974D01*
X21871324Y-45237974D01*
X21834458Y-45240875D01*
X21834452Y-45240876D01*
X21676632Y-45286728D01*
X21676629Y-45286729D01*
X21618332Y-45321206D01*
X21555211Y-45338474D01*
X21318388Y-45338474D01*
X21251349Y-45318789D01*
X21247235Y-45315474D01*
X20667526Y-45315474D01*
X20667526Y-46152973D01*
X20942498Y-46152973D01*
X20942512Y-46152972D01*
X21045223Y-46142479D01*
X21123522Y-46116534D01*
X21193350Y-46114132D01*
X21253392Y-46149864D01*
X21284585Y-46212384D01*
X21286526Y-46234240D01*
X21286526Y-46254175D01*
X21289427Y-46291041D01*
X21289428Y-46291047D01*
X21335280Y-46448867D01*
X21335281Y-46448870D01*
X21335282Y-46448872D01*
X21337916Y-46453326D01*
X21418758Y-46590024D01*
X21418944Y-46590338D01*
X21418949Y-46590344D01*
X21535155Y-46706550D01*
X21535159Y-46706553D01*
X21535161Y-46706555D01*
X21676628Y-46790218D01*
X21699989Y-46797005D01*
X21834452Y-46836071D01*
X21834455Y-46836071D01*
X21834457Y-46836072D01*
X21871332Y-46838974D01*
X21871340Y-46838974D01*
X23027712Y-46838974D01*
X23027720Y-46838974D01*
X23064595Y-46836072D01*
X23064597Y-46836071D01*
X23064599Y-46836071D01*
X23133679Y-46816001D01*
X23222424Y-46790218D01*
X23363891Y-46706555D01*
X23480107Y-46590339D01*
X23480581Y-46589536D01*
X23481116Y-46589036D01*
X23484887Y-46584176D01*
X23485670Y-46584784D01*
X23531648Y-46541851D01*
X23600389Y-46529344D01*
X23664979Y-46555987D01*
X23689309Y-46584063D01*
X23689563Y-46583867D01*
X23693176Y-46588525D01*
X23694046Y-46589529D01*
X23694339Y-46590024D01*
X23694347Y-46590035D01*
X23810464Y-46706152D01*
X23810473Y-46706159D01*
X23951829Y-46789756D01*
X23951832Y-46789757D01*
X24109530Y-46835573D01*
X24109536Y-46835574D01*
X24146376Y-46838473D01*
X24146392Y-46838474D01*
X24474526Y-46838474D01*
X24974526Y-46838474D01*
X25302660Y-46838474D01*
X25302675Y-46838473D01*
X25339515Y-46835574D01*
X25339521Y-46835573D01*
X25497220Y-46789757D01*
X25504383Y-46786658D01*
X25504899Y-46787851D01*
X25564819Y-46772647D01*
X25631082Y-46794805D01*
X25665759Y-46831465D01*
X25700210Y-46887319D01*
X25824180Y-47011289D01*
X25973401Y-47103330D01*
X25973406Y-47103332D01*
X26139828Y-47158479D01*
X26139835Y-47158480D01*
X26242545Y-47168973D01*
X26517525Y-47168973D01*
X27017526Y-47168973D01*
X27292498Y-47168973D01*
X27292512Y-47168972D01*
X27395223Y-47158479D01*
X27561645Y-47103332D01*
X27561650Y-47103330D01*
X27710871Y-47011289D01*
X27834841Y-46887319D01*
X27926882Y-46738098D01*
X27926884Y-46738093D01*
X27982031Y-46571671D01*
X27982032Y-46571664D01*
X27992525Y-46468960D01*
X27992526Y-46468947D01*
X27992526Y-46387024D01*
X38314500Y-46387024D01*
X38314500Y-46612976D01*
X38317948Y-46634744D01*
X38349847Y-46836148D01*
X38419668Y-47051038D01*
X38419669Y-47051041D01*
X38479759Y-47168973D01*
X38522250Y-47252366D01*
X38655062Y-47435166D01*
X38814834Y-47594938D01*
X38997634Y-47727750D01*
X39085286Y-47772411D01*
X39198958Y-47830330D01*
X39198961Y-47830331D01*
X39245952Y-47845599D01*
X39413853Y-47900153D01*
X39637024Y-47935500D01*
X39637025Y-47935500D01*
X39862975Y-47935500D01*
X39862976Y-47935500D01*
X40086147Y-47900153D01*
X40301041Y-47830330D01*
X40502366Y-47727750D01*
X40685166Y-47594938D01*
X40844938Y-47435166D01*
X40875251Y-47393444D01*
X48928400Y-47393444D01*
X48934801Y-47452972D01*
X48934803Y-47452979D01*
X48985045Y-47587686D01*
X48985049Y-47587693D01*
X49071209Y-47702787D01*
X49071212Y-47702790D01*
X49186306Y-47788950D01*
X49186313Y-47788954D01*
X49321020Y-47839196D01*
X49321027Y-47839198D01*
X49380555Y-47845599D01*
X49380572Y-47845600D01*
X49654650Y-47845600D01*
X50154650Y-47845600D01*
X50428728Y-47845600D01*
X50428744Y-47845599D01*
X50488272Y-47839198D01*
X50488279Y-47839196D01*
X50622986Y-47788954D01*
X50622993Y-47788950D01*
X50738087Y-47702790D01*
X50738090Y-47702787D01*
X50824250Y-47587693D01*
X50824254Y-47587686D01*
X50874496Y-47452979D01*
X50874498Y-47452972D01*
X50880899Y-47393444D01*
X55291100Y-47393444D01*
X55297501Y-47452972D01*
X55297503Y-47452979D01*
X55347745Y-47587686D01*
X55347749Y-47587693D01*
X55433909Y-47702787D01*
X55433912Y-47702790D01*
X55549006Y-47788950D01*
X55549013Y-47788954D01*
X55683720Y-47839196D01*
X55683727Y-47839198D01*
X55743255Y-47845599D01*
X55743272Y-47845600D01*
X56017350Y-47845600D01*
X56517350Y-47845600D01*
X56791428Y-47845600D01*
X56791444Y-47845599D01*
X56850972Y-47839198D01*
X56850979Y-47839196D01*
X56985686Y-47788954D01*
X56985693Y-47788950D01*
X57100787Y-47702790D01*
X57100790Y-47702787D01*
X57186950Y-47587693D01*
X57186954Y-47587686D01*
X57237196Y-47452979D01*
X57237198Y-47452972D01*
X57243599Y-47393444D01*
X57243600Y-47393427D01*
X57243600Y-47316200D01*
X56517350Y-47316200D01*
X56517350Y-47845600D01*
X56017350Y-47845600D01*
X56017350Y-47316200D01*
X55291100Y-47316200D01*
X55291100Y-47393444D01*
X50880899Y-47393444D01*
X50880900Y-47393427D01*
X50880900Y-47316200D01*
X50154650Y-47316200D01*
X50154650Y-47845600D01*
X49654650Y-47845600D01*
X49654650Y-47316200D01*
X48928400Y-47316200D01*
X48928400Y-47393444D01*
X40875251Y-47393444D01*
X40977750Y-47252366D01*
X41080330Y-47051041D01*
X41150153Y-46836147D01*
X41185500Y-46612976D01*
X41185500Y-46387024D01*
X41150153Y-46163853D01*
X41131838Y-46107486D01*
X46273001Y-46107486D01*
X46283494Y-46210197D01*
X46338641Y-46376619D01*
X46338643Y-46376624D01*
X46430684Y-46525845D01*
X46554654Y-46649815D01*
X46703875Y-46741856D01*
X46703880Y-46741858D01*
X46870302Y-46797005D01*
X46870309Y-46797006D01*
X46973019Y-46807499D01*
X47247999Y-46807499D01*
X47748000Y-46807499D01*
X48022972Y-46807499D01*
X48022986Y-46807498D01*
X48125697Y-46797005D01*
X48292119Y-46741858D01*
X48292124Y-46741856D01*
X48296827Y-46738955D01*
X48928400Y-46738955D01*
X48928400Y-46816200D01*
X49654650Y-46816200D01*
X50154650Y-46816200D01*
X50880900Y-46816200D01*
X50880900Y-46738972D01*
X50880899Y-46738955D01*
X55291100Y-46738955D01*
X55291100Y-46816200D01*
X56017350Y-46816200D01*
X56517350Y-46816200D01*
X57243600Y-46816200D01*
X57243600Y-46738972D01*
X57243599Y-46738955D01*
X57237198Y-46679427D01*
X57237196Y-46679420D01*
X57186954Y-46544713D01*
X57186950Y-46544706D01*
X57100790Y-46429612D01*
X57100787Y-46429609D01*
X56985693Y-46343449D01*
X56985686Y-46343445D01*
X56850979Y-46293203D01*
X56850972Y-46293201D01*
X56791444Y-46286800D01*
X56517350Y-46286800D01*
X56517350Y-46816200D01*
X56017350Y-46816200D01*
X56017350Y-46286800D01*
X55743255Y-46286800D01*
X55683727Y-46293201D01*
X55683720Y-46293203D01*
X55549013Y-46343445D01*
X55549006Y-46343449D01*
X55433912Y-46429609D01*
X55433909Y-46429612D01*
X55347749Y-46544706D01*
X55347745Y-46544713D01*
X55297503Y-46679420D01*
X55297501Y-46679427D01*
X55291100Y-46738955D01*
X50880899Y-46738955D01*
X50874498Y-46679427D01*
X50874496Y-46679420D01*
X50824254Y-46544713D01*
X50824250Y-46544706D01*
X50738090Y-46429612D01*
X50738087Y-46429609D01*
X50622993Y-46343449D01*
X50622986Y-46343445D01*
X50488279Y-46293203D01*
X50488272Y-46293201D01*
X50428744Y-46286800D01*
X50154650Y-46286800D01*
X50154650Y-46816200D01*
X49654650Y-46816200D01*
X49654650Y-46286800D01*
X49380555Y-46286800D01*
X49321027Y-46293201D01*
X49321020Y-46293203D01*
X49186313Y-46343445D01*
X49186306Y-46343449D01*
X49071212Y-46429609D01*
X49071209Y-46429612D01*
X48985049Y-46544706D01*
X48985045Y-46544713D01*
X48934803Y-46679420D01*
X48934801Y-46679427D01*
X48928400Y-46738955D01*
X48296827Y-46738955D01*
X48441345Y-46649815D01*
X48565315Y-46525845D01*
X48657356Y-46376624D01*
X48657358Y-46376619D01*
X48712505Y-46210197D01*
X48712506Y-46210190D01*
X48722999Y-46107486D01*
X48723000Y-46107473D01*
X48723000Y-45970000D01*
X47748000Y-45970000D01*
X47748000Y-46807499D01*
X47247999Y-46807499D01*
X47248000Y-46807498D01*
X47248000Y-45970000D01*
X46273001Y-45970000D01*
X46273001Y-46107486D01*
X41131838Y-46107486D01*
X41115241Y-46056406D01*
X41080331Y-45948961D01*
X41080330Y-45948958D01*
X41020644Y-45831819D01*
X40977750Y-45747634D01*
X40844938Y-45564834D01*
X40685166Y-45405062D01*
X40502366Y-45272250D01*
X40301041Y-45169669D01*
X40301038Y-45169668D01*
X40086148Y-45099847D01*
X39974561Y-45082173D01*
X39862976Y-45064500D01*
X39637024Y-45064500D01*
X39562633Y-45076282D01*
X39413851Y-45099847D01*
X39198961Y-45169668D01*
X39198958Y-45169669D01*
X38997633Y-45272250D01*
X38893339Y-45348024D01*
X38814834Y-45405062D01*
X38814832Y-45405064D01*
X38814831Y-45405064D01*
X38655064Y-45564831D01*
X38655064Y-45564832D01*
X38655062Y-45564834D01*
X38635851Y-45591276D01*
X38522250Y-45747633D01*
X38419669Y-45948958D01*
X38419668Y-45948961D01*
X38349847Y-46163851D01*
X38341113Y-46218994D01*
X38314500Y-46387024D01*
X27992526Y-46387024D01*
X27992526Y-46331474D01*
X27017526Y-46331474D01*
X27017526Y-47168973D01*
X26517525Y-47168973D01*
X26517526Y-47168972D01*
X26517526Y-46331474D01*
X25593888Y-46331474D01*
X25526849Y-46311789D01*
X25506207Y-46295155D01*
X25499526Y-46288474D01*
X24974526Y-46288474D01*
X24974526Y-46838474D01*
X24474526Y-46838474D01*
X24474526Y-45238474D01*
X24146374Y-45238474D01*
X24146243Y-45238485D01*
X24146222Y-45238480D01*
X24143946Y-45238570D01*
X24143923Y-45237997D01*
X24077867Y-45224114D01*
X24028115Y-45175058D01*
X24012526Y-45114866D01*
X24012526Y-45062585D01*
X24032211Y-44995546D01*
X24085015Y-44949791D01*
X24143873Y-44939398D01*
X24143894Y-44938878D01*
X24146290Y-44938972D01*
X24146295Y-44938971D01*
X24146332Y-44938974D01*
X24146340Y-44938974D01*
X25302712Y-44938974D01*
X25302720Y-44938974D01*
X25339595Y-44936072D01*
X25339597Y-44936071D01*
X25339599Y-44936071D01*
X25497418Y-44890220D01*
X25497418Y-44890219D01*
X25497424Y-44890218D01*
X25590570Y-44835131D01*
X25658289Y-44817950D01*
X25724552Y-44840110D01*
X25741368Y-44854184D01*
X25823870Y-44936686D01*
X25827154Y-44938711D01*
X25827179Y-44938727D01*
X25828971Y-44940720D01*
X25829537Y-44941167D01*
X25829460Y-44941263D01*
X25873905Y-44990673D01*
X25885129Y-45059635D01*
X25857287Y-45123718D01*
X25827191Y-45149800D01*
X25824186Y-45151653D01*
X25700200Y-45275638D01*
X25696464Y-45280363D01*
X25639438Y-45320734D01*
X25569639Y-45323865D01*
X25536086Y-45310175D01*
X25497220Y-45287190D01*
X25339521Y-45241374D01*
X25339515Y-45241373D01*
X25302675Y-45238474D01*
X24974526Y-45238474D01*
X24974526Y-45788474D01*
X25835664Y-45788474D01*
X25902703Y-45808159D01*
X25923345Y-45824793D01*
X25930026Y-45831474D01*
X27992525Y-45831474D01*
X27992525Y-45694002D01*
X27992524Y-45693987D01*
X27982031Y-45591276D01*
X27926884Y-45424854D01*
X27926882Y-45424849D01*
X27834841Y-45275628D01*
X27710870Y-45151657D01*
X27710867Y-45151655D01*
X27707865Y-45149803D01*
X27706239Y-45147995D01*
X27705203Y-45147176D01*
X27705343Y-45146998D01*
X27661143Y-45097854D01*
X27649923Y-45028891D01*
X27677769Y-44964810D01*
X27707870Y-44938728D01*
X27711182Y-44936686D01*
X27835238Y-44812630D01*
X27927340Y-44663308D01*
X27982525Y-44496771D01*
X27993026Y-44393983D01*
X27993025Y-43618966D01*
X27989817Y-43587566D01*
X27982525Y-43516177D01*
X27982524Y-43516174D01*
X27967355Y-43470397D01*
X27927340Y-43349640D01*
X27835238Y-43200318D01*
X27711182Y-43076262D01*
X27561860Y-42984160D01*
X27395323Y-42928975D01*
X27395321Y-42928974D01*
X27292536Y-42918474D01*
X26242524Y-42918474D01*
X26242506Y-42918475D01*
X26139729Y-42928974D01*
X26139726Y-42928975D01*
X25973194Y-42984159D01*
X25973189Y-42984161D01*
X25823868Y-43076263D01*
X25704181Y-43195951D01*
X25642858Y-43229436D01*
X25573166Y-43224452D01*
X25517233Y-43182580D01*
X25492816Y-43117116D01*
X25492500Y-43108270D01*
X25492500Y-43000412D01*
X25512185Y-42933373D01*
X25519555Y-42923097D01*
X25521810Y-42920267D01*
X25521816Y-42920262D01*
X25617789Y-42767522D01*
X25677368Y-42597255D01*
X25677369Y-42597249D01*
X25697565Y-42418003D01*
X25697565Y-42417996D01*
X25677369Y-42238750D01*
X25677368Y-42238745D01*
X25645832Y-42148620D01*
X25617789Y-42068478D01*
X25611213Y-42058013D01*
X25571304Y-41994498D01*
X25521816Y-41915738D01*
X25394262Y-41788184D01*
X25274062Y-41712657D01*
X25241523Y-41692211D01*
X25071254Y-41632631D01*
X25071249Y-41632630D01*
X24892004Y-41612435D01*
X24891996Y-41612435D01*
X24712750Y-41632630D01*
X24712745Y-41632631D01*
X24542476Y-41692211D01*
X24389737Y-41788184D01*
X24262184Y-41915737D01*
X24166211Y-42068476D01*
X24106631Y-42238745D01*
X24106630Y-42238750D01*
X24086435Y-42417996D01*
X24086435Y-42418003D01*
X24106630Y-42597249D01*
X24106631Y-42597254D01*
X24166211Y-42767523D01*
X24226515Y-42863496D01*
X24261061Y-42918475D01*
X24262185Y-42920263D01*
X24264445Y-42923097D01*
X24265334Y-42925275D01*
X24265889Y-42926158D01*
X24265734Y-42926255D01*
X24290855Y-42987783D01*
X24291500Y-43000412D01*
X24291500Y-43213974D01*
X24271815Y-43281013D01*
X24219011Y-43326768D01*
X24167500Y-43337974D01*
X24146324Y-43337974D01*
X24109458Y-43340875D01*
X24109452Y-43340876D01*
X23951632Y-43386728D01*
X23951629Y-43386729D01*
X23810163Y-43470391D01*
X23810155Y-43470397D01*
X23693949Y-43586603D01*
X23693940Y-43586614D01*
X23693755Y-43586929D01*
X23693545Y-43587124D01*
X23689165Y-43592772D01*
X23688253Y-43592065D01*
X23642683Y-43634610D01*
X23573941Y-43647111D01*
X23509353Y-43620462D01*
X23485169Y-43592552D01*
X23484887Y-43592772D01*
X23480849Y-43587566D01*
X23480297Y-43586929D01*
X23480111Y-43586614D01*
X23480102Y-43586603D01*
X23363896Y-43470397D01*
X23363888Y-43470391D01*
X23222422Y-43386729D01*
X23222419Y-43386728D01*
X23064599Y-43340876D01*
X23064593Y-43340875D01*
X23027727Y-43337974D01*
X23027720Y-43337974D01*
X22549623Y-43337974D01*
X22482584Y-43318289D01*
X22461942Y-43301655D01*
X21789116Y-42628829D01*
X21789114Y-42628826D01*
X21670244Y-42509956D01*
X21670242Y-42509954D01*
X21668472Y-42508932D01*
X21667279Y-42507681D01*
X21663793Y-42505006D01*
X21664210Y-42504462D01*
X21620258Y-42458369D01*
X21612768Y-42440556D01*
X21577340Y-42333640D01*
X21485238Y-42184318D01*
X21361182Y-42060262D01*
X21211860Y-41968160D01*
X21045323Y-41912975D01*
X21045321Y-41912974D01*
X20942536Y-41902474D01*
X19892524Y-41902474D01*
X19892506Y-41902475D01*
X19789729Y-41912974D01*
X19789726Y-41912975D01*
X19623194Y-41968159D01*
X19623189Y-41968161D01*
X19473868Y-42060263D01*
X19455477Y-42078655D01*
X19394154Y-42112140D01*
X19367796Y-42114974D01*
X17255500Y-42114974D01*
X17188461Y-42095289D01*
X17142706Y-42042485D01*
X17131500Y-41990974D01*
X17131500Y-38741486D01*
X30271001Y-38741486D01*
X30281494Y-38844197D01*
X30336641Y-39010619D01*
X30336643Y-39010624D01*
X30428684Y-39159845D01*
X30552654Y-39283815D01*
X30701875Y-39375856D01*
X30701880Y-39375858D01*
X30868302Y-39431005D01*
X30868309Y-39431006D01*
X30971019Y-39441499D01*
X31245999Y-39441499D01*
X31746000Y-39441499D01*
X32020972Y-39441499D01*
X32020986Y-39441498D01*
X32123697Y-39431005D01*
X32290119Y-39375858D01*
X32290124Y-39375856D01*
X32439345Y-39283815D01*
X32551319Y-39171842D01*
X32612642Y-39138357D01*
X32682334Y-39143341D01*
X32726681Y-39171842D01*
X32838654Y-39283815D01*
X32987875Y-39375856D01*
X32987880Y-39375858D01*
X33154302Y-39431005D01*
X33154309Y-39431006D01*
X33257019Y-39441499D01*
X33531999Y-39441499D01*
X34032000Y-39441499D01*
X34306972Y-39441499D01*
X34306986Y-39441498D01*
X34409697Y-39431005D01*
X34576119Y-39375858D01*
X34576124Y-39375856D01*
X34725345Y-39283815D01*
X34837319Y-39171842D01*
X34898642Y-39138357D01*
X34968334Y-39143341D01*
X35012681Y-39171842D01*
X35124654Y-39283815D01*
X35273875Y-39375856D01*
X35273880Y-39375858D01*
X35440302Y-39431005D01*
X35440309Y-39431006D01*
X35543019Y-39441499D01*
X35817999Y-39441499D01*
X35818000Y-39441498D01*
X35818000Y-38604000D01*
X34032000Y-38604000D01*
X34032000Y-39441499D01*
X33531999Y-39441499D01*
X33532000Y-39441498D01*
X33532000Y-38604000D01*
X31746000Y-38604000D01*
X31746000Y-39441499D01*
X31245999Y-39441499D01*
X31246000Y-39441498D01*
X31246000Y-38604000D01*
X30271001Y-38604000D01*
X30271001Y-38741486D01*
X17131500Y-38741486D01*
X17131500Y-34457768D01*
X17131499Y-34457766D01*
X17124421Y-34422184D01*
X17097855Y-34288626D01*
X17088745Y-34266632D01*
X17031861Y-34129301D01*
X17031854Y-34129288D01*
X16936046Y-33985902D01*
X16884341Y-33934197D01*
X16814099Y-33863955D01*
X14221324Y-31271180D01*
X14187839Y-31209857D01*
X14192823Y-31140165D01*
X14234695Y-31084232D01*
X14300159Y-31059815D01*
X14309005Y-31059499D01*
X14481999Y-31059499D01*
X14482000Y-31059498D01*
X14482000Y-29846000D01*
X14501685Y-29778961D01*
X14554489Y-29733206D01*
X14606000Y-29722000D01*
X14858000Y-29722000D01*
X14925039Y-29741685D01*
X14970794Y-29794489D01*
X14982000Y-29846000D01*
X14982000Y-31059499D01*
X15256972Y-31059499D01*
X15256986Y-31059498D01*
X15359697Y-31049005D01*
X15526119Y-30993858D01*
X15526124Y-30993856D01*
X15675345Y-30901815D01*
X15799317Y-30777843D01*
X15859698Y-30679950D01*
X15911646Y-30633225D01*
X15980608Y-30622002D01*
X16044690Y-30649845D01*
X16052918Y-30657365D01*
X16114629Y-30719076D01*
X16114633Y-30719079D01*
X16114635Y-30719081D01*
X16256102Y-30802744D01*
X16264794Y-30805269D01*
X16297125Y-30814663D01*
X16356011Y-30852269D01*
X16385217Y-30915742D01*
X16375471Y-30984928D01*
X16350213Y-31021419D01*
X16329288Y-31042344D01*
X16237187Y-31191663D01*
X16237185Y-31191668D01*
X16237115Y-31191880D01*
X16182001Y-31358203D01*
X16182001Y-31358204D01*
X16182000Y-31358204D01*
X16171500Y-31460983D01*
X16171500Y-32461001D01*
X16171501Y-32461019D01*
X16182000Y-32563796D01*
X16182001Y-32563799D01*
X16237115Y-32730119D01*
X16237186Y-32730334D01*
X16329288Y-32879656D01*
X16453344Y-33003712D01*
X16602666Y-33095814D01*
X16769203Y-33150999D01*
X16871991Y-33161500D01*
X17571902Y-33161499D01*
X17638941Y-33181183D01*
X17659583Y-33197818D01*
X17959838Y-33498073D01*
X17993323Y-33559396D01*
X17995377Y-33571870D01*
X18010630Y-33707250D01*
X18010631Y-33707254D01*
X18070211Y-33877523D01*
X18153722Y-34010429D01*
X18166184Y-34030262D01*
X18293738Y-34157816D01*
X18349187Y-34192657D01*
X18446081Y-34253540D01*
X18446478Y-34253789D01*
X18549963Y-34290000D01*
X18616745Y-34313368D01*
X18616750Y-34313369D01*
X18795996Y-34333565D01*
X18796000Y-34333565D01*
X18796004Y-34333565D01*
X18975249Y-34313369D01*
X18975252Y-34313368D01*
X18975255Y-34313368D01*
X19145522Y-34253789D01*
X19298262Y-34157816D01*
X19425816Y-34030262D01*
X19521789Y-33877522D01*
X19581368Y-33707255D01*
X19588640Y-33642713D01*
X19601565Y-33528003D01*
X19601565Y-33527996D01*
X19581369Y-33348750D01*
X19581367Y-33348742D01*
X19572974Y-33324755D01*
X19569413Y-33254976D01*
X19604142Y-33194349D01*
X19666135Y-33162122D01*
X19677415Y-33160443D01*
X19774696Y-33150505D01*
X19941119Y-33095358D01*
X19941124Y-33095356D01*
X20090345Y-33003315D01*
X20214315Y-32879345D01*
X20306356Y-32730124D01*
X20306358Y-32730119D01*
X20361505Y-32563697D01*
X20361506Y-32563690D01*
X20371999Y-32460986D01*
X20372000Y-32460973D01*
X20372000Y-32211000D01*
X19146000Y-32211000D01*
X19078961Y-32191315D01*
X19033206Y-32138511D01*
X19022000Y-32087000D01*
X19022000Y-30892959D01*
X19522000Y-30892959D01*
X19522000Y-31711000D01*
X20371999Y-31711000D01*
X20371999Y-31461028D01*
X20371998Y-31461013D01*
X20361505Y-31358302D01*
X20306358Y-31191880D01*
X20306356Y-31191875D01*
X20214315Y-31042654D01*
X20125166Y-30953505D01*
X20091681Y-30892182D01*
X20096665Y-30822490D01*
X20138537Y-30766557D01*
X20149727Y-30759091D01*
X20218055Y-30718682D01*
X20218057Y-30718681D01*
X20273007Y-30663731D01*
X20334330Y-30630246D01*
X20404022Y-30635230D01*
X20459955Y-30677101D01*
X20466228Y-30686315D01*
X20522684Y-30777845D01*
X20646654Y-30901815D01*
X20795875Y-30993856D01*
X20795880Y-30993858D01*
X20962302Y-31049005D01*
X20962309Y-31049006D01*
X21065019Y-31059499D01*
X21339999Y-31059499D01*
X21840000Y-31059499D01*
X22114972Y-31059499D01*
X22114986Y-31059498D01*
X22217697Y-31049005D01*
X22384119Y-30993858D01*
X22384124Y-30993856D01*
X22533345Y-30901815D01*
X22657315Y-30777845D01*
X22749356Y-30628624D01*
X22749358Y-30628619D01*
X22804505Y-30462197D01*
X22804506Y-30462190D01*
X22814999Y-30359486D01*
X22815000Y-30359473D01*
X22815000Y-30222000D01*
X21840000Y-30222000D01*
X21840000Y-31059499D01*
X21339999Y-31059499D01*
X21340000Y-31059498D01*
X21340000Y-30222000D01*
X20509500Y-30222000D01*
X20490793Y-30240706D01*
X20489815Y-30244039D01*
X20437011Y-30289794D01*
X20385500Y-30301000D01*
X19554000Y-30301000D01*
X19554000Y-30810638D01*
X19534315Y-30877677D01*
X19522000Y-30892959D01*
X19022000Y-30892959D01*
X19022000Y-30801362D01*
X19041685Y-30734323D01*
X19054000Y-30719040D01*
X19054000Y-29251000D01*
X18725850Y-29251000D01*
X18689010Y-29253899D01*
X18689004Y-29253900D01*
X18531306Y-29299716D01*
X18531303Y-29299717D01*
X18389947Y-29383314D01*
X18383778Y-29388100D01*
X18382465Y-29386407D01*
X18330794Y-29414613D01*
X18261103Y-29409618D01*
X18213399Y-29377615D01*
X18188796Y-29351000D01*
X17923315Y-29351000D01*
X17860194Y-29333732D01*
X17829154Y-29315375D01*
X17801898Y-29299256D01*
X17801897Y-29299255D01*
X17801896Y-29299255D01*
X17801893Y-29299254D01*
X17644073Y-29253402D01*
X17644067Y-29253401D01*
X17607201Y-29250500D01*
X17607194Y-29250500D01*
X16903000Y-29250500D01*
X16835961Y-29230815D01*
X16790206Y-29178011D01*
X16779000Y-29126500D01*
X16779000Y-29075500D01*
X16798685Y-29008461D01*
X16851489Y-28962706D01*
X16903000Y-28951500D01*
X17607186Y-28951500D01*
X17607194Y-28951500D01*
X17644069Y-28948598D01*
X17644071Y-28948597D01*
X17644073Y-28948597D01*
X17685691Y-28936505D01*
X17801898Y-28902744D01*
X17860194Y-28868268D01*
X17923315Y-28851000D01*
X18188794Y-28851000D01*
X18213057Y-28824752D01*
X18273018Y-28788885D01*
X18342852Y-28791129D01*
X18382512Y-28815530D01*
X18383469Y-28814298D01*
X18389632Y-28819078D01*
X18389635Y-28819081D01*
X18531102Y-28902744D01*
X18556077Y-28910000D01*
X18688926Y-28948597D01*
X18688929Y-28948597D01*
X18688931Y-28948598D01*
X18725806Y-28951500D01*
X18725814Y-28951500D01*
X19882186Y-28951500D01*
X19882194Y-28951500D01*
X19919069Y-28948598D01*
X19919071Y-28948597D01*
X19919073Y-28948597D01*
X19960691Y-28936505D01*
X20076898Y-28902744D01*
X20218365Y-28819081D01*
X20249626Y-28787820D01*
X20310948Y-28754334D01*
X20337308Y-28751500D01*
X20519270Y-28751500D01*
X20586309Y-28771185D01*
X20606951Y-28787819D01*
X20646344Y-28827212D01*
X20649628Y-28829237D01*
X20649653Y-28829253D01*
X20651445Y-28831246D01*
X20652011Y-28831693D01*
X20651934Y-28831789D01*
X20696379Y-28881199D01*
X20707603Y-28950161D01*
X20679761Y-29014244D01*
X20649665Y-29040326D01*
X20646660Y-29042179D01*
X20646655Y-29042183D01*
X20522684Y-29166154D01*
X20430643Y-29315375D01*
X20430640Y-29315382D01*
X20424055Y-29335255D01*
X20384281Y-29392699D01*
X20319764Y-29419520D01*
X20250988Y-29407203D01*
X20224307Y-29387989D01*
X20224222Y-29388100D01*
X20221122Y-29385695D01*
X20218669Y-29383929D01*
X20218061Y-29383321D01*
X20218052Y-29383314D01*
X20076696Y-29299717D01*
X20076693Y-29299716D01*
X19918995Y-29253900D01*
X19918989Y-29253899D01*
X19882149Y-29251000D01*
X19554000Y-29251000D01*
X19554000Y-29801000D01*
X20322000Y-29801000D01*
X20340706Y-29782293D01*
X20341685Y-29778961D01*
X20394489Y-29733206D01*
X20446000Y-29722000D01*
X22814999Y-29722000D01*
X22814999Y-29584528D01*
X22814998Y-29584513D01*
X22804505Y-29481802D01*
X22749358Y-29315380D01*
X22749356Y-29315375D01*
X22657315Y-29166154D01*
X22533344Y-29042183D01*
X22533341Y-29042181D01*
X22530339Y-29040329D01*
X22528713Y-29038521D01*
X22527677Y-29037702D01*
X22527817Y-29037524D01*
X22483617Y-28988380D01*
X22472397Y-28919417D01*
X22500243Y-28855336D01*
X22530344Y-28829254D01*
X22533656Y-28827212D01*
X22657712Y-28703156D01*
X22749814Y-28553834D01*
X22804999Y-28387297D01*
X22815500Y-28284509D01*
X22815499Y-27509492D01*
X22814529Y-27500000D01*
X22804999Y-27406703D01*
X22804998Y-27406700D01*
X22803387Y-27401838D01*
X22749814Y-27240166D01*
X22657712Y-27090844D01*
X22533656Y-26966788D01*
X22413523Y-26892690D01*
X22384336Y-26874687D01*
X22384331Y-26874685D01*
X22369894Y-26869901D01*
X22217797Y-26819501D01*
X22217795Y-26819500D01*
X22115010Y-26809000D01*
X21064998Y-26809000D01*
X21064980Y-26809001D01*
X20962203Y-26819500D01*
X20962200Y-26819501D01*
X20795668Y-26874685D01*
X20795663Y-26874687D01*
X20646342Y-26966789D01*
X20522289Y-27090842D01*
X20430187Y-27240163D01*
X20430185Y-27240168D01*
X20376613Y-27401838D01*
X20336840Y-27459283D01*
X20272324Y-27486106D01*
X20203548Y-27473791D01*
X20195786Y-27469566D01*
X20193495Y-27468211D01*
X20076898Y-27399256D01*
X20076897Y-27399255D01*
X20076896Y-27399255D01*
X20076893Y-27399254D01*
X19919073Y-27353402D01*
X19919067Y-27353401D01*
X19882201Y-27350500D01*
X19882194Y-27350500D01*
X18725806Y-27350500D01*
X18725798Y-27350500D01*
X18688932Y-27353401D01*
X18688926Y-27353402D01*
X18531106Y-27399254D01*
X18531103Y-27399255D01*
X18389637Y-27482917D01*
X18389629Y-27482923D01*
X18273423Y-27599129D01*
X18273414Y-27599140D01*
X18273229Y-27599455D01*
X18273019Y-27599650D01*
X18268639Y-27605298D01*
X18267727Y-27604591D01*
X18222157Y-27647136D01*
X18153415Y-27659637D01*
X18088827Y-27632988D01*
X18064643Y-27605078D01*
X18064361Y-27605298D01*
X18060323Y-27600092D01*
X18059771Y-27599455D01*
X18059585Y-27599140D01*
X18059576Y-27599129D01*
X17943370Y-27482923D01*
X17943362Y-27482917D01*
X17817750Y-27408631D01*
X17801898Y-27399256D01*
X17801897Y-27399255D01*
X17801896Y-27399255D01*
X17801893Y-27399254D01*
X17644073Y-27353402D01*
X17644067Y-27353401D01*
X17607201Y-27350500D01*
X17607194Y-27350500D01*
X16450806Y-27350500D01*
X16450798Y-27350500D01*
X16413932Y-27353401D01*
X16413926Y-27353402D01*
X16256106Y-27399254D01*
X16256099Y-27399257D01*
X16128015Y-27475005D01*
X16060291Y-27492188D01*
X15994029Y-27470028D01*
X15950266Y-27415561D01*
X15947189Y-27407277D01*
X15945387Y-27401838D01*
X15891814Y-27240166D01*
X15799712Y-27090844D01*
X15799710Y-27090842D01*
X15795920Y-27084697D01*
X15797790Y-27083543D01*
X15775655Y-27028705D01*
X15788682Y-26960060D01*
X15836753Y-26909356D01*
X15904606Y-26892690D01*
X15940013Y-26899524D01*
X16046943Y-26936940D01*
X16076745Y-26947368D01*
X16076746Y-26947368D01*
X16076750Y-26947369D01*
X16255996Y-26967565D01*
X16256000Y-26967565D01*
X16256004Y-26967565D01*
X16435249Y-26947369D01*
X16435252Y-26947368D01*
X16435255Y-26947368D01*
X16605522Y-26887789D01*
X16758262Y-26791816D01*
X16885816Y-26664262D01*
X16981789Y-26511522D01*
X17041368Y-26341255D01*
X17047054Y-26290789D01*
X17061565Y-26162003D01*
X17061565Y-26161996D01*
X17041369Y-25982750D01*
X17041368Y-25982745D01*
X17012646Y-25900663D01*
X16981789Y-25812478D01*
X16975651Y-25802710D01*
X16924501Y-25721305D01*
X16885816Y-25659738D01*
X16758262Y-25532184D01*
X16731194Y-25515176D01*
X16605523Y-25436211D01*
X16435254Y-25376631D01*
X16435249Y-25376630D01*
X16256004Y-25356435D01*
X16255996Y-25356435D01*
X16076750Y-25376630D01*
X16076745Y-25376631D01*
X15906476Y-25436211D01*
X15753736Y-25532185D01*
X15750903Y-25534445D01*
X15748724Y-25535334D01*
X15747842Y-25535889D01*
X15747744Y-25535734D01*
X15686217Y-25560855D01*
X15673588Y-25561500D01*
X15160940Y-25561500D01*
X15120019Y-25572464D01*
X15120019Y-25572465D01*
X15085968Y-25581589D01*
X15008214Y-25602423D01*
X15008209Y-25602426D01*
X14871290Y-25681475D01*
X14871282Y-25681481D01*
X14251479Y-26301284D01*
X14235259Y-26329379D01*
X14228403Y-26341255D01*
X14172423Y-26438215D01*
X14131499Y-26590943D01*
X14131499Y-26590945D01*
X14131499Y-26720915D01*
X14111814Y-26787954D01*
X14059010Y-26833709D01*
X14046503Y-26838621D01*
X13937668Y-26874685D01*
X13937663Y-26874687D01*
X13788342Y-26966789D01*
X13769951Y-26985181D01*
X13708628Y-27018666D01*
X13682270Y-27021500D01*
X13424500Y-27021500D01*
X13357461Y-27001815D01*
X13311706Y-26949011D01*
X13300500Y-26897500D01*
X13300500Y-20902412D01*
X13320185Y-20835373D01*
X13327555Y-20825097D01*
X13329810Y-20822267D01*
X13329816Y-20822262D01*
X13423736Y-20672788D01*
X13424994Y-20671675D01*
X13425098Y-20670986D01*
X13425786Y-20669531D01*
X13458470Y-20576125D01*
X13499192Y-20519349D01*
X13564144Y-20493601D01*
X13632706Y-20507057D01*
X13653670Y-20523500D01*
X14593500Y-20523500D01*
X14660539Y-20543185D01*
X14706294Y-20595989D01*
X14717500Y-20647500D01*
X14717500Y-20672252D01*
X14708061Y-20719705D01*
X14692864Y-20756394D01*
X14649023Y-20810797D01*
X14582729Y-20832862D01*
X14515030Y-20815583D01*
X14490622Y-20796622D01*
X14467500Y-20773500D01*
X13658374Y-20773500D01*
X13669478Y-20857840D01*
X13669478Y-20857842D01*
X13726156Y-20994675D01*
X13816320Y-21112179D01*
X13933824Y-21202343D01*
X14070658Y-21259021D01*
X14180622Y-21273499D01*
X14180637Y-21273500D01*
X14488015Y-21273500D01*
X14504137Y-21264696D01*
X14573829Y-21269677D01*
X14629764Y-21311546D01*
X14654184Y-21377010D01*
X14654500Y-21385861D01*
X14654500Y-21747901D01*
X14668990Y-21857970D01*
X14668991Y-21857972D01*
X14670059Y-21860551D01*
X14679500Y-21908007D01*
X14679500Y-22018500D01*
X14659815Y-22085539D01*
X14607011Y-22131294D01*
X14555501Y-22142500D01*
X14344499Y-22142500D01*
X14344480Y-22142501D01*
X14241703Y-22153000D01*
X14241700Y-22153001D01*
X14075168Y-22208185D01*
X14075163Y-22208187D01*
X13925842Y-22300289D01*
X13801789Y-22424342D01*
X13709687Y-22573663D01*
X13709685Y-22573668D01*
X13709615Y-22573880D01*
X13654501Y-22740203D01*
X13654501Y-22740204D01*
X13654500Y-22740204D01*
X13644000Y-22842983D01*
X13644000Y-23893001D01*
X13644001Y-23893019D01*
X13654500Y-23995796D01*
X13654501Y-23995799D01*
X13709685Y-24162331D01*
X13709687Y-24162336D01*
X13727161Y-24190666D01*
X13801788Y-24311656D01*
X13925844Y-24435712D01*
X14075166Y-24527814D01*
X14241703Y-24582999D01*
X14344491Y-24593500D01*
X15119508Y-24593499D01*
X15119516Y-24593498D01*
X15119519Y-24593498D01*
X15175802Y-24587748D01*
X15222297Y-24582999D01*
X15388834Y-24527814D01*
X15538156Y-24435712D01*
X15662212Y-24311656D01*
X15664252Y-24308347D01*
X15666245Y-24306555D01*
X15666693Y-24305989D01*
X15666789Y-24306065D01*
X15716194Y-24261623D01*
X15785156Y-24250395D01*
X15849240Y-24278234D01*
X15875329Y-24308339D01*
X15877181Y-24311341D01*
X15877183Y-24311344D01*
X16001154Y-24435315D01*
X16150375Y-24527356D01*
X16150380Y-24527358D01*
X16316802Y-24582505D01*
X16316809Y-24582506D01*
X16419519Y-24592999D01*
X16556999Y-24592999D01*
X17057000Y-24592999D01*
X17194472Y-24592999D01*
X17194486Y-24592998D01*
X17297197Y-24582505D01*
X17463619Y-24527358D01*
X17463624Y-24527356D01*
X17612845Y-24435315D01*
X17736815Y-24311345D01*
X17828856Y-24162124D01*
X17828858Y-24162119D01*
X17884005Y-23995697D01*
X17884006Y-23995690D01*
X17894499Y-23892986D01*
X17894500Y-23892973D01*
X17894500Y-23618000D01*
X17057000Y-23618000D01*
X17057000Y-24592999D01*
X16556999Y-24592999D01*
X16557000Y-24592998D01*
X16557000Y-22224000D01*
X16576685Y-22156961D01*
X16629489Y-22111206D01*
X16656391Y-22105353D01*
X16702856Y-22079982D01*
X16772548Y-22084966D01*
X16808932Y-22108349D01*
X16809517Y-22107588D01*
X16815962Y-22112533D01*
X16815964Y-22112536D01*
X16933571Y-22202779D01*
X16980453Y-22222198D01*
X17034856Y-22266039D01*
X17056921Y-22332333D01*
X17057000Y-22336759D01*
X17057000Y-23118000D01*
X17894499Y-23118000D01*
X17894499Y-22843028D01*
X17894498Y-22843013D01*
X17884005Y-22740302D01*
X17828858Y-22573880D01*
X17828853Y-22573869D01*
X17760527Y-22463096D01*
X17742086Y-22395704D01*
X17763008Y-22329040D01*
X17816650Y-22284271D01*
X17866064Y-22273999D01*
X17879400Y-22273999D01*
X17879403Y-22273999D01*
X17989463Y-22259511D01*
X17989467Y-22259509D01*
X17989472Y-22259509D01*
X18126429Y-22202779D01*
X18244036Y-22112536D01*
X18334279Y-21994929D01*
X18391009Y-21857972D01*
X18405500Y-21747901D01*
X18405499Y-21397998D01*
X18425183Y-21330960D01*
X18477987Y-21285205D01*
X18529499Y-21273999D01*
X18879403Y-21273999D01*
X18989463Y-21259511D01*
X18989467Y-21259509D01*
X18989472Y-21259509D01*
X19126429Y-21202779D01*
X19244036Y-21112536D01*
X19334279Y-20994929D01*
X19391009Y-20857972D01*
X19391161Y-20856816D01*
X19391559Y-20855916D01*
X19393112Y-20850122D01*
X19394015Y-20850364D01*
X19419426Y-20792920D01*
X19477750Y-20754448D01*
X19514100Y-20749000D01*
X24392017Y-20749000D01*
X24459056Y-20768685D01*
X24479698Y-20785319D01*
X33399036Y-29704658D01*
X33432521Y-29765981D01*
X33427537Y-29835673D01*
X33385665Y-29891606D01*
X33352310Y-29909380D01*
X33178480Y-29970206D01*
X33025737Y-30066181D01*
X32898184Y-30193734D01*
X32802211Y-30346473D01*
X32742631Y-30516742D01*
X32742630Y-30516746D01*
X32739294Y-30546361D01*
X32712227Y-30610775D01*
X32654632Y-30650330D01*
X32584795Y-30652467D01*
X32528393Y-30620158D01*
X31487818Y-29579583D01*
X31454333Y-29518260D01*
X31451499Y-29491902D01*
X31451499Y-28779498D01*
X31451498Y-28779481D01*
X31440999Y-28676703D01*
X31440998Y-28676700D01*
X31385814Y-28510166D01*
X31293712Y-28360844D01*
X31169656Y-28236788D01*
X31076888Y-28179569D01*
X31020336Y-28144687D01*
X31020331Y-28144685D01*
X31018862Y-28144198D01*
X30853797Y-28089501D01*
X30853795Y-28089500D01*
X30751010Y-28079000D01*
X29700998Y-28079000D01*
X29700980Y-28079001D01*
X29598203Y-28089500D01*
X29598200Y-28089501D01*
X29431668Y-28144685D01*
X29431663Y-28144687D01*
X29282342Y-28236789D01*
X29158289Y-28360842D01*
X29066187Y-28510163D01*
X29066185Y-28510168D01*
X29051717Y-28553831D01*
X29024913Y-28634721D01*
X29011001Y-28676704D01*
X29011000Y-28676705D01*
X29003757Y-28747605D01*
X28977360Y-28812297D01*
X28968080Y-28822683D01*
X28256582Y-29534181D01*
X28195259Y-29567666D01*
X28168901Y-29570500D01*
X27721129Y-29570500D01*
X27721123Y-29570501D01*
X27661515Y-29576909D01*
X27562332Y-29613901D01*
X27492640Y-29618885D01*
X27475668Y-29613901D01*
X27376485Y-29576909D01*
X27376483Y-29576908D01*
X27316883Y-29570501D01*
X27316881Y-29570500D01*
X27316873Y-29570500D01*
X27316864Y-29570500D01*
X26371129Y-29570500D01*
X26371123Y-29570501D01*
X26311516Y-29576908D01*
X26176671Y-29627202D01*
X26176664Y-29627206D01*
X26061455Y-29713452D01*
X26061452Y-29713455D01*
X25975206Y-29828664D01*
X25975202Y-29828671D01*
X25924908Y-29963517D01*
X25918501Y-30023116D01*
X25918500Y-30023135D01*
X25918500Y-30868870D01*
X25918501Y-30868876D01*
X25924908Y-30928479D01*
X25926692Y-30936026D01*
X25925229Y-30936371D01*
X25929585Y-30997371D01*
X25925173Y-31012396D01*
X25924908Y-31013517D01*
X25918501Y-31073116D01*
X25918500Y-31073135D01*
X25918500Y-31918870D01*
X25918501Y-31918876D01*
X25924908Y-31978483D01*
X25975202Y-32113328D01*
X25975206Y-32113335D01*
X26061452Y-32228544D01*
X26061455Y-32228547D01*
X26176664Y-32314793D01*
X26176671Y-32314797D01*
X26221618Y-32331561D01*
X26311517Y-32365091D01*
X26371127Y-32371500D01*
X26784593Y-32371499D01*
X26851632Y-32391183D01*
X26897387Y-32443987D01*
X26907331Y-32513146D01*
X26902299Y-32534503D01*
X26857001Y-32671203D01*
X26857000Y-32671204D01*
X26846500Y-32773983D01*
X26846500Y-33774001D01*
X26846501Y-33774019D01*
X26857000Y-33876796D01*
X26857001Y-33876799D01*
X26912185Y-34043331D01*
X26912189Y-34043340D01*
X26975142Y-34145404D01*
X26993582Y-34212797D01*
X26972659Y-34279460D01*
X26919017Y-34324229D01*
X26869603Y-34334500D01*
X26239498Y-34334500D01*
X26239480Y-34334501D01*
X26136703Y-34345000D01*
X26136700Y-34345001D01*
X25970168Y-34400185D01*
X25970163Y-34400187D01*
X25820842Y-34492289D01*
X25696789Y-34616342D01*
X25604687Y-34765663D01*
X25604685Y-34765668D01*
X25579788Y-34840802D01*
X25549501Y-34932203D01*
X25549501Y-34932204D01*
X25549500Y-34932204D01*
X25539000Y-35034983D01*
X25539000Y-36085001D01*
X25539001Y-36085019D01*
X25549500Y-36187796D01*
X25549501Y-36187799D01*
X25559595Y-36218260D01*
X25604686Y-36354334D01*
X25696788Y-36503656D01*
X25820844Y-36627712D01*
X25970166Y-36719814D01*
X26136703Y-36774999D01*
X26239491Y-36785500D01*
X27014508Y-36785499D01*
X27014516Y-36785498D01*
X27014519Y-36785498D01*
X27070802Y-36779748D01*
X27117297Y-36774999D01*
X27283834Y-36719814D01*
X27433156Y-36627712D01*
X27557212Y-36503656D01*
X27559252Y-36500347D01*
X27561245Y-36498555D01*
X27561693Y-36497989D01*
X27561789Y-36498065D01*
X27611194Y-36453623D01*
X27680156Y-36442395D01*
X27744240Y-36470234D01*
X27770329Y-36500339D01*
X27772181Y-36503341D01*
X27772183Y-36503344D01*
X27896154Y-36627315D01*
X28045375Y-36719356D01*
X28045380Y-36719358D01*
X28211802Y-36774505D01*
X28211809Y-36774506D01*
X28314519Y-36784999D01*
X28451999Y-36784999D01*
X28952000Y-36784999D01*
X29089472Y-36784999D01*
X29089486Y-36784998D01*
X29192197Y-36774505D01*
X29358619Y-36719358D01*
X29358624Y-36719356D01*
X29507845Y-36627315D01*
X29631815Y-36503345D01*
X29723856Y-36354124D01*
X29723858Y-36354119D01*
X29779005Y-36187697D01*
X29779006Y-36187690D01*
X29789499Y-36084986D01*
X29789500Y-36084973D01*
X29789500Y-35810000D01*
X28952000Y-35810000D01*
X28952000Y-36784999D01*
X28451999Y-36784999D01*
X28452000Y-36784998D01*
X28452000Y-35434000D01*
X28471685Y-35366961D01*
X28524489Y-35321206D01*
X28576000Y-35310000D01*
X29789499Y-35310000D01*
X29789499Y-35035028D01*
X29789498Y-35035013D01*
X29779005Y-34932302D01*
X29723858Y-34765880D01*
X29723853Y-34765869D01*
X29660770Y-34663596D01*
X29642329Y-34596204D01*
X29663251Y-34529540D01*
X29716893Y-34484770D01*
X29766304Y-34474499D01*
X30347008Y-34474499D01*
X30347016Y-34474498D01*
X30347019Y-34474498D01*
X30403302Y-34468748D01*
X30449797Y-34463999D01*
X30616334Y-34408814D01*
X30765656Y-34316712D01*
X30889712Y-34192656D01*
X30981814Y-34043334D01*
X31009595Y-33959495D01*
X31049368Y-33902051D01*
X31113884Y-33875228D01*
X31127301Y-33874500D01*
X31485531Y-33874500D01*
X31485547Y-33874501D01*
X31493143Y-33874501D01*
X31651254Y-33874501D01*
X31651257Y-33874501D01*
X31803985Y-33833577D01*
X31883380Y-33787738D01*
X31940916Y-33754520D01*
X32052720Y-33642716D01*
X32052720Y-33642714D01*
X32062921Y-33632514D01*
X32062924Y-33632509D01*
X32394617Y-33300816D01*
X32455939Y-33267334D01*
X32482297Y-33264500D01*
X34612899Y-33264500D01*
X34679938Y-33284185D01*
X34725693Y-33336989D01*
X34735838Y-33372315D01*
X34735990Y-33373469D01*
X34738094Y-33381322D01*
X34734814Y-33382200D01*
X34740581Y-33436073D01*
X34737517Y-33446522D01*
X34738095Y-33446677D01*
X34735990Y-33454529D01*
X34721500Y-33564598D01*
X34721500Y-33763403D01*
X34735988Y-33873463D01*
X34735991Y-33873472D01*
X34787367Y-33997505D01*
X34792721Y-34010429D01*
X34836347Y-34067283D01*
X34882965Y-34128037D01*
X34895298Y-34137500D01*
X34967178Y-34192656D01*
X34972986Y-34197112D01*
X35014189Y-34253540D01*
X35021500Y-34295488D01*
X35021500Y-35345270D01*
X35001815Y-35412309D01*
X34949011Y-35458064D01*
X34879853Y-35468008D01*
X34816297Y-35438983D01*
X34809819Y-35432951D01*
X34725657Y-35348789D01*
X34725656Y-35348788D01*
X34632198Y-35291143D01*
X34585475Y-35239196D01*
X34574076Y-35171721D01*
X34587565Y-35052002D01*
X34587565Y-35051996D01*
X34567369Y-34872750D01*
X34567368Y-34872745D01*
X34531599Y-34770524D01*
X34507789Y-34702478D01*
X34411816Y-34549738D01*
X34284262Y-34422184D01*
X34249254Y-34400187D01*
X34131523Y-34326211D01*
X33961254Y-34266631D01*
X33961249Y-34266630D01*
X33782004Y-34246435D01*
X33781996Y-34246435D01*
X33602750Y-34266630D01*
X33602745Y-34266631D01*
X33432476Y-34326211D01*
X33279737Y-34422184D01*
X33152184Y-34549737D01*
X33056211Y-34702476D01*
X32996631Y-34872745D01*
X32996630Y-34872750D01*
X32976435Y-35051996D01*
X32976435Y-35052004D01*
X32989923Y-35171722D01*
X32977868Y-35240544D01*
X32931800Y-35291143D01*
X32838347Y-35348785D01*
X32838343Y-35348788D01*
X32726681Y-35460451D01*
X32665358Y-35493936D01*
X32595666Y-35488952D01*
X32551319Y-35460451D01*
X32439657Y-35348789D01*
X32439656Y-35348788D01*
X32338200Y-35286210D01*
X32290336Y-35256687D01*
X32290331Y-35256685D01*
X32288862Y-35256198D01*
X32123797Y-35201501D01*
X32123795Y-35201500D01*
X32021010Y-35191000D01*
X30970998Y-35191000D01*
X30970980Y-35191001D01*
X30868203Y-35201500D01*
X30868200Y-35201501D01*
X30701668Y-35256685D01*
X30701663Y-35256687D01*
X30552342Y-35348789D01*
X30428289Y-35472842D01*
X30336187Y-35622163D01*
X30336185Y-35622168D01*
X30327872Y-35647255D01*
X30281001Y-35788703D01*
X30281001Y-35788704D01*
X30281000Y-35788704D01*
X30270500Y-35891483D01*
X30270500Y-36666501D01*
X30270501Y-36666519D01*
X30281000Y-36769296D01*
X30281001Y-36769299D01*
X30336185Y-36935831D01*
X30336187Y-36935836D01*
X30338870Y-36940186D01*
X30428288Y-37085156D01*
X30552344Y-37209212D01*
X30555628Y-37211237D01*
X30555653Y-37211253D01*
X30557445Y-37213246D01*
X30558011Y-37213693D01*
X30557934Y-37213789D01*
X30602379Y-37263199D01*
X30613603Y-37332161D01*
X30585761Y-37396244D01*
X30555665Y-37422326D01*
X30552660Y-37424179D01*
X30552655Y-37424183D01*
X30428684Y-37548154D01*
X30336643Y-37697375D01*
X30336641Y-37697380D01*
X30281494Y-37863802D01*
X30281493Y-37863809D01*
X30271000Y-37966513D01*
X30271000Y-38104000D01*
X36194000Y-38104000D01*
X36261039Y-38123685D01*
X36306794Y-38176489D01*
X36318000Y-38228000D01*
X36318000Y-39441499D01*
X36592972Y-39441499D01*
X36592986Y-39441498D01*
X36685012Y-39432097D01*
X36753705Y-39444866D01*
X36785295Y-39467774D01*
X36815395Y-39497874D01*
X36815405Y-39497885D01*
X36819735Y-39502215D01*
X36819736Y-39502216D01*
X36931540Y-39614020D01*
X37018351Y-39664139D01*
X37018353Y-39664141D01*
X37068469Y-39693076D01*
X37068471Y-39693077D01*
X37221198Y-39734000D01*
X37221199Y-39734000D01*
X37450298Y-39734000D01*
X37517337Y-39753685D01*
X37563092Y-39806489D01*
X37574298Y-39858000D01*
X37574298Y-40878370D01*
X37574299Y-40878376D01*
X37580706Y-40937983D01*
X37631000Y-41072828D01*
X37631004Y-41072835D01*
X37717250Y-41188044D01*
X37717253Y-41188047D01*
X37832462Y-41274293D01*
X37832469Y-41274297D01*
X37834373Y-41275007D01*
X37967315Y-41324591D01*
X38026925Y-41331000D01*
X38529070Y-41330999D01*
X38588681Y-41324591D01*
X38609280Y-41316907D01*
X38678969Y-41311921D01*
X38695951Y-41316907D01*
X38719248Y-41325596D01*
X38719251Y-41325597D01*
X38778779Y-41331998D01*
X38778796Y-41331999D01*
X38826624Y-41331999D01*
X38826624Y-41245507D01*
X38846309Y-41178468D01*
X38851349Y-41171207D01*
X38908158Y-41095321D01*
X38964092Y-41053451D01*
X39033784Y-41048467D01*
X39095106Y-41081953D01*
X39128591Y-41143276D01*
X39131424Y-41169633D01*
X39131424Y-41331999D01*
X39179252Y-41331999D01*
X39179268Y-41331998D01*
X39238796Y-41325597D01*
X39238800Y-41325596D01*
X39361073Y-41279991D01*
X39430765Y-41275007D01*
X39447727Y-41279986D01*
X39546715Y-41316907D01*
X39567311Y-41324589D01*
X39567317Y-41324591D01*
X39626927Y-41331000D01*
X40129072Y-41330999D01*
X40188683Y-41324591D01*
X40323531Y-41274296D01*
X40438746Y-41188046D01*
X40524996Y-41072831D01*
X40575291Y-40937983D01*
X40581700Y-40878373D01*
X40581699Y-39417992D01*
X40601384Y-39350954D01*
X40654187Y-39305199D01*
X40666695Y-39300287D01*
X40674489Y-39297704D01*
X40788834Y-39259814D01*
X40938156Y-39167712D01*
X41062212Y-39043656D01*
X41154314Y-38894334D01*
X41209499Y-38727797D01*
X41220000Y-38625009D01*
X41219999Y-37872795D01*
X41239683Y-37805757D01*
X41292487Y-37760002D01*
X41361646Y-37750058D01*
X41425202Y-37779083D01*
X41431680Y-37785115D01*
X45634939Y-41988374D01*
X45634949Y-41988385D01*
X45639279Y-41992715D01*
X45639280Y-41992716D01*
X45751084Y-42104520D01*
X45789670Y-42126797D01*
X45837895Y-42154639D01*
X45837897Y-42154641D01*
X45875951Y-42176611D01*
X45888015Y-42183577D01*
X46040743Y-42224501D01*
X46040746Y-42224501D01*
X46206453Y-42224501D01*
X46206469Y-42224500D01*
X46252092Y-42224500D01*
X46319131Y-42244185D01*
X46357636Y-42288271D01*
X46359395Y-42287187D01*
X46363185Y-42293331D01*
X46363186Y-42293334D01*
X46440082Y-42418003D01*
X46455289Y-42442657D01*
X46553201Y-42540569D01*
X46586686Y-42601892D01*
X46581702Y-42671584D01*
X46553201Y-42715931D01*
X46430289Y-42838842D01*
X46338187Y-42988163D01*
X46338185Y-42988168D01*
X46324148Y-43030529D01*
X46283001Y-43154703D01*
X46283001Y-43154704D01*
X46283000Y-43154704D01*
X46272500Y-43257483D01*
X46272500Y-44032501D01*
X46272501Y-44032519D01*
X46283000Y-44135296D01*
X46283001Y-44135299D01*
X46332928Y-44285967D01*
X46338186Y-44301834D01*
X46430288Y-44451156D01*
X46554344Y-44575212D01*
X46557628Y-44577237D01*
X46557653Y-44577253D01*
X46559445Y-44579246D01*
X46560011Y-44579693D01*
X46559934Y-44579789D01*
X46604379Y-44629199D01*
X46615603Y-44698161D01*
X46587761Y-44762244D01*
X46557665Y-44788326D01*
X46554660Y-44790179D01*
X46554655Y-44790183D01*
X46430684Y-44914154D01*
X46338643Y-45063375D01*
X46338641Y-45063380D01*
X46283494Y-45229802D01*
X46283493Y-45229809D01*
X46273000Y-45332513D01*
X46273000Y-45470000D01*
X48722999Y-45470000D01*
X48722999Y-45332528D01*
X48722998Y-45332513D01*
X48712505Y-45229802D01*
X48657358Y-45063380D01*
X48657356Y-45063375D01*
X48565315Y-44914154D01*
X48441344Y-44790183D01*
X48441341Y-44790181D01*
X48438339Y-44788329D01*
X48436713Y-44786521D01*
X48435677Y-44785702D01*
X48435817Y-44785524D01*
X48391617Y-44736380D01*
X48380397Y-44667417D01*
X48408243Y-44603336D01*
X48438344Y-44577254D01*
X48441656Y-44575212D01*
X48565712Y-44451156D01*
X48657814Y-44301834D01*
X48712999Y-44135297D01*
X48718546Y-44080997D01*
X48719701Y-44069697D01*
X48746097Y-44005005D01*
X48803278Y-43964854D01*
X48843059Y-43958300D01*
X48983045Y-43958300D01*
X49050084Y-43977985D01*
X49070726Y-43994619D01*
X49070850Y-43994743D01*
X49070853Y-43994745D01*
X49070854Y-43994746D01*
X49186069Y-44080996D01*
X49186070Y-44080996D01*
X49186071Y-44080997D01*
X49320917Y-44131291D01*
X49320916Y-44131291D01*
X49327844Y-44132035D01*
X49380527Y-44137700D01*
X50428772Y-44137699D01*
X50488383Y-44131291D01*
X50623231Y-44080996D01*
X50738446Y-43994746D01*
X50738447Y-43994744D01*
X50738449Y-43994743D01*
X50738574Y-43994619D01*
X50738728Y-43994534D01*
X50745546Y-43989431D01*
X50746279Y-43990411D01*
X50799897Y-43961134D01*
X50826255Y-43958300D01*
X55345745Y-43958300D01*
X55412784Y-43977985D01*
X55433426Y-43994619D01*
X55433550Y-43994743D01*
X55433553Y-43994745D01*
X55433554Y-43994746D01*
X55548769Y-44080996D01*
X55548770Y-44080996D01*
X55548771Y-44080997D01*
X55683617Y-44131291D01*
X55683616Y-44131291D01*
X55690544Y-44132035D01*
X55743227Y-44137700D01*
X56791472Y-44137699D01*
X56851083Y-44131291D01*
X56985931Y-44080996D01*
X57101146Y-43994746D01*
X57187396Y-43879531D01*
X57237691Y-43744683D01*
X57244100Y-43685073D01*
X57244099Y-43030528D01*
X57237691Y-42970917D01*
X57222047Y-42928974D01*
X57187397Y-42836071D01*
X57187393Y-42836064D01*
X57101147Y-42720855D01*
X57101144Y-42720852D01*
X56985935Y-42634606D01*
X56985928Y-42634602D01*
X56851082Y-42584308D01*
X56851083Y-42584308D01*
X56791483Y-42577901D01*
X56791481Y-42577900D01*
X56791473Y-42577900D01*
X56791464Y-42577900D01*
X55743229Y-42577900D01*
X55743223Y-42577901D01*
X55683616Y-42584308D01*
X55548771Y-42634602D01*
X55548769Y-42634604D01*
X55433550Y-42720856D01*
X55433426Y-42720981D01*
X55433271Y-42721065D01*
X55426454Y-42726169D01*
X55425720Y-42725188D01*
X55372103Y-42754466D01*
X55345745Y-42757300D01*
X50826255Y-42757300D01*
X50759216Y-42737615D01*
X50738574Y-42720981D01*
X50738449Y-42720856D01*
X50709968Y-42699535D01*
X50623231Y-42634604D01*
X50623229Y-42634603D01*
X50623228Y-42634602D01*
X50488382Y-42584308D01*
X50488383Y-42584308D01*
X50428783Y-42577901D01*
X50428781Y-42577900D01*
X50428773Y-42577900D01*
X50428764Y-42577900D01*
X49380529Y-42577900D01*
X49380523Y-42577901D01*
X49320916Y-42584308D01*
X49186071Y-42634602D01*
X49186069Y-42634604D01*
X49070850Y-42720856D01*
X49070726Y-42720981D01*
X49070571Y-42721065D01*
X49063754Y-42726169D01*
X49063020Y-42725188D01*
X49009403Y-42754466D01*
X48983045Y-42757300D01*
X48535530Y-42757300D01*
X48468491Y-42737615D01*
X48447849Y-42720981D01*
X48442799Y-42715931D01*
X48409314Y-42654608D01*
X48414298Y-42584916D01*
X48442799Y-42540569D01*
X48478906Y-42504462D01*
X48540712Y-42442656D01*
X48632814Y-42293334D01*
X48687999Y-42126797D01*
X48698500Y-42024009D01*
X48698499Y-41223992D01*
X48687999Y-41121203D01*
X48632814Y-40954666D01*
X48540712Y-40805344D01*
X48447049Y-40711681D01*
X48413564Y-40650358D01*
X48418548Y-40580666D01*
X48447049Y-40536319D01*
X48489388Y-40493980D01*
X48540712Y-40442656D01*
X48632814Y-40293334D01*
X48687999Y-40126797D01*
X48698500Y-40024009D01*
X48698499Y-39223992D01*
X48687999Y-39121203D01*
X48632814Y-38954666D01*
X48540712Y-38805344D01*
X48416656Y-38681288D01*
X48276206Y-38594658D01*
X48229483Y-38542711D01*
X48218260Y-38473748D01*
X48224260Y-38448174D01*
X48283368Y-38279255D01*
X48294947Y-38176489D01*
X48303565Y-38100003D01*
X48303565Y-38099996D01*
X48283369Y-37920750D01*
X48283368Y-37920745D01*
X48242690Y-37804494D01*
X48223789Y-37750478D01*
X48127816Y-37597738D01*
X48010259Y-37480181D01*
X47976774Y-37418858D01*
X47981758Y-37349166D01*
X48023630Y-37293233D01*
X48089094Y-37268816D01*
X48097940Y-37268500D01*
X55900217Y-37268500D01*
X55967256Y-37288185D01*
X55987898Y-37304819D01*
X63879181Y-45196102D01*
X63912666Y-45257425D01*
X63915500Y-45283783D01*
X63915500Y-46903330D01*
X63915499Y-46903348D01*
X63915499Y-47069054D01*
X63915498Y-47069054D01*
X63956424Y-47221789D01*
X63958044Y-47224593D01*
X63958050Y-47224603D01*
X64035477Y-47358712D01*
X64035481Y-47358717D01*
X64154349Y-47477585D01*
X64154355Y-47477590D01*
X64395181Y-47718416D01*
X64428666Y-47779739D01*
X64431500Y-47806097D01*
X64431500Y-48506001D01*
X64431501Y-48506019D01*
X64442000Y-48608796D01*
X64442001Y-48608799D01*
X64497185Y-48775331D01*
X64497187Y-48775336D01*
X64507746Y-48792455D01*
X64589288Y-48924656D01*
X64713344Y-49048712D01*
X64862666Y-49140814D01*
X65029203Y-49195999D01*
X65131991Y-49206500D01*
X65932008Y-49206499D01*
X65932016Y-49206498D01*
X65932019Y-49206498D01*
X65988302Y-49200748D01*
X66034797Y-49195999D01*
X66201334Y-49140814D01*
X66350656Y-49048712D01*
X66444319Y-48955049D01*
X66505642Y-48921564D01*
X66575334Y-48926548D01*
X66619681Y-48955049D01*
X66713344Y-49048712D01*
X66862666Y-49140814D01*
X67029203Y-49195999D01*
X67131991Y-49206500D01*
X67932008Y-49206499D01*
X67932016Y-49206498D01*
X67932019Y-49206498D01*
X67988302Y-49200748D01*
X68034797Y-49195999D01*
X68201334Y-49140814D01*
X68350656Y-49048712D01*
X68474712Y-48924656D01*
X68566814Y-48775334D01*
X68594595Y-48691495D01*
X68634368Y-48634051D01*
X68698884Y-48607228D01*
X68712301Y-48606500D01*
X69309501Y-48606500D01*
X69376540Y-48626185D01*
X69422295Y-48678989D01*
X69433501Y-48730500D01*
X69433501Y-48897876D01*
X69439908Y-48957483D01*
X69490202Y-49092328D01*
X69490206Y-49092335D01*
X69576452Y-49207544D01*
X69576455Y-49207547D01*
X69691664Y-49293793D01*
X69691671Y-49293797D01*
X69826517Y-49344091D01*
X69826516Y-49344091D01*
X69833444Y-49344835D01*
X69886127Y-49350500D01*
X71681872Y-49350499D01*
X71741483Y-49344091D01*
X71876331Y-49293796D01*
X71991546Y-49207546D01*
X72077796Y-49092331D01*
X72128091Y-48957483D01*
X72134500Y-48897873D01*
X72134499Y-47102128D01*
X72128091Y-47042517D01*
X72110866Y-46996335D01*
X72077797Y-46907671D01*
X72077793Y-46907664D01*
X71991547Y-46792455D01*
X71991544Y-46792452D01*
X71876335Y-46706206D01*
X71876328Y-46706202D01*
X71744917Y-46657189D01*
X71688983Y-46615318D01*
X71664566Y-46549853D01*
X71679418Y-46481580D01*
X71700563Y-46453332D01*
X71822495Y-46331401D01*
X71958035Y-46137830D01*
X72057903Y-45923663D01*
X72119063Y-45695408D01*
X72139659Y-45460000D01*
X72119063Y-45224592D01*
X72057903Y-44996337D01*
X71958035Y-44782171D01*
X71958034Y-44782169D01*
X71822494Y-44588597D01*
X71655402Y-44421506D01*
X71655395Y-44421501D01*
X71637333Y-44408854D01*
X71526414Y-44331187D01*
X71461834Y-44285967D01*
X71461830Y-44285965D01*
X71375728Y-44245815D01*
X71247663Y-44186097D01*
X71247659Y-44186096D01*
X71247655Y-44186094D01*
X71019413Y-44124938D01*
X71019403Y-44124936D01*
X70784001Y-44104341D01*
X70783999Y-44104341D01*
X70548596Y-44124936D01*
X70548586Y-44124938D01*
X70320344Y-44186094D01*
X70320335Y-44186098D01*
X70106171Y-44285964D01*
X70106169Y-44285965D01*
X69912597Y-44421505D01*
X69745506Y-44588596D01*
X69609965Y-44782170D01*
X69609965Y-44782171D01*
X69604493Y-44793904D01*
X69558324Y-44846343D01*
X69492112Y-44865500D01*
X68744301Y-44865500D01*
X68677262Y-44845815D01*
X68631507Y-44793011D01*
X68626595Y-44780504D01*
X68620544Y-44762244D01*
X68598814Y-44696666D01*
X68506712Y-44547344D01*
X68382656Y-44423288D01*
X68233334Y-44331186D01*
X68066797Y-44276001D01*
X68066795Y-44276000D01*
X67964010Y-44265500D01*
X67163998Y-44265500D01*
X67163980Y-44265501D01*
X67061203Y-44276000D01*
X67061200Y-44276001D01*
X66894668Y-44331185D01*
X66894663Y-44331187D01*
X66745342Y-44423289D01*
X66651681Y-44516951D01*
X66590358Y-44550436D01*
X66520666Y-44545452D01*
X66476319Y-44516951D01*
X66382657Y-44423289D01*
X66382656Y-44423288D01*
X66233334Y-44331186D01*
X66066797Y-44276001D01*
X66066795Y-44276000D01*
X65964016Y-44265500D01*
X65964009Y-44265500D01*
X65264097Y-44265500D01*
X65197058Y-44245815D01*
X65176416Y-44229181D01*
X56653590Y-35706355D01*
X56653588Y-35706352D01*
X56534717Y-35587481D01*
X56534709Y-35587475D01*
X56432936Y-35528717D01*
X56432934Y-35528716D01*
X56397790Y-35508425D01*
X56397789Y-35508424D01*
X56385263Y-35505067D01*
X56245057Y-35467499D01*
X56086943Y-35467499D01*
X56079347Y-35467499D01*
X56079331Y-35467500D01*
X44016412Y-35467500D01*
X43949373Y-35447815D01*
X43939097Y-35440445D01*
X43936263Y-35438185D01*
X43936262Y-35438184D01*
X43885348Y-35406193D01*
X43783520Y-35342209D01*
X43739861Y-35326932D01*
X43683085Y-35286210D01*
X43657339Y-35221257D01*
X43670796Y-35152695D01*
X43719184Y-35102293D01*
X43766933Y-35086671D01*
X43810050Y-35081813D01*
X43867249Y-35075369D01*
X43867252Y-35075368D01*
X43867255Y-35075368D01*
X44037522Y-35015789D01*
X44190262Y-34919816D01*
X44317816Y-34792262D01*
X44413789Y-34639522D01*
X44473368Y-34469255D01*
X44473369Y-34469249D01*
X44493565Y-34290003D01*
X44493565Y-34290001D01*
X44493509Y-34289500D01*
X44491918Y-34275384D01*
X44503972Y-34206564D01*
X44551320Y-34155183D01*
X44615138Y-34137500D01*
X46418331Y-34137500D01*
X46418347Y-34137501D01*
X46425943Y-34137501D01*
X46584054Y-34137501D01*
X46584057Y-34137501D01*
X46736785Y-34096577D01*
X46787523Y-34067283D01*
X46873716Y-34017520D01*
X46985520Y-33905716D01*
X46985520Y-33905714D01*
X46995724Y-33895511D01*
X46995728Y-33895506D01*
X52493390Y-28397844D01*
X64913500Y-28397844D01*
X64919901Y-28457372D01*
X64919903Y-28457379D01*
X64970145Y-28592086D01*
X64970149Y-28592093D01*
X65056309Y-28707187D01*
X65056312Y-28707190D01*
X65171406Y-28793350D01*
X65171413Y-28793354D01*
X65306120Y-28843596D01*
X65306127Y-28843598D01*
X65365655Y-28849999D01*
X65365672Y-28850000D01*
X66063500Y-28850000D01*
X66563500Y-28850000D01*
X67261328Y-28850000D01*
X67261344Y-28849999D01*
X67320872Y-28843598D01*
X67320879Y-28843596D01*
X67455586Y-28793354D01*
X67455593Y-28793350D01*
X67570687Y-28707190D01*
X67570690Y-28707187D01*
X67656850Y-28592093D01*
X67656854Y-28592086D01*
X67707096Y-28457379D01*
X67707098Y-28457372D01*
X67713499Y-28397844D01*
X74013500Y-28397844D01*
X74019901Y-28457372D01*
X74019903Y-28457379D01*
X74070145Y-28592086D01*
X74070149Y-28592093D01*
X74156309Y-28707187D01*
X74156312Y-28707190D01*
X74271406Y-28793350D01*
X74271413Y-28793354D01*
X74406120Y-28843596D01*
X74406127Y-28843598D01*
X74465655Y-28849999D01*
X74465672Y-28850000D01*
X75363500Y-28850000D01*
X75863500Y-28850000D01*
X76761328Y-28850000D01*
X76761344Y-28849999D01*
X76820872Y-28843598D01*
X76820879Y-28843596D01*
X76955586Y-28793354D01*
X76955593Y-28793350D01*
X77070687Y-28707190D01*
X77070690Y-28707187D01*
X77156850Y-28592093D01*
X77156854Y-28592086D01*
X77207096Y-28457379D01*
X77207098Y-28457372D01*
X77213499Y-28397844D01*
X77213500Y-28397827D01*
X77213500Y-28000000D01*
X75863500Y-28000000D01*
X75863500Y-28850000D01*
X75363500Y-28850000D01*
X75363500Y-28000000D01*
X74013500Y-28000000D01*
X74013500Y-28397844D01*
X67713499Y-28397844D01*
X67713500Y-28397827D01*
X67713500Y-28000000D01*
X66563500Y-28000000D01*
X66563500Y-28850000D01*
X66063500Y-28850000D01*
X66063500Y-28000000D01*
X64913500Y-28000000D01*
X64913500Y-28397844D01*
X52493390Y-28397844D01*
X52984416Y-27906818D01*
X53045739Y-27873333D01*
X53072097Y-27870499D01*
X53772002Y-27870499D01*
X53772008Y-27870499D01*
X53874797Y-27859999D01*
X54041334Y-27804814D01*
X54190656Y-27712712D01*
X54284675Y-27618692D01*
X54345994Y-27585210D01*
X54415686Y-27590194D01*
X54460034Y-27618695D01*
X54553654Y-27712315D01*
X54702875Y-27804356D01*
X54702880Y-27804358D01*
X54869302Y-27859505D01*
X54869309Y-27859506D01*
X54972019Y-27869999D01*
X55121999Y-27869999D01*
X55622000Y-27869999D01*
X55771972Y-27869999D01*
X55771986Y-27869998D01*
X55874697Y-27859505D01*
X56041119Y-27804358D01*
X56041124Y-27804356D01*
X56190345Y-27712315D01*
X56314315Y-27588345D01*
X56406356Y-27439124D01*
X56406358Y-27439119D01*
X56461505Y-27272697D01*
X56461506Y-27272690D01*
X56471999Y-27169986D01*
X56472000Y-27169973D01*
X56472000Y-26920000D01*
X55622000Y-26920000D01*
X55622000Y-27869999D01*
X55121999Y-27869999D01*
X55122000Y-27869998D01*
X55122000Y-26544000D01*
X55141685Y-26476961D01*
X55194489Y-26431206D01*
X55246000Y-26420000D01*
X56471999Y-26420000D01*
X56471999Y-26170028D01*
X56471998Y-26170013D01*
X56461505Y-26067302D01*
X56406358Y-25900880D01*
X56406356Y-25900875D01*
X56314315Y-25751654D01*
X56295313Y-25732652D01*
X56261828Y-25671329D01*
X56266812Y-25601637D01*
X56308684Y-25545704D01*
X56348399Y-25525895D01*
X56404222Y-25509677D01*
X56474092Y-25509876D01*
X56532762Y-25547818D01*
X56544355Y-25563654D01*
X56615288Y-25678656D01*
X56739344Y-25802712D01*
X56888666Y-25894814D01*
X57055203Y-25949999D01*
X57157991Y-25960500D01*
X57257902Y-25960499D01*
X57324940Y-25980183D01*
X57345583Y-25996818D01*
X58475139Y-27126374D01*
X58475149Y-27126385D01*
X58479479Y-27130715D01*
X58479480Y-27130716D01*
X58591284Y-27242520D01*
X58591286Y-27242521D01*
X58591290Y-27242524D01*
X58643723Y-27272796D01*
X58643728Y-27272798D01*
X58728209Y-27321574D01*
X58728210Y-27321574D01*
X58728215Y-27321577D01*
X58880943Y-27362500D01*
X59039057Y-27362500D01*
X60273331Y-27362500D01*
X60273347Y-27362501D01*
X60280943Y-27362501D01*
X60439054Y-27362501D01*
X60439057Y-27362501D01*
X60591785Y-27321577D01*
X60676274Y-27272797D01*
X60676460Y-27272690D01*
X60728709Y-27242524D01*
X60728708Y-27242524D01*
X60728716Y-27242520D01*
X60840520Y-27130716D01*
X60840520Y-27130714D01*
X60850724Y-27120511D01*
X60850727Y-27120506D01*
X61884416Y-26086819D01*
X61945739Y-26053334D01*
X61972097Y-26050500D01*
X63589000Y-26050500D01*
X63656039Y-26070185D01*
X63701794Y-26122989D01*
X63713000Y-26174500D01*
X63713000Y-26947870D01*
X63713001Y-26947876D01*
X63719408Y-27007483D01*
X63769702Y-27142328D01*
X63769706Y-27142335D01*
X63855952Y-27257544D01*
X63855955Y-27257547D01*
X63971164Y-27343793D01*
X63971171Y-27343797D01*
X63989143Y-27350500D01*
X64106017Y-27394091D01*
X64165627Y-27400500D01*
X64789502Y-27400499D01*
X64856539Y-27420183D01*
X64902294Y-27472987D01*
X64906688Y-27493188D01*
X64913500Y-27500000D01*
X67713500Y-27500000D01*
X67713500Y-27102172D01*
X67713499Y-27102155D01*
X74013500Y-27102155D01*
X74013500Y-27500000D01*
X75363500Y-27500000D01*
X75863500Y-27500000D01*
X77213500Y-27500000D01*
X77213500Y-27102172D01*
X77213499Y-27102155D01*
X77207098Y-27042627D01*
X77207096Y-27042620D01*
X77156854Y-26907913D01*
X77156850Y-26907906D01*
X77070690Y-26792812D01*
X77070687Y-26792809D01*
X76955593Y-26706649D01*
X76955586Y-26706645D01*
X76820879Y-26656403D01*
X76820872Y-26656401D01*
X76761344Y-26650000D01*
X75863500Y-26650000D01*
X75863500Y-27500000D01*
X75363500Y-27500000D01*
X75363500Y-26650000D01*
X74465655Y-26650000D01*
X74406127Y-26656401D01*
X74406120Y-26656403D01*
X74271413Y-26706645D01*
X74271406Y-26706649D01*
X74156312Y-26792809D01*
X74156309Y-26792812D01*
X74070149Y-26907906D01*
X74070145Y-26907913D01*
X74019903Y-27042620D01*
X74019901Y-27042627D01*
X74013500Y-27102155D01*
X67713499Y-27102155D01*
X67707098Y-27042627D01*
X67707096Y-27042620D01*
X67656854Y-26907913D01*
X67656850Y-26907906D01*
X67570690Y-26792812D01*
X67570687Y-26792809D01*
X67455593Y-26706649D01*
X67455586Y-26706645D01*
X67320879Y-26656403D01*
X67320872Y-26656401D01*
X67261344Y-26650000D01*
X66438000Y-26650000D01*
X66370961Y-26630315D01*
X66325206Y-26577511D01*
X66314000Y-26526000D01*
X66313999Y-26152130D01*
X66313998Y-26152123D01*
X66307591Y-26092517D01*
X66303034Y-26080298D01*
X66289247Y-26043334D01*
X66284262Y-25973643D01*
X66289247Y-25956665D01*
X66291734Y-25949998D01*
X66307591Y-25907483D01*
X66314000Y-25847873D01*
X66313999Y-25052128D01*
X66310967Y-25023920D01*
X75262999Y-25023920D01*
X75291840Y-25168907D01*
X75291843Y-25168917D01*
X75348412Y-25305488D01*
X75348419Y-25305501D01*
X75430548Y-25428415D01*
X75430551Y-25428419D01*
X75535080Y-25532948D01*
X75535084Y-25532951D01*
X75657998Y-25615080D01*
X75658011Y-25615087D01*
X75793793Y-25671329D01*
X75794587Y-25671658D01*
X75794591Y-25671658D01*
X75794592Y-25671659D01*
X75939579Y-25700500D01*
X75939582Y-25700500D01*
X76087420Y-25700500D01*
X76184962Y-25681096D01*
X76232413Y-25671658D01*
X76368995Y-25615084D01*
X76491916Y-25532951D01*
X76596451Y-25428416D01*
X76678584Y-25305495D01*
X76690175Y-25277513D01*
X76734543Y-25170398D01*
X76735158Y-25168913D01*
X76752589Y-25081284D01*
X76764000Y-25023920D01*
X76764000Y-24876079D01*
X76735159Y-24731092D01*
X76735158Y-24731091D01*
X76735158Y-24731087D01*
X76703974Y-24655802D01*
X76678587Y-24594511D01*
X76678580Y-24594498D01*
X76596451Y-24471584D01*
X76596448Y-24471580D01*
X76491919Y-24367051D01*
X76491915Y-24367048D01*
X76369001Y-24284919D01*
X76368988Y-24284912D01*
X76232417Y-24228343D01*
X76232407Y-24228340D01*
X76087420Y-24199500D01*
X76087418Y-24199500D01*
X75939582Y-24199500D01*
X75939580Y-24199500D01*
X75794592Y-24228340D01*
X75794582Y-24228343D01*
X75658011Y-24284912D01*
X75657998Y-24284919D01*
X75535084Y-24367048D01*
X75535080Y-24367051D01*
X75430551Y-24471580D01*
X75430548Y-24471584D01*
X75348419Y-24594498D01*
X75348412Y-24594511D01*
X75291843Y-24731082D01*
X75291840Y-24731092D01*
X75263000Y-24876079D01*
X75263000Y-24876082D01*
X75263000Y-25023918D01*
X75263000Y-25023920D01*
X75262999Y-25023920D01*
X66310967Y-25023920D01*
X66307591Y-24992517D01*
X66301319Y-24975701D01*
X66289247Y-24943334D01*
X66284262Y-24873643D01*
X66289247Y-24856665D01*
X66307589Y-24807488D01*
X66307591Y-24807483D01*
X66314000Y-24747873D01*
X66313999Y-23952128D01*
X66307591Y-23892517D01*
X66288980Y-23842618D01*
X66283995Y-23772927D01*
X66288980Y-23755949D01*
X66307097Y-23707375D01*
X66307098Y-23707372D01*
X66313499Y-23647844D01*
X66313500Y-23647827D01*
X66313500Y-23500000D01*
X65872667Y-23500000D01*
X65864688Y-23499572D01*
X65864683Y-23499678D01*
X65861379Y-23499500D01*
X65861373Y-23499500D01*
X65861366Y-23499500D01*
X64165629Y-23499500D01*
X64162305Y-23499679D01*
X64162299Y-23499573D01*
X64154337Y-23500000D01*
X63713500Y-23500000D01*
X63713500Y-23625500D01*
X63693815Y-23692539D01*
X63641011Y-23738294D01*
X63589500Y-23749500D01*
X63061172Y-23749500D01*
X62994133Y-23729815D01*
X62948378Y-23677011D01*
X62937814Y-23612898D01*
X62946999Y-23522988D01*
X62947000Y-23522973D01*
X62947000Y-23385500D01*
X61596000Y-23385500D01*
X61528961Y-23365815D01*
X61483206Y-23313011D01*
X61472000Y-23261500D01*
X61472000Y-23009500D01*
X61491685Y-22942461D01*
X61544489Y-22896706D01*
X61596000Y-22885500D01*
X62965681Y-22885500D01*
X62985843Y-22874490D01*
X63053158Y-22878613D01*
X63066745Y-22883368D01*
X63066752Y-22883368D01*
X63066753Y-22883369D01*
X63245996Y-22903565D01*
X63246000Y-22903565D01*
X63246004Y-22903565D01*
X63425249Y-22883369D01*
X63425251Y-22883368D01*
X63425255Y-22883368D01*
X63425258Y-22883366D01*
X63425262Y-22883366D01*
X63548545Y-22840227D01*
X63618323Y-22836664D01*
X63678951Y-22871393D01*
X63711179Y-22933386D01*
X63713500Y-22957268D01*
X63713500Y-23000000D01*
X64154333Y-23000000D01*
X64162311Y-23000427D01*
X64162317Y-23000322D01*
X64165602Y-23000497D01*
X64165627Y-23000500D01*
X65861372Y-23000499D01*
X65861373Y-23000498D01*
X65864695Y-23000321D01*
X65864700Y-23000426D01*
X65872663Y-23000000D01*
X66313500Y-23000000D01*
X66313500Y-22852172D01*
X66313499Y-22852155D01*
X66307098Y-22792627D01*
X66288979Y-22744048D01*
X66283995Y-22674356D01*
X66288976Y-22657391D01*
X66307591Y-22607483D01*
X66314000Y-22547873D01*
X66313999Y-21752128D01*
X66307591Y-21692517D01*
X66289247Y-21643334D01*
X66284262Y-21573643D01*
X66289247Y-21556665D01*
X66307589Y-21507488D01*
X66307591Y-21507483D01*
X66314000Y-21447873D01*
X66313999Y-20652128D01*
X66307591Y-20592517D01*
X66289803Y-20544825D01*
X66289247Y-20543334D01*
X66284262Y-20473643D01*
X66289247Y-20456665D01*
X66304939Y-20414594D01*
X66307591Y-20407483D01*
X66314000Y-20347873D01*
X66313999Y-19552128D01*
X66307591Y-19492517D01*
X66288980Y-19442618D01*
X66283995Y-19372927D01*
X66288980Y-19355949D01*
X66307097Y-19307375D01*
X66307098Y-19307372D01*
X66313499Y-19247844D01*
X66313500Y-19247827D01*
X66313500Y-19100000D01*
X65872667Y-19100000D01*
X65864688Y-19099572D01*
X65864683Y-19099678D01*
X65861379Y-19099500D01*
X65861373Y-19099500D01*
X65861366Y-19099500D01*
X64165629Y-19099500D01*
X64162305Y-19099679D01*
X64162299Y-19099573D01*
X64154337Y-19100000D01*
X63713500Y-19100000D01*
X63713500Y-19225500D01*
X63693815Y-19292539D01*
X63641011Y-19338294D01*
X63589500Y-19349500D01*
X63430098Y-19349500D01*
X63363059Y-19329815D01*
X63342417Y-19313181D01*
X62733590Y-18704355D01*
X62733588Y-18704352D01*
X62614715Y-18585479D01*
X62608494Y-18581888D01*
X62560278Y-18531322D01*
X62547054Y-18462715D01*
X62573021Y-18397850D01*
X62629935Y-18357320D01*
X62670493Y-18350500D01*
X63589500Y-18350500D01*
X63656539Y-18370185D01*
X63702294Y-18422989D01*
X63713500Y-18474500D01*
X63713500Y-18600000D01*
X64154333Y-18600000D01*
X64162311Y-18600427D01*
X64162317Y-18600322D01*
X64165602Y-18600497D01*
X64165627Y-18600500D01*
X65861372Y-18600499D01*
X65861373Y-18600498D01*
X65864695Y-18600321D01*
X65864700Y-18600426D01*
X65872663Y-18600000D01*
X66313500Y-18600000D01*
X66313500Y-18452172D01*
X66313499Y-18452155D01*
X66307098Y-18392627D01*
X66288979Y-18344048D01*
X66283995Y-18274356D01*
X66288976Y-18257391D01*
X66307591Y-18207483D01*
X66314000Y-18147873D01*
X66313999Y-17352128D01*
X66307591Y-17292517D01*
X66269512Y-17190423D01*
X66257296Y-17157669D01*
X66257293Y-17157664D01*
X66171047Y-17042455D01*
X66171044Y-17042452D01*
X66146289Y-17023920D01*
X75262999Y-17023920D01*
X75291840Y-17168907D01*
X75291843Y-17168917D01*
X75348412Y-17305488D01*
X75348419Y-17305501D01*
X75430548Y-17428415D01*
X75430551Y-17428419D01*
X75535080Y-17532948D01*
X75535084Y-17532951D01*
X75657998Y-17615080D01*
X75658011Y-17615087D01*
X75725726Y-17643135D01*
X75794587Y-17671658D01*
X75794591Y-17671658D01*
X75794592Y-17671659D01*
X75939579Y-17700500D01*
X75939582Y-17700500D01*
X76087420Y-17700500D01*
X76218271Y-17674471D01*
X76232413Y-17671658D01*
X76368995Y-17615084D01*
X76491916Y-17532951D01*
X76596451Y-17428416D01*
X76678584Y-17305495D01*
X76735158Y-17168913D01*
X76748441Y-17102135D01*
X76764000Y-17023920D01*
X76764000Y-16876079D01*
X76735159Y-16731092D01*
X76735158Y-16731091D01*
X76735158Y-16731087D01*
X76705118Y-16658563D01*
X76678587Y-16594511D01*
X76678580Y-16594498D01*
X76596451Y-16471584D01*
X76596448Y-16471580D01*
X76491919Y-16367051D01*
X76491915Y-16367048D01*
X76369001Y-16284919D01*
X76368988Y-16284912D01*
X76232417Y-16228343D01*
X76232407Y-16228340D01*
X76087420Y-16199500D01*
X76087418Y-16199500D01*
X75939582Y-16199500D01*
X75939580Y-16199500D01*
X75794592Y-16228340D01*
X75794582Y-16228343D01*
X75658011Y-16284912D01*
X75657998Y-16284919D01*
X75535084Y-16367048D01*
X75535080Y-16367051D01*
X75430551Y-16471580D01*
X75430548Y-16471584D01*
X75348419Y-16594498D01*
X75348412Y-16594511D01*
X75291843Y-16731082D01*
X75291840Y-16731092D01*
X75263000Y-16876079D01*
X75263000Y-16876082D01*
X75263000Y-17023918D01*
X75263000Y-17023920D01*
X75262999Y-17023920D01*
X66146289Y-17023920D01*
X66055835Y-16956206D01*
X66055828Y-16956202D01*
X65920982Y-16905908D01*
X65920983Y-16905908D01*
X65861383Y-16899501D01*
X65861381Y-16899500D01*
X65861373Y-16899500D01*
X65861364Y-16899500D01*
X64165629Y-16899500D01*
X64165623Y-16899501D01*
X64106016Y-16905908D01*
X63971171Y-16956202D01*
X63971164Y-16956206D01*
X63855957Y-17042451D01*
X63855951Y-17042457D01*
X63813015Y-17099812D01*
X63757081Y-17141682D01*
X63713749Y-17149500D01*
X56878939Y-17149500D01*
X56848454Y-17157668D01*
X56848455Y-17157669D01*
X56726214Y-17190423D01*
X56726209Y-17190426D01*
X56589290Y-17269475D01*
X56589282Y-17269481D01*
X56477478Y-17381286D01*
X55913582Y-17945181D01*
X55852259Y-17978666D01*
X55825901Y-17981500D01*
X55125998Y-17981500D01*
X55125980Y-17981501D01*
X55023203Y-17992000D01*
X55023200Y-17992001D01*
X54856668Y-18047185D01*
X54856663Y-18047187D01*
X54707345Y-18139287D01*
X54592375Y-18254257D01*
X54531052Y-18287741D01*
X54461360Y-18282757D01*
X54413711Y-18248058D01*
X54412819Y-18248951D01*
X54283657Y-18119789D01*
X54283656Y-18119788D01*
X54172110Y-18050986D01*
X54134336Y-18027687D01*
X54134331Y-18027685D01*
X54132862Y-18027198D01*
X53967797Y-17972501D01*
X53967795Y-17972500D01*
X53865010Y-17962000D01*
X52814998Y-17962000D01*
X52814980Y-17962001D01*
X52712203Y-17972500D01*
X52712200Y-17972501D01*
X52545668Y-18027685D01*
X52545663Y-18027687D01*
X52396342Y-18119789D01*
X52272289Y-18243842D01*
X52180187Y-18393163D01*
X52180185Y-18393168D01*
X52157140Y-18462715D01*
X52125001Y-18559703D01*
X52125001Y-18559704D01*
X52125000Y-18559704D01*
X52114500Y-18662483D01*
X52114500Y-19197271D01*
X52094815Y-19264310D01*
X52042011Y-19310065D01*
X51972853Y-19320009D01*
X51925403Y-19302810D01*
X51848124Y-19255143D01*
X51848119Y-19255141D01*
X51681697Y-19199994D01*
X51681690Y-19199993D01*
X51578986Y-19189500D01*
X51304000Y-19189500D01*
X51304000Y-20403000D01*
X51284315Y-20470039D01*
X51231511Y-20515794D01*
X51180000Y-20527000D01*
X49829001Y-20527000D01*
X49829001Y-20664486D01*
X49839494Y-20767197D01*
X49894641Y-20933619D01*
X49894643Y-20933624D01*
X49986684Y-21082845D01*
X50110655Y-21206816D01*
X50110659Y-21206819D01*
X50113656Y-21208668D01*
X50115279Y-21210472D01*
X50116323Y-21211298D01*
X50116181Y-21211476D01*
X50160381Y-21260616D01*
X50171602Y-21329579D01*
X50143759Y-21393661D01*
X50113661Y-21419741D01*
X50110349Y-21421783D01*
X50110343Y-21421788D01*
X49986289Y-21545842D01*
X49895771Y-21692597D01*
X49843823Y-21739321D01*
X49790232Y-21751500D01*
X49609057Y-21751500D01*
X49450942Y-21751500D01*
X49421083Y-21759501D01*
X49380127Y-21770475D01*
X49298214Y-21792423D01*
X49298209Y-21792426D01*
X49161290Y-21871475D01*
X49161282Y-21871481D01*
X49049478Y-21983286D01*
X49049477Y-21983287D01*
X49003464Y-22029299D01*
X48942141Y-22062783D01*
X48929668Y-22064837D01*
X48842750Y-22074630D01*
X48672478Y-22134210D01*
X48519737Y-22230184D01*
X48392184Y-22357737D01*
X48296211Y-22510476D01*
X48236631Y-22680745D01*
X48236630Y-22680750D01*
X48216435Y-22859996D01*
X48216435Y-22860003D01*
X48236630Y-23039249D01*
X48236631Y-23039254D01*
X48296211Y-23209523D01*
X48392184Y-23362262D01*
X48519738Y-23489816D01*
X48672478Y-23585789D01*
X48764532Y-23618000D01*
X48842745Y-23645368D01*
X48842750Y-23645369D01*
X49021996Y-23665565D01*
X49022000Y-23665565D01*
X49022004Y-23665565D01*
X49201249Y-23645369D01*
X49201252Y-23645368D01*
X49201255Y-23645368D01*
X49371522Y-23585789D01*
X49524262Y-23489816D01*
X49651816Y-23362262D01*
X49747789Y-23209522D01*
X49759628Y-23175687D01*
X49800348Y-23118911D01*
X49865300Y-23093162D01*
X49933862Y-23106617D01*
X49982207Y-23151540D01*
X49986288Y-23158156D01*
X50110344Y-23282212D01*
X50259666Y-23374314D01*
X50426203Y-23429499D01*
X50528991Y-23440000D01*
X51390107Y-23439999D01*
X51422192Y-23444221D01*
X51432767Y-23447055D01*
X51432771Y-23447058D01*
X51432772Y-23447057D01*
X51446215Y-23450658D01*
X51482942Y-23460500D01*
X51482943Y-23460500D01*
X52064893Y-23460500D01*
X52131932Y-23480185D01*
X52177687Y-23532989D01*
X52180394Y-23548305D01*
X52191205Y-23560000D01*
X52456685Y-23560000D01*
X52519806Y-23577268D01*
X52578102Y-23611744D01*
X52599635Y-23618000D01*
X52735926Y-23657597D01*
X52735929Y-23657597D01*
X52735931Y-23657598D01*
X52772806Y-23660500D01*
X52772814Y-23660500D01*
X53929186Y-23660500D01*
X53929194Y-23660500D01*
X53966069Y-23657598D01*
X53966071Y-23657597D01*
X53966073Y-23657597D01*
X54028527Y-23639452D01*
X54123898Y-23611744D01*
X54182194Y-23577268D01*
X54245315Y-23560000D01*
X54510794Y-23560000D01*
X54535057Y-23533752D01*
X54595018Y-23497885D01*
X54664852Y-23500129D01*
X54704512Y-23524530D01*
X54705469Y-23523298D01*
X54711632Y-23528078D01*
X54711635Y-23528081D01*
X54853102Y-23611744D01*
X54874635Y-23618000D01*
X55010926Y-23657597D01*
X55010929Y-23657597D01*
X55010931Y-23657598D01*
X55047806Y-23660500D01*
X55047814Y-23660500D01*
X56204186Y-23660500D01*
X56204194Y-23660500D01*
X56241069Y-23657598D01*
X56241071Y-23657597D01*
X56241073Y-23657597D01*
X56398891Y-23611746D01*
X56398890Y-23611746D01*
X56398898Y-23611744D01*
X56422449Y-23597815D01*
X56490168Y-23580633D01*
X56556431Y-23602791D01*
X56591106Y-23639451D01*
X56596273Y-23647827D01*
X56615287Y-23678655D01*
X56708951Y-23772319D01*
X56742436Y-23833642D01*
X56737452Y-23903334D01*
X56708952Y-23947679D01*
X56660942Y-23995690D01*
X56623312Y-24033320D01*
X56561988Y-24066804D01*
X56492297Y-24061820D01*
X56472510Y-24052370D01*
X56398696Y-24008717D01*
X56398693Y-24008716D01*
X56240995Y-23962900D01*
X56240989Y-23962899D01*
X56204149Y-23960000D01*
X55876000Y-23960000D01*
X55876000Y-24886000D01*
X55856315Y-24953039D01*
X55803511Y-24998794D01*
X55752000Y-25010000D01*
X55500000Y-25010000D01*
X55432961Y-24990315D01*
X55387206Y-24937511D01*
X55376000Y-24886000D01*
X55376000Y-23960000D01*
X55047850Y-23960000D01*
X55011010Y-23962899D01*
X55011004Y-23962900D01*
X54853306Y-24008716D01*
X54853303Y-24008717D01*
X54711947Y-24092314D01*
X54705778Y-24097100D01*
X54704465Y-24095407D01*
X54652794Y-24123613D01*
X54583103Y-24118618D01*
X54535399Y-24086615D01*
X54510796Y-24060000D01*
X54245315Y-24060000D01*
X54182194Y-24042732D01*
X54134679Y-24014632D01*
X54123898Y-24008256D01*
X54123897Y-24008255D01*
X54123896Y-24008255D01*
X54123893Y-24008254D01*
X53966073Y-23962402D01*
X53966067Y-23962401D01*
X53929201Y-23959500D01*
X53929194Y-23959500D01*
X52772806Y-23959500D01*
X52772798Y-23959500D01*
X52735932Y-23962401D01*
X52735926Y-23962402D01*
X52578106Y-24008254D01*
X52578103Y-24008255D01*
X52519806Y-24042732D01*
X52456685Y-24060000D01*
X52191205Y-24060000D01*
X52191204Y-24060001D01*
X52191399Y-24062488D01*
X52191400Y-24062494D01*
X52237216Y-24220193D01*
X52237220Y-24220203D01*
X52237927Y-24221398D01*
X52238195Y-24222454D01*
X52240316Y-24227356D01*
X52239524Y-24227698D01*
X52255103Y-24289123D01*
X52239493Y-24342284D01*
X52239855Y-24342441D01*
X52238587Y-24345369D01*
X52237927Y-24347620D01*
X52236759Y-24349594D01*
X52236754Y-24349607D01*
X52190902Y-24507426D01*
X52190901Y-24507432D01*
X52188000Y-24544298D01*
X52188000Y-24975701D01*
X52190901Y-25012567D01*
X52190902Y-25012573D01*
X52236754Y-25170393D01*
X52236755Y-25170396D01*
X52320232Y-25311550D01*
X52320418Y-25311864D01*
X52320423Y-25311870D01*
X52436629Y-25428076D01*
X52436638Y-25428083D01*
X52497551Y-25464107D01*
X52545235Y-25515176D01*
X52557738Y-25583918D01*
X52531092Y-25648507D01*
X52522112Y-25658520D01*
X52429287Y-25751345D01*
X52337187Y-25900663D01*
X52337185Y-25900668D01*
X52313004Y-25973643D01*
X52282001Y-26067203D01*
X52282001Y-26067204D01*
X52282000Y-26067204D01*
X52271500Y-26169983D01*
X52271500Y-26869901D01*
X52251815Y-26936940D01*
X52235180Y-26957582D01*
X47764963Y-31427802D01*
X46292584Y-32900181D01*
X46231261Y-32933666D01*
X46204903Y-32936500D01*
X45915500Y-32936500D01*
X45848461Y-32916815D01*
X45802706Y-32864011D01*
X45791500Y-32812500D01*
X45791500Y-32762000D01*
X44578000Y-32762000D01*
X44510961Y-32742315D01*
X44465206Y-32689511D01*
X44454000Y-32638000D01*
X44454000Y-32262000D01*
X44954000Y-32262000D01*
X45791499Y-32262000D01*
X45791499Y-31987028D01*
X45791498Y-31987013D01*
X45781005Y-31884302D01*
X45725858Y-31717880D01*
X45725856Y-31717875D01*
X45633815Y-31568654D01*
X45509845Y-31444684D01*
X45360624Y-31352643D01*
X45360619Y-31352641D01*
X45194197Y-31297494D01*
X45194190Y-31297493D01*
X45091486Y-31287000D01*
X44954000Y-31287000D01*
X44954000Y-32262000D01*
X44454000Y-32262000D01*
X44454000Y-31287000D01*
X44344632Y-31287000D01*
X44277593Y-31267315D01*
X44231838Y-31214511D01*
X44221412Y-31149116D01*
X44239565Y-30988002D01*
X44239565Y-30987996D01*
X44219369Y-30808750D01*
X44219368Y-30808745D01*
X44159789Y-30638478D01*
X44156488Y-30633225D01*
X44099086Y-30541870D01*
X44063816Y-30485738D01*
X43991433Y-30413355D01*
X43957948Y-30352032D01*
X43962932Y-30282340D01*
X43991429Y-30237998D01*
X44285521Y-29943906D01*
X44346842Y-29910424D01*
X44373200Y-29907590D01*
X44408180Y-29907590D01*
X44408183Y-29907590D01*
X44560911Y-29866666D01*
X44615228Y-29835306D01*
X44615229Y-29835306D01*
X44697835Y-29787613D01*
X44697834Y-29787613D01*
X44697842Y-29787609D01*
X44809646Y-29675805D01*
X44809646Y-29675803D01*
X44819850Y-29665600D01*
X44819854Y-29665595D01*
X45316506Y-29168943D01*
X45316511Y-29168939D01*
X45326714Y-29158735D01*
X45326716Y-29158735D01*
X45438520Y-29046931D01*
X45500907Y-28938873D01*
X45517577Y-28910000D01*
X45558500Y-28757272D01*
X45558500Y-28757270D01*
X45560603Y-28749422D01*
X45563066Y-28750081D01*
X45583821Y-28701269D01*
X45587804Y-28696273D01*
X45587816Y-28696262D01*
X45683789Y-28543522D01*
X45743368Y-28373255D01*
X45744662Y-28361771D01*
X45763565Y-28194003D01*
X45763565Y-28193996D01*
X45743369Y-28014750D01*
X45743368Y-28014745D01*
X45683789Y-27844478D01*
X45658866Y-27804814D01*
X45600107Y-27711299D01*
X45587816Y-27691738D01*
X45460262Y-27564184D01*
X45373230Y-27509498D01*
X45307523Y-27468211D01*
X45137254Y-27408631D01*
X45137249Y-27408630D01*
X44958004Y-27388435D01*
X44957996Y-27388435D01*
X44778750Y-27408630D01*
X44778745Y-27408631D01*
X44608476Y-27468211D01*
X44455737Y-27564184D01*
X44328184Y-27691737D01*
X44328182Y-27691740D01*
X44310493Y-27719892D01*
X44258158Y-27766183D01*
X44189104Y-27776830D01*
X44125256Y-27748454D01*
X44086885Y-27690064D01*
X44081500Y-27653919D01*
X44081500Y-24163329D01*
X44081500Y-24163327D01*
X44046665Y-24033320D01*
X44040577Y-24010599D01*
X44012750Y-23962402D01*
X43992644Y-23927577D01*
X43961520Y-23873668D01*
X43849716Y-23761864D01*
X43849715Y-23761863D01*
X43845385Y-23757533D01*
X43845374Y-23757523D01*
X39977364Y-19889513D01*
X49829000Y-19889513D01*
X49829000Y-20027000D01*
X50804000Y-20027000D01*
X50804000Y-19189500D01*
X50529029Y-19189500D01*
X50529012Y-19189501D01*
X50426302Y-19199994D01*
X50259880Y-19255141D01*
X50259875Y-19255143D01*
X50110654Y-19347184D01*
X49986684Y-19471154D01*
X49894643Y-19620375D01*
X49894641Y-19620380D01*
X49839494Y-19786802D01*
X49839493Y-19786809D01*
X49829000Y-19889513D01*
X39977364Y-19889513D01*
X36474875Y-16387024D01*
X38314500Y-16387024D01*
X38314500Y-16612975D01*
X38349847Y-16836148D01*
X38419668Y-17051038D01*
X38419669Y-17051041D01*
X38490690Y-17190426D01*
X38522250Y-17252366D01*
X38655062Y-17435166D01*
X38814834Y-17594938D01*
X38997634Y-17727750D01*
X39092330Y-17776000D01*
X39198958Y-17830330D01*
X39198961Y-17830331D01*
X39306406Y-17865241D01*
X39413853Y-17900153D01*
X39637024Y-17935500D01*
X39637025Y-17935500D01*
X39862975Y-17935500D01*
X39862976Y-17935500D01*
X40086147Y-17900153D01*
X40301041Y-17830330D01*
X40502366Y-17727750D01*
X40685166Y-17594938D01*
X40844938Y-17435166D01*
X40977750Y-17252366D01*
X41080330Y-17051041D01*
X41150153Y-16836147D01*
X41185500Y-16612976D01*
X41185500Y-16387024D01*
X41150153Y-16163853D01*
X41093891Y-15990695D01*
X41080331Y-15948961D01*
X41080330Y-15948958D01*
X40977749Y-15747633D01*
X40844938Y-15564834D01*
X40685166Y-15405062D01*
X40502366Y-15272250D01*
X40439064Y-15239996D01*
X40301041Y-15169669D01*
X40301038Y-15169668D01*
X40086148Y-15099847D01*
X39974561Y-15082173D01*
X39862976Y-15064500D01*
X39637024Y-15064500D01*
X39562633Y-15076282D01*
X39413851Y-15099847D01*
X39198961Y-15169668D01*
X39198958Y-15169669D01*
X38997633Y-15272250D01*
X38893339Y-15348024D01*
X38814834Y-15405062D01*
X38814832Y-15405064D01*
X38814831Y-15405064D01*
X38655064Y-15564831D01*
X38655064Y-15564832D01*
X38655062Y-15564834D01*
X38614982Y-15620000D01*
X38522250Y-15747633D01*
X38419669Y-15948958D01*
X38419668Y-15948961D01*
X38349847Y-16163851D01*
X38314500Y-16387024D01*
X36474875Y-16387024D01*
X34085695Y-13997844D01*
X64813500Y-13997844D01*
X64819901Y-14057372D01*
X64819903Y-14057379D01*
X64870145Y-14192086D01*
X64870149Y-14192093D01*
X64956309Y-14307187D01*
X64956312Y-14307190D01*
X65071406Y-14393350D01*
X65071413Y-14393354D01*
X65206120Y-14443596D01*
X65206127Y-14443598D01*
X65265655Y-14449999D01*
X65265672Y-14450000D01*
X65813500Y-14450000D01*
X66313500Y-14450000D01*
X66861328Y-14450000D01*
X66861344Y-14449999D01*
X66920872Y-14443598D01*
X66920879Y-14443596D01*
X67055586Y-14393354D01*
X67055593Y-14393350D01*
X67170687Y-14307190D01*
X67170690Y-14307187D01*
X67256850Y-14192093D01*
X67256854Y-14192086D01*
X67307096Y-14057379D01*
X67307098Y-14057372D01*
X67313499Y-13997844D01*
X67313500Y-13997827D01*
X67313500Y-13400000D01*
X66313500Y-13400000D01*
X66313500Y-14450000D01*
X65813500Y-14450000D01*
X65813500Y-13400000D01*
X64813500Y-13400000D01*
X64813500Y-13997844D01*
X34085695Y-13997844D01*
X32390006Y-12302155D01*
X64813500Y-12302155D01*
X64813500Y-12900000D01*
X65813500Y-12900000D01*
X66313500Y-12900000D01*
X67313500Y-12900000D01*
X67313500Y-12897844D01*
X74013500Y-12897844D01*
X74019901Y-12957372D01*
X74019903Y-12957379D01*
X74070145Y-13092086D01*
X74070149Y-13092093D01*
X74156309Y-13207187D01*
X74156312Y-13207190D01*
X74271406Y-13293350D01*
X74271413Y-13293354D01*
X74406120Y-13343596D01*
X74406127Y-13343598D01*
X74465655Y-13349999D01*
X74465672Y-13350000D01*
X75363500Y-13350000D01*
X75863500Y-13350000D01*
X76761328Y-13350000D01*
X76761344Y-13349999D01*
X76820872Y-13343598D01*
X76820879Y-13343596D01*
X76955586Y-13293354D01*
X76955593Y-13293350D01*
X77070687Y-13207190D01*
X77070690Y-13207187D01*
X77156850Y-13092093D01*
X77156854Y-13092086D01*
X77207096Y-12957379D01*
X77207098Y-12957372D01*
X77213499Y-12897844D01*
X77213500Y-12897827D01*
X77213500Y-12500000D01*
X75863500Y-12500000D01*
X75863500Y-13350000D01*
X75363500Y-13350000D01*
X75363500Y-12500000D01*
X74013500Y-12500000D01*
X74013500Y-12897844D01*
X67313500Y-12897844D01*
X67313500Y-12302172D01*
X67313499Y-12302155D01*
X67307098Y-12242627D01*
X67307096Y-12242620D01*
X67256854Y-12107913D01*
X67256850Y-12107906D01*
X67170690Y-11992812D01*
X67170687Y-11992809D01*
X67055593Y-11906649D01*
X67055586Y-11906645D01*
X66920879Y-11856403D01*
X66920872Y-11856401D01*
X66861344Y-11850000D01*
X66313500Y-11850000D01*
X66313500Y-12900000D01*
X65813500Y-12900000D01*
X65813500Y-11850000D01*
X65265655Y-11850000D01*
X65206127Y-11856401D01*
X65206120Y-11856403D01*
X65071413Y-11906645D01*
X65071406Y-11906649D01*
X64956312Y-11992809D01*
X64956309Y-11992812D01*
X64870149Y-12107906D01*
X64870145Y-12107913D01*
X64819903Y-12242620D01*
X64819901Y-12242627D01*
X64813500Y-12302155D01*
X32390006Y-12302155D01*
X31934206Y-11846355D01*
X31934204Y-11846352D01*
X31815333Y-11727481D01*
X31815332Y-11727480D01*
X31728520Y-11677360D01*
X31728520Y-11677359D01*
X31728516Y-11677358D01*
X31678401Y-11648423D01*
X31525673Y-11607499D01*
X31367559Y-11607499D01*
X31359963Y-11607499D01*
X31359947Y-11607500D01*
X21406670Y-11607500D01*
X21406654Y-11607499D01*
X21399058Y-11607499D01*
X21240943Y-11607499D01*
X21164579Y-11627961D01*
X21088214Y-11648423D01*
X21088209Y-11648426D01*
X20951290Y-11727475D01*
X20951282Y-11727481D01*
X20707582Y-11971181D01*
X20646259Y-12004666D01*
X20619901Y-12007500D01*
X19919998Y-12007500D01*
X19919980Y-12007501D01*
X19817203Y-12018000D01*
X19817200Y-12018001D01*
X19650668Y-12073185D01*
X19650663Y-12073187D01*
X19501342Y-12165289D01*
X19377289Y-12289342D01*
X19285187Y-12438663D01*
X19285186Y-12438666D01*
X19230001Y-12605203D01*
X19230001Y-12605204D01*
X19230000Y-12605204D01*
X19219500Y-12707983D01*
X19219500Y-13569901D01*
X19199815Y-13636940D01*
X19183181Y-13657582D01*
X17807437Y-15033325D01*
X17746114Y-15066810D01*
X17676422Y-15061826D01*
X17620489Y-15019954D01*
X17596398Y-14958245D01*
X17587006Y-14866303D01*
X17531858Y-14699880D01*
X17531856Y-14699875D01*
X17439815Y-14550654D01*
X17315845Y-14426684D01*
X17166624Y-14334643D01*
X17166619Y-14334641D01*
X17000197Y-14279494D01*
X17000190Y-14279493D01*
X16897486Y-14269000D01*
X16760000Y-14269000D01*
X16760000Y-15620000D01*
X16740315Y-15687039D01*
X16687511Y-15732794D01*
X16636000Y-15744000D01*
X16384000Y-15744000D01*
X16316961Y-15724315D01*
X16271206Y-15671511D01*
X16260000Y-15620000D01*
X16260000Y-14269000D01*
X16122527Y-14269000D01*
X16122512Y-14269001D01*
X16019802Y-14279494D01*
X15853380Y-14334641D01*
X15853375Y-14334643D01*
X15704154Y-14426684D01*
X15580183Y-14550655D01*
X15580179Y-14550660D01*
X15578326Y-14553665D01*
X15576518Y-14555290D01*
X15575702Y-14556323D01*
X15575525Y-14556183D01*
X15526374Y-14600385D01*
X15457411Y-14611601D01*
X15393331Y-14583752D01*
X15367253Y-14553653D01*
X15367237Y-14553628D01*
X15365212Y-14550344D01*
X15241156Y-14426288D01*
X15091834Y-14334186D01*
X14925297Y-14279001D01*
X14925295Y-14279000D01*
X14822510Y-14268500D01*
X14047498Y-14268500D01*
X14047480Y-14268501D01*
X13944703Y-14279000D01*
X13944700Y-14279001D01*
X13778168Y-14334185D01*
X13778163Y-14334187D01*
X13628842Y-14426289D01*
X13504789Y-14550342D01*
X13412687Y-14699663D01*
X13412685Y-14699668D01*
X13412615Y-14699880D01*
X13357501Y-14866203D01*
X13357501Y-14866204D01*
X13357500Y-14866204D01*
X13347000Y-14968983D01*
X13347000Y-16019001D01*
X13347001Y-16019019D01*
X13357500Y-16121796D01*
X13357501Y-16121799D01*
X13412685Y-16288331D01*
X13412687Y-16288336D01*
X13438967Y-16330943D01*
X13504788Y-16437656D01*
X13628844Y-16561712D01*
X13778166Y-16653814D01*
X13792504Y-16658565D01*
X13849947Y-16698334D01*
X13876772Y-16762849D01*
X13877500Y-16776270D01*
X13877500Y-17439330D01*
X13877499Y-17439348D01*
X13877499Y-17576096D01*
X13857814Y-17643135D01*
X13828986Y-17674471D01*
X13815967Y-17684460D01*
X13815964Y-17684464D01*
X13754349Y-17764763D01*
X13725719Y-17802074D01*
X13668991Y-17939027D01*
X13668990Y-17939030D01*
X13668839Y-17940183D01*
X13668440Y-17941083D01*
X13666888Y-17946878D01*
X13665984Y-17946635D01*
X13640574Y-18004080D01*
X13582250Y-18042552D01*
X13545900Y-18048000D01*
X13382941Y-18048000D01*
X13315902Y-18028315D01*
X13295260Y-18011682D01*
X13256078Y-17972500D01*
X13202262Y-17918684D01*
X13129399Y-17872901D01*
X13049523Y-17822711D01*
X12879254Y-17763131D01*
X12879249Y-17763130D01*
X12700004Y-17742935D01*
X12699996Y-17742935D01*
X12520750Y-17763130D01*
X12520745Y-17763131D01*
X12350476Y-17822711D01*
X12197737Y-17918684D01*
X12070184Y-18046237D01*
X11974210Y-18198978D01*
X11914630Y-18369250D01*
X11906898Y-18437883D01*
X11879832Y-18502297D01*
X11822237Y-18541852D01*
X11783678Y-18548000D01*
X9034597Y-18548000D01*
X8967558Y-18528315D01*
X8946916Y-18511681D01*
X8073590Y-17638355D01*
X8073588Y-17638352D01*
X7954717Y-17519481D01*
X7954716Y-17519480D01*
X7867904Y-17469360D01*
X7867904Y-17469359D01*
X7867900Y-17469358D01*
X7817785Y-17440423D01*
X7665057Y-17399499D01*
X7506943Y-17399499D01*
X7499347Y-17399499D01*
X7499331Y-17399500D01*
X6474499Y-17399500D01*
X6407460Y-17379815D01*
X6361705Y-17327011D01*
X6350499Y-17275500D01*
X6350499Y-17102129D01*
X6350498Y-17102123D01*
X6350497Y-17102116D01*
X6344091Y-17042517D01*
X6344066Y-17042451D01*
X6293797Y-16907671D01*
X6293793Y-16907664D01*
X6207547Y-16792455D01*
X6207544Y-16792452D01*
X6092335Y-16706206D01*
X6092328Y-16706202D01*
X5957482Y-16655908D01*
X5957483Y-16655908D01*
X5897883Y-16649501D01*
X5897881Y-16649500D01*
X5897873Y-16649500D01*
X5897864Y-16649500D01*
X4102129Y-16649500D01*
X4102123Y-16649501D01*
X4042516Y-16655908D01*
X3907671Y-16706202D01*
X3907664Y-16706206D01*
X3792455Y-16792452D01*
X3792452Y-16792455D01*
X3706206Y-16907664D01*
X3706202Y-16907671D01*
X3655908Y-17042517D01*
X3649749Y-17099812D01*
X3649501Y-17102123D01*
X3649500Y-17102135D01*
X3649500Y-18897870D01*
X3649501Y-18897876D01*
X3655908Y-18957483D01*
X3706202Y-19092328D01*
X3706206Y-19092335D01*
X3792452Y-19207544D01*
X3792455Y-19207547D01*
X3907664Y-19293793D01*
X3907671Y-19293797D01*
X4039081Y-19342810D01*
X4095015Y-19384681D01*
X4119432Y-19450145D01*
X4104580Y-19518418D01*
X4083430Y-19546673D01*
X3961503Y-19668600D01*
X3825965Y-19862169D01*
X3825964Y-19862171D01*
X3764058Y-19994929D01*
X3729309Y-20069450D01*
X3726098Y-20076335D01*
X3726094Y-20076344D01*
X3664938Y-20304586D01*
X3664936Y-20304596D01*
X3644341Y-20539999D01*
X500500Y-20539999D01*
X500500Y-11602155D01*
X74013500Y-11602155D01*
X74013500Y-12000000D01*
X75363500Y-12000000D01*
X75863500Y-12000000D01*
X77213500Y-12000000D01*
X77213500Y-11602172D01*
X77213499Y-11602155D01*
X77207098Y-11542627D01*
X77207096Y-11542620D01*
X77156854Y-11407913D01*
X77156850Y-11407906D01*
X77070690Y-11292812D01*
X77070687Y-11292809D01*
X76955593Y-11206649D01*
X76955586Y-11206645D01*
X76820879Y-11156403D01*
X76820872Y-11156401D01*
X76761344Y-11150000D01*
X75863500Y-11150000D01*
X75863500Y-12000000D01*
X75363500Y-12000000D01*
X75363500Y-11150000D01*
X74465655Y-11150000D01*
X74406127Y-11156401D01*
X74406120Y-11156403D01*
X74271413Y-11206645D01*
X74271406Y-11206649D01*
X74156312Y-11292809D01*
X74156309Y-11292812D01*
X74070149Y-11407906D01*
X74070145Y-11407913D01*
X74019903Y-11542620D01*
X74019901Y-11542627D01*
X74013500Y-11602155D01*
X500500Y-11602155D01*
X500500Y-5002706D01*
X500618Y-4997297D01*
X503377Y-4934108D01*
X505796Y-4878711D01*
X3149500Y-4878711D01*
X3149500Y-5121288D01*
X3181161Y-5361785D01*
X3243947Y-5596104D01*
X3336773Y-5820205D01*
X3336776Y-5820212D01*
X3458064Y-6030289D01*
X3458066Y-6030292D01*
X3458067Y-6030293D01*
X3605733Y-6222736D01*
X3605739Y-6222743D01*
X3777256Y-6394260D01*
X3777262Y-6394265D01*
X3969711Y-6541936D01*
X4179788Y-6663224D01*
X4403900Y-6756054D01*
X4638211Y-6818838D01*
X4818586Y-6842584D01*
X4878711Y-6850500D01*
X4878712Y-6850500D01*
X5121289Y-6850500D01*
X5169388Y-6844167D01*
X5361789Y-6818838D01*
X5596100Y-6756054D01*
X5820212Y-6663224D01*
X6030289Y-6541936D01*
X6222738Y-6394265D01*
X6394265Y-6222738D01*
X6541936Y-6030289D01*
X6663224Y-5820212D01*
X6756054Y-5596100D01*
X6818838Y-5361789D01*
X6850500Y-5121288D01*
X6850500Y-4878712D01*
X6850500Y-4878711D01*
X38149500Y-4878711D01*
X38149500Y-5121288D01*
X38181161Y-5361785D01*
X38243947Y-5596104D01*
X38336773Y-5820205D01*
X38336776Y-5820212D01*
X38458064Y-6030289D01*
X38458066Y-6030292D01*
X38458067Y-6030293D01*
X38605733Y-6222736D01*
X38605739Y-6222743D01*
X38777256Y-6394260D01*
X38777262Y-6394265D01*
X38969711Y-6541936D01*
X39179788Y-6663224D01*
X39403900Y-6756054D01*
X39638211Y-6818838D01*
X39818586Y-6842584D01*
X39878711Y-6850500D01*
X39878712Y-6850500D01*
X40121289Y-6850500D01*
X40169388Y-6844167D01*
X40361789Y-6818838D01*
X40596100Y-6756054D01*
X40820212Y-6663224D01*
X41030289Y-6541936D01*
X41222738Y-6394265D01*
X41394265Y-6222738D01*
X41541936Y-6030289D01*
X41663224Y-5820212D01*
X41756054Y-5596100D01*
X41818838Y-5361789D01*
X41850500Y-5121288D01*
X41850500Y-4878712D01*
X41850500Y-4878711D01*
X73149500Y-4878711D01*
X73149500Y-5121288D01*
X73181161Y-5361785D01*
X73243947Y-5596104D01*
X73336773Y-5820205D01*
X73336776Y-5820212D01*
X73458064Y-6030289D01*
X73458066Y-6030292D01*
X73458067Y-6030293D01*
X73605733Y-6222736D01*
X73605739Y-6222743D01*
X73777256Y-6394260D01*
X73777262Y-6394265D01*
X73969711Y-6541936D01*
X74179788Y-6663224D01*
X74403900Y-6756054D01*
X74638211Y-6818838D01*
X74818586Y-6842584D01*
X74878711Y-6850500D01*
X74878712Y-6850500D01*
X75121289Y-6850500D01*
X75169388Y-6844167D01*
X75361789Y-6818838D01*
X75596100Y-6756054D01*
X75820212Y-6663224D01*
X76030289Y-6541936D01*
X76222738Y-6394265D01*
X76394265Y-6222738D01*
X76541936Y-6030289D01*
X76663224Y-5820212D01*
X76756054Y-5596100D01*
X76818838Y-5361789D01*
X76850500Y-5121288D01*
X76850500Y-4878712D01*
X76818838Y-4638211D01*
X76756054Y-4403900D01*
X76663224Y-4179788D01*
X76541936Y-3969711D01*
X76394265Y-3777262D01*
X76394260Y-3777256D01*
X76222743Y-3605739D01*
X76222736Y-3605733D01*
X76030293Y-3458067D01*
X76030292Y-3458066D01*
X76030289Y-3458064D01*
X75820212Y-3336776D01*
X75820205Y-3336773D01*
X75596104Y-3243947D01*
X75361785Y-3181161D01*
X75121289Y-3149500D01*
X75121288Y-3149500D01*
X74878712Y-3149500D01*
X74878711Y-3149500D01*
X74638214Y-3181161D01*
X74403895Y-3243947D01*
X74179794Y-3336773D01*
X74179785Y-3336777D01*
X73969706Y-3458067D01*
X73777263Y-3605733D01*
X73777256Y-3605739D01*
X73605739Y-3777256D01*
X73605733Y-3777263D01*
X73458067Y-3969706D01*
X73336777Y-4179785D01*
X73336773Y-4179794D01*
X73243947Y-4403895D01*
X73181161Y-4638214D01*
X73149500Y-4878711D01*
X41850500Y-4878711D01*
X41818838Y-4638211D01*
X41756054Y-4403900D01*
X41663224Y-4179788D01*
X41541936Y-3969711D01*
X41394265Y-3777262D01*
X41394260Y-3777256D01*
X41222743Y-3605739D01*
X41222736Y-3605733D01*
X41030293Y-3458067D01*
X41030292Y-3458066D01*
X41030289Y-3458064D01*
X40820212Y-3336776D01*
X40820205Y-3336773D01*
X40596104Y-3243947D01*
X40361785Y-3181161D01*
X40121289Y-3149500D01*
X40121288Y-3149500D01*
X39878712Y-3149500D01*
X39878711Y-3149500D01*
X39638214Y-3181161D01*
X39403895Y-3243947D01*
X39179794Y-3336773D01*
X39179785Y-3336777D01*
X38969706Y-3458067D01*
X38777263Y-3605733D01*
X38777256Y-3605739D01*
X38605739Y-3777256D01*
X38605733Y-3777263D01*
X38458067Y-3969706D01*
X38336777Y-4179785D01*
X38336773Y-4179794D01*
X38243947Y-4403895D01*
X38181161Y-4638214D01*
X38149500Y-4878711D01*
X6850500Y-4878711D01*
X6818838Y-4638211D01*
X6756054Y-4403900D01*
X6663224Y-4179788D01*
X6541936Y-3969711D01*
X6394265Y-3777262D01*
X6394260Y-3777256D01*
X6222743Y-3605739D01*
X6222736Y-3605733D01*
X6030293Y-3458067D01*
X6030292Y-3458066D01*
X6030289Y-3458064D01*
X5820212Y-3336776D01*
X5820205Y-3336773D01*
X5596104Y-3243947D01*
X5361785Y-3181161D01*
X5121289Y-3149500D01*
X5121288Y-3149500D01*
X4878712Y-3149500D01*
X4878711Y-3149500D01*
X4638214Y-3181161D01*
X4403895Y-3243947D01*
X4179794Y-3336773D01*
X4179785Y-3336777D01*
X3969706Y-3458067D01*
X3777263Y-3605733D01*
X3777256Y-3605739D01*
X3605739Y-3777256D01*
X3605733Y-3777263D01*
X3458067Y-3969706D01*
X3336777Y-4179785D01*
X3336773Y-4179794D01*
X3243947Y-4403895D01*
X3181161Y-4638214D01*
X3149500Y-4878711D01*
X505796Y-4878711D01*
X517386Y-4613226D01*
X518326Y-4602495D01*
X568152Y-4224025D01*
X570025Y-4213405D01*
X652649Y-3840709D01*
X655440Y-3830295D01*
X770230Y-3466227D01*
X773917Y-3456095D01*
X920003Y-3103412D01*
X924561Y-3093638D01*
X1100822Y-2755045D01*
X1106217Y-2745700D01*
X1311325Y-2423744D01*
X1317515Y-2414905D01*
X1549896Y-2112060D01*
X1556834Y-2103791D01*
X1814726Y-1822352D01*
X1822352Y-1814726D01*
X2103791Y-1556834D01*
X2112060Y-1549896D01*
X2414905Y-1317515D01*
X2423744Y-1311325D01*
X2745700Y-1106217D01*
X2755045Y-1100822D01*
X3093638Y-924561D01*
X3103412Y-920003D01*
X3456095Y-773917D01*
X3466227Y-770230D01*
X3830295Y-655440D01*
X3840709Y-652649D01*
X4213405Y-570025D01*
X4224025Y-568152D01*
X4602495Y-518326D01*
X4613226Y-517386D01*
X4997297Y-500617D01*
X5002706Y-500500D01*
X5065892Y-500500D01*
X74934108Y-500500D01*
X74997294Y-500500D01*
X75002702Y-500617D01*
G37*
%TD.AperFunction*%
%TD*%
M02*
